M48
;DRILL file {KiCad 4.0.4-stable} date Monday, 09. January 2017 'u30' 17:30:27
;FORMAT={-:-/ absolute / metric / decimal}
FMAT,2
METRIC,TZ
T1C0.400
T2C0.635
T3C0.762
T4C1.000
%
G90
G05
M71
T1
X140.97Y-111.252
X141.478Y-107.95
X141.732Y-103.378
X142.748Y-112.268
X143.256Y-117.602
X143.764Y-108.712
X144.018Y-104.902
X144.78Y-106.934
X144.78Y-110.744
X145.288Y-113.03
X146.05Y-103.124
X146.304Y-108.712
X146.812Y-111.76
X147.574Y-106.68
X148.844Y-105.156
X148.844Y-109.728
X149.098Y-102.87
X150.368Y-112.522
X150.876Y-109.22
X151.638Y-107.442
X151.892Y-103.886
X152.908Y-110.236
X153.67Y-104.394
T2
X141.224Y-117.856
T3
X141.224Y-84.074
X141.224Y-86.614
X141.224Y-89.154
X141.224Y-94.234
X141.224Y-96.774
X141.224Y-122.174
X141.224Y-124.714
X141.224Y-127.254
X151.384Y-91.694
X151.384Y-94.234
X151.384Y-96.774
X153.924Y-91.694
X153.924Y-94.234
X153.924Y-96.774
X156.464Y-84.074
X156.464Y-86.614
X156.464Y-89.154
X156.464Y-96.774
X156.464Y-99.314
X156.464Y-101.854
X156.464Y-104.394
X156.464Y-106.934
X156.464Y-109.474
X156.464Y-112.014
T4
X142.24Y-81.026
X144.78Y-81.026
X147.32Y-81.026
X149.86Y-81.026
X152.4Y-81.026
X154.94Y-81.026
T0
M30
