G04 #@! TF.FileFunction,Legend,Top*
%FSLAX46Y46*%
G04 Gerber Fmt 4.6, Leading zero omitted, Abs format (unit mm)*
G04 Created by KiCad (PCBNEW 4.0.4-stable) date Monday, 09. January 2017 'u29' 17:29:47*
%MOMM*%
%LPD*%
G01*
G04 APERTURE LIST*
%ADD10C,0.200000*%
%ADD11C,0.150000*%
%ADD12C,0.300000*%
%ADD13C,0.120000*%
G04 APERTURE END LIST*
D10*
D11*
X139757143Y-88449238D02*
X139719048Y-88563524D01*
X139680952Y-88601619D01*
X139604762Y-88639714D01*
X139490476Y-88639714D01*
X139414286Y-88601619D01*
X139376190Y-88563524D01*
X139338095Y-88487333D01*
X139338095Y-88182571D01*
X140138095Y-88182571D01*
X140138095Y-88449238D01*
X140100000Y-88525428D01*
X140061905Y-88563524D01*
X139985714Y-88601619D01*
X139909524Y-88601619D01*
X139833333Y-88563524D01*
X139795238Y-88525428D01*
X139757143Y-88449238D01*
X139757143Y-88182571D01*
X139338095Y-89401619D02*
X139338095Y-88944476D01*
X139338095Y-89173047D02*
X140138095Y-89173047D01*
X140023810Y-89096857D01*
X139947619Y-89020666D01*
X139909524Y-88944476D01*
X140138095Y-90125429D02*
X140138095Y-89744476D01*
X139757143Y-89706381D01*
X139795238Y-89744476D01*
X139833333Y-89820667D01*
X139833333Y-90011143D01*
X139795238Y-90087333D01*
X139757143Y-90125429D01*
X139680952Y-90163524D01*
X139490476Y-90163524D01*
X139414286Y-90125429D01*
X139376190Y-90087333D01*
X139338095Y-90011143D01*
X139338095Y-89820667D01*
X139376190Y-89744476D01*
X139414286Y-89706381D01*
X140100000Y-127463524D02*
X140138095Y-127387333D01*
X140138095Y-127273048D01*
X140100000Y-127158762D01*
X140023810Y-127082571D01*
X139947619Y-127044476D01*
X139795238Y-127006381D01*
X139680952Y-127006381D01*
X139528571Y-127044476D01*
X139452381Y-127082571D01*
X139376190Y-127158762D01*
X139338095Y-127273048D01*
X139338095Y-127349238D01*
X139376190Y-127463524D01*
X139414286Y-127501619D01*
X139680952Y-127501619D01*
X139680952Y-127349238D01*
X158121333Y-112585428D02*
X158121333Y-112204476D01*
X158349905Y-112661619D02*
X157549905Y-112394952D01*
X158349905Y-112128285D01*
X157549905Y-111937809D02*
X157549905Y-111442571D01*
X157854667Y-111709238D01*
X157854667Y-111594952D01*
X157892762Y-111518762D01*
X157930857Y-111480666D01*
X158007048Y-111442571D01*
X158197524Y-111442571D01*
X158273714Y-111480666D01*
X158311810Y-111518762D01*
X158349905Y-111594952D01*
X158349905Y-111823524D01*
X158311810Y-111899714D01*
X158273714Y-111937809D01*
X157930857Y-97097809D02*
X157968952Y-96983523D01*
X158007048Y-96945428D01*
X158083238Y-96907333D01*
X158197524Y-96907333D01*
X158273714Y-96945428D01*
X158311810Y-96983523D01*
X158349905Y-97059714D01*
X158349905Y-97364476D01*
X157549905Y-97364476D01*
X157549905Y-97097809D01*
X157588000Y-97021619D01*
X157626095Y-96983523D01*
X157702286Y-96945428D01*
X157778476Y-96945428D01*
X157854667Y-96983523D01*
X157892762Y-97021619D01*
X157930857Y-97097809D01*
X157930857Y-97364476D01*
X158349905Y-96145428D02*
X158349905Y-96602571D01*
X158349905Y-96374000D02*
X157549905Y-96374000D01*
X157664190Y-96450190D01*
X157740381Y-96526381D01*
X157778476Y-96602571D01*
X157930857Y-99637809D02*
X157968952Y-99523523D01*
X158007048Y-99485428D01*
X158083238Y-99447333D01*
X158197524Y-99447333D01*
X158273714Y-99485428D01*
X158311810Y-99523523D01*
X158349905Y-99599714D01*
X158349905Y-99904476D01*
X157549905Y-99904476D01*
X157549905Y-99637809D01*
X157588000Y-99561619D01*
X157626095Y-99523523D01*
X157702286Y-99485428D01*
X157778476Y-99485428D01*
X157854667Y-99523523D01*
X157892762Y-99561619D01*
X157930857Y-99637809D01*
X157930857Y-99904476D01*
X157549905Y-98952095D02*
X157549905Y-98875904D01*
X157588000Y-98799714D01*
X157626095Y-98761619D01*
X157702286Y-98723523D01*
X157854667Y-98685428D01*
X158045143Y-98685428D01*
X158197524Y-98723523D01*
X158273714Y-98761619D01*
X158311810Y-98799714D01*
X158349905Y-98875904D01*
X158349905Y-98952095D01*
X158311810Y-99028285D01*
X158273714Y-99066381D01*
X158197524Y-99104476D01*
X158045143Y-99142571D01*
X157854667Y-99142571D01*
X157702286Y-99104476D01*
X157626095Y-99066381D01*
X157588000Y-99028285D01*
X157549905Y-98952095D01*
X139566667Y-116941715D02*
X139566667Y-117322667D01*
X139338095Y-116865524D02*
X140138095Y-117132191D01*
X139338095Y-117398858D01*
X139338095Y-117665524D02*
X140138095Y-117665524D01*
X139338095Y-118122667D01*
X140138095Y-118122667D01*
X140138095Y-118389333D02*
X140138095Y-118846476D01*
X139338095Y-118617905D02*
X140138095Y-118617905D01*
X158121333Y-110045428D02*
X158121333Y-109664476D01*
X158349905Y-110121619D02*
X157549905Y-109854952D01*
X158349905Y-109588285D01*
X157816571Y-108978762D02*
X158349905Y-108978762D01*
X157511810Y-109169238D02*
X158083238Y-109359714D01*
X158083238Y-108864476D01*
X158121333Y-107505428D02*
X158121333Y-107124476D01*
X158349905Y-107581619D02*
X157549905Y-107314952D01*
X158349905Y-107048285D01*
X157549905Y-106400666D02*
X157549905Y-106781619D01*
X157930857Y-106819714D01*
X157892762Y-106781619D01*
X157854667Y-106705428D01*
X157854667Y-106514952D01*
X157892762Y-106438762D01*
X157930857Y-106400666D01*
X158007048Y-106362571D01*
X158197524Y-106362571D01*
X158273714Y-106400666D01*
X158311810Y-106438762D01*
X158349905Y-106514952D01*
X158349905Y-106705428D01*
X158311810Y-106781619D01*
X158273714Y-106819714D01*
X158121333Y-104965428D02*
X158121333Y-104584476D01*
X158349905Y-105041619D02*
X157549905Y-104774952D01*
X158349905Y-104508285D01*
X157549905Y-103898762D02*
X157549905Y-104051143D01*
X157588000Y-104127333D01*
X157626095Y-104165428D01*
X157740381Y-104241619D01*
X157892762Y-104279714D01*
X158197524Y-104279714D01*
X158273714Y-104241619D01*
X158311810Y-104203524D01*
X158349905Y-104127333D01*
X158349905Y-103974952D01*
X158311810Y-103898762D01*
X158273714Y-103860666D01*
X158197524Y-103822571D01*
X158007048Y-103822571D01*
X157930857Y-103860666D01*
X157892762Y-103898762D01*
X157854667Y-103974952D01*
X157854667Y-104127333D01*
X157892762Y-104203524D01*
X157930857Y-104241619D01*
X158007048Y-104279714D01*
X158121333Y-102425428D02*
X158121333Y-102044476D01*
X158349905Y-102501619D02*
X157549905Y-102234952D01*
X158349905Y-101968285D01*
X157549905Y-101777809D02*
X157549905Y-101244476D01*
X158349905Y-101587333D01*
X158349905Y-89592095D02*
X157968952Y-89858762D01*
X158349905Y-90049238D02*
X157549905Y-90049238D01*
X157549905Y-89744476D01*
X157588000Y-89668285D01*
X157626095Y-89630190D01*
X157702286Y-89592095D01*
X157816571Y-89592095D01*
X157892762Y-89630190D01*
X157930857Y-89668285D01*
X157968952Y-89744476D01*
X157968952Y-90049238D01*
X158311810Y-89287333D02*
X158349905Y-89173047D01*
X158349905Y-88982571D01*
X158311810Y-88906381D01*
X158273714Y-88868285D01*
X158197524Y-88830190D01*
X158121333Y-88830190D01*
X158045143Y-88868285D01*
X158007048Y-88906381D01*
X157968952Y-88982571D01*
X157930857Y-89134952D01*
X157892762Y-89211143D01*
X157854667Y-89249238D01*
X157778476Y-89287333D01*
X157702286Y-89287333D01*
X157626095Y-89249238D01*
X157588000Y-89211143D01*
X157549905Y-89134952D01*
X157549905Y-88944476D01*
X157588000Y-88830190D01*
X157549905Y-88601619D02*
X157549905Y-88144476D01*
X158349905Y-88373047D02*
X157549905Y-88373047D01*
X157549905Y-87604476D02*
X157549905Y-87109238D01*
X157854667Y-87375905D01*
X157854667Y-87261619D01*
X157892762Y-87185429D01*
X157930857Y-87147333D01*
X158007048Y-87109238D01*
X158197524Y-87109238D01*
X158273714Y-87147333D01*
X158311810Y-87185429D01*
X158349905Y-87261619D01*
X158349905Y-87490191D01*
X158311810Y-87566381D01*
X158273714Y-87604476D01*
X157549905Y-86880667D02*
X158349905Y-86614000D01*
X157549905Y-86347333D01*
X157549905Y-86156857D02*
X157549905Y-85661619D01*
X157854667Y-85928286D01*
X157854667Y-85814000D01*
X157892762Y-85737810D01*
X157930857Y-85699714D01*
X158007048Y-85661619D01*
X158197524Y-85661619D01*
X158273714Y-85699714D01*
X158311810Y-85737810D01*
X158349905Y-85814000D01*
X158349905Y-86042572D01*
X158311810Y-86118762D01*
X158273714Y-86156857D01*
X157588000Y-83864476D02*
X157549905Y-83940667D01*
X157549905Y-84054952D01*
X157588000Y-84169238D01*
X157664190Y-84245429D01*
X157740381Y-84283524D01*
X157892762Y-84321619D01*
X158007048Y-84321619D01*
X158159429Y-84283524D01*
X158235619Y-84245429D01*
X158311810Y-84169238D01*
X158349905Y-84054952D01*
X158349905Y-83978762D01*
X158311810Y-83864476D01*
X158273714Y-83826381D01*
X158007048Y-83826381D01*
X158007048Y-83978762D01*
X139757143Y-83369238D02*
X139719048Y-83483524D01*
X139680952Y-83521619D01*
X139604762Y-83559714D01*
X139490476Y-83559714D01*
X139414286Y-83521619D01*
X139376190Y-83483524D01*
X139338095Y-83407333D01*
X139338095Y-83102571D01*
X140138095Y-83102571D01*
X140138095Y-83369238D01*
X140100000Y-83445428D01*
X140061905Y-83483524D01*
X139985714Y-83521619D01*
X139909524Y-83521619D01*
X139833333Y-83483524D01*
X139795238Y-83445428D01*
X139757143Y-83369238D01*
X139757143Y-83102571D01*
X139338095Y-84321619D02*
X139338095Y-83864476D01*
X139338095Y-84093047D02*
X140138095Y-84093047D01*
X140023810Y-84016857D01*
X139947619Y-83940666D01*
X139909524Y-83864476D01*
X140138095Y-84588286D02*
X140138095Y-85083524D01*
X139833333Y-84816857D01*
X139833333Y-84931143D01*
X139795238Y-85007333D01*
X139757143Y-85045429D01*
X139680952Y-85083524D01*
X139490476Y-85083524D01*
X139414286Y-85045429D01*
X139376190Y-85007333D01*
X139338095Y-84931143D01*
X139338095Y-84702571D01*
X139376190Y-84626381D01*
X139414286Y-84588286D01*
X139757143Y-85909238D02*
X139719048Y-86023524D01*
X139680952Y-86061619D01*
X139604762Y-86099714D01*
X139490476Y-86099714D01*
X139414286Y-86061619D01*
X139376190Y-86023524D01*
X139338095Y-85947333D01*
X139338095Y-85642571D01*
X140138095Y-85642571D01*
X140138095Y-85909238D01*
X140100000Y-85985428D01*
X140061905Y-86023524D01*
X139985714Y-86061619D01*
X139909524Y-86061619D01*
X139833333Y-86023524D01*
X139795238Y-85985428D01*
X139757143Y-85909238D01*
X139757143Y-85642571D01*
X139338095Y-86861619D02*
X139338095Y-86404476D01*
X139338095Y-86633047D02*
X140138095Y-86633047D01*
X140023810Y-86556857D01*
X139947619Y-86480666D01*
X139909524Y-86404476D01*
X139871429Y-87547333D02*
X139338095Y-87547333D01*
X140176190Y-87356857D02*
X139604762Y-87166381D01*
X139604762Y-87661619D01*
X139566667Y-93662572D02*
X139566667Y-94043524D01*
X139338095Y-93586381D02*
X140138095Y-93853048D01*
X139338095Y-94119715D01*
X139338095Y-94424476D02*
X139338095Y-94576857D01*
X139376190Y-94653048D01*
X139414286Y-94691143D01*
X139528571Y-94767334D01*
X139680952Y-94805429D01*
X139985714Y-94805429D01*
X140061905Y-94767334D01*
X140100000Y-94729238D01*
X140138095Y-94653048D01*
X140138095Y-94500667D01*
X140100000Y-94424476D01*
X140061905Y-94386381D01*
X139985714Y-94348286D01*
X139795238Y-94348286D01*
X139719048Y-94386381D01*
X139680952Y-94424476D01*
X139642857Y-94500667D01*
X139642857Y-94653048D01*
X139680952Y-94729238D01*
X139719048Y-94767334D01*
X139795238Y-94805429D01*
X139566667Y-95821619D02*
X139566667Y-96202571D01*
X139338095Y-95745428D02*
X140138095Y-96012095D01*
X139338095Y-96278762D01*
X139338095Y-96964476D02*
X139338095Y-96507333D01*
X139338095Y-96735904D02*
X140138095Y-96735904D01*
X140023810Y-96659714D01*
X139947619Y-96583523D01*
X139909524Y-96507333D01*
X140138095Y-97459714D02*
X140138095Y-97535905D01*
X140100000Y-97612095D01*
X140061905Y-97650190D01*
X139985714Y-97688286D01*
X139833333Y-97726381D01*
X139642857Y-97726381D01*
X139490476Y-97688286D01*
X139414286Y-97650190D01*
X139376190Y-97612095D01*
X139338095Y-97535905D01*
X139338095Y-97459714D01*
X139376190Y-97383524D01*
X139414286Y-97345428D01*
X139490476Y-97307333D01*
X139642857Y-97269238D01*
X139833333Y-97269238D01*
X139985714Y-97307333D01*
X140061905Y-97345428D01*
X140100000Y-97383524D01*
X140138095Y-97459714D01*
X140138095Y-124561620D02*
X140138095Y-124180667D01*
X139757143Y-124142572D01*
X139795238Y-124180667D01*
X139833333Y-124256858D01*
X139833333Y-124447334D01*
X139795238Y-124523524D01*
X139757143Y-124561620D01*
X139680952Y-124599715D01*
X139490476Y-124599715D01*
X139414286Y-124561620D01*
X139376190Y-124523524D01*
X139338095Y-124447334D01*
X139338095Y-124256858D01*
X139376190Y-124180667D01*
X139414286Y-124142572D01*
X140138095Y-124828286D02*
X139338095Y-125094953D01*
X140138095Y-125361620D01*
X139757143Y-121850191D02*
X139719048Y-121964477D01*
X139680952Y-122002572D01*
X139604762Y-122040667D01*
X139490476Y-122040667D01*
X139414286Y-122002572D01*
X139376190Y-121964477D01*
X139338095Y-121888286D01*
X139338095Y-121583524D01*
X140138095Y-121583524D01*
X140138095Y-121850191D01*
X140100000Y-121926381D01*
X140061905Y-121964477D01*
X139985714Y-122002572D01*
X139909524Y-122002572D01*
X139833333Y-121964477D01*
X139795238Y-121926381D01*
X139757143Y-121850191D01*
X139757143Y-121583524D01*
X139338095Y-122421619D02*
X139338095Y-122574000D01*
X139376190Y-122650191D01*
X139414286Y-122688286D01*
X139528571Y-122764477D01*
X139680952Y-122802572D01*
X139985714Y-122802572D01*
X140061905Y-122764477D01*
X140100000Y-122726381D01*
X140138095Y-122650191D01*
X140138095Y-122497810D01*
X140100000Y-122421619D01*
X140061905Y-122383524D01*
X139985714Y-122345429D01*
X139795238Y-122345429D01*
X139719048Y-122383524D01*
X139680952Y-122421619D01*
X139642857Y-122497810D01*
X139642857Y-122650191D01*
X139680952Y-122726381D01*
X139719048Y-122764477D01*
X139795238Y-122802572D01*
X143148095Y-86804419D02*
X143529048Y-86537752D01*
X143148095Y-86347276D02*
X143948095Y-86347276D01*
X143948095Y-86652038D01*
X143910000Y-86728229D01*
X143871905Y-86766324D01*
X143795714Y-86804419D01*
X143681429Y-86804419D01*
X143605238Y-86766324D01*
X143567143Y-86728229D01*
X143529048Y-86652038D01*
X143529048Y-86347276D01*
X143186190Y-87452038D02*
X143148095Y-87375848D01*
X143148095Y-87223467D01*
X143186190Y-87147276D01*
X143262381Y-87109181D01*
X143567143Y-87109181D01*
X143643333Y-87147276D01*
X143681429Y-87223467D01*
X143681429Y-87375848D01*
X143643333Y-87452038D01*
X143567143Y-87490133D01*
X143490952Y-87490133D01*
X143414762Y-87109181D01*
X143681429Y-87756800D02*
X143148095Y-87947276D01*
X143681429Y-88137752D01*
X143148095Y-89471086D02*
X143148095Y-89013943D01*
X143148095Y-89242514D02*
X143948095Y-89242514D01*
X143833810Y-89166324D01*
X143757619Y-89090133D01*
X143719524Y-89013943D01*
X143452857Y-90423467D02*
X143452857Y-91032991D01*
X143871905Y-91985372D02*
X143910000Y-92023467D01*
X143948095Y-92099658D01*
X143948095Y-92290134D01*
X143910000Y-92366324D01*
X143871905Y-92404420D01*
X143795714Y-92442515D01*
X143719524Y-92442515D01*
X143605238Y-92404420D01*
X143148095Y-91947277D01*
X143148095Y-92442515D01*
X143948095Y-92937753D02*
X143948095Y-93013944D01*
X143910000Y-93090134D01*
X143871905Y-93128229D01*
X143795714Y-93166325D01*
X143643333Y-93204420D01*
X143452857Y-93204420D01*
X143300476Y-93166325D01*
X143224286Y-93128229D01*
X143186190Y-93090134D01*
X143148095Y-93013944D01*
X143148095Y-92937753D01*
X143186190Y-92861563D01*
X143224286Y-92823467D01*
X143300476Y-92785372D01*
X143452857Y-92747277D01*
X143643333Y-92747277D01*
X143795714Y-92785372D01*
X143871905Y-92823467D01*
X143910000Y-92861563D01*
X143948095Y-92937753D01*
X143148095Y-93966325D02*
X143148095Y-93509182D01*
X143148095Y-93737753D02*
X143948095Y-93737753D01*
X143833810Y-93661563D01*
X143757619Y-93585372D01*
X143719524Y-93509182D01*
X143948095Y-94652039D02*
X143948095Y-94499658D01*
X143910000Y-94423468D01*
X143871905Y-94385373D01*
X143757619Y-94309182D01*
X143605238Y-94271087D01*
X143300476Y-94271087D01*
X143224286Y-94309182D01*
X143186190Y-94347277D01*
X143148095Y-94423468D01*
X143148095Y-94575849D01*
X143186190Y-94652039D01*
X143224286Y-94690135D01*
X143300476Y-94728230D01*
X143490952Y-94728230D01*
X143567143Y-94690135D01*
X143605238Y-94652039D01*
X143643333Y-94575849D01*
X143643333Y-94423468D01*
X143605238Y-94347277D01*
X143567143Y-94309182D01*
X143490952Y-94271087D01*
X143986190Y-95642516D02*
X142957619Y-94956801D01*
X143948095Y-96061563D02*
X143948095Y-96137754D01*
X143910000Y-96213944D01*
X143871905Y-96252039D01*
X143795714Y-96290135D01*
X143643333Y-96328230D01*
X143452857Y-96328230D01*
X143300476Y-96290135D01*
X143224286Y-96252039D01*
X143186190Y-96213944D01*
X143148095Y-96137754D01*
X143148095Y-96061563D01*
X143186190Y-95985373D01*
X143224286Y-95947277D01*
X143300476Y-95909182D01*
X143452857Y-95871087D01*
X143643333Y-95871087D01*
X143795714Y-95909182D01*
X143871905Y-95947277D01*
X143910000Y-95985373D01*
X143948095Y-96061563D01*
X143148095Y-97090135D02*
X143148095Y-96632992D01*
X143148095Y-96861563D02*
X143948095Y-96861563D01*
X143833810Y-96785373D01*
X143757619Y-96709182D01*
X143719524Y-96632992D01*
D12*
X145134000Y-86848857D02*
X145067333Y-87034571D01*
X145000667Y-87096476D01*
X144867333Y-87158381D01*
X144667333Y-87158381D01*
X144534000Y-87096476D01*
X144467333Y-87034571D01*
X144400667Y-86910762D01*
X144400667Y-86415524D01*
X145800667Y-86415524D01*
X145800667Y-86848857D01*
X145734000Y-86972667D01*
X145667333Y-87034571D01*
X145534000Y-87096476D01*
X145400667Y-87096476D01*
X145267333Y-87034571D01*
X145200667Y-86972667D01*
X145134000Y-86848857D01*
X145134000Y-86415524D01*
X144400667Y-87715524D02*
X145800667Y-87715524D01*
X145800667Y-88210762D01*
X145734000Y-88334571D01*
X145667333Y-88396476D01*
X145534000Y-88458381D01*
X145334000Y-88458381D01*
X145200667Y-88396476D01*
X145134000Y-88334571D01*
X145067333Y-88210762D01*
X145067333Y-87715524D01*
X145134000Y-90006000D02*
X145134000Y-90439333D01*
X144400667Y-90625047D02*
X144400667Y-90006000D01*
X145800667Y-90006000D01*
X145800667Y-90625047D01*
X144400667Y-91058380D02*
X145334000Y-91739333D01*
X145334000Y-91058380D02*
X144400667Y-91739333D01*
X145334000Y-92048857D02*
X145334000Y-92544095D01*
X145800667Y-92234571D02*
X144600667Y-92234571D01*
X144467333Y-92296476D01*
X144400667Y-92420285D01*
X144400667Y-92544095D01*
X144467333Y-93472666D02*
X144400667Y-93348856D01*
X144400667Y-93101237D01*
X144467333Y-92977428D01*
X144600667Y-92915523D01*
X145134000Y-92915523D01*
X145267333Y-92977428D01*
X145334000Y-93101237D01*
X145334000Y-93348856D01*
X145267333Y-93472666D01*
X145134000Y-93534571D01*
X145000667Y-93534571D01*
X144867333Y-92915523D01*
X145334000Y-94091714D02*
X144400667Y-94091714D01*
X145200667Y-94091714D02*
X145267333Y-94153619D01*
X145334000Y-94277428D01*
X145334000Y-94463142D01*
X145267333Y-94586952D01*
X145134000Y-94648857D01*
X144400667Y-94648857D01*
X144400667Y-95825047D02*
X145800667Y-95825047D01*
X144467333Y-95825047D02*
X144400667Y-95701237D01*
X144400667Y-95453618D01*
X144467333Y-95329809D01*
X144534000Y-95267904D01*
X144667333Y-95205999D01*
X145067333Y-95205999D01*
X145200667Y-95267904D01*
X145267333Y-95329809D01*
X145334000Y-95453618D01*
X145334000Y-95701237D01*
X145267333Y-95825047D01*
X144467333Y-96939332D02*
X144400667Y-96815522D01*
X144400667Y-96567903D01*
X144467333Y-96444094D01*
X144600667Y-96382189D01*
X145134000Y-96382189D01*
X145267333Y-96444094D01*
X145334000Y-96567903D01*
X145334000Y-96815522D01*
X145267333Y-96939332D01*
X145134000Y-97001237D01*
X145000667Y-97001237D01*
X144867333Y-96382189D01*
X144400667Y-97558380D02*
X145334000Y-97558380D01*
X145067333Y-97558380D02*
X145200667Y-97620285D01*
X145267333Y-97682189D01*
X145334000Y-97805999D01*
X145334000Y-97929808D01*
D13*
X140850000Y-79746000D02*
X143510000Y-79746000D01*
X143510000Y-79746000D02*
X143510000Y-77006000D01*
X143510000Y-77006000D02*
X140850000Y-77006000D01*
X140850000Y-77006000D02*
X140850000Y-79746000D01*
X141800000Y-77006000D02*
X142680000Y-77006000D01*
X142680000Y-77006000D02*
X142680000Y-71006000D01*
X142680000Y-71006000D02*
X141800000Y-71006000D01*
X141800000Y-71006000D02*
X141800000Y-77006000D01*
X141800000Y-80056000D02*
X141800000Y-79746000D01*
X142680000Y-80056000D02*
X142680000Y-79746000D01*
X141920000Y-77006000D02*
X141920000Y-71006000D01*
X142040000Y-77006000D02*
X142040000Y-71006000D01*
X142160000Y-77006000D02*
X142160000Y-71006000D01*
X142280000Y-77006000D02*
X142280000Y-71006000D01*
X142400000Y-77006000D02*
X142400000Y-71006000D01*
X142520000Y-77006000D02*
X142520000Y-71006000D01*
X142640000Y-77006000D02*
X142640000Y-71006000D01*
X143510000Y-79746000D02*
X146050000Y-79746000D01*
X146050000Y-79746000D02*
X146050000Y-77006000D01*
X146050000Y-77006000D02*
X143510000Y-77006000D01*
X143510000Y-77006000D02*
X143510000Y-79746000D01*
X144340000Y-77006000D02*
X145220000Y-77006000D01*
X145220000Y-77006000D02*
X145220000Y-71006000D01*
X145220000Y-71006000D02*
X144340000Y-71006000D01*
X144340000Y-71006000D02*
X144340000Y-77006000D01*
X144340000Y-80056000D02*
X144340000Y-79746000D01*
X145220000Y-80056000D02*
X145220000Y-79746000D01*
X146050000Y-79746000D02*
X148590000Y-79746000D01*
X148590000Y-79746000D02*
X148590000Y-77006000D01*
X148590000Y-77006000D02*
X146050000Y-77006000D01*
X146050000Y-77006000D02*
X146050000Y-79746000D01*
X146880000Y-77006000D02*
X147760000Y-77006000D01*
X147760000Y-77006000D02*
X147760000Y-71006000D01*
X147760000Y-71006000D02*
X146880000Y-71006000D01*
X146880000Y-71006000D02*
X146880000Y-77006000D01*
X146880000Y-80056000D02*
X146880000Y-79746000D01*
X147760000Y-80056000D02*
X147760000Y-79746000D01*
X148590000Y-79746000D02*
X151130000Y-79746000D01*
X151130000Y-79746000D02*
X151130000Y-77006000D01*
X151130000Y-77006000D02*
X148590000Y-77006000D01*
X148590000Y-77006000D02*
X148590000Y-79746000D01*
X149420000Y-77006000D02*
X150300000Y-77006000D01*
X150300000Y-77006000D02*
X150300000Y-71006000D01*
X150300000Y-71006000D02*
X149420000Y-71006000D01*
X149420000Y-71006000D02*
X149420000Y-77006000D01*
X149420000Y-80056000D02*
X149420000Y-79746000D01*
X150300000Y-80056000D02*
X150300000Y-79746000D01*
X151130000Y-79746000D02*
X153670000Y-79746000D01*
X153670000Y-79746000D02*
X153670000Y-77006000D01*
X153670000Y-77006000D02*
X151130000Y-77006000D01*
X151130000Y-77006000D02*
X151130000Y-79746000D01*
X151960000Y-77006000D02*
X152840000Y-77006000D01*
X152840000Y-77006000D02*
X152840000Y-71006000D01*
X152840000Y-71006000D02*
X151960000Y-71006000D01*
X151960000Y-71006000D02*
X151960000Y-77006000D01*
X151960000Y-80056000D02*
X151960000Y-79746000D01*
X152840000Y-80056000D02*
X152840000Y-79746000D01*
X153670000Y-79746000D02*
X156330000Y-79746000D01*
X156330000Y-79746000D02*
X156330000Y-77006000D01*
X156330000Y-77006000D02*
X153670000Y-77006000D01*
X153670000Y-77006000D02*
X153670000Y-79746000D01*
X154500000Y-77006000D02*
X155380000Y-77006000D01*
X155380000Y-77006000D02*
X155380000Y-71006000D01*
X155380000Y-71006000D02*
X154500000Y-71006000D01*
X154500000Y-71006000D02*
X154500000Y-77006000D01*
X154500000Y-80056000D02*
X154500000Y-79746000D01*
X155380000Y-80056000D02*
X155380000Y-79746000D01*
X142240000Y-82296000D02*
X140970000Y-82296000D01*
X140970000Y-82296000D02*
X140970000Y-81026000D01*
D11*
X149832000Y-96584000D02*
X149732000Y-96584000D01*
X146332000Y-96584000D02*
X146432000Y-96584000D01*
X146432000Y-91884000D02*
X146332000Y-91884000D01*
X149832000Y-91884000D02*
X149732000Y-91884000D01*
X148432000Y-91884000D02*
X147732000Y-91884000D01*
X148432000Y-96584000D02*
X147732000Y-96584000D01*
X149832000Y-96584000D02*
X149832000Y-91884000D01*
X146332000Y-91884000D02*
X146332000Y-96584000D01*
X148982000Y-94234000D02*
G75*
G03X148982000Y-94234000I-900000J0D01*
G01*
D13*
X142027219Y-117856000D02*
G75*
G03X142027219Y-117856000I-803219J0D01*
G01*
D11*
X155956000Y-120142000D02*
X152908000Y-120142000D01*
X155956000Y-118618000D02*
X152908000Y-118618000D01*
X155956000Y-121666000D02*
X155956000Y-117094000D01*
X157734000Y-121666000D02*
X157734000Y-117094000D01*
X152908000Y-117094000D02*
X152908000Y-121666000D01*
X155956000Y-118618000D02*
X157734000Y-118618000D01*
X155956000Y-120142000D02*
X157734000Y-120142000D01*
X157734000Y-117094000D02*
X152908000Y-117094000D01*
X152908000Y-121666000D02*
X157734000Y-121666000D01*
X149860000Y-112141000D02*
X149860000Y-110236000D01*
X146685000Y-112141000D02*
X149860000Y-112141000D01*
X146685000Y-110236000D02*
X146685000Y-112141000D01*
X149860000Y-110236000D02*
X146685000Y-110236000D01*
X149860000Y-108331000D02*
X149860000Y-103251000D01*
X144145000Y-108331000D02*
X149860000Y-108331000D01*
X144145000Y-103251000D02*
X144145000Y-108331000D01*
X149860000Y-103251000D02*
X144145000Y-103251000D01*
X140335000Y-115316000D02*
G75*
G03X140335000Y-115316000I-635000J0D01*
G01*
X155320000Y-115696000D02*
X155320000Y-99696000D01*
X139320000Y-115696000D02*
X155320000Y-115696000D01*
X139320000Y-99696000D02*
X139320000Y-115696000D01*
X155320000Y-99696000D02*
X139320000Y-99696000D01*
X152849000Y-87980000D02*
X152849000Y-85980000D01*
X154999000Y-85980000D02*
X154999000Y-87980000D01*
X152459000Y-85980000D02*
X152459000Y-87980000D01*
X150309000Y-87980000D02*
X150309000Y-85980000D01*
X144828000Y-84591000D02*
X146828000Y-84591000D01*
X146828000Y-82541000D02*
X144828000Y-82541000D01*
X145044000Y-79264000D02*
X145044000Y-83764000D01*
X145044000Y-83764000D02*
X152644000Y-83764000D01*
X152644000Y-83764000D02*
X152644000Y-79264000D01*
X137594000Y-79164000D02*
X160094000Y-79164000D01*
X160094000Y-79164000D02*
X160094000Y-132164000D01*
X160094000Y-132164000D02*
X137594000Y-132164000D01*
X137594000Y-132164000D02*
X137594000Y-79164000D01*
X153289143Y-121356381D02*
X153479619Y-121356381D01*
X153574858Y-121308762D01*
X153622477Y-121261143D01*
X153717715Y-121118286D01*
X153765334Y-120927810D01*
X153765334Y-120546857D01*
X153717715Y-120451619D01*
X153670096Y-120404000D01*
X153574858Y-120356381D01*
X153384381Y-120356381D01*
X153289143Y-120404000D01*
X153241524Y-120451619D01*
X153193905Y-120546857D01*
X153193905Y-120784952D01*
X153241524Y-120880190D01*
X153289143Y-120927810D01*
X153384381Y-120975429D01*
X153574858Y-120975429D01*
X153670096Y-120927810D01*
X153717715Y-120880190D01*
X153765334Y-120784952D01*
X154717715Y-121356381D02*
X154146286Y-121356381D01*
X154432000Y-121356381D02*
X154432000Y-120356381D01*
X154336762Y-120499238D01*
X154241524Y-120594476D01*
X154146286Y-120642095D01*
X155622477Y-120356381D02*
X155146286Y-120356381D01*
X155098667Y-120832571D01*
X155146286Y-120784952D01*
X155241524Y-120737333D01*
X155479620Y-120737333D01*
X155574858Y-120784952D01*
X155622477Y-120832571D01*
X155670096Y-120927810D01*
X155670096Y-121165905D01*
X155622477Y-121261143D01*
X155574858Y-121308762D01*
X155479620Y-121356381D01*
X155241524Y-121356381D01*
X155146286Y-121308762D01*
X155098667Y-121261143D01*
X153384381Y-119260952D02*
X153289143Y-119213333D01*
X153241524Y-119165714D01*
X153193905Y-119070476D01*
X153193905Y-119022857D01*
X153241524Y-118927619D01*
X153289143Y-118880000D01*
X153384381Y-118832381D01*
X153574858Y-118832381D01*
X153670096Y-118880000D01*
X153717715Y-118927619D01*
X153765334Y-119022857D01*
X153765334Y-119070476D01*
X153717715Y-119165714D01*
X153670096Y-119213333D01*
X153574858Y-119260952D01*
X153384381Y-119260952D01*
X153289143Y-119308571D01*
X153241524Y-119356190D01*
X153193905Y-119451429D01*
X153193905Y-119641905D01*
X153241524Y-119737143D01*
X153289143Y-119784762D01*
X153384381Y-119832381D01*
X153574858Y-119832381D01*
X153670096Y-119784762D01*
X153717715Y-119737143D01*
X153765334Y-119641905D01*
X153765334Y-119451429D01*
X153717715Y-119356190D01*
X153670096Y-119308571D01*
X153574858Y-119260952D01*
X154622477Y-118832381D02*
X154432000Y-118832381D01*
X154336762Y-118880000D01*
X154289143Y-118927619D01*
X154193905Y-119070476D01*
X154146286Y-119260952D01*
X154146286Y-119641905D01*
X154193905Y-119737143D01*
X154241524Y-119784762D01*
X154336762Y-119832381D01*
X154527239Y-119832381D01*
X154622477Y-119784762D01*
X154670096Y-119737143D01*
X154717715Y-119641905D01*
X154717715Y-119403810D01*
X154670096Y-119308571D01*
X154622477Y-119260952D01*
X154527239Y-119213333D01*
X154336762Y-119213333D01*
X154241524Y-119260952D01*
X154193905Y-119308571D01*
X154146286Y-119403810D01*
X155289143Y-119260952D02*
X155193905Y-119213333D01*
X155146286Y-119165714D01*
X155098667Y-119070476D01*
X155098667Y-119022857D01*
X155146286Y-118927619D01*
X155193905Y-118880000D01*
X155289143Y-118832381D01*
X155479620Y-118832381D01*
X155574858Y-118880000D01*
X155622477Y-118927619D01*
X155670096Y-119022857D01*
X155670096Y-119070476D01*
X155622477Y-119165714D01*
X155574858Y-119213333D01*
X155479620Y-119260952D01*
X155289143Y-119260952D01*
X155193905Y-119308571D01*
X155146286Y-119356190D01*
X155098667Y-119451429D01*
X155098667Y-119641905D01*
X155146286Y-119737143D01*
X155193905Y-119784762D01*
X155289143Y-119832381D01*
X155479620Y-119832381D01*
X155574858Y-119784762D01*
X155622477Y-119737143D01*
X155670096Y-119641905D01*
X155670096Y-119451429D01*
X155622477Y-119356190D01*
X155574858Y-119308571D01*
X155479620Y-119260952D01*
X153670096Y-117641714D02*
X153670096Y-118308381D01*
X153432000Y-117260762D02*
X153193905Y-117975048D01*
X153812953Y-117975048D01*
X154098667Y-117308381D02*
X154717715Y-117308381D01*
X154384381Y-117689333D01*
X154527239Y-117689333D01*
X154622477Y-117736952D01*
X154670096Y-117784571D01*
X154717715Y-117879810D01*
X154717715Y-118117905D01*
X154670096Y-118213143D01*
X154622477Y-118260762D01*
X154527239Y-118308381D01*
X154241524Y-118308381D01*
X154146286Y-118260762D01*
X154098667Y-118213143D01*
X155051048Y-117308381D02*
X155670096Y-117308381D01*
X155336762Y-117689333D01*
X155479620Y-117689333D01*
X155574858Y-117736952D01*
X155622477Y-117784571D01*
X155670096Y-117879810D01*
X155670096Y-118117905D01*
X155622477Y-118213143D01*
X155574858Y-118260762D01*
X155479620Y-118308381D01*
X155193905Y-118308381D01*
X155098667Y-118260762D01*
X155051048Y-118213143D01*
X153757334Y-83510381D02*
X153424000Y-83034190D01*
X153185905Y-83510381D02*
X153185905Y-82510381D01*
X153566858Y-82510381D01*
X153662096Y-82558000D01*
X153709715Y-82605619D01*
X153757334Y-82700857D01*
X153757334Y-82843714D01*
X153709715Y-82938952D01*
X153662096Y-82986571D01*
X153566858Y-83034190D01*
X153185905Y-83034190D01*
X154709715Y-83510381D02*
X154138286Y-83510381D01*
X154424000Y-83510381D02*
X154424000Y-82510381D01*
X154328762Y-82653238D01*
X154233524Y-82748476D01*
X154138286Y-82796095D01*
X151217334Y-83510381D02*
X150884000Y-83034190D01*
X150645905Y-83510381D02*
X150645905Y-82510381D01*
X151026858Y-82510381D01*
X151122096Y-82558000D01*
X151169715Y-82605619D01*
X151217334Y-82700857D01*
X151217334Y-82843714D01*
X151169715Y-82938952D01*
X151122096Y-82986571D01*
X151026858Y-83034190D01*
X150645905Y-83034190D01*
X151598286Y-82605619D02*
X151645905Y-82558000D01*
X151741143Y-82510381D01*
X151979239Y-82510381D01*
X152074477Y-82558000D01*
X152122096Y-82605619D01*
X152169715Y-82700857D01*
X152169715Y-82796095D01*
X152122096Y-82938952D01*
X151550667Y-83510381D01*
X152169715Y-83510381D01*
X145661334Y-85701143D02*
X145613715Y-85748762D01*
X145470858Y-85796381D01*
X145375620Y-85796381D01*
X145232762Y-85748762D01*
X145137524Y-85653524D01*
X145089905Y-85558286D01*
X145042286Y-85367810D01*
X145042286Y-85224952D01*
X145089905Y-85034476D01*
X145137524Y-84939238D01*
X145232762Y-84844000D01*
X145375620Y-84796381D01*
X145470858Y-84796381D01*
X145613715Y-84844000D01*
X145661334Y-84891619D01*
X146613715Y-85796381D02*
X146042286Y-85796381D01*
X146328000Y-85796381D02*
X146328000Y-84796381D01*
X146232762Y-84939238D01*
X146137524Y-85034476D01*
X146042286Y-85082095D01*
X148082095Y-130516381D02*
X148082095Y-131325905D01*
X148129714Y-131421143D01*
X148177333Y-131468762D01*
X148272571Y-131516381D01*
X148463048Y-131516381D01*
X148558286Y-131468762D01*
X148605905Y-131421143D01*
X148653524Y-131325905D01*
X148653524Y-130516381D01*
X149653524Y-131516381D02*
X149082095Y-131516381D01*
X149367809Y-131516381D02*
X149367809Y-130516381D01*
X149272571Y-130659238D01*
X149177333Y-130754476D01*
X149082095Y-130802095D01*
M02*
