G04 #@! TF.FileFunction,Copper,L1,Top,Signal*
%FSLAX46Y46*%
G04 Gerber Fmt 4.6, Leading zero omitted, Abs format (unit mm)*
G04 Created by KiCad (PCBNEW 4.0.4-stable) date Monday, 09. January 2017 'u29' 17:29:47*
%MOMM*%
%LPD*%
G01*
G04 APERTURE LIST*
%ADD10C,0.200000*%
%ADD11R,1.700000X1.700000*%
%ADD12O,1.700000X1.700000*%
%ADD13R,0.700000X1.450000*%
%ADD14C,1.143000*%
%ADD15R,1.250000X2.000000*%
%ADD16R,1.700000X2.000000*%
%ADD17R,2.000000X1.600000*%
%ADD18C,1.524000*%
%ADD19C,0.600000*%
%ADD20C,0.254000*%
%ADD21C,1.500000*%
G04 APERTURE END LIST*
D10*
D11*
X142240000Y-81026000D03*
D12*
X144780000Y-81026000D03*
X147320000Y-81026000D03*
X149860000Y-81026000D03*
X152400000Y-81026000D03*
X154940000Y-81026000D03*
D13*
X149082000Y-96809000D03*
X149082000Y-91659000D03*
X147082000Y-91659000D03*
X147082000Y-96809000D03*
D14*
X141224000Y-117856000D03*
D15*
X141320000Y-115496000D03*
X143320000Y-115496000D03*
X145320000Y-115496000D03*
X147320000Y-115496000D03*
X149320000Y-115496000D03*
X151320000Y-115496000D03*
X153320000Y-115496000D03*
X149320000Y-99896000D03*
X153320000Y-99896000D03*
X145320000Y-99896000D03*
X143320000Y-99896000D03*
X147320000Y-99896000D03*
X141320000Y-99896000D03*
X151320000Y-99896000D03*
D16*
X153924000Y-84980000D03*
X153924000Y-88980000D03*
X151384000Y-88980000D03*
X151384000Y-84980000D03*
D17*
X147828000Y-83566000D03*
X143828000Y-83566000D03*
D18*
X141224000Y-84074000D03*
X141224000Y-86614000D03*
X141224000Y-94234000D03*
X141224000Y-96774000D03*
X156464000Y-109474000D03*
X156464000Y-106934000D03*
X156464000Y-104394000D03*
X156464000Y-101854000D03*
X156464000Y-89154000D03*
X156464000Y-86614000D03*
X156464000Y-84074000D03*
X153924000Y-91694000D03*
X153924000Y-94234000D03*
X153924000Y-96774000D03*
X151384000Y-91694000D03*
X151384000Y-94234000D03*
X151384000Y-96774000D03*
X141224000Y-124714000D03*
X141224000Y-122174000D03*
X156464000Y-99314000D03*
X156464000Y-96774000D03*
X156464000Y-112014000D03*
X141224000Y-127254000D03*
X141224000Y-89154000D03*
D19*
X145288000Y-113030000D03*
X142748000Y-112268000D03*
X146812000Y-111760000D03*
X150368000Y-112522000D03*
X152908000Y-110236000D03*
X150876000Y-109220000D03*
X148844000Y-109728000D03*
X144780000Y-110744000D03*
X140970000Y-111252000D03*
X143764000Y-108712000D03*
X146304000Y-108712000D03*
X147574000Y-106680000D03*
X151638000Y-107442000D03*
X153670000Y-104394000D03*
X151892000Y-103886000D03*
X148844000Y-105156000D03*
X149098000Y-102870000D03*
X144780000Y-106934000D03*
X141478000Y-107950000D03*
X144018000Y-104902000D03*
X146050000Y-103124000D03*
X141732000Y-103378000D03*
X143256000Y-117602000D03*
D20*
X145288000Y-113030000D02*
X145288000Y-114464000D01*
X145288000Y-114464000D02*
X145320000Y-114496000D01*
X146812000Y-111760000D02*
X143256000Y-111760000D01*
X143256000Y-111760000D02*
X142748000Y-112268000D01*
X152908000Y-110236000D02*
X150622000Y-112522000D01*
X150622000Y-112522000D02*
X150368000Y-112522000D01*
X148844000Y-109728000D02*
X150368000Y-109728000D01*
X150368000Y-109728000D02*
X150876000Y-109220000D01*
X140970000Y-111252000D02*
X144272000Y-111252000D01*
X144272000Y-111252000D02*
X144780000Y-110744000D01*
X146304000Y-108712000D02*
X143764000Y-108712000D01*
X151638000Y-107442000D02*
X148336000Y-107442000D01*
X148336000Y-107442000D02*
X147574000Y-106680000D01*
X151892000Y-103886000D02*
X153162000Y-103886000D01*
X153162000Y-103886000D02*
X153670000Y-104394000D01*
X149098000Y-102870000D02*
X149098000Y-104902000D01*
X149098000Y-104902000D02*
X148844000Y-105156000D01*
X141478000Y-107950000D02*
X143764000Y-107950000D01*
X143764000Y-107950000D02*
X144780000Y-106934000D01*
X146050000Y-103124000D02*
X144272000Y-104902000D01*
X144272000Y-104902000D02*
X144018000Y-104902000D01*
X141320000Y-100896000D02*
X141320000Y-102966000D01*
X141320000Y-102966000D02*
X141732000Y-103378000D01*
X157012641Y-90297001D02*
X155091001Y-90297001D01*
X155091001Y-90297001D02*
X155067001Y-90273001D01*
X153924000Y-88980000D02*
X153924000Y-89130000D01*
X153924000Y-89130000D02*
X155067001Y-90273001D01*
X155067001Y-90273001D02*
X155067001Y-93090999D01*
X155067001Y-93090999D02*
X154685999Y-93472001D01*
X154685999Y-93472001D02*
X153924000Y-94234000D01*
X157901642Y-89408000D02*
X157012641Y-90297001D01*
X157901642Y-89408000D02*
X158115011Y-89194631D01*
X158115011Y-89194631D02*
X158115011Y-82379129D01*
X158115011Y-82379129D02*
X155530881Y-79794999D01*
X155530881Y-79794999D02*
X146011001Y-79794999D01*
X146011001Y-79794999D02*
X144780000Y-81026000D01*
X157901642Y-89408000D02*
X157988000Y-89321642D01*
X156464000Y-89154000D02*
X156464000Y-88900000D01*
X156464000Y-88900000D02*
X155162999Y-87598999D01*
X155162999Y-87598999D02*
X150229199Y-87598999D01*
X150229199Y-87598999D02*
X150152999Y-87675199D01*
X150152999Y-87675199D02*
X150152999Y-90385001D01*
X150152999Y-90385001D02*
X149082000Y-91456000D01*
X149082000Y-91456000D02*
X149082000Y-91659000D01*
X157607001Y-88010999D02*
X157607001Y-82677001D01*
X157607001Y-82677001D02*
X155956000Y-81026000D01*
X155956000Y-81026000D02*
X154940000Y-81026000D01*
X156464000Y-89154000D02*
X157607001Y-88010999D01*
X157607001Y-88010999D02*
X157225999Y-88392001D01*
X157225999Y-88392001D02*
X156464000Y-89154000D01*
X151384000Y-88980000D02*
X151384000Y-89130000D01*
X151384000Y-89130000D02*
X152527001Y-90273001D01*
X152527001Y-90273001D02*
X152527001Y-93090999D01*
X152527001Y-93090999D02*
X152145999Y-93472001D01*
X152145999Y-93472001D02*
X151384000Y-94234000D01*
X143320000Y-114496000D02*
X143256000Y-114560000D01*
X143256000Y-114560000D02*
X143256000Y-117602000D01*
X151384000Y-96774000D02*
X153924000Y-96774000D01*
X148662801Y-85217001D02*
X140588999Y-85217001D01*
X149644988Y-84234814D02*
X148662801Y-85217001D01*
X149644988Y-82443093D02*
X149644988Y-84234814D01*
X140462001Y-96012001D02*
X141224000Y-96774000D01*
X149860000Y-82228081D02*
X149644988Y-82443093D01*
X149860000Y-81026000D02*
X149860000Y-82228081D01*
X140080999Y-85725001D02*
X140080999Y-95630999D01*
X140080999Y-95630999D02*
X140462001Y-96012001D01*
X140588999Y-85217001D02*
X140080999Y-85725001D01*
X149860000Y-81026000D02*
X149860000Y-81788000D01*
X142815919Y-85784081D02*
X148814157Y-85784081D01*
X148814157Y-85784081D02*
X150152999Y-84445239D01*
X141224000Y-94234000D02*
X141224000Y-90845642D01*
X141224000Y-90845642D02*
X142494000Y-89575642D01*
X142494000Y-89575642D02*
X142494000Y-86106000D01*
X150152999Y-83273001D02*
X151550001Y-81875999D01*
X142494000Y-86106000D02*
X142815919Y-85784081D01*
X150152999Y-84445239D02*
X150152999Y-83273001D01*
X151550001Y-81875999D02*
X152400000Y-81026000D01*
X152400000Y-81026000D02*
X152400000Y-81428198D01*
X141224000Y-94234000D02*
X141478000Y-94234000D01*
X141224000Y-94234000D02*
X141224000Y-94104076D01*
X147320000Y-81026000D02*
X147320000Y-83058000D01*
X147320000Y-83058000D02*
X147828000Y-83566000D01*
X147320000Y-83800000D02*
X147300000Y-83820000D01*
D21*
X141224000Y-117856000D02*
X141224000Y-114592000D01*
D20*
X141224000Y-114592000D02*
X141320000Y-114496000D01*
X156464000Y-109474000D02*
X155194000Y-110744000D01*
X155194000Y-110744000D02*
X155194000Y-112776000D01*
X155194000Y-112776000D02*
X153474000Y-114496000D01*
X154685998Y-110490000D02*
X154685998Y-112268002D01*
X155194000Y-108204000D02*
X155194000Y-109981998D01*
X155194000Y-109981998D02*
X154685998Y-110490000D01*
X156464000Y-106934000D02*
X155194000Y-108204000D01*
X152024000Y-113792000D02*
X151320000Y-114496000D01*
X153162000Y-113792000D02*
X152024000Y-113792000D01*
X154685998Y-112268002D02*
X153162000Y-113792000D01*
X156464000Y-106934000D02*
X156464000Y-107188000D01*
X155320999Y-102659574D02*
X155320999Y-101472999D01*
X156464000Y-103802575D02*
X155320999Y-102659574D01*
X155320999Y-101472999D02*
X153924000Y-100076000D01*
X156464000Y-104394000D02*
X156464000Y-103802575D01*
X158115014Y-112054628D02*
X158115014Y-105664000D01*
X156464000Y-101854000D02*
X157607001Y-102997001D01*
X157607001Y-105155987D02*
X158115014Y-105664000D01*
X157607001Y-102997001D02*
X157607001Y-105155987D01*
X149320000Y-115806802D02*
X150390199Y-116877001D01*
X156972000Y-113197642D02*
X158115014Y-112054628D01*
X150390199Y-116877001D02*
X154249801Y-116877001D01*
X154432000Y-116694802D02*
X154432000Y-114554000D01*
X154249801Y-116877001D02*
X154432000Y-116694802D01*
X154432000Y-114554000D02*
X155788358Y-113197642D01*
X155788358Y-113197642D02*
X156972000Y-113197642D01*
X156464000Y-101854000D02*
X156464000Y-102108000D01*
X151450239Y-99585198D02*
X151320000Y-99585198D01*
X152520438Y-98514999D02*
X151450239Y-99585198D01*
X156464000Y-99314000D02*
X155664999Y-98514999D01*
X155664999Y-98514999D02*
X152520438Y-98514999D01*
X147320000Y-100896000D02*
X147320000Y-99585198D01*
X151802002Y-98514999D02*
X152400000Y-97917001D01*
X147320000Y-99585198D02*
X148390199Y-98514999D01*
X148390199Y-98514999D02*
X151802002Y-98514999D01*
X152400000Y-97917001D02*
X155320999Y-97917001D01*
X155320999Y-97917001D02*
X156464000Y-96774000D01*
X154812989Y-101980989D02*
X154812989Y-102870000D01*
X155702000Y-105664000D02*
X155320999Y-105282999D01*
X155320999Y-105282999D02*
X155320999Y-103378010D01*
X155320999Y-103378010D02*
X154812989Y-102870000D01*
X149320000Y-100896000D02*
X149770000Y-101346000D01*
X149770000Y-101346000D02*
X154178000Y-101346000D01*
X154178000Y-101346000D02*
X154812989Y-101980989D01*
X157607012Y-110870988D02*
X156464000Y-112014000D01*
X155702000Y-105664000D02*
X157226000Y-105664000D01*
X157226000Y-105664000D02*
X157607012Y-106045012D01*
X157607012Y-106045012D02*
X157607012Y-110870988D01*
X141224000Y-122174000D02*
X147320000Y-116078000D01*
X147320000Y-116078000D02*
X147320000Y-114496000D01*
G36*
X140851673Y-79816302D02*
X140755000Y-80049691D01*
X140755000Y-80740250D01*
X140913750Y-80899000D01*
X142113000Y-80899000D01*
X142113000Y-80879000D01*
X142367000Y-80879000D01*
X142367000Y-80899000D01*
X142387000Y-80899000D01*
X142387000Y-81153000D01*
X142367000Y-81153000D01*
X142367000Y-82328974D01*
X142289673Y-82406301D01*
X142193000Y-82639690D01*
X142193000Y-83280250D01*
X142351748Y-83438998D01*
X142198351Y-83438998D01*
X142193554Y-83427388D01*
X141872303Y-83105577D01*
X141452354Y-82931199D01*
X140997641Y-82930802D01*
X140577388Y-83104446D01*
X140255577Y-83425697D01*
X140081199Y-83845646D01*
X140080802Y-84300359D01*
X140254446Y-84720612D01*
X140326727Y-84793019D01*
X140229788Y-84857791D01*
X139721789Y-85365791D01*
X139611668Y-85530598D01*
X139572999Y-85725001D01*
X139572999Y-95630999D01*
X139611668Y-95825402D01*
X139721789Y-95990209D01*
X140138714Y-96407134D01*
X140081199Y-96545646D01*
X140080802Y-97000359D01*
X140254446Y-97420612D01*
X140575697Y-97742423D01*
X140995646Y-97916801D01*
X141450359Y-97917198D01*
X141870612Y-97743554D01*
X142192423Y-97422303D01*
X142328434Y-97094750D01*
X146097000Y-97094750D01*
X146097000Y-97660309D01*
X146193673Y-97893698D01*
X146372301Y-98072327D01*
X146605690Y-98169000D01*
X146796250Y-98169000D01*
X146955000Y-98010250D01*
X146955000Y-96936000D01*
X147209000Y-96936000D01*
X147209000Y-98010250D01*
X147367750Y-98169000D01*
X147558310Y-98169000D01*
X147791699Y-98072327D01*
X147970327Y-97893698D01*
X148067000Y-97660309D01*
X148067000Y-97094750D01*
X147908250Y-96936000D01*
X147209000Y-96936000D01*
X146955000Y-96936000D01*
X146255750Y-96936000D01*
X146097000Y-97094750D01*
X142328434Y-97094750D01*
X142366801Y-97002354D01*
X142367198Y-96547641D01*
X142193554Y-96127388D01*
X142024153Y-95957691D01*
X146097000Y-95957691D01*
X146097000Y-96523250D01*
X146255750Y-96682000D01*
X146955000Y-96682000D01*
X146955000Y-95607750D01*
X147209000Y-95607750D01*
X147209000Y-96682000D01*
X147908250Y-96682000D01*
X148067000Y-96523250D01*
X148067000Y-96084000D01*
X148343536Y-96084000D01*
X148343536Y-97534000D01*
X148370103Y-97675190D01*
X148453546Y-97804865D01*
X148580866Y-97891859D01*
X148732000Y-97922464D01*
X149432000Y-97922464D01*
X149573190Y-97895897D01*
X149702865Y-97812454D01*
X149789859Y-97685134D01*
X149820464Y-97534000D01*
X149820464Y-96084000D01*
X149793897Y-95942810D01*
X149710454Y-95813135D01*
X149583134Y-95726141D01*
X149432000Y-95695536D01*
X148732000Y-95695536D01*
X148590810Y-95722103D01*
X148461135Y-95805546D01*
X148374141Y-95932866D01*
X148343536Y-96084000D01*
X148067000Y-96084000D01*
X148067000Y-95957691D01*
X147970327Y-95724302D01*
X147791699Y-95545673D01*
X147558310Y-95449000D01*
X147367750Y-95449000D01*
X147209000Y-95607750D01*
X146955000Y-95607750D01*
X146796250Y-95449000D01*
X146605690Y-95449000D01*
X146372301Y-95545673D01*
X146193673Y-95724302D01*
X146097000Y-95957691D01*
X142024153Y-95957691D01*
X141872303Y-95805577D01*
X141452354Y-95631199D01*
X140997641Y-95630802D01*
X140857236Y-95688816D01*
X140588999Y-95420579D01*
X140588999Y-95207946D01*
X140995646Y-95376801D01*
X141450359Y-95377198D01*
X141870612Y-95203554D01*
X142192423Y-94882303D01*
X142366801Y-94462354D01*
X142367198Y-94007641D01*
X142193554Y-93587388D01*
X141872303Y-93265577D01*
X141732000Y-93207318D01*
X141732000Y-91944750D01*
X146097000Y-91944750D01*
X146097000Y-92510309D01*
X146193673Y-92743698D01*
X146372301Y-92922327D01*
X146605690Y-93019000D01*
X146796250Y-93019000D01*
X146955000Y-92860250D01*
X146955000Y-91786000D01*
X147209000Y-91786000D01*
X147209000Y-92860250D01*
X147367750Y-93019000D01*
X147558310Y-93019000D01*
X147791699Y-92922327D01*
X147970327Y-92743698D01*
X148067000Y-92510309D01*
X148067000Y-91944750D01*
X147908250Y-91786000D01*
X147209000Y-91786000D01*
X146955000Y-91786000D01*
X146255750Y-91786000D01*
X146097000Y-91944750D01*
X141732000Y-91944750D01*
X141732000Y-91056062D01*
X141980371Y-90807691D01*
X146097000Y-90807691D01*
X146097000Y-91373250D01*
X146255750Y-91532000D01*
X146955000Y-91532000D01*
X146955000Y-90457750D01*
X147209000Y-90457750D01*
X147209000Y-91532000D01*
X147908250Y-91532000D01*
X148067000Y-91373250D01*
X148067000Y-90807691D01*
X147970327Y-90574302D01*
X147791699Y-90395673D01*
X147558310Y-90299000D01*
X147367750Y-90299000D01*
X147209000Y-90457750D01*
X146955000Y-90457750D01*
X146796250Y-90299000D01*
X146605690Y-90299000D01*
X146372301Y-90395673D01*
X146193673Y-90574302D01*
X146097000Y-90807691D01*
X141980371Y-90807691D01*
X142853210Y-89934852D01*
X142963331Y-89770046D01*
X142976740Y-89702631D01*
X143002000Y-89575642D01*
X143002000Y-86316420D01*
X143026339Y-86292081D01*
X148814157Y-86292081D01*
X149008560Y-86253412D01*
X149173367Y-86143291D01*
X149899000Y-85417659D01*
X149899000Y-86106309D01*
X149995673Y-86339698D01*
X150174301Y-86518327D01*
X150407690Y-86615000D01*
X151098250Y-86615000D01*
X151257000Y-86456250D01*
X151257000Y-85107000D01*
X151511000Y-85107000D01*
X151511000Y-86456250D01*
X151669750Y-86615000D01*
X152360310Y-86615000D01*
X152593699Y-86518327D01*
X152654000Y-86458026D01*
X152714301Y-86518327D01*
X152947690Y-86615000D01*
X153638250Y-86615000D01*
X153797000Y-86456250D01*
X153797000Y-85107000D01*
X154051000Y-85107000D01*
X154051000Y-86456250D01*
X154209750Y-86615000D01*
X154900310Y-86615000D01*
X155133699Y-86518327D01*
X155312327Y-86339698D01*
X155409000Y-86106309D01*
X155409000Y-85265750D01*
X155250250Y-85107000D01*
X154051000Y-85107000D01*
X153797000Y-85107000D01*
X151511000Y-85107000D01*
X151257000Y-85107000D01*
X151237000Y-85107000D01*
X151237000Y-84853000D01*
X151257000Y-84853000D01*
X151257000Y-83503750D01*
X151511000Y-83503750D01*
X151511000Y-84853000D01*
X153797000Y-84853000D01*
X153797000Y-83503750D01*
X154051000Y-83503750D01*
X154051000Y-84853000D01*
X155250250Y-84853000D01*
X155285513Y-84817737D01*
X155483787Y-84874608D01*
X156284395Y-84074000D01*
X155483787Y-83273392D01*
X155241603Y-83342857D01*
X155187245Y-83495220D01*
X155133699Y-83441673D01*
X154900310Y-83345000D01*
X154209750Y-83345000D01*
X154051000Y-83503750D01*
X153797000Y-83503750D01*
X153638250Y-83345000D01*
X152947690Y-83345000D01*
X152714301Y-83441673D01*
X152654000Y-83501974D01*
X152593699Y-83441673D01*
X152360310Y-83345000D01*
X151669750Y-83345000D01*
X151511000Y-83503750D01*
X151257000Y-83503750D01*
X151098250Y-83345000D01*
X150799420Y-83345000D01*
X151952347Y-82192073D01*
X152400000Y-82281117D01*
X152871083Y-82187413D01*
X153270448Y-81920565D01*
X153537296Y-81521200D01*
X153631000Y-81050117D01*
X153631000Y-81001883D01*
X153537296Y-80530800D01*
X153385084Y-80302999D01*
X153954916Y-80302999D01*
X153802704Y-80530800D01*
X153709000Y-81001883D01*
X153709000Y-81050117D01*
X153802704Y-81521200D01*
X154069552Y-81920565D01*
X154468917Y-82187413D01*
X154940000Y-82281117D01*
X155411083Y-82187413D01*
X155810448Y-81920565D01*
X155939302Y-81727722D01*
X156989992Y-82778412D01*
X156671698Y-82664856D01*
X156116632Y-82692638D01*
X155732857Y-82851603D01*
X155663392Y-83093787D01*
X156464000Y-83894395D01*
X156478143Y-83880253D01*
X156657748Y-84059858D01*
X156643605Y-84074000D01*
X156657748Y-84088143D01*
X156478143Y-84267748D01*
X156464000Y-84253605D01*
X155663392Y-85054213D01*
X155732857Y-85296397D01*
X156230258Y-85473852D01*
X155817388Y-85644446D01*
X155495577Y-85965697D01*
X155321199Y-86385646D01*
X155320802Y-86840359D01*
X155471973Y-87206222D01*
X155357402Y-87129668D01*
X155162999Y-87090999D01*
X150229199Y-87090999D01*
X150034795Y-87129668D01*
X149869989Y-87239789D01*
X149793789Y-87315989D01*
X149683668Y-87480796D01*
X149644999Y-87675199D01*
X149644999Y-90174581D01*
X149274044Y-90545536D01*
X148732000Y-90545536D01*
X148590810Y-90572103D01*
X148461135Y-90655546D01*
X148374141Y-90782866D01*
X148343536Y-90934000D01*
X148343536Y-92384000D01*
X148370103Y-92525190D01*
X148453546Y-92654865D01*
X148580866Y-92741859D01*
X148732000Y-92772464D01*
X149432000Y-92772464D01*
X149573190Y-92745897D01*
X149702865Y-92662454D01*
X149789859Y-92535134D01*
X149820464Y-92384000D01*
X149820464Y-91435956D01*
X150088412Y-91168008D01*
X149974856Y-91486302D01*
X150002638Y-92041368D01*
X150161603Y-92425143D01*
X150403787Y-92494608D01*
X151204395Y-91694000D01*
X151190253Y-91679858D01*
X151369858Y-91500253D01*
X151384000Y-91514395D01*
X151398143Y-91500253D01*
X151577748Y-91679858D01*
X151563605Y-91694000D01*
X151577748Y-91708143D01*
X151398143Y-91887748D01*
X151384000Y-91873605D01*
X150583392Y-92674213D01*
X150652857Y-92916397D01*
X151150258Y-93093852D01*
X150737388Y-93264446D01*
X150415577Y-93585697D01*
X150241199Y-94005646D01*
X150240802Y-94460359D01*
X150414446Y-94880612D01*
X150735697Y-95202423D01*
X151155646Y-95376801D01*
X151610359Y-95377198D01*
X152030612Y-95203554D01*
X152352423Y-94882303D01*
X152526801Y-94462354D01*
X152527198Y-94007641D01*
X152469184Y-93867236D01*
X152886211Y-93450209D01*
X152996332Y-93285403D01*
X153035001Y-93090999D01*
X153035001Y-92762607D01*
X153123393Y-92674215D01*
X153192857Y-92916397D01*
X153690258Y-93093852D01*
X153277388Y-93264446D01*
X152955577Y-93585697D01*
X152781199Y-94005646D01*
X152780802Y-94460359D01*
X152954446Y-94880612D01*
X153275697Y-95202423D01*
X153695646Y-95376801D01*
X154150359Y-95377198D01*
X154570612Y-95203554D01*
X154892423Y-94882303D01*
X155066801Y-94462354D01*
X155067198Y-94007641D01*
X155009184Y-93867236D01*
X155426211Y-93450209D01*
X155536332Y-93285403D01*
X155575001Y-93090999D01*
X155575001Y-90805001D01*
X157012641Y-90805001D01*
X157207044Y-90766332D01*
X157371851Y-90656211D01*
X158294000Y-89734062D01*
X158294000Y-105124566D01*
X158115001Y-104945567D01*
X158115001Y-102997001D01*
X158076332Y-102802598D01*
X157966212Y-102637791D01*
X157549286Y-102220865D01*
X157606801Y-102082354D01*
X157607198Y-101627641D01*
X157433554Y-101207388D01*
X157112303Y-100885577D01*
X156692354Y-100711199D01*
X156237641Y-100710802D01*
X155817388Y-100884446D01*
X155633967Y-101067547D01*
X154333464Y-99767044D01*
X154333464Y-99022999D01*
X155347212Y-99022999D01*
X155321199Y-99085646D01*
X155320802Y-99540359D01*
X155494446Y-99960612D01*
X155815697Y-100282423D01*
X156235646Y-100456801D01*
X156690359Y-100457198D01*
X157110612Y-100283554D01*
X157432423Y-99962303D01*
X157606801Y-99542354D01*
X157607198Y-99087641D01*
X157433554Y-98667388D01*
X157112303Y-98345577D01*
X156692354Y-98171199D01*
X156237641Y-98170802D01*
X156097236Y-98228816D01*
X156024209Y-98155789D01*
X155890184Y-98066236D01*
X156097134Y-97859286D01*
X156235646Y-97916801D01*
X156690359Y-97917198D01*
X157110612Y-97743554D01*
X157432423Y-97422303D01*
X157606801Y-97002354D01*
X157607198Y-96547641D01*
X157433554Y-96127388D01*
X157112303Y-95805577D01*
X156692354Y-95631199D01*
X156237641Y-95630802D01*
X155817388Y-95804446D01*
X155495577Y-96125697D01*
X155321199Y-96545646D01*
X155320802Y-97000359D01*
X155378816Y-97140764D01*
X155110579Y-97409001D01*
X154897946Y-97409001D01*
X155066801Y-97002354D01*
X155067198Y-96547641D01*
X154893554Y-96127388D01*
X154572303Y-95805577D01*
X154152354Y-95631199D01*
X153697641Y-95630802D01*
X153277388Y-95804446D01*
X152955577Y-96125697D01*
X152897318Y-96266000D01*
X152410827Y-96266000D01*
X152353554Y-96127388D01*
X152032303Y-95805577D01*
X151612354Y-95631199D01*
X151157641Y-95630802D01*
X150737388Y-95804446D01*
X150415577Y-96125697D01*
X150241199Y-96545646D01*
X150240802Y-97000359D01*
X150414446Y-97420612D01*
X150735697Y-97742423D01*
X151155646Y-97916801D01*
X151610359Y-97917198D01*
X151731393Y-97867188D01*
X151591582Y-98006999D01*
X148390199Y-98006999D01*
X148195796Y-98045668D01*
X148030989Y-98155789D01*
X147679242Y-98507536D01*
X146695000Y-98507536D01*
X146553810Y-98534103D01*
X146424135Y-98617546D01*
X146337141Y-98744866D01*
X146320494Y-98827072D01*
X146306897Y-98754810D01*
X146223454Y-98625135D01*
X146096134Y-98538141D01*
X145945000Y-98507536D01*
X144695000Y-98507536D01*
X144553810Y-98534103D01*
X144424135Y-98617546D01*
X144337141Y-98744866D01*
X144320494Y-98827072D01*
X144306897Y-98754810D01*
X144223454Y-98625135D01*
X144096134Y-98538141D01*
X143945000Y-98507536D01*
X142695000Y-98507536D01*
X142553810Y-98534103D01*
X142497441Y-98570375D01*
X142483327Y-98536302D01*
X142304699Y-98357673D01*
X142071310Y-98261000D01*
X141605750Y-98261000D01*
X141447000Y-98419750D01*
X141447000Y-99769000D01*
X141467000Y-99769000D01*
X141467000Y-100023000D01*
X141447000Y-100023000D01*
X141447000Y-101372250D01*
X141605750Y-101531000D01*
X142071310Y-101531000D01*
X142304699Y-101434327D01*
X142483327Y-101255698D01*
X142497275Y-101222025D01*
X142543866Y-101253859D01*
X142695000Y-101284464D01*
X143945000Y-101284464D01*
X144086190Y-101257897D01*
X144215865Y-101174454D01*
X144302859Y-101047134D01*
X144319506Y-100964928D01*
X144333103Y-101037190D01*
X144416546Y-101166865D01*
X144543866Y-101253859D01*
X144695000Y-101284464D01*
X145945000Y-101284464D01*
X146086190Y-101257897D01*
X146215865Y-101174454D01*
X146302859Y-101047134D01*
X146319506Y-100964928D01*
X146333103Y-101037190D01*
X146416546Y-101166865D01*
X146543866Y-101253859D01*
X146695000Y-101284464D01*
X147004572Y-101284464D01*
X147125597Y-101365331D01*
X147320000Y-101404000D01*
X147514403Y-101365331D01*
X147635428Y-101284464D01*
X147945000Y-101284464D01*
X148086190Y-101257897D01*
X148215865Y-101174454D01*
X148302859Y-101047134D01*
X148319506Y-100964928D01*
X148333103Y-101037190D01*
X148416546Y-101166865D01*
X148543866Y-101253859D01*
X148695000Y-101284464D01*
X148990044Y-101284464D01*
X149410790Y-101705210D01*
X149575596Y-101815331D01*
X149770000Y-101854000D01*
X153967580Y-101854000D01*
X154304989Y-102191409D01*
X154304989Y-102870000D01*
X154343658Y-103064403D01*
X154453779Y-103229210D01*
X154812999Y-103588431D01*
X154812999Y-105282999D01*
X154851668Y-105477402D01*
X154961789Y-105642209D01*
X155342790Y-106023210D01*
X155507597Y-106133331D01*
X155624846Y-106156653D01*
X155495577Y-106285697D01*
X155321199Y-106705646D01*
X155320802Y-107160359D01*
X155378816Y-107300764D01*
X154834790Y-107844790D01*
X154724669Y-108009597D01*
X154686000Y-108204000D01*
X154686000Y-109771578D01*
X154326788Y-110130790D01*
X154216667Y-110295597D01*
X154177998Y-110490000D01*
X154177998Y-112057582D01*
X152951580Y-113284000D01*
X152024000Y-113284000D01*
X151861850Y-113316254D01*
X151829596Y-113322669D01*
X151664790Y-113432790D01*
X150990044Y-114107536D01*
X150695000Y-114107536D01*
X150553810Y-114134103D01*
X150424135Y-114217546D01*
X150337141Y-114344866D01*
X150320494Y-114427072D01*
X150306897Y-114354810D01*
X150223454Y-114225135D01*
X150096134Y-114138141D01*
X149945000Y-114107536D01*
X148695000Y-114107536D01*
X148553810Y-114134103D01*
X148424135Y-114217546D01*
X148337141Y-114344866D01*
X148320494Y-114427072D01*
X148306897Y-114354810D01*
X148223454Y-114225135D01*
X148096134Y-114138141D01*
X147945000Y-114107536D01*
X147635428Y-114107536D01*
X147514403Y-114026669D01*
X147320000Y-113988000D01*
X147125597Y-114026669D01*
X147004572Y-114107536D01*
X146695000Y-114107536D01*
X146553810Y-114134103D01*
X146497441Y-114170375D01*
X146483327Y-114136302D01*
X146304699Y-113957673D01*
X146071310Y-113861000D01*
X145605750Y-113861000D01*
X145447000Y-114019750D01*
X145447000Y-115369000D01*
X145467000Y-115369000D01*
X145467000Y-115623000D01*
X145447000Y-115623000D01*
X145447000Y-116972250D01*
X145577165Y-117102415D01*
X141590866Y-121088714D01*
X141452354Y-121031199D01*
X140997641Y-121030802D01*
X140577388Y-121204446D01*
X140255577Y-121525697D01*
X140081199Y-121945646D01*
X140080802Y-122400359D01*
X140254446Y-122820612D01*
X140575697Y-123142423D01*
X140995646Y-123316801D01*
X141450359Y-123317198D01*
X141870612Y-123143554D01*
X142192423Y-122822303D01*
X142366801Y-122402354D01*
X142367198Y-121947641D01*
X142309184Y-121807236D01*
X147231956Y-116884464D01*
X147945000Y-116884464D01*
X148086190Y-116857897D01*
X148215865Y-116774454D01*
X148302859Y-116647134D01*
X148319506Y-116564928D01*
X148333103Y-116637190D01*
X148416546Y-116766865D01*
X148543866Y-116853859D01*
X148695000Y-116884464D01*
X149679242Y-116884464D01*
X150030989Y-117236211D01*
X150195796Y-117346332D01*
X150390199Y-117385001D01*
X154249801Y-117385001D01*
X154444204Y-117346332D01*
X154609011Y-117236211D01*
X154791210Y-117054012D01*
X154901331Y-116889206D01*
X154924156Y-116774454D01*
X154940000Y-116694802D01*
X154940000Y-114764420D01*
X155998778Y-113705642D01*
X156972000Y-113705642D01*
X157166403Y-113666973D01*
X157331210Y-113556852D01*
X158294000Y-112594062D01*
X158294000Y-121392103D01*
X158228382Y-121721989D01*
X158052785Y-121984787D01*
X157789989Y-122160382D01*
X157460103Y-122226000D01*
X143764000Y-122226000D01*
X143744488Y-122229881D01*
X143724592Y-122229881D01*
X143335786Y-122307219D01*
X143335785Y-122307219D01*
X143262969Y-122337381D01*
X142933354Y-122557623D01*
X142905489Y-122585489D01*
X142877623Y-122613354D01*
X142657381Y-122942968D01*
X142657381Y-122942969D01*
X142627219Y-123015786D01*
X142549881Y-123404592D01*
X142549881Y-123424488D01*
X142546000Y-123444000D01*
X142546000Y-126763320D01*
X142446397Y-126522857D01*
X142204213Y-126453392D01*
X141403605Y-127254000D01*
X142204213Y-128054608D01*
X142446397Y-127985143D01*
X142546000Y-127705959D01*
X142546000Y-127742103D01*
X142480382Y-128071989D01*
X142304785Y-128334787D01*
X142041989Y-128510382D01*
X141717061Y-128575014D01*
X141955143Y-128476397D01*
X142024608Y-128234213D01*
X141224000Y-127433605D01*
X140423392Y-128234213D01*
X140492857Y-128476397D01*
X140772041Y-128576000D01*
X140227897Y-128576000D01*
X139898011Y-128510382D01*
X139635213Y-128334785D01*
X139459618Y-128071989D01*
X139394000Y-127742103D01*
X139394000Y-127046302D01*
X139814856Y-127046302D01*
X139842638Y-127601368D01*
X140001603Y-127985143D01*
X140243787Y-128054608D01*
X141044395Y-127254000D01*
X140243787Y-126453392D01*
X140001603Y-126522857D01*
X139814856Y-127046302D01*
X139394000Y-127046302D01*
X139394000Y-124940359D01*
X140080802Y-124940359D01*
X140254446Y-125360612D01*
X140575697Y-125682423D01*
X140995646Y-125856801D01*
X141189660Y-125856970D01*
X140876632Y-125872638D01*
X140492857Y-126031603D01*
X140423392Y-126273787D01*
X141224000Y-127074395D01*
X142024608Y-126273787D01*
X141955143Y-126031603D01*
X141457742Y-125854148D01*
X141870612Y-125683554D01*
X142192423Y-125362303D01*
X142366801Y-124942354D01*
X142367198Y-124487641D01*
X142193554Y-124067388D01*
X141872303Y-123745577D01*
X141452354Y-123571199D01*
X140997641Y-123570802D01*
X140577388Y-123744446D01*
X140255577Y-124065697D01*
X140081199Y-124485646D01*
X140080802Y-124940359D01*
X139394000Y-124940359D01*
X139394000Y-114592000D01*
X140093000Y-114592000D01*
X140093000Y-117856000D01*
X140179092Y-118288815D01*
X140424262Y-118655738D01*
X140791185Y-118900908D01*
X141224000Y-118987000D01*
X141656815Y-118900908D01*
X142023738Y-118655738D01*
X142268908Y-118288815D01*
X142355000Y-117856000D01*
X142355000Y-116671219D01*
X142416546Y-116766865D01*
X142543866Y-116853859D01*
X142695000Y-116884464D01*
X142748000Y-116884464D01*
X142748000Y-117146874D01*
X142679013Y-117215741D01*
X142575118Y-117465946D01*
X142574882Y-117736865D01*
X142678339Y-117987252D01*
X142869741Y-118178987D01*
X143119946Y-118282882D01*
X143390865Y-118283118D01*
X143641252Y-118179661D01*
X143832987Y-117988259D01*
X143936882Y-117738054D01*
X143937118Y-117467135D01*
X143833661Y-117216748D01*
X143764000Y-117146966D01*
X143764000Y-116884464D01*
X143945000Y-116884464D01*
X144086190Y-116857897D01*
X144142559Y-116821625D01*
X144156673Y-116855698D01*
X144335301Y-117034327D01*
X144568690Y-117131000D01*
X145034250Y-117131000D01*
X145193000Y-116972250D01*
X145193000Y-115623000D01*
X145173000Y-115623000D01*
X145173000Y-115369000D01*
X145193000Y-115369000D01*
X145193000Y-114019750D01*
X145034250Y-113861000D01*
X144568690Y-113861000D01*
X144335301Y-113957673D01*
X144156673Y-114136302D01*
X144142725Y-114169975D01*
X144096134Y-114138141D01*
X143945000Y-114107536D01*
X143635429Y-114107536D01*
X143514404Y-114026669D01*
X143320000Y-113988000D01*
X143125597Y-114026669D01*
X143004572Y-114107536D01*
X142695000Y-114107536D01*
X142553810Y-114134103D01*
X142424135Y-114217546D01*
X142337141Y-114344866D01*
X142321352Y-114422837D01*
X142268908Y-114159185D01*
X142023738Y-113792262D01*
X141656815Y-113547092D01*
X141224000Y-113461000D01*
X140791185Y-113547092D01*
X140424262Y-113792262D01*
X140179092Y-114159185D01*
X140093000Y-114592000D01*
X139394000Y-114592000D01*
X139394000Y-100181750D01*
X140060000Y-100181750D01*
X140060000Y-101022309D01*
X140156673Y-101255698D01*
X140335301Y-101434327D01*
X140568690Y-101531000D01*
X141034250Y-101531000D01*
X141193000Y-101372250D01*
X141193000Y-100023000D01*
X140218750Y-100023000D01*
X140060000Y-100181750D01*
X139394000Y-100181750D01*
X139394000Y-98769691D01*
X140060000Y-98769691D01*
X140060000Y-99610250D01*
X140218750Y-99769000D01*
X141193000Y-99769000D01*
X141193000Y-98419750D01*
X141034250Y-98261000D01*
X140568690Y-98261000D01*
X140335301Y-98357673D01*
X140156673Y-98536302D01*
X140060000Y-98769691D01*
X139394000Y-98769691D01*
X139394000Y-81311750D01*
X140755000Y-81311750D01*
X140755000Y-82002309D01*
X140851673Y-82235698D01*
X141030301Y-82414327D01*
X141263690Y-82511000D01*
X141954250Y-82511000D01*
X142113000Y-82352250D01*
X142113000Y-81153000D01*
X140913750Y-81153000D01*
X140755000Y-81311750D01*
X139394000Y-81311750D01*
X139394000Y-80537897D01*
X139459618Y-80208011D01*
X139635213Y-79945215D01*
X139898011Y-79769618D01*
X140227897Y-79704000D01*
X140963974Y-79704000D01*
X140851673Y-79816302D01*
X140851673Y-79816302D01*
G37*
X140851673Y-79816302D02*
X140755000Y-80049691D01*
X140755000Y-80740250D01*
X140913750Y-80899000D01*
X142113000Y-80899000D01*
X142113000Y-80879000D01*
X142367000Y-80879000D01*
X142367000Y-80899000D01*
X142387000Y-80899000D01*
X142387000Y-81153000D01*
X142367000Y-81153000D01*
X142367000Y-82328974D01*
X142289673Y-82406301D01*
X142193000Y-82639690D01*
X142193000Y-83280250D01*
X142351748Y-83438998D01*
X142198351Y-83438998D01*
X142193554Y-83427388D01*
X141872303Y-83105577D01*
X141452354Y-82931199D01*
X140997641Y-82930802D01*
X140577388Y-83104446D01*
X140255577Y-83425697D01*
X140081199Y-83845646D01*
X140080802Y-84300359D01*
X140254446Y-84720612D01*
X140326727Y-84793019D01*
X140229788Y-84857791D01*
X139721789Y-85365791D01*
X139611668Y-85530598D01*
X139572999Y-85725001D01*
X139572999Y-95630999D01*
X139611668Y-95825402D01*
X139721789Y-95990209D01*
X140138714Y-96407134D01*
X140081199Y-96545646D01*
X140080802Y-97000359D01*
X140254446Y-97420612D01*
X140575697Y-97742423D01*
X140995646Y-97916801D01*
X141450359Y-97917198D01*
X141870612Y-97743554D01*
X142192423Y-97422303D01*
X142328434Y-97094750D01*
X146097000Y-97094750D01*
X146097000Y-97660309D01*
X146193673Y-97893698D01*
X146372301Y-98072327D01*
X146605690Y-98169000D01*
X146796250Y-98169000D01*
X146955000Y-98010250D01*
X146955000Y-96936000D01*
X147209000Y-96936000D01*
X147209000Y-98010250D01*
X147367750Y-98169000D01*
X147558310Y-98169000D01*
X147791699Y-98072327D01*
X147970327Y-97893698D01*
X148067000Y-97660309D01*
X148067000Y-97094750D01*
X147908250Y-96936000D01*
X147209000Y-96936000D01*
X146955000Y-96936000D01*
X146255750Y-96936000D01*
X146097000Y-97094750D01*
X142328434Y-97094750D01*
X142366801Y-97002354D01*
X142367198Y-96547641D01*
X142193554Y-96127388D01*
X142024153Y-95957691D01*
X146097000Y-95957691D01*
X146097000Y-96523250D01*
X146255750Y-96682000D01*
X146955000Y-96682000D01*
X146955000Y-95607750D01*
X147209000Y-95607750D01*
X147209000Y-96682000D01*
X147908250Y-96682000D01*
X148067000Y-96523250D01*
X148067000Y-96084000D01*
X148343536Y-96084000D01*
X148343536Y-97534000D01*
X148370103Y-97675190D01*
X148453546Y-97804865D01*
X148580866Y-97891859D01*
X148732000Y-97922464D01*
X149432000Y-97922464D01*
X149573190Y-97895897D01*
X149702865Y-97812454D01*
X149789859Y-97685134D01*
X149820464Y-97534000D01*
X149820464Y-96084000D01*
X149793897Y-95942810D01*
X149710454Y-95813135D01*
X149583134Y-95726141D01*
X149432000Y-95695536D01*
X148732000Y-95695536D01*
X148590810Y-95722103D01*
X148461135Y-95805546D01*
X148374141Y-95932866D01*
X148343536Y-96084000D01*
X148067000Y-96084000D01*
X148067000Y-95957691D01*
X147970327Y-95724302D01*
X147791699Y-95545673D01*
X147558310Y-95449000D01*
X147367750Y-95449000D01*
X147209000Y-95607750D01*
X146955000Y-95607750D01*
X146796250Y-95449000D01*
X146605690Y-95449000D01*
X146372301Y-95545673D01*
X146193673Y-95724302D01*
X146097000Y-95957691D01*
X142024153Y-95957691D01*
X141872303Y-95805577D01*
X141452354Y-95631199D01*
X140997641Y-95630802D01*
X140857236Y-95688816D01*
X140588999Y-95420579D01*
X140588999Y-95207946D01*
X140995646Y-95376801D01*
X141450359Y-95377198D01*
X141870612Y-95203554D01*
X142192423Y-94882303D01*
X142366801Y-94462354D01*
X142367198Y-94007641D01*
X142193554Y-93587388D01*
X141872303Y-93265577D01*
X141732000Y-93207318D01*
X141732000Y-91944750D01*
X146097000Y-91944750D01*
X146097000Y-92510309D01*
X146193673Y-92743698D01*
X146372301Y-92922327D01*
X146605690Y-93019000D01*
X146796250Y-93019000D01*
X146955000Y-92860250D01*
X146955000Y-91786000D01*
X147209000Y-91786000D01*
X147209000Y-92860250D01*
X147367750Y-93019000D01*
X147558310Y-93019000D01*
X147791699Y-92922327D01*
X147970327Y-92743698D01*
X148067000Y-92510309D01*
X148067000Y-91944750D01*
X147908250Y-91786000D01*
X147209000Y-91786000D01*
X146955000Y-91786000D01*
X146255750Y-91786000D01*
X146097000Y-91944750D01*
X141732000Y-91944750D01*
X141732000Y-91056062D01*
X141980371Y-90807691D01*
X146097000Y-90807691D01*
X146097000Y-91373250D01*
X146255750Y-91532000D01*
X146955000Y-91532000D01*
X146955000Y-90457750D01*
X147209000Y-90457750D01*
X147209000Y-91532000D01*
X147908250Y-91532000D01*
X148067000Y-91373250D01*
X148067000Y-90807691D01*
X147970327Y-90574302D01*
X147791699Y-90395673D01*
X147558310Y-90299000D01*
X147367750Y-90299000D01*
X147209000Y-90457750D01*
X146955000Y-90457750D01*
X146796250Y-90299000D01*
X146605690Y-90299000D01*
X146372301Y-90395673D01*
X146193673Y-90574302D01*
X146097000Y-90807691D01*
X141980371Y-90807691D01*
X142853210Y-89934852D01*
X142963331Y-89770046D01*
X142976740Y-89702631D01*
X143002000Y-89575642D01*
X143002000Y-86316420D01*
X143026339Y-86292081D01*
X148814157Y-86292081D01*
X149008560Y-86253412D01*
X149173367Y-86143291D01*
X149899000Y-85417659D01*
X149899000Y-86106309D01*
X149995673Y-86339698D01*
X150174301Y-86518327D01*
X150407690Y-86615000D01*
X151098250Y-86615000D01*
X151257000Y-86456250D01*
X151257000Y-85107000D01*
X151511000Y-85107000D01*
X151511000Y-86456250D01*
X151669750Y-86615000D01*
X152360310Y-86615000D01*
X152593699Y-86518327D01*
X152654000Y-86458026D01*
X152714301Y-86518327D01*
X152947690Y-86615000D01*
X153638250Y-86615000D01*
X153797000Y-86456250D01*
X153797000Y-85107000D01*
X154051000Y-85107000D01*
X154051000Y-86456250D01*
X154209750Y-86615000D01*
X154900310Y-86615000D01*
X155133699Y-86518327D01*
X155312327Y-86339698D01*
X155409000Y-86106309D01*
X155409000Y-85265750D01*
X155250250Y-85107000D01*
X154051000Y-85107000D01*
X153797000Y-85107000D01*
X151511000Y-85107000D01*
X151257000Y-85107000D01*
X151237000Y-85107000D01*
X151237000Y-84853000D01*
X151257000Y-84853000D01*
X151257000Y-83503750D01*
X151511000Y-83503750D01*
X151511000Y-84853000D01*
X153797000Y-84853000D01*
X153797000Y-83503750D01*
X154051000Y-83503750D01*
X154051000Y-84853000D01*
X155250250Y-84853000D01*
X155285513Y-84817737D01*
X155483787Y-84874608D01*
X156284395Y-84074000D01*
X155483787Y-83273392D01*
X155241603Y-83342857D01*
X155187245Y-83495220D01*
X155133699Y-83441673D01*
X154900310Y-83345000D01*
X154209750Y-83345000D01*
X154051000Y-83503750D01*
X153797000Y-83503750D01*
X153638250Y-83345000D01*
X152947690Y-83345000D01*
X152714301Y-83441673D01*
X152654000Y-83501974D01*
X152593699Y-83441673D01*
X152360310Y-83345000D01*
X151669750Y-83345000D01*
X151511000Y-83503750D01*
X151257000Y-83503750D01*
X151098250Y-83345000D01*
X150799420Y-83345000D01*
X151952347Y-82192073D01*
X152400000Y-82281117D01*
X152871083Y-82187413D01*
X153270448Y-81920565D01*
X153537296Y-81521200D01*
X153631000Y-81050117D01*
X153631000Y-81001883D01*
X153537296Y-80530800D01*
X153385084Y-80302999D01*
X153954916Y-80302999D01*
X153802704Y-80530800D01*
X153709000Y-81001883D01*
X153709000Y-81050117D01*
X153802704Y-81521200D01*
X154069552Y-81920565D01*
X154468917Y-82187413D01*
X154940000Y-82281117D01*
X155411083Y-82187413D01*
X155810448Y-81920565D01*
X155939302Y-81727722D01*
X156989992Y-82778412D01*
X156671698Y-82664856D01*
X156116632Y-82692638D01*
X155732857Y-82851603D01*
X155663392Y-83093787D01*
X156464000Y-83894395D01*
X156478143Y-83880253D01*
X156657748Y-84059858D01*
X156643605Y-84074000D01*
X156657748Y-84088143D01*
X156478143Y-84267748D01*
X156464000Y-84253605D01*
X155663392Y-85054213D01*
X155732857Y-85296397D01*
X156230258Y-85473852D01*
X155817388Y-85644446D01*
X155495577Y-85965697D01*
X155321199Y-86385646D01*
X155320802Y-86840359D01*
X155471973Y-87206222D01*
X155357402Y-87129668D01*
X155162999Y-87090999D01*
X150229199Y-87090999D01*
X150034795Y-87129668D01*
X149869989Y-87239789D01*
X149793789Y-87315989D01*
X149683668Y-87480796D01*
X149644999Y-87675199D01*
X149644999Y-90174581D01*
X149274044Y-90545536D01*
X148732000Y-90545536D01*
X148590810Y-90572103D01*
X148461135Y-90655546D01*
X148374141Y-90782866D01*
X148343536Y-90934000D01*
X148343536Y-92384000D01*
X148370103Y-92525190D01*
X148453546Y-92654865D01*
X148580866Y-92741859D01*
X148732000Y-92772464D01*
X149432000Y-92772464D01*
X149573190Y-92745897D01*
X149702865Y-92662454D01*
X149789859Y-92535134D01*
X149820464Y-92384000D01*
X149820464Y-91435956D01*
X150088412Y-91168008D01*
X149974856Y-91486302D01*
X150002638Y-92041368D01*
X150161603Y-92425143D01*
X150403787Y-92494608D01*
X151204395Y-91694000D01*
X151190253Y-91679858D01*
X151369858Y-91500253D01*
X151384000Y-91514395D01*
X151398143Y-91500253D01*
X151577748Y-91679858D01*
X151563605Y-91694000D01*
X151577748Y-91708143D01*
X151398143Y-91887748D01*
X151384000Y-91873605D01*
X150583392Y-92674213D01*
X150652857Y-92916397D01*
X151150258Y-93093852D01*
X150737388Y-93264446D01*
X150415577Y-93585697D01*
X150241199Y-94005646D01*
X150240802Y-94460359D01*
X150414446Y-94880612D01*
X150735697Y-95202423D01*
X151155646Y-95376801D01*
X151610359Y-95377198D01*
X152030612Y-95203554D01*
X152352423Y-94882303D01*
X152526801Y-94462354D01*
X152527198Y-94007641D01*
X152469184Y-93867236D01*
X152886211Y-93450209D01*
X152996332Y-93285403D01*
X153035001Y-93090999D01*
X153035001Y-92762607D01*
X153123393Y-92674215D01*
X153192857Y-92916397D01*
X153690258Y-93093852D01*
X153277388Y-93264446D01*
X152955577Y-93585697D01*
X152781199Y-94005646D01*
X152780802Y-94460359D01*
X152954446Y-94880612D01*
X153275697Y-95202423D01*
X153695646Y-95376801D01*
X154150359Y-95377198D01*
X154570612Y-95203554D01*
X154892423Y-94882303D01*
X155066801Y-94462354D01*
X155067198Y-94007641D01*
X155009184Y-93867236D01*
X155426211Y-93450209D01*
X155536332Y-93285403D01*
X155575001Y-93090999D01*
X155575001Y-90805001D01*
X157012641Y-90805001D01*
X157207044Y-90766332D01*
X157371851Y-90656211D01*
X158294000Y-89734062D01*
X158294000Y-105124566D01*
X158115001Y-104945567D01*
X158115001Y-102997001D01*
X158076332Y-102802598D01*
X157966212Y-102637791D01*
X157549286Y-102220865D01*
X157606801Y-102082354D01*
X157607198Y-101627641D01*
X157433554Y-101207388D01*
X157112303Y-100885577D01*
X156692354Y-100711199D01*
X156237641Y-100710802D01*
X155817388Y-100884446D01*
X155633967Y-101067547D01*
X154333464Y-99767044D01*
X154333464Y-99022999D01*
X155347212Y-99022999D01*
X155321199Y-99085646D01*
X155320802Y-99540359D01*
X155494446Y-99960612D01*
X155815697Y-100282423D01*
X156235646Y-100456801D01*
X156690359Y-100457198D01*
X157110612Y-100283554D01*
X157432423Y-99962303D01*
X157606801Y-99542354D01*
X157607198Y-99087641D01*
X157433554Y-98667388D01*
X157112303Y-98345577D01*
X156692354Y-98171199D01*
X156237641Y-98170802D01*
X156097236Y-98228816D01*
X156024209Y-98155789D01*
X155890184Y-98066236D01*
X156097134Y-97859286D01*
X156235646Y-97916801D01*
X156690359Y-97917198D01*
X157110612Y-97743554D01*
X157432423Y-97422303D01*
X157606801Y-97002354D01*
X157607198Y-96547641D01*
X157433554Y-96127388D01*
X157112303Y-95805577D01*
X156692354Y-95631199D01*
X156237641Y-95630802D01*
X155817388Y-95804446D01*
X155495577Y-96125697D01*
X155321199Y-96545646D01*
X155320802Y-97000359D01*
X155378816Y-97140764D01*
X155110579Y-97409001D01*
X154897946Y-97409001D01*
X155066801Y-97002354D01*
X155067198Y-96547641D01*
X154893554Y-96127388D01*
X154572303Y-95805577D01*
X154152354Y-95631199D01*
X153697641Y-95630802D01*
X153277388Y-95804446D01*
X152955577Y-96125697D01*
X152897318Y-96266000D01*
X152410827Y-96266000D01*
X152353554Y-96127388D01*
X152032303Y-95805577D01*
X151612354Y-95631199D01*
X151157641Y-95630802D01*
X150737388Y-95804446D01*
X150415577Y-96125697D01*
X150241199Y-96545646D01*
X150240802Y-97000359D01*
X150414446Y-97420612D01*
X150735697Y-97742423D01*
X151155646Y-97916801D01*
X151610359Y-97917198D01*
X151731393Y-97867188D01*
X151591582Y-98006999D01*
X148390199Y-98006999D01*
X148195796Y-98045668D01*
X148030989Y-98155789D01*
X147679242Y-98507536D01*
X146695000Y-98507536D01*
X146553810Y-98534103D01*
X146424135Y-98617546D01*
X146337141Y-98744866D01*
X146320494Y-98827072D01*
X146306897Y-98754810D01*
X146223454Y-98625135D01*
X146096134Y-98538141D01*
X145945000Y-98507536D01*
X144695000Y-98507536D01*
X144553810Y-98534103D01*
X144424135Y-98617546D01*
X144337141Y-98744866D01*
X144320494Y-98827072D01*
X144306897Y-98754810D01*
X144223454Y-98625135D01*
X144096134Y-98538141D01*
X143945000Y-98507536D01*
X142695000Y-98507536D01*
X142553810Y-98534103D01*
X142497441Y-98570375D01*
X142483327Y-98536302D01*
X142304699Y-98357673D01*
X142071310Y-98261000D01*
X141605750Y-98261000D01*
X141447000Y-98419750D01*
X141447000Y-99769000D01*
X141467000Y-99769000D01*
X141467000Y-100023000D01*
X141447000Y-100023000D01*
X141447000Y-101372250D01*
X141605750Y-101531000D01*
X142071310Y-101531000D01*
X142304699Y-101434327D01*
X142483327Y-101255698D01*
X142497275Y-101222025D01*
X142543866Y-101253859D01*
X142695000Y-101284464D01*
X143945000Y-101284464D01*
X144086190Y-101257897D01*
X144215865Y-101174454D01*
X144302859Y-101047134D01*
X144319506Y-100964928D01*
X144333103Y-101037190D01*
X144416546Y-101166865D01*
X144543866Y-101253859D01*
X144695000Y-101284464D01*
X145945000Y-101284464D01*
X146086190Y-101257897D01*
X146215865Y-101174454D01*
X146302859Y-101047134D01*
X146319506Y-100964928D01*
X146333103Y-101037190D01*
X146416546Y-101166865D01*
X146543866Y-101253859D01*
X146695000Y-101284464D01*
X147004572Y-101284464D01*
X147125597Y-101365331D01*
X147320000Y-101404000D01*
X147514403Y-101365331D01*
X147635428Y-101284464D01*
X147945000Y-101284464D01*
X148086190Y-101257897D01*
X148215865Y-101174454D01*
X148302859Y-101047134D01*
X148319506Y-100964928D01*
X148333103Y-101037190D01*
X148416546Y-101166865D01*
X148543866Y-101253859D01*
X148695000Y-101284464D01*
X148990044Y-101284464D01*
X149410790Y-101705210D01*
X149575596Y-101815331D01*
X149770000Y-101854000D01*
X153967580Y-101854000D01*
X154304989Y-102191409D01*
X154304989Y-102870000D01*
X154343658Y-103064403D01*
X154453779Y-103229210D01*
X154812999Y-103588431D01*
X154812999Y-105282999D01*
X154851668Y-105477402D01*
X154961789Y-105642209D01*
X155342790Y-106023210D01*
X155507597Y-106133331D01*
X155624846Y-106156653D01*
X155495577Y-106285697D01*
X155321199Y-106705646D01*
X155320802Y-107160359D01*
X155378816Y-107300764D01*
X154834790Y-107844790D01*
X154724669Y-108009597D01*
X154686000Y-108204000D01*
X154686000Y-109771578D01*
X154326788Y-110130790D01*
X154216667Y-110295597D01*
X154177998Y-110490000D01*
X154177998Y-112057582D01*
X152951580Y-113284000D01*
X152024000Y-113284000D01*
X151861850Y-113316254D01*
X151829596Y-113322669D01*
X151664790Y-113432790D01*
X150990044Y-114107536D01*
X150695000Y-114107536D01*
X150553810Y-114134103D01*
X150424135Y-114217546D01*
X150337141Y-114344866D01*
X150320494Y-114427072D01*
X150306897Y-114354810D01*
X150223454Y-114225135D01*
X150096134Y-114138141D01*
X149945000Y-114107536D01*
X148695000Y-114107536D01*
X148553810Y-114134103D01*
X148424135Y-114217546D01*
X148337141Y-114344866D01*
X148320494Y-114427072D01*
X148306897Y-114354810D01*
X148223454Y-114225135D01*
X148096134Y-114138141D01*
X147945000Y-114107536D01*
X147635428Y-114107536D01*
X147514403Y-114026669D01*
X147320000Y-113988000D01*
X147125597Y-114026669D01*
X147004572Y-114107536D01*
X146695000Y-114107536D01*
X146553810Y-114134103D01*
X146497441Y-114170375D01*
X146483327Y-114136302D01*
X146304699Y-113957673D01*
X146071310Y-113861000D01*
X145605750Y-113861000D01*
X145447000Y-114019750D01*
X145447000Y-115369000D01*
X145467000Y-115369000D01*
X145467000Y-115623000D01*
X145447000Y-115623000D01*
X145447000Y-116972250D01*
X145577165Y-117102415D01*
X141590866Y-121088714D01*
X141452354Y-121031199D01*
X140997641Y-121030802D01*
X140577388Y-121204446D01*
X140255577Y-121525697D01*
X140081199Y-121945646D01*
X140080802Y-122400359D01*
X140254446Y-122820612D01*
X140575697Y-123142423D01*
X140995646Y-123316801D01*
X141450359Y-123317198D01*
X141870612Y-123143554D01*
X142192423Y-122822303D01*
X142366801Y-122402354D01*
X142367198Y-121947641D01*
X142309184Y-121807236D01*
X147231956Y-116884464D01*
X147945000Y-116884464D01*
X148086190Y-116857897D01*
X148215865Y-116774454D01*
X148302859Y-116647134D01*
X148319506Y-116564928D01*
X148333103Y-116637190D01*
X148416546Y-116766865D01*
X148543866Y-116853859D01*
X148695000Y-116884464D01*
X149679242Y-116884464D01*
X150030989Y-117236211D01*
X150195796Y-117346332D01*
X150390199Y-117385001D01*
X154249801Y-117385001D01*
X154444204Y-117346332D01*
X154609011Y-117236211D01*
X154791210Y-117054012D01*
X154901331Y-116889206D01*
X154924156Y-116774454D01*
X154940000Y-116694802D01*
X154940000Y-114764420D01*
X155998778Y-113705642D01*
X156972000Y-113705642D01*
X157166403Y-113666973D01*
X157331210Y-113556852D01*
X158294000Y-112594062D01*
X158294000Y-121392103D01*
X158228382Y-121721989D01*
X158052785Y-121984787D01*
X157789989Y-122160382D01*
X157460103Y-122226000D01*
X143764000Y-122226000D01*
X143744488Y-122229881D01*
X143724592Y-122229881D01*
X143335786Y-122307219D01*
X143335785Y-122307219D01*
X143262969Y-122337381D01*
X142933354Y-122557623D01*
X142905489Y-122585489D01*
X142877623Y-122613354D01*
X142657381Y-122942968D01*
X142657381Y-122942969D01*
X142627219Y-123015786D01*
X142549881Y-123404592D01*
X142549881Y-123424488D01*
X142546000Y-123444000D01*
X142546000Y-126763320D01*
X142446397Y-126522857D01*
X142204213Y-126453392D01*
X141403605Y-127254000D01*
X142204213Y-128054608D01*
X142446397Y-127985143D01*
X142546000Y-127705959D01*
X142546000Y-127742103D01*
X142480382Y-128071989D01*
X142304785Y-128334787D01*
X142041989Y-128510382D01*
X141717061Y-128575014D01*
X141955143Y-128476397D01*
X142024608Y-128234213D01*
X141224000Y-127433605D01*
X140423392Y-128234213D01*
X140492857Y-128476397D01*
X140772041Y-128576000D01*
X140227897Y-128576000D01*
X139898011Y-128510382D01*
X139635213Y-128334785D01*
X139459618Y-128071989D01*
X139394000Y-127742103D01*
X139394000Y-127046302D01*
X139814856Y-127046302D01*
X139842638Y-127601368D01*
X140001603Y-127985143D01*
X140243787Y-128054608D01*
X141044395Y-127254000D01*
X140243787Y-126453392D01*
X140001603Y-126522857D01*
X139814856Y-127046302D01*
X139394000Y-127046302D01*
X139394000Y-124940359D01*
X140080802Y-124940359D01*
X140254446Y-125360612D01*
X140575697Y-125682423D01*
X140995646Y-125856801D01*
X141189660Y-125856970D01*
X140876632Y-125872638D01*
X140492857Y-126031603D01*
X140423392Y-126273787D01*
X141224000Y-127074395D01*
X142024608Y-126273787D01*
X141955143Y-126031603D01*
X141457742Y-125854148D01*
X141870612Y-125683554D01*
X142192423Y-125362303D01*
X142366801Y-124942354D01*
X142367198Y-124487641D01*
X142193554Y-124067388D01*
X141872303Y-123745577D01*
X141452354Y-123571199D01*
X140997641Y-123570802D01*
X140577388Y-123744446D01*
X140255577Y-124065697D01*
X140081199Y-124485646D01*
X140080802Y-124940359D01*
X139394000Y-124940359D01*
X139394000Y-114592000D01*
X140093000Y-114592000D01*
X140093000Y-117856000D01*
X140179092Y-118288815D01*
X140424262Y-118655738D01*
X140791185Y-118900908D01*
X141224000Y-118987000D01*
X141656815Y-118900908D01*
X142023738Y-118655738D01*
X142268908Y-118288815D01*
X142355000Y-117856000D01*
X142355000Y-116671219D01*
X142416546Y-116766865D01*
X142543866Y-116853859D01*
X142695000Y-116884464D01*
X142748000Y-116884464D01*
X142748000Y-117146874D01*
X142679013Y-117215741D01*
X142575118Y-117465946D01*
X142574882Y-117736865D01*
X142678339Y-117987252D01*
X142869741Y-118178987D01*
X143119946Y-118282882D01*
X143390865Y-118283118D01*
X143641252Y-118179661D01*
X143832987Y-117988259D01*
X143936882Y-117738054D01*
X143937118Y-117467135D01*
X143833661Y-117216748D01*
X143764000Y-117146966D01*
X143764000Y-116884464D01*
X143945000Y-116884464D01*
X144086190Y-116857897D01*
X144142559Y-116821625D01*
X144156673Y-116855698D01*
X144335301Y-117034327D01*
X144568690Y-117131000D01*
X145034250Y-117131000D01*
X145193000Y-116972250D01*
X145193000Y-115623000D01*
X145173000Y-115623000D01*
X145173000Y-115369000D01*
X145193000Y-115369000D01*
X145193000Y-114019750D01*
X145034250Y-113861000D01*
X144568690Y-113861000D01*
X144335301Y-113957673D01*
X144156673Y-114136302D01*
X144142725Y-114169975D01*
X144096134Y-114138141D01*
X143945000Y-114107536D01*
X143635429Y-114107536D01*
X143514404Y-114026669D01*
X143320000Y-113988000D01*
X143125597Y-114026669D01*
X143004572Y-114107536D01*
X142695000Y-114107536D01*
X142553810Y-114134103D01*
X142424135Y-114217546D01*
X142337141Y-114344866D01*
X142321352Y-114422837D01*
X142268908Y-114159185D01*
X142023738Y-113792262D01*
X141656815Y-113547092D01*
X141224000Y-113461000D01*
X140791185Y-113547092D01*
X140424262Y-113792262D01*
X140179092Y-114159185D01*
X140093000Y-114592000D01*
X139394000Y-114592000D01*
X139394000Y-100181750D01*
X140060000Y-100181750D01*
X140060000Y-101022309D01*
X140156673Y-101255698D01*
X140335301Y-101434327D01*
X140568690Y-101531000D01*
X141034250Y-101531000D01*
X141193000Y-101372250D01*
X141193000Y-100023000D01*
X140218750Y-100023000D01*
X140060000Y-100181750D01*
X139394000Y-100181750D01*
X139394000Y-98769691D01*
X140060000Y-98769691D01*
X140060000Y-99610250D01*
X140218750Y-99769000D01*
X141193000Y-99769000D01*
X141193000Y-98419750D01*
X141034250Y-98261000D01*
X140568690Y-98261000D01*
X140335301Y-98357673D01*
X140156673Y-98536302D01*
X140060000Y-98769691D01*
X139394000Y-98769691D01*
X139394000Y-81311750D01*
X140755000Y-81311750D01*
X140755000Y-82002309D01*
X140851673Y-82235698D01*
X141030301Y-82414327D01*
X141263690Y-82511000D01*
X141954250Y-82511000D01*
X142113000Y-82352250D01*
X142113000Y-81153000D01*
X140913750Y-81153000D01*
X140755000Y-81311750D01*
X139394000Y-81311750D01*
X139394000Y-80537897D01*
X139459618Y-80208011D01*
X139635213Y-79945215D01*
X139898011Y-79769618D01*
X140227897Y-79704000D01*
X140963974Y-79704000D01*
X140851673Y-79816302D01*
G36*
X154117748Y-91679858D02*
X154103605Y-91694000D01*
X154117748Y-91708143D01*
X153938143Y-91887748D01*
X153924000Y-91873605D01*
X153909858Y-91887748D01*
X153730253Y-91708143D01*
X153744395Y-91694000D01*
X153730253Y-91679858D01*
X153909858Y-91500253D01*
X153924000Y-91514395D01*
X153938143Y-91500253D01*
X154117748Y-91679858D01*
X154117748Y-91679858D01*
G37*
X154117748Y-91679858D02*
X154103605Y-91694000D01*
X154117748Y-91708143D01*
X153938143Y-91887748D01*
X153924000Y-91873605D01*
X153909858Y-91887748D01*
X153730253Y-91708143D01*
X153744395Y-91694000D01*
X153730253Y-91679858D01*
X153909858Y-91500253D01*
X153924000Y-91514395D01*
X153938143Y-91500253D01*
X154117748Y-91679858D01*
G36*
X146182704Y-80530800D02*
X146089000Y-81001883D01*
X146089000Y-81050117D01*
X146182704Y-81521200D01*
X146449552Y-81920565D01*
X146812000Y-82162746D01*
X146812000Y-82380547D01*
X146686810Y-82404103D01*
X146557135Y-82487546D01*
X146470141Y-82614866D01*
X146439536Y-82766000D01*
X146439536Y-84366000D01*
X146466103Y-84507190D01*
X146549546Y-84636865D01*
X146655121Y-84709001D01*
X145373244Y-84709001D01*
X145463000Y-84492310D01*
X145463000Y-83851750D01*
X145304250Y-83693000D01*
X143955000Y-83693000D01*
X143955000Y-83713000D01*
X143701000Y-83713000D01*
X143701000Y-83693000D01*
X143681000Y-83693000D01*
X143681000Y-83439000D01*
X143701000Y-83439000D01*
X143701000Y-82289750D01*
X143633781Y-82222531D01*
X143725000Y-82002309D01*
X143725000Y-81644364D01*
X143909552Y-81920565D01*
X144224489Y-82131000D01*
X144113750Y-82131000D01*
X143955000Y-82289750D01*
X143955000Y-83439000D01*
X145304250Y-83439000D01*
X145463000Y-83280250D01*
X145463000Y-82639690D01*
X145366327Y-82406301D01*
X145187698Y-82227673D01*
X145142598Y-82208992D01*
X145251083Y-82187413D01*
X145650448Y-81920565D01*
X145917296Y-81521200D01*
X146011000Y-81050117D01*
X146011000Y-81001883D01*
X145929959Y-80594461D01*
X146221421Y-80302999D01*
X146334916Y-80302999D01*
X146182704Y-80530800D01*
X146182704Y-80530800D01*
G37*
X146182704Y-80530800D02*
X146089000Y-81001883D01*
X146089000Y-81050117D01*
X146182704Y-81521200D01*
X146449552Y-81920565D01*
X146812000Y-82162746D01*
X146812000Y-82380547D01*
X146686810Y-82404103D01*
X146557135Y-82487546D01*
X146470141Y-82614866D01*
X146439536Y-82766000D01*
X146439536Y-84366000D01*
X146466103Y-84507190D01*
X146549546Y-84636865D01*
X146655121Y-84709001D01*
X145373244Y-84709001D01*
X145463000Y-84492310D01*
X145463000Y-83851750D01*
X145304250Y-83693000D01*
X143955000Y-83693000D01*
X143955000Y-83713000D01*
X143701000Y-83713000D01*
X143701000Y-83693000D01*
X143681000Y-83693000D01*
X143681000Y-83439000D01*
X143701000Y-83439000D01*
X143701000Y-82289750D01*
X143633781Y-82222531D01*
X143725000Y-82002309D01*
X143725000Y-81644364D01*
X143909552Y-81920565D01*
X144224489Y-82131000D01*
X144113750Y-82131000D01*
X143955000Y-82289750D01*
X143955000Y-83439000D01*
X145304250Y-83439000D01*
X145463000Y-83280250D01*
X145463000Y-82639690D01*
X145366327Y-82406301D01*
X145187698Y-82227673D01*
X145142598Y-82208992D01*
X145251083Y-82187413D01*
X145650448Y-81920565D01*
X145917296Y-81521200D01*
X146011000Y-81050117D01*
X146011000Y-81001883D01*
X145929959Y-80594461D01*
X146221421Y-80302999D01*
X146334916Y-80302999D01*
X146182704Y-80530800D01*
M02*
