G04 #@! TF.FileFunction,Copper,L2,Bot,Signal*
%FSLAX46Y46*%
G04 Gerber Fmt 4.6, Leading zero omitted, Abs format (unit mm)*
G04 Created by KiCad (PCBNEW 4.0.4-stable) date Monday, 09. January 2017 'u29' 17:29:47*
%MOMM*%
%LPD*%
G01*
G04 APERTURE LIST*
%ADD10C,0.200000*%
%ADD11R,1.700000X1.700000*%
%ADD12O,1.700000X1.700000*%
%ADD13C,1.143000*%
%ADD14C,1.524000*%
%ADD15C,0.600000*%
%ADD16C,0.254000*%
G04 APERTURE END LIST*
D10*
D11*
X142240000Y-81026000D03*
D12*
X144780000Y-81026000D03*
X147320000Y-81026000D03*
X149860000Y-81026000D03*
X152400000Y-81026000D03*
X154940000Y-81026000D03*
D13*
X141224000Y-117856000D03*
D14*
X141224000Y-84074000D03*
X141224000Y-86614000D03*
X141224000Y-94234000D03*
X141224000Y-96774000D03*
X156464000Y-109474000D03*
X156464000Y-106934000D03*
X156464000Y-104394000D03*
X156464000Y-101854000D03*
X156464000Y-89154000D03*
X156464000Y-86614000D03*
X156464000Y-84074000D03*
X153924000Y-91694000D03*
X153924000Y-94234000D03*
X153924000Y-96774000D03*
X151384000Y-91694000D03*
X151384000Y-94234000D03*
X151384000Y-96774000D03*
X141224000Y-124714000D03*
X141224000Y-122174000D03*
X156464000Y-99314000D03*
X156464000Y-96774000D03*
X156464000Y-112014000D03*
X141224000Y-127254000D03*
X141224000Y-89154000D03*
D15*
X145288000Y-113030000D03*
X142748000Y-112268000D03*
X146812000Y-111760000D03*
X150368000Y-112522000D03*
X152908000Y-110236000D03*
X150876000Y-109220000D03*
X148844000Y-109728000D03*
X144780000Y-110744000D03*
X140970000Y-111252000D03*
X143764000Y-108712000D03*
X146304000Y-108712000D03*
X147574000Y-106680000D03*
X151638000Y-107442000D03*
X153670000Y-104394000D03*
X151892000Y-103886000D03*
X148844000Y-105156000D03*
X149098000Y-102870000D03*
X144780000Y-106934000D03*
X141478000Y-107950000D03*
X144018000Y-104902000D03*
X146050000Y-103124000D03*
X141732000Y-103378000D03*
X143256000Y-117602000D03*
D16*
X142748000Y-112268000D02*
X144526000Y-112268000D01*
X144526000Y-112268000D02*
X145288000Y-113030000D01*
X150368000Y-112522000D02*
X147574000Y-112522000D01*
X147574000Y-112522000D02*
X146812000Y-111760000D01*
X150876000Y-109220000D02*
X151892000Y-109220000D01*
X151892000Y-109220000D02*
X152908000Y-110236000D01*
X144780000Y-110744000D02*
X145796000Y-109728000D01*
X145796000Y-109728000D02*
X148844000Y-109728000D01*
X143764000Y-108712000D02*
X141224000Y-111252000D01*
X141224000Y-111252000D02*
X140970000Y-111252000D01*
X147574000Y-106680000D02*
X147574000Y-107442000D01*
X147574000Y-107442000D02*
X146304000Y-108712000D01*
X153670000Y-104394000D02*
X153670000Y-105410000D01*
X153670000Y-105410000D02*
X151638000Y-107442000D01*
X148844000Y-105156000D02*
X150114000Y-103886000D01*
X150114000Y-103886000D02*
X151892000Y-103886000D01*
X144780000Y-106934000D02*
X148844000Y-102870000D01*
X148844000Y-102870000D02*
X149098000Y-102870000D01*
X144018000Y-104902000D02*
X144018000Y-105410000D01*
X144018000Y-105410000D02*
X141478000Y-107950000D01*
X141732000Y-103378000D02*
X145796000Y-103378000D01*
X145796000Y-103378000D02*
X146050000Y-103124000D01*
X157988000Y-88138000D02*
X157988000Y-95504000D01*
X157988000Y-95504000D02*
X157988000Y-120650000D01*
X153924000Y-96774000D02*
X155194000Y-95504000D01*
X155194000Y-95504000D02*
X157988000Y-95504000D01*
X156464000Y-86614000D02*
X157988000Y-88138000D01*
X157988000Y-120650000D02*
X156718000Y-121920000D01*
X144018000Y-121920000D02*
X143256000Y-121158000D01*
X156718000Y-121920000D02*
X144018000Y-121920000D01*
X143256000Y-121158000D02*
X143256000Y-120650000D01*
X143256000Y-120650000D02*
X143256000Y-117602000D01*
X141224000Y-124714000D02*
X139700000Y-123190000D01*
X141085199Y-79794999D02*
X146088999Y-79794999D01*
X139700000Y-123190000D02*
X139700000Y-81180198D01*
X139700000Y-81180198D02*
X141085199Y-79794999D01*
X146088999Y-79794999D02*
X147320000Y-81026000D01*
G36*
X157789989Y-79769618D02*
X158052785Y-79945213D01*
X158228382Y-80208011D01*
X158294000Y-80537897D01*
X158294000Y-87725579D01*
X157549286Y-86980866D01*
X157606801Y-86842354D01*
X157607198Y-86387641D01*
X157433554Y-85967388D01*
X157112303Y-85645577D01*
X156692354Y-85471199D01*
X156498340Y-85471030D01*
X156811368Y-85455362D01*
X157195143Y-85296397D01*
X157264608Y-85054213D01*
X156464000Y-84253605D01*
X155663392Y-85054213D01*
X155732857Y-85296397D01*
X156230258Y-85473852D01*
X155817388Y-85644446D01*
X155495577Y-85965697D01*
X155321199Y-86385646D01*
X155320802Y-86840359D01*
X155494446Y-87260612D01*
X155815697Y-87582423D01*
X156235646Y-87756801D01*
X156690359Y-87757198D01*
X156830764Y-87699184D01*
X157480000Y-88348421D01*
X157480000Y-88619797D01*
X157433554Y-88507388D01*
X157112303Y-88185577D01*
X156692354Y-88011199D01*
X156237641Y-88010802D01*
X155817388Y-88184446D01*
X155495577Y-88505697D01*
X155321199Y-88925646D01*
X155320802Y-89380359D01*
X155494446Y-89800612D01*
X155815697Y-90122423D01*
X156235646Y-90296801D01*
X156690359Y-90297198D01*
X157110612Y-90123554D01*
X157432423Y-89802303D01*
X157480000Y-89687725D01*
X157480000Y-94996000D01*
X155194000Y-94996000D01*
X155031850Y-95028254D01*
X154999596Y-95034669D01*
X154834790Y-95144790D01*
X154290866Y-95688714D01*
X154152354Y-95631199D01*
X153697641Y-95630802D01*
X153277388Y-95804446D01*
X152955577Y-96125697D01*
X152781199Y-96545646D01*
X152780802Y-97000359D01*
X152954446Y-97420612D01*
X153275697Y-97742423D01*
X153695646Y-97916801D01*
X154150359Y-97917198D01*
X154570612Y-97743554D01*
X154892423Y-97422303D01*
X155066801Y-97002354D01*
X155067198Y-96547641D01*
X155009184Y-96407236D01*
X155404420Y-96012000D01*
X155609472Y-96012000D01*
X155495577Y-96125697D01*
X155321199Y-96545646D01*
X155320802Y-97000359D01*
X155494446Y-97420612D01*
X155815697Y-97742423D01*
X156235646Y-97916801D01*
X156690359Y-97917198D01*
X157110612Y-97743554D01*
X157432423Y-97422303D01*
X157480000Y-97307725D01*
X157480000Y-98779797D01*
X157433554Y-98667388D01*
X157112303Y-98345577D01*
X156692354Y-98171199D01*
X156237641Y-98170802D01*
X155817388Y-98344446D01*
X155495577Y-98665697D01*
X155321199Y-99085646D01*
X155320802Y-99540359D01*
X155494446Y-99960612D01*
X155815697Y-100282423D01*
X156235646Y-100456801D01*
X156690359Y-100457198D01*
X157110612Y-100283554D01*
X157432423Y-99962303D01*
X157480000Y-99847725D01*
X157480000Y-101319797D01*
X157433554Y-101207388D01*
X157112303Y-100885577D01*
X156692354Y-100711199D01*
X156237641Y-100710802D01*
X155817388Y-100884446D01*
X155495577Y-101205697D01*
X155321199Y-101625646D01*
X155320802Y-102080359D01*
X155494446Y-102500612D01*
X155815697Y-102822423D01*
X156235646Y-102996801D01*
X156690359Y-102997198D01*
X157110612Y-102823554D01*
X157432423Y-102502303D01*
X157480000Y-102387725D01*
X157480000Y-103859797D01*
X157433554Y-103747388D01*
X157112303Y-103425577D01*
X156692354Y-103251199D01*
X156237641Y-103250802D01*
X155817388Y-103424446D01*
X155495577Y-103745697D01*
X155321199Y-104165646D01*
X155320802Y-104620359D01*
X155494446Y-105040612D01*
X155815697Y-105362423D01*
X156235646Y-105536801D01*
X156690359Y-105537198D01*
X157110612Y-105363554D01*
X157432423Y-105042303D01*
X157480000Y-104927725D01*
X157480000Y-106399797D01*
X157433554Y-106287388D01*
X157112303Y-105965577D01*
X156692354Y-105791199D01*
X156237641Y-105790802D01*
X155817388Y-105964446D01*
X155495577Y-106285697D01*
X155321199Y-106705646D01*
X155320802Y-107160359D01*
X155494446Y-107580612D01*
X155815697Y-107902423D01*
X156235646Y-108076801D01*
X156690359Y-108077198D01*
X157110612Y-107903554D01*
X157432423Y-107582303D01*
X157480000Y-107467725D01*
X157480000Y-108939797D01*
X157433554Y-108827388D01*
X157112303Y-108505577D01*
X156692354Y-108331199D01*
X156237641Y-108330802D01*
X155817388Y-108504446D01*
X155495577Y-108825697D01*
X155321199Y-109245646D01*
X155320802Y-109700359D01*
X155494446Y-110120612D01*
X155815697Y-110442423D01*
X156235646Y-110616801D01*
X156690359Y-110617198D01*
X157110612Y-110443554D01*
X157432423Y-110122303D01*
X157480000Y-110007725D01*
X157480000Y-111479797D01*
X157433554Y-111367388D01*
X157112303Y-111045577D01*
X156692354Y-110871199D01*
X156237641Y-110870802D01*
X155817388Y-111044446D01*
X155495577Y-111365697D01*
X155321199Y-111785646D01*
X155320802Y-112240359D01*
X155494446Y-112660612D01*
X155815697Y-112982423D01*
X156235646Y-113156801D01*
X156690359Y-113157198D01*
X157110612Y-112983554D01*
X157432423Y-112662303D01*
X157480000Y-112547725D01*
X157480000Y-120439580D01*
X156507580Y-121412000D01*
X144228420Y-121412000D01*
X143764000Y-120947580D01*
X143764000Y-118057126D01*
X143832987Y-117988259D01*
X143936882Y-117738054D01*
X143937118Y-117467135D01*
X143833661Y-117216748D01*
X143642259Y-117025013D01*
X143392054Y-116921118D01*
X143121135Y-116920882D01*
X142870748Y-117024339D01*
X142679013Y-117215741D01*
X142575118Y-117465946D01*
X142574882Y-117736865D01*
X142678339Y-117987252D01*
X142748000Y-118057034D01*
X142748000Y-121158000D01*
X142786669Y-121352403D01*
X142896790Y-121517210D01*
X143628562Y-122248982D01*
X143335786Y-122307219D01*
X143335785Y-122307219D01*
X143262969Y-122337381D01*
X142933354Y-122557623D01*
X142905489Y-122585489D01*
X142877623Y-122613354D01*
X142657381Y-122942968D01*
X142627219Y-123015785D01*
X142627219Y-123015786D01*
X142549881Y-123404592D01*
X142549881Y-123424488D01*
X142546000Y-123444000D01*
X142546000Y-126763320D01*
X142446397Y-126522857D01*
X142204213Y-126453392D01*
X141403605Y-127254000D01*
X142204213Y-128054608D01*
X142446397Y-127985143D01*
X142546000Y-127705959D01*
X142546000Y-127742103D01*
X142480382Y-128071989D01*
X142304785Y-128334787D01*
X142041989Y-128510382D01*
X141717061Y-128575014D01*
X141955143Y-128476397D01*
X142024608Y-128234213D01*
X141224000Y-127433605D01*
X140423392Y-128234213D01*
X140492857Y-128476397D01*
X140772041Y-128576000D01*
X140227897Y-128576000D01*
X139898011Y-128510382D01*
X139635213Y-128334785D01*
X139459618Y-128071989D01*
X139394000Y-127742103D01*
X139394000Y-127046302D01*
X139814856Y-127046302D01*
X139842638Y-127601368D01*
X140001603Y-127985143D01*
X140243787Y-128054608D01*
X141044395Y-127254000D01*
X140243787Y-126453392D01*
X140001603Y-126522857D01*
X139814856Y-127046302D01*
X139394000Y-127046302D01*
X139394000Y-123602420D01*
X140138714Y-124347135D01*
X140081199Y-124485646D01*
X140080802Y-124940359D01*
X140254446Y-125360612D01*
X140575697Y-125682423D01*
X140995646Y-125856801D01*
X141189660Y-125856970D01*
X140876632Y-125872638D01*
X140492857Y-126031603D01*
X140423392Y-126273787D01*
X141224000Y-127074395D01*
X142024608Y-126273787D01*
X141955143Y-126031603D01*
X141457742Y-125854148D01*
X141870612Y-125683554D01*
X142192423Y-125362303D01*
X142366801Y-124942354D01*
X142367198Y-124487641D01*
X142193554Y-124067388D01*
X141872303Y-123745577D01*
X141452354Y-123571199D01*
X140997641Y-123570802D01*
X140857236Y-123628816D01*
X140208000Y-122979580D01*
X140208000Y-122708203D01*
X140254446Y-122820612D01*
X140575697Y-123142423D01*
X140995646Y-123316801D01*
X141450359Y-123317198D01*
X141870612Y-123143554D01*
X142192423Y-122822303D01*
X142366801Y-122402354D01*
X142367198Y-121947641D01*
X142193554Y-121527388D01*
X141872303Y-121205577D01*
X141452354Y-121031199D01*
X140997641Y-121030802D01*
X140577388Y-121204446D01*
X140255577Y-121525697D01*
X140208000Y-121640275D01*
X140208000Y-118044633D01*
X140271335Y-118044633D01*
X140416039Y-118394843D01*
X140683747Y-118663020D01*
X141033705Y-118808335D01*
X141412633Y-118808665D01*
X141762843Y-118663961D01*
X142031020Y-118396253D01*
X142176335Y-118046295D01*
X142176665Y-117667367D01*
X142031961Y-117317157D01*
X141764253Y-117048980D01*
X141414295Y-116903665D01*
X141035367Y-116903335D01*
X140685157Y-117048039D01*
X140416980Y-117315747D01*
X140271665Y-117665705D01*
X140271335Y-118044633D01*
X140208000Y-118044633D01*
X140208000Y-97308203D01*
X140254446Y-97420612D01*
X140575697Y-97742423D01*
X140995646Y-97916801D01*
X141450359Y-97917198D01*
X141870612Y-97743554D01*
X142192423Y-97422303D01*
X142366801Y-97002354D01*
X142366802Y-97000359D01*
X150240802Y-97000359D01*
X150414446Y-97420612D01*
X150735697Y-97742423D01*
X151155646Y-97916801D01*
X151610359Y-97917198D01*
X152030612Y-97743554D01*
X152352423Y-97422303D01*
X152526801Y-97002354D01*
X152527198Y-96547641D01*
X152353554Y-96127388D01*
X152032303Y-95805577D01*
X151612354Y-95631199D01*
X151157641Y-95630802D01*
X150737388Y-95804446D01*
X150415577Y-96125697D01*
X150241199Y-96545646D01*
X150240802Y-97000359D01*
X142366802Y-97000359D01*
X142367198Y-96547641D01*
X142193554Y-96127388D01*
X141872303Y-95805577D01*
X141452354Y-95631199D01*
X140997641Y-95630802D01*
X140577388Y-95804446D01*
X140255577Y-96125697D01*
X140208000Y-96240275D01*
X140208000Y-94768203D01*
X140254446Y-94880612D01*
X140575697Y-95202423D01*
X140995646Y-95376801D01*
X141450359Y-95377198D01*
X141870612Y-95203554D01*
X142192423Y-94882303D01*
X142366801Y-94462354D01*
X142366802Y-94460359D01*
X150240802Y-94460359D01*
X150414446Y-94880612D01*
X150735697Y-95202423D01*
X151155646Y-95376801D01*
X151610359Y-95377198D01*
X152030612Y-95203554D01*
X152352423Y-94882303D01*
X152526801Y-94462354D01*
X152526802Y-94460359D01*
X152780802Y-94460359D01*
X152954446Y-94880612D01*
X153275697Y-95202423D01*
X153695646Y-95376801D01*
X154150359Y-95377198D01*
X154570612Y-95203554D01*
X154892423Y-94882303D01*
X155066801Y-94462354D01*
X155067198Y-94007641D01*
X154893554Y-93587388D01*
X154572303Y-93265577D01*
X154152354Y-93091199D01*
X153958340Y-93091030D01*
X154271368Y-93075362D01*
X154655143Y-92916397D01*
X154724608Y-92674213D01*
X153924000Y-91873605D01*
X153123392Y-92674213D01*
X153192857Y-92916397D01*
X153690258Y-93093852D01*
X153277388Y-93264446D01*
X152955577Y-93585697D01*
X152781199Y-94005646D01*
X152780802Y-94460359D01*
X152526802Y-94460359D01*
X152527198Y-94007641D01*
X152353554Y-93587388D01*
X152032303Y-93265577D01*
X151612354Y-93091199D01*
X151418340Y-93091030D01*
X151731368Y-93075362D01*
X152115143Y-92916397D01*
X152184608Y-92674213D01*
X151384000Y-91873605D01*
X150583392Y-92674213D01*
X150652857Y-92916397D01*
X151150258Y-93093852D01*
X150737388Y-93264446D01*
X150415577Y-93585697D01*
X150241199Y-94005646D01*
X150240802Y-94460359D01*
X142366802Y-94460359D01*
X142367198Y-94007641D01*
X142193554Y-93587388D01*
X141872303Y-93265577D01*
X141452354Y-93091199D01*
X140997641Y-93090802D01*
X140577388Y-93264446D01*
X140255577Y-93585697D01*
X140208000Y-93700275D01*
X140208000Y-91486302D01*
X149974856Y-91486302D01*
X150002638Y-92041368D01*
X150161603Y-92425143D01*
X150403787Y-92494608D01*
X151204395Y-91694000D01*
X151563605Y-91694000D01*
X152364213Y-92494608D01*
X152606397Y-92425143D01*
X152650453Y-92301656D01*
X152701603Y-92425143D01*
X152943787Y-92494608D01*
X153744395Y-91694000D01*
X154103605Y-91694000D01*
X154904213Y-92494608D01*
X155146397Y-92425143D01*
X155333144Y-91901698D01*
X155305362Y-91346632D01*
X155146397Y-90962857D01*
X154904213Y-90893392D01*
X154103605Y-91694000D01*
X153744395Y-91694000D01*
X152943787Y-90893392D01*
X152701603Y-90962857D01*
X152657547Y-91086344D01*
X152606397Y-90962857D01*
X152364213Y-90893392D01*
X151563605Y-91694000D01*
X151204395Y-91694000D01*
X150403787Y-90893392D01*
X150161603Y-90962857D01*
X149974856Y-91486302D01*
X140208000Y-91486302D01*
X140208000Y-90713787D01*
X150583392Y-90713787D01*
X151384000Y-91514395D01*
X152184608Y-90713787D01*
X153123392Y-90713787D01*
X153924000Y-91514395D01*
X154724608Y-90713787D01*
X154655143Y-90471603D01*
X154131698Y-90284856D01*
X153576632Y-90312638D01*
X153192857Y-90471603D01*
X153123392Y-90713787D01*
X152184608Y-90713787D01*
X152115143Y-90471603D01*
X151591698Y-90284856D01*
X151036632Y-90312638D01*
X150652857Y-90471603D01*
X150583392Y-90713787D01*
X140208000Y-90713787D01*
X140208000Y-89688203D01*
X140254446Y-89800612D01*
X140575697Y-90122423D01*
X140995646Y-90296801D01*
X141450359Y-90297198D01*
X141870612Y-90123554D01*
X142192423Y-89802303D01*
X142366801Y-89382354D01*
X142367198Y-88927641D01*
X142193554Y-88507388D01*
X141872303Y-88185577D01*
X141452354Y-88011199D01*
X140997641Y-88010802D01*
X140577388Y-88184446D01*
X140255577Y-88505697D01*
X140208000Y-88620275D01*
X140208000Y-87148203D01*
X140254446Y-87260612D01*
X140575697Y-87582423D01*
X140995646Y-87756801D01*
X141450359Y-87757198D01*
X141870612Y-87583554D01*
X142192423Y-87262303D01*
X142366801Y-86842354D01*
X142367198Y-86387641D01*
X142193554Y-85967388D01*
X141872303Y-85645577D01*
X141452354Y-85471199D01*
X140997641Y-85470802D01*
X140577388Y-85644446D01*
X140255577Y-85965697D01*
X140208000Y-86080275D01*
X140208000Y-84608203D01*
X140254446Y-84720612D01*
X140575697Y-85042423D01*
X140995646Y-85216801D01*
X141450359Y-85217198D01*
X141870612Y-85043554D01*
X142192423Y-84722303D01*
X142366801Y-84302354D01*
X142367181Y-83866302D01*
X155054856Y-83866302D01*
X155082638Y-84421368D01*
X155241603Y-84805143D01*
X155483787Y-84874608D01*
X156284395Y-84074000D01*
X156643605Y-84074000D01*
X157444213Y-84874608D01*
X157686397Y-84805143D01*
X157873144Y-84281698D01*
X157845362Y-83726632D01*
X157686397Y-83342857D01*
X157444213Y-83273392D01*
X156643605Y-84074000D01*
X156284395Y-84074000D01*
X155483787Y-83273392D01*
X155241603Y-83342857D01*
X155054856Y-83866302D01*
X142367181Y-83866302D01*
X142367198Y-83847641D01*
X142193554Y-83427388D01*
X141872303Y-83105577D01*
X141843910Y-83093787D01*
X155663392Y-83093787D01*
X156464000Y-83894395D01*
X157264608Y-83093787D01*
X157195143Y-82851603D01*
X156671698Y-82664856D01*
X156116632Y-82692638D01*
X155732857Y-82851603D01*
X155663392Y-83093787D01*
X141843910Y-83093787D01*
X141452354Y-82931199D01*
X140997641Y-82930802D01*
X140577388Y-83104446D01*
X140255577Y-83425697D01*
X140208000Y-83540275D01*
X140208000Y-81390618D01*
X140286868Y-81311750D01*
X140755000Y-81311750D01*
X140755000Y-82002309D01*
X140851673Y-82235698D01*
X141030301Y-82414327D01*
X141263690Y-82511000D01*
X141954250Y-82511000D01*
X142113000Y-82352250D01*
X142113000Y-81153000D01*
X140913750Y-81153000D01*
X140755000Y-81311750D01*
X140286868Y-81311750D01*
X140806684Y-80791934D01*
X140913750Y-80899000D01*
X142113000Y-80899000D01*
X142113000Y-80879000D01*
X142367000Y-80879000D01*
X142367000Y-80899000D01*
X142387000Y-80899000D01*
X142387000Y-81153000D01*
X142367000Y-81153000D01*
X142367000Y-82352250D01*
X142525750Y-82511000D01*
X143216310Y-82511000D01*
X143449699Y-82414327D01*
X143628327Y-82235698D01*
X143725000Y-82002309D01*
X143725000Y-81644364D01*
X143909552Y-81920565D01*
X144308917Y-82187413D01*
X144780000Y-82281117D01*
X145251083Y-82187413D01*
X145650448Y-81920565D01*
X145917296Y-81521200D01*
X146011000Y-81050117D01*
X146011000Y-81001883D01*
X145917296Y-80530800D01*
X145765084Y-80302999D01*
X145878579Y-80302999D01*
X146170041Y-80594461D01*
X146089000Y-81001883D01*
X146089000Y-81050117D01*
X146182704Y-81521200D01*
X146449552Y-81920565D01*
X146848917Y-82187413D01*
X147320000Y-82281117D01*
X147791083Y-82187413D01*
X148190448Y-81920565D01*
X148457296Y-81521200D01*
X148551000Y-81050117D01*
X148551000Y-81001883D01*
X148629000Y-81001883D01*
X148629000Y-81050117D01*
X148722704Y-81521200D01*
X148989552Y-81920565D01*
X149388917Y-82187413D01*
X149860000Y-82281117D01*
X150331083Y-82187413D01*
X150730448Y-81920565D01*
X150997296Y-81521200D01*
X151091000Y-81050117D01*
X151091000Y-81001883D01*
X151169000Y-81001883D01*
X151169000Y-81050117D01*
X151262704Y-81521200D01*
X151529552Y-81920565D01*
X151928917Y-82187413D01*
X152400000Y-82281117D01*
X152871083Y-82187413D01*
X153270448Y-81920565D01*
X153537296Y-81521200D01*
X153631000Y-81050117D01*
X153631000Y-81001883D01*
X153709000Y-81001883D01*
X153709000Y-81050117D01*
X153802704Y-81521200D01*
X154069552Y-81920565D01*
X154468917Y-82187413D01*
X154940000Y-82281117D01*
X155411083Y-82187413D01*
X155810448Y-81920565D01*
X156077296Y-81521200D01*
X156171000Y-81050117D01*
X156171000Y-81001883D01*
X156077296Y-80530800D01*
X155810448Y-80131435D01*
X155411083Y-79864587D01*
X154940000Y-79770883D01*
X154468917Y-79864587D01*
X154069552Y-80131435D01*
X153802704Y-80530800D01*
X153709000Y-81001883D01*
X153631000Y-81001883D01*
X153537296Y-80530800D01*
X153270448Y-80131435D01*
X152871083Y-79864587D01*
X152400000Y-79770883D01*
X151928917Y-79864587D01*
X151529552Y-80131435D01*
X151262704Y-80530800D01*
X151169000Y-81001883D01*
X151091000Y-81001883D01*
X150997296Y-80530800D01*
X150730448Y-80131435D01*
X150331083Y-79864587D01*
X149860000Y-79770883D01*
X149388917Y-79864587D01*
X148989552Y-80131435D01*
X148722704Y-80530800D01*
X148629000Y-81001883D01*
X148551000Y-81001883D01*
X148457296Y-80530800D01*
X148190448Y-80131435D01*
X147791083Y-79864587D01*
X147320000Y-79770883D01*
X146872347Y-79859927D01*
X146716420Y-79704000D01*
X157460103Y-79704000D01*
X157789989Y-79769618D01*
X157789989Y-79769618D01*
G37*
X157789989Y-79769618D02*
X158052785Y-79945213D01*
X158228382Y-80208011D01*
X158294000Y-80537897D01*
X158294000Y-87725579D01*
X157549286Y-86980866D01*
X157606801Y-86842354D01*
X157607198Y-86387641D01*
X157433554Y-85967388D01*
X157112303Y-85645577D01*
X156692354Y-85471199D01*
X156498340Y-85471030D01*
X156811368Y-85455362D01*
X157195143Y-85296397D01*
X157264608Y-85054213D01*
X156464000Y-84253605D01*
X155663392Y-85054213D01*
X155732857Y-85296397D01*
X156230258Y-85473852D01*
X155817388Y-85644446D01*
X155495577Y-85965697D01*
X155321199Y-86385646D01*
X155320802Y-86840359D01*
X155494446Y-87260612D01*
X155815697Y-87582423D01*
X156235646Y-87756801D01*
X156690359Y-87757198D01*
X156830764Y-87699184D01*
X157480000Y-88348421D01*
X157480000Y-88619797D01*
X157433554Y-88507388D01*
X157112303Y-88185577D01*
X156692354Y-88011199D01*
X156237641Y-88010802D01*
X155817388Y-88184446D01*
X155495577Y-88505697D01*
X155321199Y-88925646D01*
X155320802Y-89380359D01*
X155494446Y-89800612D01*
X155815697Y-90122423D01*
X156235646Y-90296801D01*
X156690359Y-90297198D01*
X157110612Y-90123554D01*
X157432423Y-89802303D01*
X157480000Y-89687725D01*
X157480000Y-94996000D01*
X155194000Y-94996000D01*
X155031850Y-95028254D01*
X154999596Y-95034669D01*
X154834790Y-95144790D01*
X154290866Y-95688714D01*
X154152354Y-95631199D01*
X153697641Y-95630802D01*
X153277388Y-95804446D01*
X152955577Y-96125697D01*
X152781199Y-96545646D01*
X152780802Y-97000359D01*
X152954446Y-97420612D01*
X153275697Y-97742423D01*
X153695646Y-97916801D01*
X154150359Y-97917198D01*
X154570612Y-97743554D01*
X154892423Y-97422303D01*
X155066801Y-97002354D01*
X155067198Y-96547641D01*
X155009184Y-96407236D01*
X155404420Y-96012000D01*
X155609472Y-96012000D01*
X155495577Y-96125697D01*
X155321199Y-96545646D01*
X155320802Y-97000359D01*
X155494446Y-97420612D01*
X155815697Y-97742423D01*
X156235646Y-97916801D01*
X156690359Y-97917198D01*
X157110612Y-97743554D01*
X157432423Y-97422303D01*
X157480000Y-97307725D01*
X157480000Y-98779797D01*
X157433554Y-98667388D01*
X157112303Y-98345577D01*
X156692354Y-98171199D01*
X156237641Y-98170802D01*
X155817388Y-98344446D01*
X155495577Y-98665697D01*
X155321199Y-99085646D01*
X155320802Y-99540359D01*
X155494446Y-99960612D01*
X155815697Y-100282423D01*
X156235646Y-100456801D01*
X156690359Y-100457198D01*
X157110612Y-100283554D01*
X157432423Y-99962303D01*
X157480000Y-99847725D01*
X157480000Y-101319797D01*
X157433554Y-101207388D01*
X157112303Y-100885577D01*
X156692354Y-100711199D01*
X156237641Y-100710802D01*
X155817388Y-100884446D01*
X155495577Y-101205697D01*
X155321199Y-101625646D01*
X155320802Y-102080359D01*
X155494446Y-102500612D01*
X155815697Y-102822423D01*
X156235646Y-102996801D01*
X156690359Y-102997198D01*
X157110612Y-102823554D01*
X157432423Y-102502303D01*
X157480000Y-102387725D01*
X157480000Y-103859797D01*
X157433554Y-103747388D01*
X157112303Y-103425577D01*
X156692354Y-103251199D01*
X156237641Y-103250802D01*
X155817388Y-103424446D01*
X155495577Y-103745697D01*
X155321199Y-104165646D01*
X155320802Y-104620359D01*
X155494446Y-105040612D01*
X155815697Y-105362423D01*
X156235646Y-105536801D01*
X156690359Y-105537198D01*
X157110612Y-105363554D01*
X157432423Y-105042303D01*
X157480000Y-104927725D01*
X157480000Y-106399797D01*
X157433554Y-106287388D01*
X157112303Y-105965577D01*
X156692354Y-105791199D01*
X156237641Y-105790802D01*
X155817388Y-105964446D01*
X155495577Y-106285697D01*
X155321199Y-106705646D01*
X155320802Y-107160359D01*
X155494446Y-107580612D01*
X155815697Y-107902423D01*
X156235646Y-108076801D01*
X156690359Y-108077198D01*
X157110612Y-107903554D01*
X157432423Y-107582303D01*
X157480000Y-107467725D01*
X157480000Y-108939797D01*
X157433554Y-108827388D01*
X157112303Y-108505577D01*
X156692354Y-108331199D01*
X156237641Y-108330802D01*
X155817388Y-108504446D01*
X155495577Y-108825697D01*
X155321199Y-109245646D01*
X155320802Y-109700359D01*
X155494446Y-110120612D01*
X155815697Y-110442423D01*
X156235646Y-110616801D01*
X156690359Y-110617198D01*
X157110612Y-110443554D01*
X157432423Y-110122303D01*
X157480000Y-110007725D01*
X157480000Y-111479797D01*
X157433554Y-111367388D01*
X157112303Y-111045577D01*
X156692354Y-110871199D01*
X156237641Y-110870802D01*
X155817388Y-111044446D01*
X155495577Y-111365697D01*
X155321199Y-111785646D01*
X155320802Y-112240359D01*
X155494446Y-112660612D01*
X155815697Y-112982423D01*
X156235646Y-113156801D01*
X156690359Y-113157198D01*
X157110612Y-112983554D01*
X157432423Y-112662303D01*
X157480000Y-112547725D01*
X157480000Y-120439580D01*
X156507580Y-121412000D01*
X144228420Y-121412000D01*
X143764000Y-120947580D01*
X143764000Y-118057126D01*
X143832987Y-117988259D01*
X143936882Y-117738054D01*
X143937118Y-117467135D01*
X143833661Y-117216748D01*
X143642259Y-117025013D01*
X143392054Y-116921118D01*
X143121135Y-116920882D01*
X142870748Y-117024339D01*
X142679013Y-117215741D01*
X142575118Y-117465946D01*
X142574882Y-117736865D01*
X142678339Y-117987252D01*
X142748000Y-118057034D01*
X142748000Y-121158000D01*
X142786669Y-121352403D01*
X142896790Y-121517210D01*
X143628562Y-122248982D01*
X143335786Y-122307219D01*
X143335785Y-122307219D01*
X143262969Y-122337381D01*
X142933354Y-122557623D01*
X142905489Y-122585489D01*
X142877623Y-122613354D01*
X142657381Y-122942968D01*
X142627219Y-123015785D01*
X142627219Y-123015786D01*
X142549881Y-123404592D01*
X142549881Y-123424488D01*
X142546000Y-123444000D01*
X142546000Y-126763320D01*
X142446397Y-126522857D01*
X142204213Y-126453392D01*
X141403605Y-127254000D01*
X142204213Y-128054608D01*
X142446397Y-127985143D01*
X142546000Y-127705959D01*
X142546000Y-127742103D01*
X142480382Y-128071989D01*
X142304785Y-128334787D01*
X142041989Y-128510382D01*
X141717061Y-128575014D01*
X141955143Y-128476397D01*
X142024608Y-128234213D01*
X141224000Y-127433605D01*
X140423392Y-128234213D01*
X140492857Y-128476397D01*
X140772041Y-128576000D01*
X140227897Y-128576000D01*
X139898011Y-128510382D01*
X139635213Y-128334785D01*
X139459618Y-128071989D01*
X139394000Y-127742103D01*
X139394000Y-127046302D01*
X139814856Y-127046302D01*
X139842638Y-127601368D01*
X140001603Y-127985143D01*
X140243787Y-128054608D01*
X141044395Y-127254000D01*
X140243787Y-126453392D01*
X140001603Y-126522857D01*
X139814856Y-127046302D01*
X139394000Y-127046302D01*
X139394000Y-123602420D01*
X140138714Y-124347135D01*
X140081199Y-124485646D01*
X140080802Y-124940359D01*
X140254446Y-125360612D01*
X140575697Y-125682423D01*
X140995646Y-125856801D01*
X141189660Y-125856970D01*
X140876632Y-125872638D01*
X140492857Y-126031603D01*
X140423392Y-126273787D01*
X141224000Y-127074395D01*
X142024608Y-126273787D01*
X141955143Y-126031603D01*
X141457742Y-125854148D01*
X141870612Y-125683554D01*
X142192423Y-125362303D01*
X142366801Y-124942354D01*
X142367198Y-124487641D01*
X142193554Y-124067388D01*
X141872303Y-123745577D01*
X141452354Y-123571199D01*
X140997641Y-123570802D01*
X140857236Y-123628816D01*
X140208000Y-122979580D01*
X140208000Y-122708203D01*
X140254446Y-122820612D01*
X140575697Y-123142423D01*
X140995646Y-123316801D01*
X141450359Y-123317198D01*
X141870612Y-123143554D01*
X142192423Y-122822303D01*
X142366801Y-122402354D01*
X142367198Y-121947641D01*
X142193554Y-121527388D01*
X141872303Y-121205577D01*
X141452354Y-121031199D01*
X140997641Y-121030802D01*
X140577388Y-121204446D01*
X140255577Y-121525697D01*
X140208000Y-121640275D01*
X140208000Y-118044633D01*
X140271335Y-118044633D01*
X140416039Y-118394843D01*
X140683747Y-118663020D01*
X141033705Y-118808335D01*
X141412633Y-118808665D01*
X141762843Y-118663961D01*
X142031020Y-118396253D01*
X142176335Y-118046295D01*
X142176665Y-117667367D01*
X142031961Y-117317157D01*
X141764253Y-117048980D01*
X141414295Y-116903665D01*
X141035367Y-116903335D01*
X140685157Y-117048039D01*
X140416980Y-117315747D01*
X140271665Y-117665705D01*
X140271335Y-118044633D01*
X140208000Y-118044633D01*
X140208000Y-97308203D01*
X140254446Y-97420612D01*
X140575697Y-97742423D01*
X140995646Y-97916801D01*
X141450359Y-97917198D01*
X141870612Y-97743554D01*
X142192423Y-97422303D01*
X142366801Y-97002354D01*
X142366802Y-97000359D01*
X150240802Y-97000359D01*
X150414446Y-97420612D01*
X150735697Y-97742423D01*
X151155646Y-97916801D01*
X151610359Y-97917198D01*
X152030612Y-97743554D01*
X152352423Y-97422303D01*
X152526801Y-97002354D01*
X152527198Y-96547641D01*
X152353554Y-96127388D01*
X152032303Y-95805577D01*
X151612354Y-95631199D01*
X151157641Y-95630802D01*
X150737388Y-95804446D01*
X150415577Y-96125697D01*
X150241199Y-96545646D01*
X150240802Y-97000359D01*
X142366802Y-97000359D01*
X142367198Y-96547641D01*
X142193554Y-96127388D01*
X141872303Y-95805577D01*
X141452354Y-95631199D01*
X140997641Y-95630802D01*
X140577388Y-95804446D01*
X140255577Y-96125697D01*
X140208000Y-96240275D01*
X140208000Y-94768203D01*
X140254446Y-94880612D01*
X140575697Y-95202423D01*
X140995646Y-95376801D01*
X141450359Y-95377198D01*
X141870612Y-95203554D01*
X142192423Y-94882303D01*
X142366801Y-94462354D01*
X142366802Y-94460359D01*
X150240802Y-94460359D01*
X150414446Y-94880612D01*
X150735697Y-95202423D01*
X151155646Y-95376801D01*
X151610359Y-95377198D01*
X152030612Y-95203554D01*
X152352423Y-94882303D01*
X152526801Y-94462354D01*
X152526802Y-94460359D01*
X152780802Y-94460359D01*
X152954446Y-94880612D01*
X153275697Y-95202423D01*
X153695646Y-95376801D01*
X154150359Y-95377198D01*
X154570612Y-95203554D01*
X154892423Y-94882303D01*
X155066801Y-94462354D01*
X155067198Y-94007641D01*
X154893554Y-93587388D01*
X154572303Y-93265577D01*
X154152354Y-93091199D01*
X153958340Y-93091030D01*
X154271368Y-93075362D01*
X154655143Y-92916397D01*
X154724608Y-92674213D01*
X153924000Y-91873605D01*
X153123392Y-92674213D01*
X153192857Y-92916397D01*
X153690258Y-93093852D01*
X153277388Y-93264446D01*
X152955577Y-93585697D01*
X152781199Y-94005646D01*
X152780802Y-94460359D01*
X152526802Y-94460359D01*
X152527198Y-94007641D01*
X152353554Y-93587388D01*
X152032303Y-93265577D01*
X151612354Y-93091199D01*
X151418340Y-93091030D01*
X151731368Y-93075362D01*
X152115143Y-92916397D01*
X152184608Y-92674213D01*
X151384000Y-91873605D01*
X150583392Y-92674213D01*
X150652857Y-92916397D01*
X151150258Y-93093852D01*
X150737388Y-93264446D01*
X150415577Y-93585697D01*
X150241199Y-94005646D01*
X150240802Y-94460359D01*
X142366802Y-94460359D01*
X142367198Y-94007641D01*
X142193554Y-93587388D01*
X141872303Y-93265577D01*
X141452354Y-93091199D01*
X140997641Y-93090802D01*
X140577388Y-93264446D01*
X140255577Y-93585697D01*
X140208000Y-93700275D01*
X140208000Y-91486302D01*
X149974856Y-91486302D01*
X150002638Y-92041368D01*
X150161603Y-92425143D01*
X150403787Y-92494608D01*
X151204395Y-91694000D01*
X151563605Y-91694000D01*
X152364213Y-92494608D01*
X152606397Y-92425143D01*
X152650453Y-92301656D01*
X152701603Y-92425143D01*
X152943787Y-92494608D01*
X153744395Y-91694000D01*
X154103605Y-91694000D01*
X154904213Y-92494608D01*
X155146397Y-92425143D01*
X155333144Y-91901698D01*
X155305362Y-91346632D01*
X155146397Y-90962857D01*
X154904213Y-90893392D01*
X154103605Y-91694000D01*
X153744395Y-91694000D01*
X152943787Y-90893392D01*
X152701603Y-90962857D01*
X152657547Y-91086344D01*
X152606397Y-90962857D01*
X152364213Y-90893392D01*
X151563605Y-91694000D01*
X151204395Y-91694000D01*
X150403787Y-90893392D01*
X150161603Y-90962857D01*
X149974856Y-91486302D01*
X140208000Y-91486302D01*
X140208000Y-90713787D01*
X150583392Y-90713787D01*
X151384000Y-91514395D01*
X152184608Y-90713787D01*
X153123392Y-90713787D01*
X153924000Y-91514395D01*
X154724608Y-90713787D01*
X154655143Y-90471603D01*
X154131698Y-90284856D01*
X153576632Y-90312638D01*
X153192857Y-90471603D01*
X153123392Y-90713787D01*
X152184608Y-90713787D01*
X152115143Y-90471603D01*
X151591698Y-90284856D01*
X151036632Y-90312638D01*
X150652857Y-90471603D01*
X150583392Y-90713787D01*
X140208000Y-90713787D01*
X140208000Y-89688203D01*
X140254446Y-89800612D01*
X140575697Y-90122423D01*
X140995646Y-90296801D01*
X141450359Y-90297198D01*
X141870612Y-90123554D01*
X142192423Y-89802303D01*
X142366801Y-89382354D01*
X142367198Y-88927641D01*
X142193554Y-88507388D01*
X141872303Y-88185577D01*
X141452354Y-88011199D01*
X140997641Y-88010802D01*
X140577388Y-88184446D01*
X140255577Y-88505697D01*
X140208000Y-88620275D01*
X140208000Y-87148203D01*
X140254446Y-87260612D01*
X140575697Y-87582423D01*
X140995646Y-87756801D01*
X141450359Y-87757198D01*
X141870612Y-87583554D01*
X142192423Y-87262303D01*
X142366801Y-86842354D01*
X142367198Y-86387641D01*
X142193554Y-85967388D01*
X141872303Y-85645577D01*
X141452354Y-85471199D01*
X140997641Y-85470802D01*
X140577388Y-85644446D01*
X140255577Y-85965697D01*
X140208000Y-86080275D01*
X140208000Y-84608203D01*
X140254446Y-84720612D01*
X140575697Y-85042423D01*
X140995646Y-85216801D01*
X141450359Y-85217198D01*
X141870612Y-85043554D01*
X142192423Y-84722303D01*
X142366801Y-84302354D01*
X142367181Y-83866302D01*
X155054856Y-83866302D01*
X155082638Y-84421368D01*
X155241603Y-84805143D01*
X155483787Y-84874608D01*
X156284395Y-84074000D01*
X156643605Y-84074000D01*
X157444213Y-84874608D01*
X157686397Y-84805143D01*
X157873144Y-84281698D01*
X157845362Y-83726632D01*
X157686397Y-83342857D01*
X157444213Y-83273392D01*
X156643605Y-84074000D01*
X156284395Y-84074000D01*
X155483787Y-83273392D01*
X155241603Y-83342857D01*
X155054856Y-83866302D01*
X142367181Y-83866302D01*
X142367198Y-83847641D01*
X142193554Y-83427388D01*
X141872303Y-83105577D01*
X141843910Y-83093787D01*
X155663392Y-83093787D01*
X156464000Y-83894395D01*
X157264608Y-83093787D01*
X157195143Y-82851603D01*
X156671698Y-82664856D01*
X156116632Y-82692638D01*
X155732857Y-82851603D01*
X155663392Y-83093787D01*
X141843910Y-83093787D01*
X141452354Y-82931199D01*
X140997641Y-82930802D01*
X140577388Y-83104446D01*
X140255577Y-83425697D01*
X140208000Y-83540275D01*
X140208000Y-81390618D01*
X140286868Y-81311750D01*
X140755000Y-81311750D01*
X140755000Y-82002309D01*
X140851673Y-82235698D01*
X141030301Y-82414327D01*
X141263690Y-82511000D01*
X141954250Y-82511000D01*
X142113000Y-82352250D01*
X142113000Y-81153000D01*
X140913750Y-81153000D01*
X140755000Y-81311750D01*
X140286868Y-81311750D01*
X140806684Y-80791934D01*
X140913750Y-80899000D01*
X142113000Y-80899000D01*
X142113000Y-80879000D01*
X142367000Y-80879000D01*
X142367000Y-80899000D01*
X142387000Y-80899000D01*
X142387000Y-81153000D01*
X142367000Y-81153000D01*
X142367000Y-82352250D01*
X142525750Y-82511000D01*
X143216310Y-82511000D01*
X143449699Y-82414327D01*
X143628327Y-82235698D01*
X143725000Y-82002309D01*
X143725000Y-81644364D01*
X143909552Y-81920565D01*
X144308917Y-82187413D01*
X144780000Y-82281117D01*
X145251083Y-82187413D01*
X145650448Y-81920565D01*
X145917296Y-81521200D01*
X146011000Y-81050117D01*
X146011000Y-81001883D01*
X145917296Y-80530800D01*
X145765084Y-80302999D01*
X145878579Y-80302999D01*
X146170041Y-80594461D01*
X146089000Y-81001883D01*
X146089000Y-81050117D01*
X146182704Y-81521200D01*
X146449552Y-81920565D01*
X146848917Y-82187413D01*
X147320000Y-82281117D01*
X147791083Y-82187413D01*
X148190448Y-81920565D01*
X148457296Y-81521200D01*
X148551000Y-81050117D01*
X148551000Y-81001883D01*
X148629000Y-81001883D01*
X148629000Y-81050117D01*
X148722704Y-81521200D01*
X148989552Y-81920565D01*
X149388917Y-82187413D01*
X149860000Y-82281117D01*
X150331083Y-82187413D01*
X150730448Y-81920565D01*
X150997296Y-81521200D01*
X151091000Y-81050117D01*
X151091000Y-81001883D01*
X151169000Y-81001883D01*
X151169000Y-81050117D01*
X151262704Y-81521200D01*
X151529552Y-81920565D01*
X151928917Y-82187413D01*
X152400000Y-82281117D01*
X152871083Y-82187413D01*
X153270448Y-81920565D01*
X153537296Y-81521200D01*
X153631000Y-81050117D01*
X153631000Y-81001883D01*
X153709000Y-81001883D01*
X153709000Y-81050117D01*
X153802704Y-81521200D01*
X154069552Y-81920565D01*
X154468917Y-82187413D01*
X154940000Y-82281117D01*
X155411083Y-82187413D01*
X155810448Y-81920565D01*
X156077296Y-81521200D01*
X156171000Y-81050117D01*
X156171000Y-81001883D01*
X156077296Y-80530800D01*
X155810448Y-80131435D01*
X155411083Y-79864587D01*
X154940000Y-79770883D01*
X154468917Y-79864587D01*
X154069552Y-80131435D01*
X153802704Y-80530800D01*
X153709000Y-81001883D01*
X153631000Y-81001883D01*
X153537296Y-80530800D01*
X153270448Y-80131435D01*
X152871083Y-79864587D01*
X152400000Y-79770883D01*
X151928917Y-79864587D01*
X151529552Y-80131435D01*
X151262704Y-80530800D01*
X151169000Y-81001883D01*
X151091000Y-81001883D01*
X150997296Y-80530800D01*
X150730448Y-80131435D01*
X150331083Y-79864587D01*
X149860000Y-79770883D01*
X149388917Y-79864587D01*
X148989552Y-80131435D01*
X148722704Y-80530800D01*
X148629000Y-81001883D01*
X148551000Y-81001883D01*
X148457296Y-80530800D01*
X148190448Y-80131435D01*
X147791083Y-79864587D01*
X147320000Y-79770883D01*
X146872347Y-79859927D01*
X146716420Y-79704000D01*
X157460103Y-79704000D01*
X157789989Y-79769618D01*
M02*
