G04 #@! TF.FileFunction,Legend,Bot*
%FSLAX46Y46*%
G04 Gerber Fmt 4.6, Leading zero omitted, Abs format (unit mm)*
G04 Created by KiCad (PCBNEW 4.0.5) date Sunday, 26 February 2017 'PMt' 14:35:32*
%MOMM*%
%LPD*%
G01*
G04 APERTURE LIST*
%ADD10C,0.200000*%
%ADD11C,0.150000*%
%ADD12C,0.275000*%
G04 APERTURE END LIST*
D10*
D11*
X139503143Y-117163809D02*
X139465048Y-117049523D01*
X139426952Y-117011428D01*
X139350762Y-116973333D01*
X139236476Y-116973333D01*
X139160286Y-117011428D01*
X139122190Y-117049523D01*
X139084095Y-117125714D01*
X139084095Y-117430476D01*
X139884095Y-117430476D01*
X139884095Y-117163809D01*
X139846000Y-117087619D01*
X139807905Y-117049523D01*
X139731714Y-117011428D01*
X139655524Y-117011428D01*
X139579333Y-117049523D01*
X139541238Y-117087619D01*
X139503143Y-117163809D01*
X139503143Y-117430476D01*
X139884095Y-116706666D02*
X139884095Y-116173333D01*
X139084095Y-116516190D01*
X139503143Y-114623809D02*
X139465048Y-114509523D01*
X139426952Y-114471428D01*
X139350762Y-114433333D01*
X139236476Y-114433333D01*
X139160286Y-114471428D01*
X139122190Y-114509523D01*
X139084095Y-114585714D01*
X139084095Y-114890476D01*
X139884095Y-114890476D01*
X139884095Y-114623809D01*
X139846000Y-114547619D01*
X139807905Y-114509523D01*
X139731714Y-114471428D01*
X139655524Y-114471428D01*
X139579333Y-114509523D01*
X139541238Y-114547619D01*
X139503143Y-114623809D01*
X139503143Y-114890476D01*
X139884095Y-113747619D02*
X139884095Y-113900000D01*
X139846000Y-113976190D01*
X139807905Y-114014285D01*
X139693619Y-114090476D01*
X139541238Y-114128571D01*
X139236476Y-114128571D01*
X139160286Y-114090476D01*
X139122190Y-114052381D01*
X139084095Y-113976190D01*
X139084095Y-113823809D01*
X139122190Y-113747619D01*
X139160286Y-113709523D01*
X139236476Y-113671428D01*
X139426952Y-113671428D01*
X139503143Y-113709523D01*
X139541238Y-113747619D01*
X139579333Y-113823809D01*
X139579333Y-113976190D01*
X139541238Y-114052381D01*
X139503143Y-114090476D01*
X139426952Y-114128571D01*
D12*
X154847857Y-90616335D02*
X153647857Y-90616335D01*
X154847857Y-91087763D02*
X154219286Y-91087763D01*
X154105000Y-91035382D01*
X154047857Y-90930620D01*
X154047857Y-90773478D01*
X154105000Y-90668716D01*
X154162143Y-90616335D01*
X154047857Y-91454430D02*
X154047857Y-91873478D01*
X153647857Y-91611573D02*
X154676429Y-91611573D01*
X154790714Y-91663954D01*
X154847857Y-91768716D01*
X154847857Y-91873478D01*
X154047857Y-92083001D02*
X154047857Y-92502049D01*
X153647857Y-92240144D02*
X154676429Y-92240144D01*
X154790714Y-92292525D01*
X154847857Y-92397287D01*
X154847857Y-92502049D01*
X154047857Y-92868715D02*
X155247857Y-92868715D01*
X154105000Y-92868715D02*
X154047857Y-92973477D01*
X154047857Y-93183000D01*
X154105000Y-93287762D01*
X154162143Y-93340143D01*
X154276429Y-93392524D01*
X154619286Y-93392524D01*
X154733571Y-93340143D01*
X154790714Y-93287762D01*
X154847857Y-93183000D01*
X154847857Y-92973477D01*
X154790714Y-92868715D01*
X154790714Y-93811572D02*
X154847857Y-93916334D01*
X154847857Y-94125858D01*
X154790714Y-94230619D01*
X154676429Y-94283000D01*
X154619286Y-94283000D01*
X154505000Y-94230619D01*
X154447857Y-94125858D01*
X154447857Y-93968715D01*
X154390714Y-93863953D01*
X154276429Y-93811572D01*
X154219286Y-93811572D01*
X154105000Y-93863953D01*
X154047857Y-93968715D01*
X154047857Y-94125858D01*
X154105000Y-94230619D01*
X154733571Y-94754429D02*
X154790714Y-94806810D01*
X154847857Y-94754429D01*
X154790714Y-94702048D01*
X154733571Y-94754429D01*
X154847857Y-94754429D01*
X154105000Y-94754429D02*
X154162143Y-94806810D01*
X154219286Y-94754429D01*
X154162143Y-94702048D01*
X154105000Y-94754429D01*
X154219286Y-94754429D01*
X153590714Y-96063953D02*
X155133571Y-95121096D01*
X153590714Y-97216334D02*
X155133571Y-96273477D01*
X154047857Y-98054429D02*
X155019286Y-98054429D01*
X155133571Y-98002048D01*
X155190714Y-97949667D01*
X155247857Y-97844906D01*
X155247857Y-97687763D01*
X155190714Y-97583001D01*
X154790714Y-98054429D02*
X154847857Y-97949667D01*
X154847857Y-97740144D01*
X154790714Y-97635382D01*
X154733571Y-97583001D01*
X154619286Y-97530620D01*
X154276429Y-97530620D01*
X154162143Y-97583001D01*
X154105000Y-97635382D01*
X154047857Y-97740144D01*
X154047857Y-97949667D01*
X154105000Y-98054429D01*
X154847857Y-98578239D02*
X154047857Y-98578239D01*
X153647857Y-98578239D02*
X153705000Y-98525858D01*
X153762143Y-98578239D01*
X153705000Y-98630620D01*
X153647857Y-98578239D01*
X153762143Y-98578239D01*
X154047857Y-98944906D02*
X154047857Y-99363954D01*
X153647857Y-99102049D02*
X154676429Y-99102049D01*
X154790714Y-99154430D01*
X154847857Y-99259192D01*
X154847857Y-99363954D01*
X154847857Y-99730620D02*
X153647857Y-99730620D01*
X154847857Y-100202048D02*
X154219286Y-100202048D01*
X154105000Y-100149667D01*
X154047857Y-100044905D01*
X154047857Y-99887763D01*
X154105000Y-99783001D01*
X154162143Y-99730620D01*
X154047857Y-101197286D02*
X154847857Y-101197286D01*
X154047857Y-100725858D02*
X154676429Y-100725858D01*
X154790714Y-100778239D01*
X154847857Y-100883001D01*
X154847857Y-101040143D01*
X154790714Y-101144905D01*
X154733571Y-101197286D01*
X154847857Y-101721096D02*
X153647857Y-101721096D01*
X154105000Y-101721096D02*
X154047857Y-101825858D01*
X154047857Y-102035381D01*
X154105000Y-102140143D01*
X154162143Y-102192524D01*
X154276429Y-102244905D01*
X154619286Y-102244905D01*
X154733571Y-102192524D01*
X154790714Y-102140143D01*
X154847857Y-102035381D01*
X154847857Y-101825858D01*
X154790714Y-101721096D01*
X154733571Y-102716334D02*
X154790714Y-102768715D01*
X154847857Y-102716334D01*
X154790714Y-102663953D01*
X154733571Y-102716334D01*
X154847857Y-102716334D01*
X154790714Y-103711572D02*
X154847857Y-103606810D01*
X154847857Y-103397287D01*
X154790714Y-103292525D01*
X154733571Y-103240144D01*
X154619286Y-103187763D01*
X154276429Y-103187763D01*
X154162143Y-103240144D01*
X154105000Y-103292525D01*
X154047857Y-103397287D01*
X154047857Y-103606810D01*
X154105000Y-103711572D01*
X154847857Y-104340144D02*
X154790714Y-104235382D01*
X154733571Y-104183001D01*
X154619286Y-104130620D01*
X154276429Y-104130620D01*
X154162143Y-104183001D01*
X154105000Y-104235382D01*
X154047857Y-104340144D01*
X154047857Y-104497286D01*
X154105000Y-104602048D01*
X154162143Y-104654429D01*
X154276429Y-104706810D01*
X154619286Y-104706810D01*
X154733571Y-104654429D01*
X154790714Y-104602048D01*
X154847857Y-104497286D01*
X154847857Y-104340144D01*
X154847857Y-105178239D02*
X154047857Y-105178239D01*
X154162143Y-105178239D02*
X154105000Y-105230620D01*
X154047857Y-105335382D01*
X154047857Y-105492524D01*
X154105000Y-105597286D01*
X154219286Y-105649667D01*
X154847857Y-105649667D01*
X154219286Y-105649667D02*
X154105000Y-105702048D01*
X154047857Y-105806810D01*
X154047857Y-105963953D01*
X154105000Y-106068715D01*
X154219286Y-106121096D01*
X154847857Y-106121096D01*
X153590714Y-107430620D02*
X155133571Y-106487763D01*
X154047857Y-107640144D02*
X154047857Y-108059192D01*
X153647857Y-107797287D02*
X154676429Y-107797287D01*
X154790714Y-107849668D01*
X154847857Y-107954430D01*
X154847857Y-108059192D01*
X154847857Y-108425858D02*
X153647857Y-108425858D01*
X154847857Y-108897286D02*
X154219286Y-108897286D01*
X154105000Y-108844905D01*
X154047857Y-108740143D01*
X154047857Y-108583001D01*
X154105000Y-108478239D01*
X154162143Y-108425858D01*
X154047857Y-109263953D02*
X154047857Y-109683001D01*
X153647857Y-109421096D02*
X154676429Y-109421096D01*
X154790714Y-109473477D01*
X154847857Y-109578239D01*
X154847857Y-109683001D01*
X153590714Y-110835381D02*
X155133571Y-109892524D01*
X154847857Y-111202048D02*
X153647857Y-111202048D01*
X154105000Y-111202048D02*
X154047857Y-111306810D01*
X154047857Y-111516333D01*
X154105000Y-111621095D01*
X154162143Y-111673476D01*
X154276429Y-111725857D01*
X154619286Y-111725857D01*
X154733571Y-111673476D01*
X154790714Y-111621095D01*
X154847857Y-111516333D01*
X154847857Y-111306810D01*
X154790714Y-111202048D01*
X154047857Y-112197286D02*
X155247857Y-112197286D01*
X154105000Y-112197286D02*
X154047857Y-112302048D01*
X154047857Y-112511571D01*
X154105000Y-112616333D01*
X154162143Y-112668714D01*
X154276429Y-112721095D01*
X154619286Y-112721095D01*
X154733571Y-112668714D01*
X154790714Y-112616333D01*
X154847857Y-112511571D01*
X154847857Y-112302048D01*
X154790714Y-112197286D01*
X154047857Y-113192524D02*
X154847857Y-113192524D01*
X154162143Y-113192524D02*
X154105000Y-113244905D01*
X154047857Y-113349667D01*
X154047857Y-113506809D01*
X154105000Y-113611571D01*
X154219286Y-113663952D01*
X154847857Y-113663952D01*
X154847857Y-114344905D02*
X154790714Y-114240143D01*
X154733571Y-114187762D01*
X154619286Y-114135381D01*
X154276429Y-114135381D01*
X154162143Y-114187762D01*
X154105000Y-114240143D01*
X154047857Y-114344905D01*
X154047857Y-114502047D01*
X154105000Y-114606809D01*
X154162143Y-114659190D01*
X154276429Y-114711571D01*
X154619286Y-114711571D01*
X154733571Y-114659190D01*
X154790714Y-114606809D01*
X154847857Y-114502047D01*
X154847857Y-114344905D01*
X154847857Y-115654428D02*
X153647857Y-115654428D01*
X154790714Y-115654428D02*
X154847857Y-115549666D01*
X154847857Y-115340143D01*
X154790714Y-115235381D01*
X154733571Y-115183000D01*
X154619286Y-115130619D01*
X154276429Y-115130619D01*
X154162143Y-115183000D01*
X154105000Y-115235381D01*
X154047857Y-115340143D01*
X154047857Y-115549666D01*
X154105000Y-115654428D01*
X154790714Y-116597285D02*
X154847857Y-116492523D01*
X154847857Y-116283000D01*
X154790714Y-116178238D01*
X154676429Y-116125857D01*
X154219286Y-116125857D01*
X154105000Y-116178238D01*
X154047857Y-116283000D01*
X154047857Y-116492523D01*
X154105000Y-116597285D01*
X154219286Y-116649666D01*
X154333571Y-116649666D01*
X154447857Y-116125857D01*
X154390714Y-117121095D02*
X154390714Y-117959190D01*
X154847857Y-118483000D02*
X153647857Y-118483000D01*
X154105000Y-118483000D02*
X154047857Y-118587762D01*
X154047857Y-118797285D01*
X154105000Y-118902047D01*
X154162143Y-118954428D01*
X154276429Y-119006809D01*
X154619286Y-119006809D01*
X154733571Y-118954428D01*
X154790714Y-118902047D01*
X154847857Y-118797285D01*
X154847857Y-118587762D01*
X154790714Y-118483000D01*
X154847857Y-119478238D02*
X153647857Y-119478238D01*
X154105000Y-119478238D02*
X154047857Y-119583000D01*
X154047857Y-119792523D01*
X154105000Y-119897285D01*
X154162143Y-119949666D01*
X154276429Y-120002047D01*
X154619286Y-120002047D01*
X154733571Y-119949666D01*
X154790714Y-119897285D01*
X154847857Y-119792523D01*
X154847857Y-119583000D01*
X154790714Y-119478238D01*
M02*
