M48
INCH,TZ
T1C0.016
T2C0.030
T3C0.039
%
G90
G05
T1
X55418Y-43700
X55600Y-42400
X55700Y-40600
X56100Y-44100
X56250Y-37250
X56250Y-38000
X56393Y-46000
X56500Y-42700
X56600Y-41200
X56900Y-42000
X56900Y-43500
X57100Y-44400
X57400Y-40500
X57500Y-42700
X57700Y-43900
X57904Y-45996
X58000Y-41900
X58500Y-41300
X58500Y-43100
X58600Y-40400
X59100Y-44200
X59300Y-42900
X59500Y-36500
X59600Y-42200
X59700Y-40800
X60100Y-43300
X60400Y-41000
T2
X55500Y-33000
X55500Y-34000
X55500Y-35000
X55500Y-36000
X55500Y-37000
X55500Y-38000
X55500Y-47000
X55500Y-48000
X55500Y-49000
X55500Y-50000
X56509Y-47000
X59000Y-36000
X59000Y-37000
X60000Y-36000
X60000Y-37000
X61500Y-33000
X61500Y-34000
X61500Y-35000
X61500Y-36000
X61500Y-37000
X61500Y-38000
X61500Y-39000
X61500Y-40000
X61500Y-41000
X61500Y-42000
X61500Y-43000
X61500Y-44000
X61500Y-45000
X61500Y-46000
X61500Y-47000
T3
X55900Y-31800
X56900Y-31800
X57900Y-31800
X58900Y-31800
X59900Y-31800
X60900Y-31800
T0
M30
