G04 #@! TF.FileFunction,Copper,L1,Top,Signal*
%FSLAX46Y46*%
G04 Gerber Fmt 4.6, Leading zero omitted, Abs format (unit mm)*
G04 Created by KiCad (PCBNEW 4.0.5) date Sunday, 26 February 2017 'PMt' 14:35:32*
%MOMM*%
%LPD*%
G01*
G04 APERTURE LIST*
%ADD10C,0.200000*%
%ADD11R,0.600000X1.550000*%
%ADD12R,1.500000X1.250000*%
%ADD13R,1.300000X1.500000*%
%ADD14C,1.700000*%
%ADD15O,1.700000X1.700000*%
%ADD16R,1.200000X1.000000*%
%ADD17R,1.500000X1.300000*%
%ADD18C,1.524000*%
%ADD19R,1.250000X2.000000*%
%ADD20C,1.500000*%
%ADD21R,2.200000X1.000000*%
%ADD22C,0.600000*%
%ADD23C,0.355600*%
%ADD24C,0.254000*%
%ADD25C,1.270000*%
G04 APERTURE END LIST*
D10*
D11*
X147320000Y-86835000D03*
X146050000Y-86835000D03*
X144780000Y-86835000D03*
X143510000Y-86835000D03*
X143510000Y-92235000D03*
X144780000Y-92235000D03*
X146050000Y-92235000D03*
X147320000Y-92235000D03*
D12*
X145903000Y-83820000D03*
X143403000Y-83820000D03*
D13*
X154305000Y-94060000D03*
X154305000Y-91360000D03*
D14*
X141986000Y-80772000D03*
D15*
X144526000Y-80772000D03*
X147066000Y-80772000D03*
X149606000Y-80772000D03*
X152146000Y-80772000D03*
X154686000Y-80772000D03*
D16*
X153924000Y-83535000D03*
X150224000Y-83535000D03*
X150224000Y-89535000D03*
X153924000Y-89535000D03*
D17*
X144700000Y-94615000D03*
X147400000Y-94615000D03*
X144700000Y-96520000D03*
X147400000Y-96520000D03*
D18*
X140970000Y-83820000D03*
X140970000Y-86360000D03*
X140970000Y-93980000D03*
X140970000Y-96520000D03*
X156210000Y-109220000D03*
X156210000Y-106680000D03*
X156210000Y-104140000D03*
X156210000Y-101600000D03*
X156210000Y-88900000D03*
X156210000Y-86360000D03*
X156210000Y-83820000D03*
X152400000Y-93980000D03*
X149860000Y-93980000D03*
X140970000Y-124460000D03*
X140970000Y-121920000D03*
X156210000Y-99060000D03*
X156210000Y-96520000D03*
X156210000Y-111760000D03*
X140970000Y-127000000D03*
X140970000Y-88900000D03*
X149860000Y-91440000D03*
X152400000Y-91440000D03*
X140970000Y-91440000D03*
X156210000Y-91440000D03*
X156210000Y-93980000D03*
X156210000Y-114300000D03*
X140970000Y-119380000D03*
X156210000Y-116840000D03*
X156210000Y-119380000D03*
D19*
X141066000Y-115242000D03*
X143066000Y-115242000D03*
X145066000Y-115242000D03*
X147066000Y-115242000D03*
X149066000Y-115242000D03*
X151066000Y-115242000D03*
X153066000Y-115242000D03*
X149066000Y-99642000D03*
X153066000Y-99642000D03*
X145066000Y-99642000D03*
X143066000Y-99642000D03*
X147066000Y-99642000D03*
X141066000Y-99642000D03*
X151066000Y-99642000D03*
D20*
X143534000Y-119380000D03*
D21*
X145034000Y-117880000D03*
X145034000Y-120880000D03*
D22*
X140762021Y-110998000D03*
X145034000Y-112776000D03*
X142494000Y-112014000D03*
X146558000Y-111506000D03*
X150114000Y-112268000D03*
X152654000Y-109982000D03*
X150622000Y-108966000D03*
X148590000Y-109474000D03*
X144526000Y-110490000D03*
X143510000Y-108458000D03*
X146050000Y-108458000D03*
X147320000Y-106426000D03*
X151384000Y-107188000D03*
X153416000Y-104140000D03*
X151638000Y-103632000D03*
X148590000Y-104902000D03*
X148844000Y-102616000D03*
X144526000Y-106680000D03*
X141224000Y-107696000D03*
X143764000Y-104648000D03*
X145796000Y-102870000D03*
X141478000Y-103124000D03*
X143238510Y-116840000D03*
X151130000Y-92710000D03*
X147075468Y-116830532D03*
X142875000Y-94615000D03*
X142875000Y-96520000D03*
D23*
X141066000Y-102712000D02*
X141066000Y-100142000D01*
X145066000Y-114742000D02*
X145066000Y-112808000D01*
X145066000Y-112808000D02*
X145034000Y-112776000D01*
D24*
X144018000Y-110998000D02*
X141186285Y-110998000D01*
X144526000Y-110490000D02*
X144018000Y-110998000D01*
X141186285Y-110998000D02*
X140762021Y-110998000D01*
X146558000Y-111506000D02*
X143002000Y-111506000D01*
X143002000Y-111506000D02*
X142494000Y-112014000D01*
X152654000Y-109982000D02*
X150368000Y-112268000D01*
X150368000Y-112268000D02*
X150114000Y-112268000D01*
X148590000Y-109474000D02*
X150114000Y-109474000D01*
X150114000Y-109474000D02*
X150622000Y-108966000D01*
X146050000Y-108458000D02*
X143510000Y-108458000D01*
X151384000Y-107188000D02*
X148082000Y-107188000D01*
X148082000Y-107188000D02*
X147320000Y-106426000D01*
X151638000Y-103632000D02*
X152908000Y-103632000D01*
X152908000Y-103632000D02*
X153416000Y-104140000D01*
X148844000Y-102616000D02*
X148844000Y-104648000D01*
X148844000Y-104648000D02*
X148590000Y-104902000D01*
X141224000Y-107696000D02*
X143510000Y-107696000D01*
X143510000Y-107696000D02*
X144526000Y-106680000D01*
X145796000Y-102870000D02*
X144018000Y-104648000D01*
X144018000Y-104648000D02*
X143764000Y-104648000D01*
X141066000Y-102712000D02*
X141478000Y-103124000D01*
X144526000Y-80772000D02*
X145757001Y-79540999D01*
X145757001Y-79540999D02*
X155276881Y-79540999D01*
X154305000Y-91260000D02*
X154305000Y-91360000D01*
X155276881Y-79540999D02*
X155999872Y-80263990D01*
X155999872Y-80263990D02*
X157055425Y-80263990D01*
X157055425Y-80263990D02*
X157861011Y-81069576D01*
X157861011Y-81069576D02*
X157861011Y-88940631D01*
X155395000Y-90170000D02*
X154305000Y-91260000D01*
X157861011Y-88940631D02*
X156631642Y-90170000D01*
X156631642Y-90170000D02*
X155395000Y-90170000D01*
X154305000Y-91360000D02*
X152480000Y-91360000D01*
X152480000Y-91360000D02*
X152400000Y-91440000D01*
X152400000Y-93980000D02*
X152400000Y-91440000D01*
X157353001Y-81280000D02*
X157353001Y-82423001D01*
X154686000Y-80772000D02*
X156845001Y-80772000D01*
X156845001Y-80772000D02*
X157353001Y-81280000D01*
X153924000Y-89535000D02*
X155575000Y-89535000D01*
X155575000Y-89535000D02*
X156210000Y-88900000D01*
X154686000Y-80772000D02*
X154686000Y-82773000D01*
X154686000Y-82773000D02*
X153924000Y-83535000D01*
X156210000Y-88900000D02*
X156210000Y-88646000D01*
X157353001Y-87756999D02*
X157353001Y-82423001D01*
X156210000Y-88900000D02*
X157353001Y-87756999D01*
X157353001Y-87756999D02*
X156971999Y-88138001D01*
X156971999Y-88138001D02*
X156210000Y-88900000D01*
D23*
X143238510Y-116415736D02*
X143238510Y-116840000D01*
X143066000Y-114742000D02*
X143238510Y-114914510D01*
X143238510Y-114914510D02*
X143238510Y-116415736D01*
X147320000Y-92235000D02*
X147975600Y-92235000D01*
X147975600Y-92235000D02*
X148450600Y-92710000D01*
X148450600Y-92710000D02*
X150705736Y-92710000D01*
X150705736Y-92710000D02*
X151130000Y-92710000D01*
D24*
X147320000Y-92235000D02*
X147320000Y-94535000D01*
X147320000Y-94535000D02*
X147400000Y-94615000D01*
X147400000Y-96520000D02*
X147400000Y-94615000D01*
X147400000Y-94060000D02*
X147320000Y-94060000D01*
X147320000Y-94060000D02*
X146765000Y-94615000D01*
X140970000Y-96520000D02*
X139318989Y-94868989D01*
X139318989Y-86106011D02*
X140335000Y-85090000D01*
X139318989Y-94868989D02*
X139318989Y-86106011D01*
X140335000Y-85090000D02*
X146693802Y-85090000D01*
X146693802Y-85090000D02*
X147574000Y-84209802D01*
X147574000Y-84209802D02*
X147574000Y-82550000D01*
X149352000Y-80772000D02*
X149606000Y-80772000D01*
X147574000Y-82550000D02*
X149352000Y-80772000D01*
X149606000Y-80772000D02*
X149606000Y-81534000D01*
X150875990Y-82042010D02*
X152146000Y-80772000D01*
X148800426Y-82042010D02*
X150875990Y-82042010D01*
X148209000Y-84293238D02*
X148209000Y-82633436D01*
X148209000Y-82633436D02*
X148800426Y-82042010D01*
X146939000Y-85563238D02*
X148209000Y-84293238D01*
X146939000Y-85598008D02*
X146939000Y-85563238D01*
X146685000Y-85598011D02*
X146939000Y-85598008D01*
X140970000Y-93980000D02*
X139826999Y-92836999D01*
X139826999Y-92836999D02*
X139826999Y-88351359D01*
X139826999Y-88351359D02*
X140548358Y-87630000D01*
X141391642Y-87630000D02*
X142240000Y-86781642D01*
X142240000Y-86233011D02*
X142875000Y-85598011D01*
X140548358Y-87630000D02*
X141391642Y-87630000D01*
X142240000Y-86781642D02*
X142240000Y-86233011D01*
X142875000Y-85598011D02*
X146685000Y-85598011D01*
X151638000Y-80772000D02*
X152146000Y-80772000D01*
X146685000Y-85598011D02*
X146811989Y-85598011D01*
X152146000Y-80772000D02*
X152146000Y-81174198D01*
X140970000Y-93980000D02*
X141224000Y-93980000D01*
X140970000Y-93980000D02*
X140970000Y-93850076D01*
X145903000Y-83820000D02*
X145903000Y-81935000D01*
X145903000Y-81935000D02*
X147066000Y-80772000D01*
X153066000Y-114742000D02*
X153066000Y-114396000D01*
X153066000Y-114396000D02*
X154940000Y-112522000D01*
X156210000Y-109220000D02*
X154940000Y-110490000D01*
X154940000Y-110490000D02*
X154940000Y-112522000D01*
X151066000Y-114742000D02*
X151066000Y-114242000D01*
X151066000Y-114242000D02*
X151770000Y-113538000D01*
X154431998Y-110236000D02*
X154431998Y-112014002D01*
X154940000Y-107950000D02*
X154940000Y-109727998D01*
X154940000Y-109727998D02*
X154431998Y-110236000D01*
X156210000Y-106680000D02*
X154940000Y-107950000D01*
X152908000Y-113538000D02*
X151770000Y-113538000D01*
X154431998Y-112014002D02*
X152908000Y-113538000D01*
X156210000Y-106680000D02*
X156210000Y-106934000D01*
X153066000Y-100142000D02*
X153990000Y-100142000D01*
X153990000Y-100142000D02*
X155066999Y-101218999D01*
X155066999Y-102405574D02*
X155066999Y-101218999D01*
X156210000Y-103548575D02*
X155066999Y-102405574D01*
X156210000Y-104140000D02*
X156210000Y-103548575D01*
X149066000Y-114742000D02*
X149066000Y-115552802D01*
X149066000Y-115552802D02*
X150136199Y-116623001D01*
X157861014Y-111800628D02*
X157861014Y-105410000D01*
X156210000Y-101600000D02*
X157353001Y-102743001D01*
X157353001Y-104901987D02*
X157861014Y-105410000D01*
X157353001Y-102743001D02*
X157353001Y-104901987D01*
X156718000Y-112943642D02*
X157861014Y-111800628D01*
X150136199Y-116623001D02*
X153995801Y-116623001D01*
X154178000Y-116440802D02*
X154178000Y-114300000D01*
X153995801Y-116623001D02*
X154178000Y-116440802D01*
X154178000Y-114300000D02*
X155534358Y-112943642D01*
X155534358Y-112943642D02*
X156718000Y-112943642D01*
X156210000Y-101600000D02*
X156210000Y-101854000D01*
X152266438Y-98260999D02*
X151066000Y-99461437D01*
X151066000Y-99461437D02*
X151066000Y-100142000D01*
X156210000Y-99060000D02*
X155410999Y-98260999D01*
X155410999Y-98260999D02*
X152266438Y-98260999D01*
X147066000Y-100142000D02*
X147066000Y-99331198D01*
X147066000Y-99331198D02*
X148136199Y-98260999D01*
X156210000Y-96520000D02*
X155066999Y-97663001D01*
X155066999Y-97663001D02*
X152146000Y-97663001D01*
X152146000Y-97663001D02*
X151548002Y-98260999D01*
X148136199Y-98260999D02*
X151548002Y-98260999D01*
X149066000Y-100142000D02*
X149066000Y-100642000D01*
X154558989Y-101726989D02*
X154558989Y-102616000D01*
X155448000Y-105410000D02*
X155066999Y-105028999D01*
X155066999Y-105028999D02*
X155066999Y-103124010D01*
X155066999Y-103124010D02*
X154558989Y-102616000D01*
X149066000Y-100642000D02*
X149516000Y-101092000D01*
X149516000Y-101092000D02*
X153924000Y-101092000D01*
X153924000Y-101092000D02*
X154558989Y-101726989D01*
X157353012Y-110616988D02*
X156210000Y-111760000D01*
X155448000Y-105410000D02*
X156972000Y-105410000D01*
X156972000Y-105410000D02*
X157353012Y-105791012D01*
X157353012Y-105791012D02*
X157353012Y-110616988D01*
X147066000Y-114742000D02*
X147066000Y-116821064D01*
X147066000Y-116821064D02*
X147075468Y-116830532D01*
D25*
X141066000Y-114742000D02*
X141066000Y-116912000D01*
X141066000Y-116912000D02*
X143534000Y-119380000D01*
D24*
X142875000Y-94615000D02*
X144700000Y-94615000D01*
X142875000Y-94615000D02*
X143510000Y-93980000D01*
X143510000Y-93980000D02*
X143510000Y-92235000D01*
X143510000Y-96520000D02*
X142875000Y-96520000D01*
X144700000Y-96520000D02*
X143510000Y-96520000D01*
X144700000Y-96520000D02*
X144800000Y-96520000D01*
X144800000Y-96520000D02*
X145831001Y-95488999D01*
X145831001Y-95488999D02*
X145831001Y-93761001D01*
X145831001Y-93761001D02*
X144780000Y-92710000D01*
X144780000Y-92710000D02*
X144780000Y-92235000D01*
X144165000Y-96520000D02*
X144065000Y-96520000D01*
G36*
X153670285Y-80070570D02*
X153554544Y-80281102D01*
X153481900Y-80510105D01*
X153455120Y-80748857D01*
X153455000Y-80766044D01*
X153455000Y-80777956D01*
X153478444Y-81017058D01*
X153547884Y-81247054D01*
X153660674Y-81459181D01*
X153812518Y-81645361D01*
X153997634Y-81798501D01*
X154178000Y-81896025D01*
X154178000Y-82562580D01*
X154088423Y-82652157D01*
X153324000Y-82652157D01*
X153263327Y-82656995D01*
X153160420Y-82688864D01*
X153070465Y-82748140D01*
X153000585Y-82830130D01*
X152956314Y-82928342D01*
X152941157Y-83035000D01*
X152941157Y-84035000D01*
X152945995Y-84095673D01*
X152977864Y-84198580D01*
X153037140Y-84288535D01*
X153119130Y-84358415D01*
X153217342Y-84402686D01*
X153324000Y-84417843D01*
X154524000Y-84417843D01*
X154584673Y-84413005D01*
X154687580Y-84381136D01*
X154777535Y-84321860D01*
X154847415Y-84239870D01*
X154891686Y-84141658D01*
X154906843Y-84035000D01*
X154906843Y-83899064D01*
X154987456Y-83899064D01*
X155026372Y-84136052D01*
X155110774Y-84360894D01*
X155149565Y-84433470D01*
X155339894Y-84510500D01*
X156030395Y-83820000D01*
X155339894Y-83129500D01*
X155149565Y-83206530D01*
X155050259Y-83425199D01*
X154995522Y-83659039D01*
X154987456Y-83899064D01*
X154906843Y-83899064D01*
X154906843Y-83270577D01*
X155045210Y-83132210D01*
X155074976Y-83095972D01*
X155105158Y-83060003D01*
X155106446Y-83057661D01*
X155108140Y-83055598D01*
X155130300Y-83014269D01*
X155152921Y-82973122D01*
X155153729Y-82970574D01*
X155154991Y-82968221D01*
X155168711Y-82923344D01*
X155182899Y-82878619D01*
X155183197Y-82875966D01*
X155183978Y-82873410D01*
X155188724Y-82826687D01*
X155193950Y-82780093D01*
X155193987Y-82774873D01*
X155193997Y-82774773D01*
X155193988Y-82774679D01*
X155194000Y-82773000D01*
X155194000Y-81894822D01*
X155360050Y-81808013D01*
X155547286Y-81657472D01*
X155701715Y-81473430D01*
X155808054Y-81280000D01*
X156634581Y-81280000D01*
X156845001Y-81490421D01*
X156845001Y-82812765D01*
X156823470Y-82759565D01*
X156604801Y-82660259D01*
X156370961Y-82605522D01*
X156130936Y-82597456D01*
X155893948Y-82636372D01*
X155669106Y-82720774D01*
X155596530Y-82759565D01*
X155519500Y-82949894D01*
X156210000Y-83640395D01*
X156224142Y-83626252D01*
X156403748Y-83805858D01*
X156389605Y-83820000D01*
X156403748Y-83834142D01*
X156224142Y-84013748D01*
X156210000Y-83999605D01*
X155519500Y-84690106D01*
X155596530Y-84880435D01*
X155815199Y-84979741D01*
X156049039Y-85034478D01*
X156289064Y-85042544D01*
X156526052Y-85003628D01*
X156750894Y-84919226D01*
X156823470Y-84880435D01*
X156845001Y-84827235D01*
X156845001Y-85409547D01*
X156756269Y-85349697D01*
X156549630Y-85262834D01*
X156330054Y-85217762D01*
X156105906Y-85216197D01*
X155885722Y-85258199D01*
X155677891Y-85342169D01*
X155490327Y-85464907D01*
X155330175Y-85621739D01*
X155203535Y-85806691D01*
X155115232Y-86012719D01*
X155068628Y-86231975D01*
X155065498Y-86456107D01*
X155105962Y-86676578D01*
X155188479Y-86884991D01*
X155309905Y-87073407D01*
X155465615Y-87234650D01*
X155649679Y-87362577D01*
X155855085Y-87452317D01*
X156074009Y-87500451D01*
X156298114Y-87505145D01*
X156518862Y-87466221D01*
X156727846Y-87385162D01*
X156845001Y-87310813D01*
X156845001Y-87546578D01*
X156577169Y-87814410D01*
X156549630Y-87802834D01*
X156330054Y-87757762D01*
X156105906Y-87756197D01*
X155885722Y-87798199D01*
X155677891Y-87882169D01*
X155490327Y-88004907D01*
X155330175Y-88161739D01*
X155203535Y-88346691D01*
X155115232Y-88552719D01*
X155068628Y-88771975D01*
X155065498Y-88996107D01*
X155071168Y-89027000D01*
X154906205Y-89027000D01*
X154902005Y-88974327D01*
X154870136Y-88871420D01*
X154810860Y-88781465D01*
X154728870Y-88711585D01*
X154630658Y-88667314D01*
X154524000Y-88652157D01*
X153324000Y-88652157D01*
X153263327Y-88656995D01*
X153160420Y-88688864D01*
X153070465Y-88748140D01*
X153000585Y-88830130D01*
X152956314Y-88928342D01*
X152941157Y-89035000D01*
X152941157Y-90035000D01*
X152945995Y-90095673D01*
X152977864Y-90198580D01*
X153037140Y-90288535D01*
X153119130Y-90358415D01*
X153217342Y-90402686D01*
X153324000Y-90417843D01*
X153325854Y-90417843D01*
X153287314Y-90503342D01*
X153272157Y-90610000D01*
X153272157Y-90696080D01*
X153132101Y-90555042D01*
X152946269Y-90429697D01*
X152739630Y-90342834D01*
X152520054Y-90297762D01*
X152295906Y-90296197D01*
X152075722Y-90338199D01*
X151867891Y-90422169D01*
X151680327Y-90544907D01*
X151520175Y-90701739D01*
X151393535Y-90886691D01*
X151305232Y-91092719D01*
X151258628Y-91311975D01*
X151255498Y-91536107D01*
X151295962Y-91756578D01*
X151378479Y-91964991D01*
X151482381Y-92126214D01*
X151455467Y-92108061D01*
X151332352Y-92056308D01*
X151201528Y-92029454D01*
X151067981Y-92028521D01*
X150936795Y-92053546D01*
X150812969Y-92103575D01*
X150746608Y-92147000D01*
X150730107Y-92130499D01*
X150920435Y-92053470D01*
X151019741Y-91834801D01*
X151074478Y-91600961D01*
X151082544Y-91360936D01*
X151043628Y-91123948D01*
X150959226Y-90899106D01*
X150920435Y-90826530D01*
X150730106Y-90749500D01*
X150039605Y-91440000D01*
X150053748Y-91454142D01*
X149874142Y-91633748D01*
X149860000Y-91619605D01*
X149845858Y-91633748D01*
X149666252Y-91454142D01*
X149680395Y-91440000D01*
X148989894Y-90749500D01*
X148799565Y-90826530D01*
X148700259Y-91045199D01*
X148645522Y-91279039D01*
X148637456Y-91519064D01*
X148676372Y-91756052D01*
X148760774Y-91980894D01*
X148799565Y-92053470D01*
X148989893Y-92130499D01*
X148969192Y-92151200D01*
X148682063Y-92151200D01*
X148370731Y-91839869D01*
X148330857Y-91807116D01*
X148291304Y-91773927D01*
X148288729Y-91772511D01*
X148286458Y-91770646D01*
X148240978Y-91746260D01*
X148195735Y-91721387D01*
X148192933Y-91720498D01*
X148190344Y-91719110D01*
X148141016Y-91704029D01*
X148091781Y-91688411D01*
X148088858Y-91688083D01*
X148086051Y-91687225D01*
X148034737Y-91682012D01*
X148002843Y-91678435D01*
X148002843Y-91460000D01*
X147998005Y-91399327D01*
X147966136Y-91296420D01*
X147906860Y-91206465D01*
X147824870Y-91136585D01*
X147726658Y-91092314D01*
X147620000Y-91077157D01*
X147020000Y-91077157D01*
X146959327Y-91081995D01*
X146856420Y-91113864D01*
X146766465Y-91173140D01*
X146733802Y-91211463D01*
X146705131Y-91168552D01*
X146641448Y-91104870D01*
X146566566Y-91054835D01*
X146483361Y-91020370D01*
X146395031Y-91002800D01*
X146291300Y-91002800D01*
X146177000Y-91117100D01*
X146177000Y-92108000D01*
X146197000Y-92108000D01*
X146197000Y-92362000D01*
X146177000Y-92362000D01*
X146177000Y-92382000D01*
X145923000Y-92382000D01*
X145923000Y-92362000D01*
X145903000Y-92362000D01*
X145903000Y-92108000D01*
X145923000Y-92108000D01*
X145923000Y-91117100D01*
X145808700Y-91002800D01*
X145704969Y-91002800D01*
X145616639Y-91020370D01*
X145533434Y-91054835D01*
X145458552Y-91104870D01*
X145394869Y-91168552D01*
X145368189Y-91208482D01*
X145366860Y-91206465D01*
X145284870Y-91136585D01*
X145186658Y-91092314D01*
X145080000Y-91077157D01*
X144480000Y-91077157D01*
X144419327Y-91081995D01*
X144316420Y-91113864D01*
X144226465Y-91173140D01*
X144156585Y-91255130D01*
X144145351Y-91280053D01*
X144096860Y-91206465D01*
X144014870Y-91136585D01*
X143916658Y-91092314D01*
X143810000Y-91077157D01*
X143210000Y-91077157D01*
X143149327Y-91081995D01*
X143046420Y-91113864D01*
X142956465Y-91173140D01*
X142886585Y-91255130D01*
X142842314Y-91353342D01*
X142827157Y-91460000D01*
X142827157Y-93010000D01*
X142831995Y-93070673D01*
X142863864Y-93173580D01*
X142923140Y-93263535D01*
X143002000Y-93330747D01*
X143002000Y-93769579D01*
X142837885Y-93933695D01*
X142812981Y-93933521D01*
X142681795Y-93958546D01*
X142557969Y-94008575D01*
X142446218Y-94081703D01*
X142350800Y-94175144D01*
X142275348Y-94285338D01*
X142222736Y-94408090D01*
X142194970Y-94538722D01*
X142193105Y-94672260D01*
X142217213Y-94803617D01*
X142266377Y-94927790D01*
X142338722Y-95040048D01*
X142431495Y-95136117D01*
X142541160Y-95212336D01*
X142663541Y-95265803D01*
X142793977Y-95294481D01*
X142927498Y-95297278D01*
X143059020Y-95274087D01*
X143183533Y-95225792D01*
X143296294Y-95154232D01*
X143329091Y-95123000D01*
X143567157Y-95123000D01*
X143567157Y-95265000D01*
X143571995Y-95325673D01*
X143603864Y-95428580D01*
X143663140Y-95518535D01*
X143720420Y-95567355D01*
X143696465Y-95583140D01*
X143626585Y-95665130D01*
X143582314Y-95763342D01*
X143567157Y-95870000D01*
X143567157Y-96012000D01*
X143330310Y-96012000D01*
X143311186Y-95992742D01*
X143200467Y-95918061D01*
X143077352Y-95866308D01*
X142946528Y-95839454D01*
X142812981Y-95838521D01*
X142681795Y-95863546D01*
X142557969Y-95913575D01*
X142446218Y-95986703D01*
X142350800Y-96080144D01*
X142275348Y-96190338D01*
X142222736Y-96313090D01*
X142194970Y-96443722D01*
X142193105Y-96577260D01*
X142217213Y-96708617D01*
X142266377Y-96832790D01*
X142338722Y-96945048D01*
X142431495Y-97041117D01*
X142541160Y-97117336D01*
X142663541Y-97170803D01*
X142793977Y-97199481D01*
X142927498Y-97202278D01*
X143059020Y-97179087D01*
X143183533Y-97130792D01*
X143296294Y-97059232D01*
X143329091Y-97028000D01*
X143567157Y-97028000D01*
X143567157Y-97170000D01*
X143571995Y-97230673D01*
X143603864Y-97333580D01*
X143663140Y-97423535D01*
X143745130Y-97493415D01*
X143843342Y-97537686D01*
X143950000Y-97552843D01*
X145450000Y-97552843D01*
X145510673Y-97548005D01*
X145613580Y-97516136D01*
X145703535Y-97456860D01*
X145773415Y-97374870D01*
X145817686Y-97276658D01*
X145832843Y-97170000D01*
X145832843Y-96205578D01*
X146190212Y-95848209D01*
X146220002Y-95811941D01*
X146250159Y-95776002D01*
X146251447Y-95773660D01*
X146253141Y-95771597D01*
X146275301Y-95730268D01*
X146297922Y-95689121D01*
X146298730Y-95686573D01*
X146299992Y-95684220D01*
X146313712Y-95639343D01*
X146327900Y-95594618D01*
X146328198Y-95591965D01*
X146328979Y-95589409D01*
X146333725Y-95542686D01*
X146338951Y-95496092D01*
X146338988Y-95490872D01*
X146338998Y-95490772D01*
X146338989Y-95490678D01*
X146339001Y-95488999D01*
X146339001Y-95481903D01*
X146363140Y-95518535D01*
X146420420Y-95567355D01*
X146396465Y-95583140D01*
X146326585Y-95665130D01*
X146282314Y-95763342D01*
X146267157Y-95870000D01*
X146267157Y-97170000D01*
X146271995Y-97230673D01*
X146303864Y-97333580D01*
X146363140Y-97423535D01*
X146445130Y-97493415D01*
X146543342Y-97537686D01*
X146650000Y-97552843D01*
X148150000Y-97552843D01*
X148210673Y-97548005D01*
X148313580Y-97516136D01*
X148403535Y-97456860D01*
X148473415Y-97374870D01*
X148517686Y-97276658D01*
X148532843Y-97170000D01*
X148532843Y-95870000D01*
X148528005Y-95809327D01*
X148496136Y-95706420D01*
X148436860Y-95616465D01*
X148379580Y-95567645D01*
X148403535Y-95551860D01*
X148473415Y-95469870D01*
X148517686Y-95371658D01*
X148532843Y-95265000D01*
X148532843Y-94850106D01*
X149169500Y-94850106D01*
X149246530Y-95040435D01*
X149465199Y-95139741D01*
X149699039Y-95194478D01*
X149939064Y-95202544D01*
X150176052Y-95163628D01*
X150400894Y-95079226D01*
X150473470Y-95040435D01*
X150550500Y-94850106D01*
X149860000Y-94159605D01*
X149169500Y-94850106D01*
X148532843Y-94850106D01*
X148532843Y-93965000D01*
X148528005Y-93904327D01*
X148496136Y-93801420D01*
X148436860Y-93711465D01*
X148354870Y-93641585D01*
X148256658Y-93597314D01*
X148150000Y-93582157D01*
X147828000Y-93582157D01*
X147828000Y-93326865D01*
X147873535Y-93296860D01*
X147943415Y-93214870D01*
X147987686Y-93116658D01*
X147997554Y-93047217D01*
X148055468Y-93105131D01*
X148095390Y-93137923D01*
X148134896Y-93171073D01*
X148137468Y-93172487D01*
X148139741Y-93174354D01*
X148185208Y-93198733D01*
X148230465Y-93223613D01*
X148233272Y-93224503D01*
X148235856Y-93225889D01*
X148285138Y-93240956D01*
X148334419Y-93256589D01*
X148337342Y-93256917D01*
X148340149Y-93257775D01*
X148391423Y-93262983D01*
X148442798Y-93268746D01*
X148448549Y-93268786D01*
X148448649Y-93268796D01*
X148448743Y-93268787D01*
X148450600Y-93268800D01*
X148969192Y-93268800D01*
X148989893Y-93289501D01*
X148799565Y-93366530D01*
X148700259Y-93585199D01*
X148645522Y-93819039D01*
X148637456Y-94059064D01*
X148676372Y-94296052D01*
X148760774Y-94520894D01*
X148799565Y-94593470D01*
X148989894Y-94670500D01*
X149680395Y-93980000D01*
X149666252Y-93965858D01*
X149845858Y-93786252D01*
X149860000Y-93800395D01*
X149874142Y-93786252D01*
X150053748Y-93965858D01*
X150039605Y-93980000D01*
X150730106Y-94670500D01*
X150920435Y-94593470D01*
X151019741Y-94374801D01*
X151074478Y-94140961D01*
X151082544Y-93900936D01*
X151043628Y-93663948D01*
X150959226Y-93439106D01*
X150920435Y-93366530D01*
X150730107Y-93289501D01*
X150746669Y-93272939D01*
X150796160Y-93307336D01*
X150918541Y-93360803D01*
X151048977Y-93389481D01*
X151182498Y-93392278D01*
X151314020Y-93369087D01*
X151438533Y-93320792D01*
X151487188Y-93289915D01*
X151393535Y-93426691D01*
X151305232Y-93632719D01*
X151258628Y-93851975D01*
X151255498Y-94076107D01*
X151295962Y-94296578D01*
X151378479Y-94504991D01*
X151499905Y-94693407D01*
X151655615Y-94854650D01*
X151839679Y-94982577D01*
X152045085Y-95072317D01*
X152264009Y-95120451D01*
X152488114Y-95125145D01*
X152708862Y-95086221D01*
X152917846Y-95005162D01*
X153107106Y-94885054D01*
X153197800Y-94798687D01*
X153197800Y-94855030D01*
X153215370Y-94943360D01*
X153249835Y-95026565D01*
X153299869Y-95101448D01*
X153363552Y-95165130D01*
X153438434Y-95215165D01*
X153521639Y-95249630D01*
X153609969Y-95267200D01*
X154063700Y-95267200D01*
X154178000Y-95152900D01*
X154178000Y-94187000D01*
X154158000Y-94187000D01*
X154158000Y-93933000D01*
X154178000Y-93933000D01*
X154178000Y-92967100D01*
X154432000Y-92967100D01*
X154432000Y-93933000D01*
X154452000Y-93933000D01*
X154452000Y-94187000D01*
X154432000Y-94187000D01*
X154432000Y-95152900D01*
X154546300Y-95267200D01*
X155000031Y-95267200D01*
X155088361Y-95249630D01*
X155171566Y-95215165D01*
X155246448Y-95165130D01*
X155310131Y-95101448D01*
X155360165Y-95026565D01*
X155394630Y-94943360D01*
X155412200Y-94855030D01*
X155412200Y-94799337D01*
X155465615Y-94854650D01*
X155649679Y-94982577D01*
X155855085Y-95072317D01*
X156074009Y-95120451D01*
X156298114Y-95125145D01*
X156518862Y-95086221D01*
X156727846Y-95005162D01*
X156917106Y-94885054D01*
X157079432Y-94730473D01*
X157208641Y-94547307D01*
X157299813Y-94342532D01*
X157349473Y-94123949D01*
X157353049Y-93867923D01*
X157309510Y-93648038D01*
X157224092Y-93440798D01*
X157100047Y-93254095D01*
X156942101Y-93095042D01*
X156756269Y-92969697D01*
X156549630Y-92882834D01*
X156330054Y-92837762D01*
X156105906Y-92836197D01*
X155885722Y-92878199D01*
X155677891Y-92962169D01*
X155490327Y-93084907D01*
X155394960Y-93178297D01*
X155394630Y-93176640D01*
X155360165Y-93093435D01*
X155310131Y-93018552D01*
X155246448Y-92954870D01*
X155171566Y-92904835D01*
X155088361Y-92870370D01*
X155000031Y-92852800D01*
X154546300Y-92852800D01*
X154432000Y-92967100D01*
X154178000Y-92967100D01*
X154063700Y-92852800D01*
X153609969Y-92852800D01*
X153521639Y-92870370D01*
X153438434Y-92904835D01*
X153363552Y-92954870D01*
X153299869Y-93018552D01*
X153249835Y-93093435D01*
X153215370Y-93176640D01*
X153214996Y-93178518D01*
X153132101Y-93095042D01*
X152946269Y-92969697D01*
X152908000Y-92953610D01*
X152908000Y-92468981D01*
X152917846Y-92465162D01*
X153107106Y-92345054D01*
X153269432Y-92190473D01*
X153278949Y-92176982D01*
X153308864Y-92273580D01*
X153368140Y-92363535D01*
X153450130Y-92433415D01*
X153548342Y-92477686D01*
X153655000Y-92492843D01*
X154955000Y-92492843D01*
X155015673Y-92488005D01*
X155118580Y-92456136D01*
X155208535Y-92396860D01*
X155278415Y-92314870D01*
X155322686Y-92216658D01*
X155328882Y-92173058D01*
X155465615Y-92314650D01*
X155649679Y-92442577D01*
X155855085Y-92532317D01*
X156074009Y-92580451D01*
X156298114Y-92585145D01*
X156518862Y-92546221D01*
X156727846Y-92465162D01*
X156917106Y-92345054D01*
X157079432Y-92190473D01*
X157208641Y-92007307D01*
X157299813Y-91802532D01*
X157349473Y-91583949D01*
X157353049Y-91327923D01*
X157309510Y-91108038D01*
X157224092Y-90900798D01*
X157100047Y-90714095D01*
X156949875Y-90562870D01*
X156985801Y-90534190D01*
X156989516Y-90530527D01*
X156989596Y-90530462D01*
X156989657Y-90530388D01*
X156990852Y-90529210D01*
X158220221Y-89299841D01*
X158249987Y-89263603D01*
X158280169Y-89227634D01*
X158281457Y-89225292D01*
X158283151Y-89223229D01*
X158294000Y-89202995D01*
X158294000Y-105146714D01*
X158287059Y-105133323D01*
X158285391Y-105131234D01*
X158284138Y-105128877D01*
X158254462Y-105092491D01*
X158225204Y-105055841D01*
X158221541Y-105052126D01*
X158221476Y-105052046D01*
X158221402Y-105051985D01*
X158220224Y-105050790D01*
X157861001Y-104691567D01*
X157861001Y-102743001D01*
X157856426Y-102696343D01*
X157852333Y-102649554D01*
X157851586Y-102646983D01*
X157851326Y-102644330D01*
X157837783Y-102599474D01*
X157824672Y-102554346D01*
X157823441Y-102551972D01*
X157822670Y-102549417D01*
X157800650Y-102508004D01*
X157779046Y-102466325D01*
X157777380Y-102464237D01*
X157776125Y-102461878D01*
X157746456Y-102425501D01*
X157717192Y-102388842D01*
X157713524Y-102385121D01*
X157713463Y-102385047D01*
X157713394Y-102384990D01*
X157712212Y-102383791D01*
X157297083Y-101968663D01*
X157299813Y-101962532D01*
X157349473Y-101743949D01*
X157353049Y-101487923D01*
X157309510Y-101268038D01*
X157224092Y-101060798D01*
X157100047Y-100874095D01*
X156942101Y-100715042D01*
X156756269Y-100589697D01*
X156549630Y-100502834D01*
X156330054Y-100457762D01*
X156105906Y-100456197D01*
X155885722Y-100498199D01*
X155677891Y-100582169D01*
X155490327Y-100704907D01*
X155379681Y-100813260D01*
X154349210Y-99782790D01*
X154312972Y-99753024D01*
X154277003Y-99722842D01*
X154274661Y-99721554D01*
X154272598Y-99719860D01*
X154231251Y-99697690D01*
X154190122Y-99675079D01*
X154187577Y-99674272D01*
X154185222Y-99673009D01*
X154140330Y-99659284D01*
X154095619Y-99645101D01*
X154092966Y-99644803D01*
X154090410Y-99644022D01*
X154073843Y-99642339D01*
X154073843Y-98768999D01*
X155103269Y-98768999D01*
X155068628Y-98931975D01*
X155065498Y-99156107D01*
X155105962Y-99376578D01*
X155188479Y-99584991D01*
X155309905Y-99773407D01*
X155465615Y-99934650D01*
X155649679Y-100062577D01*
X155855085Y-100152317D01*
X156074009Y-100200451D01*
X156298114Y-100205145D01*
X156518862Y-100166221D01*
X156727846Y-100085162D01*
X156917106Y-99965054D01*
X157079432Y-99810473D01*
X157208641Y-99627307D01*
X157299813Y-99422532D01*
X157349473Y-99203949D01*
X157353049Y-98947923D01*
X157309510Y-98728038D01*
X157224092Y-98520798D01*
X157100047Y-98334095D01*
X156942101Y-98175042D01*
X156756269Y-98049697D01*
X156549630Y-97962834D01*
X156330054Y-97917762D01*
X156105906Y-97916197D01*
X155885722Y-97958199D01*
X155843627Y-97975207D01*
X155770209Y-97901789D01*
X155733971Y-97872023D01*
X155698002Y-97841841D01*
X155695660Y-97840553D01*
X155693597Y-97838859D01*
X155652250Y-97816689D01*
X155639010Y-97809410D01*
X155841875Y-97606546D01*
X155855085Y-97612317D01*
X156074009Y-97660451D01*
X156298114Y-97665145D01*
X156518862Y-97626221D01*
X156727846Y-97545162D01*
X156917106Y-97425054D01*
X157079432Y-97270473D01*
X157208641Y-97087307D01*
X157299813Y-96882532D01*
X157349473Y-96663949D01*
X157353049Y-96407923D01*
X157309510Y-96188038D01*
X157224092Y-95980798D01*
X157100047Y-95794095D01*
X156942101Y-95635042D01*
X156756269Y-95509697D01*
X156549630Y-95422834D01*
X156330054Y-95377762D01*
X156105906Y-95376197D01*
X155885722Y-95418199D01*
X155677891Y-95502169D01*
X155490327Y-95624907D01*
X155330175Y-95781739D01*
X155203535Y-95966691D01*
X155115232Y-96172719D01*
X155068628Y-96391975D01*
X155065498Y-96616107D01*
X155105962Y-96836578D01*
X155125544Y-96886036D01*
X154856579Y-97155001D01*
X152146000Y-97155001D01*
X152099296Y-97159580D01*
X152052552Y-97163670D01*
X152049986Y-97164415D01*
X152047329Y-97164676D01*
X152002444Y-97178228D01*
X151957345Y-97191330D01*
X151954971Y-97192561D01*
X151952416Y-97193332D01*
X151911023Y-97215341D01*
X151869323Y-97236956D01*
X151867234Y-97238624D01*
X151864877Y-97239877D01*
X151828491Y-97269553D01*
X151791841Y-97298811D01*
X151788126Y-97302474D01*
X151788046Y-97302539D01*
X151787985Y-97302613D01*
X151786790Y-97303791D01*
X151337582Y-97752999D01*
X148136199Y-97752999D01*
X148089495Y-97757578D01*
X148042751Y-97761668D01*
X148040185Y-97762413D01*
X148037528Y-97762674D01*
X147992643Y-97776226D01*
X147947544Y-97789328D01*
X147945170Y-97790559D01*
X147942615Y-97791330D01*
X147901222Y-97813339D01*
X147859522Y-97834954D01*
X147857433Y-97836622D01*
X147855076Y-97837875D01*
X147818690Y-97867551D01*
X147782040Y-97896809D01*
X147778325Y-97900472D01*
X147778245Y-97900537D01*
X147778184Y-97900611D01*
X147776989Y-97901789D01*
X147419621Y-98259157D01*
X146441000Y-98259157D01*
X146380327Y-98263995D01*
X146277420Y-98295864D01*
X146187465Y-98355140D01*
X146117585Y-98437130D01*
X146073314Y-98535342D01*
X146067479Y-98576400D01*
X146037136Y-98478420D01*
X145977860Y-98388465D01*
X145895870Y-98318585D01*
X145797658Y-98274314D01*
X145691000Y-98259157D01*
X144441000Y-98259157D01*
X144380327Y-98263995D01*
X144277420Y-98295864D01*
X144187465Y-98355140D01*
X144117585Y-98437130D01*
X144073314Y-98535342D01*
X144067479Y-98576400D01*
X144037136Y-98478420D01*
X143977860Y-98388465D01*
X143895870Y-98318585D01*
X143797658Y-98274314D01*
X143691000Y-98259157D01*
X142441000Y-98259157D01*
X142380327Y-98263995D01*
X142277420Y-98295864D01*
X142187465Y-98355140D01*
X142117585Y-98437130D01*
X142108947Y-98456293D01*
X142096165Y-98425435D01*
X142046131Y-98350552D01*
X141982448Y-98286870D01*
X141907566Y-98236835D01*
X141824361Y-98202370D01*
X141736031Y-98184800D01*
X141307300Y-98184800D01*
X141193000Y-98299100D01*
X141193000Y-99515000D01*
X141213000Y-99515000D01*
X141213000Y-99769000D01*
X141193000Y-99769000D01*
X141193000Y-100984900D01*
X141307300Y-101099200D01*
X141736031Y-101099200D01*
X141824361Y-101081630D01*
X141907566Y-101047165D01*
X141982448Y-100997130D01*
X142046131Y-100933448D01*
X142096165Y-100858565D01*
X142109139Y-100827243D01*
X142154140Y-100895535D01*
X142236130Y-100965415D01*
X142334342Y-101009686D01*
X142441000Y-101024843D01*
X143691000Y-101024843D01*
X143751673Y-101020005D01*
X143854580Y-100988136D01*
X143944535Y-100928860D01*
X144014415Y-100846870D01*
X144058686Y-100748658D01*
X144064521Y-100707600D01*
X144094864Y-100805580D01*
X144154140Y-100895535D01*
X144236130Y-100965415D01*
X144334342Y-101009686D01*
X144441000Y-101024843D01*
X145691000Y-101024843D01*
X145751673Y-101020005D01*
X145854580Y-100988136D01*
X145944535Y-100928860D01*
X146014415Y-100846870D01*
X146058686Y-100748658D01*
X146064521Y-100707600D01*
X146094864Y-100805580D01*
X146154140Y-100895535D01*
X146236130Y-100965415D01*
X146334342Y-101009686D01*
X146441000Y-101024843D01*
X147691000Y-101024843D01*
X147751673Y-101020005D01*
X147854580Y-100988136D01*
X147944535Y-100928860D01*
X148014415Y-100846870D01*
X148058686Y-100748658D01*
X148064521Y-100707600D01*
X148094864Y-100805580D01*
X148154140Y-100895535D01*
X148236130Y-100965415D01*
X148334342Y-101009686D01*
X148441000Y-101024843D01*
X148730423Y-101024843D01*
X149156790Y-101451210D01*
X149193028Y-101480976D01*
X149228997Y-101511158D01*
X149231339Y-101512446D01*
X149233402Y-101514140D01*
X149274749Y-101536310D01*
X149315878Y-101558921D01*
X149318423Y-101559728D01*
X149320778Y-101560991D01*
X149365670Y-101574716D01*
X149410381Y-101588899D01*
X149413034Y-101589197D01*
X149415590Y-101589978D01*
X149462313Y-101594724D01*
X149508907Y-101599950D01*
X149514127Y-101599987D01*
X149514227Y-101599997D01*
X149514321Y-101599988D01*
X149516000Y-101600000D01*
X153713580Y-101600000D01*
X154050989Y-101937409D01*
X154050989Y-102616000D01*
X154055568Y-102662704D01*
X154059658Y-102709448D01*
X154060403Y-102712014D01*
X154060664Y-102714671D01*
X154074216Y-102759556D01*
X154087318Y-102804655D01*
X154088549Y-102807029D01*
X154089320Y-102809584D01*
X154111329Y-102850977D01*
X154132944Y-102892677D01*
X154134612Y-102894766D01*
X154135865Y-102897123D01*
X154165541Y-102933509D01*
X154194799Y-102970159D01*
X154198462Y-102973874D01*
X154198527Y-102973954D01*
X154198601Y-102974015D01*
X154199779Y-102975210D01*
X154558999Y-103334431D01*
X154558999Y-105028999D01*
X154563578Y-105075703D01*
X154567668Y-105122447D01*
X154568413Y-105125013D01*
X154568674Y-105127670D01*
X154582226Y-105172555D01*
X154595328Y-105217654D01*
X154596559Y-105220028D01*
X154597330Y-105222583D01*
X154619339Y-105263976D01*
X154640954Y-105305676D01*
X154642622Y-105307765D01*
X154643875Y-105310122D01*
X154673551Y-105346508D01*
X154702809Y-105383158D01*
X154706472Y-105386873D01*
X154706537Y-105386953D01*
X154706611Y-105387014D01*
X154707789Y-105388209D01*
X155088790Y-105769210D01*
X155125028Y-105798976D01*
X155160997Y-105829158D01*
X155163339Y-105830446D01*
X155165402Y-105832140D01*
X155206731Y-105854300D01*
X155247878Y-105876921D01*
X155250426Y-105877729D01*
X155252779Y-105878991D01*
X155297656Y-105892711D01*
X155342381Y-105906899D01*
X155345034Y-105907197D01*
X155347590Y-105907978D01*
X155363047Y-105909548D01*
X155330175Y-105941739D01*
X155203535Y-106126691D01*
X155115232Y-106332719D01*
X155068628Y-106551975D01*
X155065498Y-106776107D01*
X155105962Y-106996578D01*
X155125544Y-107046036D01*
X154580790Y-107590790D01*
X154551024Y-107627028D01*
X154520842Y-107662997D01*
X154519554Y-107665339D01*
X154517860Y-107667402D01*
X154495690Y-107708749D01*
X154473079Y-107749878D01*
X154472272Y-107752423D01*
X154471009Y-107754778D01*
X154457284Y-107799670D01*
X154443101Y-107844381D01*
X154442803Y-107847034D01*
X154442022Y-107849590D01*
X154437276Y-107896313D01*
X154432050Y-107942907D01*
X154432013Y-107948127D01*
X154432003Y-107948227D01*
X154432012Y-107948321D01*
X154432000Y-107950000D01*
X154432000Y-109517578D01*
X154072788Y-109876790D01*
X154043022Y-109913028D01*
X154012840Y-109948997D01*
X154011552Y-109951339D01*
X154009858Y-109953402D01*
X153987688Y-109994749D01*
X153965077Y-110035878D01*
X153964270Y-110038423D01*
X153963007Y-110040778D01*
X153949282Y-110085670D01*
X153935099Y-110130381D01*
X153934801Y-110133034D01*
X153934020Y-110135590D01*
X153929274Y-110182313D01*
X153924048Y-110228907D01*
X153924011Y-110234127D01*
X153924001Y-110234227D01*
X153924010Y-110234321D01*
X153923998Y-110236000D01*
X153923998Y-111803582D01*
X152697580Y-113030000D01*
X151770000Y-113030000D01*
X151723300Y-113034579D01*
X151676552Y-113038669D01*
X151673986Y-113039414D01*
X151671329Y-113039675D01*
X151626411Y-113053237D01*
X151581344Y-113066330D01*
X151578973Y-113067559D01*
X151576416Y-113068331D01*
X151534966Y-113090370D01*
X151493323Y-113111956D01*
X151491237Y-113113621D01*
X151488877Y-113114876D01*
X151452488Y-113144554D01*
X151415840Y-113173810D01*
X151412125Y-113177474D01*
X151412046Y-113177538D01*
X151411986Y-113177611D01*
X151410790Y-113178790D01*
X150730423Y-113859157D01*
X150441000Y-113859157D01*
X150380327Y-113863995D01*
X150277420Y-113895864D01*
X150187465Y-113955140D01*
X150117585Y-114037130D01*
X150073314Y-114135342D01*
X150067479Y-114176400D01*
X150037136Y-114078420D01*
X149977860Y-113988465D01*
X149895870Y-113918585D01*
X149797658Y-113874314D01*
X149691000Y-113859157D01*
X148441000Y-113859157D01*
X148380327Y-113863995D01*
X148277420Y-113895864D01*
X148187465Y-113955140D01*
X148117585Y-114037130D01*
X148073314Y-114135342D01*
X148067479Y-114176400D01*
X148037136Y-114078420D01*
X147977860Y-113988465D01*
X147895870Y-113918585D01*
X147797658Y-113874314D01*
X147691000Y-113859157D01*
X146441000Y-113859157D01*
X146380327Y-113863995D01*
X146277420Y-113895864D01*
X146187465Y-113955140D01*
X146117585Y-114037130D01*
X146108947Y-114056293D01*
X146096165Y-114025435D01*
X146046131Y-113950552D01*
X145982448Y-113886870D01*
X145907566Y-113836835D01*
X145824361Y-113802370D01*
X145736031Y-113784800D01*
X145307300Y-113784800D01*
X145193000Y-113899100D01*
X145193000Y-115115000D01*
X145213000Y-115115000D01*
X145213000Y-115369000D01*
X145193000Y-115369000D01*
X145193000Y-116584900D01*
X145307300Y-116699200D01*
X145736031Y-116699200D01*
X145824361Y-116681630D01*
X145907566Y-116647165D01*
X145982448Y-116597130D01*
X146046131Y-116533448D01*
X146096165Y-116458565D01*
X146109139Y-116427243D01*
X146154140Y-116495535D01*
X146236130Y-116565415D01*
X146334342Y-116609686D01*
X146423732Y-116622389D01*
X146423204Y-116623622D01*
X146395438Y-116754254D01*
X146393573Y-116887792D01*
X146417681Y-117019149D01*
X146417967Y-117019870D01*
X146350565Y-116974835D01*
X146267360Y-116940370D01*
X146179030Y-116922800D01*
X145275300Y-116922800D01*
X145161000Y-117037100D01*
X145161000Y-117753000D01*
X146476900Y-117753000D01*
X146591200Y-117638700D01*
X146591200Y-117334969D01*
X146584804Y-117302815D01*
X146631963Y-117351649D01*
X146741628Y-117427868D01*
X146864009Y-117481335D01*
X146994445Y-117510013D01*
X147127966Y-117512810D01*
X147259488Y-117489619D01*
X147384001Y-117441324D01*
X147496762Y-117369764D01*
X147593476Y-117277664D01*
X147670459Y-117168534D01*
X147724779Y-117046529D01*
X147754367Y-116916297D01*
X147756497Y-116763757D01*
X147730557Y-116632749D01*
X147726143Y-116622041D01*
X147751673Y-116620005D01*
X147854580Y-116588136D01*
X147944535Y-116528860D01*
X148014415Y-116446870D01*
X148058686Y-116348658D01*
X148064521Y-116307600D01*
X148094864Y-116405580D01*
X148154140Y-116495535D01*
X148236130Y-116565415D01*
X148334342Y-116609686D01*
X148441000Y-116624843D01*
X149419621Y-116624843D01*
X149776989Y-116982211D01*
X149813227Y-117011977D01*
X149849196Y-117042159D01*
X149851538Y-117043447D01*
X149853601Y-117045141D01*
X149894948Y-117067311D01*
X149936077Y-117089922D01*
X149938622Y-117090729D01*
X149940977Y-117091992D01*
X149985869Y-117105717D01*
X150030580Y-117119900D01*
X150033233Y-117120198D01*
X150035789Y-117120979D01*
X150082512Y-117125725D01*
X150129106Y-117130951D01*
X150134326Y-117130988D01*
X150134426Y-117130998D01*
X150134520Y-117130989D01*
X150136199Y-117131001D01*
X153995801Y-117131001D01*
X154042505Y-117126422D01*
X154089249Y-117122332D01*
X154091815Y-117121587D01*
X154094472Y-117121326D01*
X154139357Y-117107774D01*
X154184456Y-117094672D01*
X154186830Y-117093441D01*
X154189385Y-117092670D01*
X154230778Y-117070661D01*
X154272478Y-117049046D01*
X154274567Y-117047378D01*
X154276924Y-117046125D01*
X154313310Y-117016449D01*
X154349960Y-116987191D01*
X154353675Y-116983528D01*
X154353755Y-116983463D01*
X154353816Y-116983389D01*
X154355011Y-116982211D01*
X154401115Y-116936107D01*
X155065498Y-116936107D01*
X155105962Y-117156578D01*
X155188479Y-117364991D01*
X155309905Y-117553407D01*
X155465615Y-117714650D01*
X155649679Y-117842577D01*
X155855085Y-117932317D01*
X156074009Y-117980451D01*
X156298114Y-117985145D01*
X156518862Y-117946221D01*
X156727846Y-117865162D01*
X156917106Y-117745054D01*
X157079432Y-117590473D01*
X157208641Y-117407307D01*
X157299813Y-117202532D01*
X157349473Y-116983949D01*
X157353049Y-116727923D01*
X157309510Y-116508038D01*
X157224092Y-116300798D01*
X157100047Y-116114095D01*
X156942101Y-115955042D01*
X156756269Y-115829697D01*
X156549630Y-115742834D01*
X156330054Y-115697762D01*
X156105906Y-115696197D01*
X155885722Y-115738199D01*
X155677891Y-115822169D01*
X155490327Y-115944907D01*
X155330175Y-116101739D01*
X155203535Y-116286691D01*
X155115232Y-116492719D01*
X155068628Y-116711975D01*
X155065498Y-116936107D01*
X154401115Y-116936107D01*
X154537210Y-116800012D01*
X154566976Y-116763774D01*
X154597158Y-116727805D01*
X154598446Y-116725463D01*
X154600140Y-116723400D01*
X154622291Y-116682088D01*
X154644921Y-116640924D01*
X154645730Y-116638374D01*
X154646990Y-116636024D01*
X154660701Y-116591178D01*
X154674899Y-116546421D01*
X154675197Y-116543768D01*
X154675978Y-116541212D01*
X154680724Y-116494484D01*
X154685950Y-116447895D01*
X154685987Y-116442677D01*
X154685997Y-116442576D01*
X154685988Y-116442482D01*
X154686000Y-116440802D01*
X154686000Y-114510420D01*
X155080554Y-114115866D01*
X155068628Y-114171975D01*
X155065498Y-114396107D01*
X155105962Y-114616578D01*
X155188479Y-114824991D01*
X155309905Y-115013407D01*
X155465615Y-115174650D01*
X155649679Y-115302577D01*
X155855085Y-115392317D01*
X156074009Y-115440451D01*
X156298114Y-115445145D01*
X156518862Y-115406221D01*
X156727846Y-115325162D01*
X156917106Y-115205054D01*
X157079432Y-115050473D01*
X157208641Y-114867307D01*
X157299813Y-114662532D01*
X157349473Y-114443949D01*
X157353049Y-114187923D01*
X157309510Y-113968038D01*
X157224092Y-113760798D01*
X157100047Y-113574095D01*
X156942101Y-113415042D01*
X156927214Y-113405001D01*
X156952977Y-113391302D01*
X156994677Y-113369687D01*
X156996766Y-113368019D01*
X156999123Y-113366766D01*
X157035509Y-113337090D01*
X157072159Y-113307832D01*
X157075874Y-113304169D01*
X157075954Y-113304104D01*
X157076015Y-113304030D01*
X157077210Y-113302852D01*
X158220224Y-112159838D01*
X158249990Y-112123600D01*
X158280172Y-112087631D01*
X158281460Y-112085289D01*
X158283154Y-112083226D01*
X158294000Y-112062998D01*
X158294000Y-121402119D01*
X158277547Y-121569918D01*
X158231684Y-121721826D01*
X158157192Y-121861923D01*
X158056902Y-121984890D01*
X157934641Y-122086033D01*
X157795064Y-122161503D01*
X157643483Y-122208425D01*
X157476272Y-122226000D01*
X143510000Y-122226000D01*
X143509965Y-122226003D01*
X143509288Y-122226001D01*
X143502195Y-122226026D01*
X143493415Y-122226918D01*
X143484598Y-122226857D01*
X143481792Y-122227132D01*
X143284590Y-122247859D01*
X143266661Y-122251539D01*
X143248673Y-122254971D01*
X143245973Y-122255785D01*
X143056552Y-122314421D01*
X143039687Y-122321510D01*
X143022697Y-122328375D01*
X143020207Y-122329698D01*
X142845784Y-122424009D01*
X142830588Y-122434258D01*
X142815286Y-122444272D01*
X142813106Y-122446050D01*
X142813100Y-122446054D01*
X142813095Y-122446059D01*
X142660316Y-122572448D01*
X142647392Y-122585463D01*
X142634335Y-122598249D01*
X142632537Y-122600422D01*
X142507213Y-122754084D01*
X142497073Y-122769346D01*
X142486738Y-122784440D01*
X142485400Y-122786916D01*
X142485397Y-122786920D01*
X142485397Y-122786921D01*
X142392306Y-122961998D01*
X142385347Y-122978881D01*
X142378116Y-122995754D01*
X142377282Y-122998448D01*
X142319971Y-123188274D01*
X142316414Y-123206237D01*
X142312609Y-123224142D01*
X142312314Y-123226946D01*
X142292964Y-123424288D01*
X142292964Y-123432763D01*
X142292020Y-123441180D01*
X142292000Y-123444000D01*
X142292000Y-127498119D01*
X142275547Y-127665918D01*
X142229684Y-127817826D01*
X142155192Y-127957923D01*
X142054902Y-128080890D01*
X141932641Y-128182033D01*
X141793064Y-128257503D01*
X141641483Y-128304425D01*
X141474272Y-128322000D01*
X139709881Y-128322000D01*
X139542082Y-128305547D01*
X139390174Y-128259684D01*
X139250077Y-128185192D01*
X139127110Y-128084902D01*
X139025967Y-127962641D01*
X138975933Y-127870106D01*
X140279500Y-127870106D01*
X140356530Y-128060435D01*
X140575199Y-128159741D01*
X140809039Y-128214478D01*
X141049064Y-128222544D01*
X141286052Y-128183628D01*
X141510894Y-128099226D01*
X141583470Y-128060435D01*
X141660500Y-127870106D01*
X140970000Y-127179605D01*
X140279500Y-127870106D01*
X138975933Y-127870106D01*
X138950497Y-127823064D01*
X138903575Y-127671483D01*
X138886000Y-127504272D01*
X138886000Y-127079064D01*
X139747456Y-127079064D01*
X139786372Y-127316052D01*
X139870774Y-127540894D01*
X139909565Y-127613470D01*
X140099894Y-127690500D01*
X140790395Y-127000000D01*
X141149605Y-127000000D01*
X141840106Y-127690500D01*
X142030435Y-127613470D01*
X142129741Y-127394801D01*
X142184478Y-127160961D01*
X142192544Y-126920936D01*
X142153628Y-126683948D01*
X142069226Y-126459106D01*
X142030435Y-126386530D01*
X141840106Y-126309500D01*
X141149605Y-127000000D01*
X140790395Y-127000000D01*
X140099894Y-126309500D01*
X139909565Y-126386530D01*
X139810259Y-126605199D01*
X139755522Y-126839039D01*
X139747456Y-127079064D01*
X138886000Y-127079064D01*
X138886000Y-126129894D01*
X140279500Y-126129894D01*
X140970000Y-126820395D01*
X141660500Y-126129894D01*
X141583470Y-125939565D01*
X141364801Y-125840259D01*
X141130961Y-125785522D01*
X140890936Y-125777456D01*
X140653948Y-125816372D01*
X140429106Y-125900774D01*
X140356530Y-125939565D01*
X140279500Y-126129894D01*
X138886000Y-126129894D01*
X138886000Y-124556107D01*
X139825498Y-124556107D01*
X139865962Y-124776578D01*
X139948479Y-124984991D01*
X140069905Y-125173407D01*
X140225615Y-125334650D01*
X140409679Y-125462577D01*
X140615085Y-125552317D01*
X140834009Y-125600451D01*
X141058114Y-125605145D01*
X141278862Y-125566221D01*
X141487846Y-125485162D01*
X141677106Y-125365054D01*
X141839432Y-125210473D01*
X141968641Y-125027307D01*
X142059813Y-124822532D01*
X142109473Y-124603949D01*
X142113049Y-124347923D01*
X142069510Y-124128038D01*
X141984092Y-123920798D01*
X141860047Y-123734095D01*
X141702101Y-123575042D01*
X141516269Y-123449697D01*
X141309630Y-123362834D01*
X141090054Y-123317762D01*
X140865906Y-123316197D01*
X140645722Y-123358199D01*
X140437891Y-123442169D01*
X140250327Y-123564907D01*
X140090175Y-123721739D01*
X139963535Y-123906691D01*
X139875232Y-124112719D01*
X139828628Y-124331975D01*
X139825498Y-124556107D01*
X138886000Y-124556107D01*
X138886000Y-122016107D01*
X139825498Y-122016107D01*
X139865962Y-122236578D01*
X139948479Y-122444991D01*
X140069905Y-122633407D01*
X140225615Y-122794650D01*
X140409679Y-122922577D01*
X140615085Y-123012317D01*
X140834009Y-123060451D01*
X141058114Y-123065145D01*
X141278862Y-123026221D01*
X141487846Y-122945162D01*
X141677106Y-122825054D01*
X141839432Y-122670473D01*
X141968641Y-122487307D01*
X142059813Y-122282532D01*
X142109473Y-122063949D01*
X142113049Y-121807923D01*
X142069510Y-121588038D01*
X141984092Y-121380798D01*
X141860047Y-121194095D01*
X141787759Y-121121300D01*
X143476800Y-121121300D01*
X143476800Y-121425031D01*
X143494370Y-121513361D01*
X143528835Y-121596566D01*
X143578870Y-121671448D01*
X143642552Y-121735131D01*
X143717435Y-121785165D01*
X143800640Y-121819630D01*
X143888970Y-121837200D01*
X144792700Y-121837200D01*
X144907000Y-121722900D01*
X144907000Y-121007000D01*
X145161000Y-121007000D01*
X145161000Y-121722900D01*
X145275300Y-121837200D01*
X146179030Y-121837200D01*
X146267360Y-121819630D01*
X146350565Y-121785165D01*
X146425448Y-121735131D01*
X146489130Y-121671448D01*
X146539165Y-121596566D01*
X146573630Y-121513361D01*
X146591200Y-121425031D01*
X146591200Y-121121300D01*
X146476900Y-121007000D01*
X145161000Y-121007000D01*
X144907000Y-121007000D01*
X143591100Y-121007000D01*
X143476800Y-121121300D01*
X141787759Y-121121300D01*
X141702101Y-121035042D01*
X141516269Y-120909697D01*
X141309630Y-120822834D01*
X141090054Y-120777762D01*
X140865906Y-120776197D01*
X140645722Y-120818199D01*
X140437891Y-120902169D01*
X140250327Y-121024907D01*
X140090175Y-121181739D01*
X139963535Y-121366691D01*
X139875232Y-121572719D01*
X139828628Y-121791975D01*
X139825498Y-122016107D01*
X138886000Y-122016107D01*
X138886000Y-119476107D01*
X139825498Y-119476107D01*
X139865962Y-119696578D01*
X139948479Y-119904991D01*
X140069905Y-120093407D01*
X140225615Y-120254650D01*
X140409679Y-120382577D01*
X140615085Y-120472317D01*
X140834009Y-120520451D01*
X141058114Y-120525145D01*
X141278862Y-120486221D01*
X141487846Y-120405162D01*
X141677106Y-120285054D01*
X141839432Y-120130473D01*
X141968641Y-119947307D01*
X142059813Y-119742532D01*
X142109473Y-119523949D01*
X142111286Y-119394127D01*
X142461963Y-119744804D01*
X142523203Y-119899479D01*
X142643354Y-120085917D01*
X142797430Y-120245467D01*
X142979561Y-120372051D01*
X143182811Y-120460849D01*
X143399437Y-120508477D01*
X143476800Y-120510098D01*
X143476800Y-120638700D01*
X143591100Y-120753000D01*
X144907000Y-120753000D01*
X144907000Y-120037100D01*
X145161000Y-120037100D01*
X145161000Y-120753000D01*
X146476900Y-120753000D01*
X146591200Y-120638700D01*
X146591200Y-120334969D01*
X146573630Y-120246639D01*
X146539165Y-120163434D01*
X146489130Y-120088552D01*
X146425448Y-120024869D01*
X146350565Y-119974835D01*
X146267360Y-119940370D01*
X146179030Y-119922800D01*
X145275300Y-119922800D01*
X145161000Y-120037100D01*
X144907000Y-120037100D01*
X144792700Y-119922800D01*
X144530416Y-119922800D01*
X144612371Y-119738726D01*
X144661511Y-119522438D01*
X144662157Y-119476107D01*
X155065498Y-119476107D01*
X155105962Y-119696578D01*
X155188479Y-119904991D01*
X155309905Y-120093407D01*
X155465615Y-120254650D01*
X155649679Y-120382577D01*
X155855085Y-120472317D01*
X156074009Y-120520451D01*
X156298114Y-120525145D01*
X156518862Y-120486221D01*
X156727846Y-120405162D01*
X156917106Y-120285054D01*
X157079432Y-120130473D01*
X157208641Y-119947307D01*
X157299813Y-119742532D01*
X157349473Y-119523949D01*
X157353049Y-119267923D01*
X157309510Y-119048038D01*
X157224092Y-118840798D01*
X157100047Y-118654095D01*
X156942101Y-118495042D01*
X156756269Y-118369697D01*
X156549630Y-118282834D01*
X156330054Y-118237762D01*
X156105906Y-118236197D01*
X155885722Y-118278199D01*
X155677891Y-118362169D01*
X155490327Y-118484907D01*
X155330175Y-118641739D01*
X155203535Y-118826691D01*
X155115232Y-119032719D01*
X155068628Y-119251975D01*
X155065498Y-119476107D01*
X144662157Y-119476107D01*
X144665048Y-119269100D01*
X144621967Y-119051523D01*
X144537445Y-118846459D01*
X144531293Y-118837200D01*
X144792700Y-118837200D01*
X144907000Y-118722900D01*
X144907000Y-118007000D01*
X145161000Y-118007000D01*
X145161000Y-118722900D01*
X145275300Y-118837200D01*
X146179030Y-118837200D01*
X146267360Y-118819630D01*
X146350565Y-118785165D01*
X146425448Y-118735131D01*
X146489130Y-118671448D01*
X146539165Y-118596566D01*
X146573630Y-118513361D01*
X146591200Y-118425031D01*
X146591200Y-118121300D01*
X146476900Y-118007000D01*
X145161000Y-118007000D01*
X144907000Y-118007000D01*
X143597841Y-118007000D01*
X143097029Y-117506189D01*
X143157487Y-117519481D01*
X143291008Y-117522278D01*
X143422530Y-117499087D01*
X143476800Y-117478037D01*
X143476800Y-117638700D01*
X143591100Y-117753000D01*
X144907000Y-117753000D01*
X144907000Y-117037100D01*
X144792700Y-116922800D01*
X143917450Y-116922800D01*
X143919539Y-116773225D01*
X143893599Y-116642217D01*
X143867736Y-116579467D01*
X143944535Y-116528860D01*
X144014415Y-116446870D01*
X144023053Y-116427707D01*
X144035835Y-116458565D01*
X144085869Y-116533448D01*
X144149552Y-116597130D01*
X144224434Y-116647165D01*
X144307639Y-116681630D01*
X144395969Y-116699200D01*
X144824700Y-116699200D01*
X144939000Y-116584900D01*
X144939000Y-115369000D01*
X144919000Y-115369000D01*
X144919000Y-115115000D01*
X144939000Y-115115000D01*
X144939000Y-113899100D01*
X144824700Y-113784800D01*
X144395969Y-113784800D01*
X144307639Y-113802370D01*
X144224434Y-113836835D01*
X144149552Y-113886870D01*
X144085869Y-113950552D01*
X144035835Y-114025435D01*
X144022861Y-114056757D01*
X143977860Y-113988465D01*
X143895870Y-113918585D01*
X143797658Y-113874314D01*
X143691000Y-113859157D01*
X142441000Y-113859157D01*
X142380327Y-113863995D01*
X142277420Y-113895864D01*
X142187465Y-113955140D01*
X142117585Y-114037130D01*
X142073314Y-114135342D01*
X142067479Y-114176400D01*
X142037136Y-114078420D01*
X141977860Y-113988465D01*
X141895870Y-113918585D01*
X141797658Y-113874314D01*
X141691000Y-113859157D01*
X141559161Y-113859157D01*
X141459716Y-113805387D01*
X141270295Y-113746752D01*
X141073093Y-113726025D01*
X140875621Y-113743996D01*
X140685400Y-113799981D01*
X140572206Y-113859157D01*
X140441000Y-113859157D01*
X140380327Y-113863995D01*
X140277420Y-113895864D01*
X140187465Y-113955140D01*
X140117585Y-114037130D01*
X140073314Y-114135342D01*
X140058157Y-114242000D01*
X140058157Y-114655976D01*
X140050099Y-114727814D01*
X140050000Y-114742000D01*
X140050000Y-116912000D01*
X140059159Y-117005407D01*
X140067338Y-117098895D01*
X140068829Y-117104026D01*
X140069350Y-117109342D01*
X140096469Y-117199166D01*
X140122658Y-117289310D01*
X140125117Y-117294054D01*
X140126661Y-117299168D01*
X140170732Y-117382053D01*
X140213911Y-117465353D01*
X140217242Y-117469526D01*
X140219752Y-117474246D01*
X140279074Y-117546982D01*
X140337618Y-117620319D01*
X140344949Y-117627752D01*
X140345076Y-117627908D01*
X140345220Y-117628027D01*
X140347580Y-117630420D01*
X140953972Y-118236812D01*
X140865906Y-118236197D01*
X140645722Y-118278199D01*
X140437891Y-118362169D01*
X140250327Y-118484907D01*
X140090175Y-118641739D01*
X139963535Y-118826691D01*
X139875232Y-119032719D01*
X139828628Y-119251975D01*
X139825498Y-119476107D01*
X138886000Y-119476107D01*
X138886000Y-99883300D01*
X139983800Y-99883300D01*
X139983800Y-100687030D01*
X140001370Y-100775360D01*
X140035835Y-100858565D01*
X140085869Y-100933448D01*
X140149552Y-100997130D01*
X140224434Y-101047165D01*
X140307639Y-101081630D01*
X140395969Y-101099200D01*
X140824700Y-101099200D01*
X140939000Y-100984900D01*
X140939000Y-99769000D01*
X140098100Y-99769000D01*
X139983800Y-99883300D01*
X138886000Y-99883300D01*
X138886000Y-98596970D01*
X139983800Y-98596970D01*
X139983800Y-99400700D01*
X140098100Y-99515000D01*
X140939000Y-99515000D01*
X140939000Y-98299100D01*
X140824700Y-98184800D01*
X140395969Y-98184800D01*
X140307639Y-98202370D01*
X140224434Y-98236835D01*
X140149552Y-98286870D01*
X140085869Y-98350552D01*
X140035835Y-98425435D01*
X140001370Y-98508640D01*
X139983800Y-98596970D01*
X138886000Y-98596970D01*
X138886000Y-95132270D01*
X138892944Y-95145666D01*
X138894612Y-95147755D01*
X138895865Y-95150112D01*
X138925541Y-95186498D01*
X138954799Y-95223148D01*
X138958462Y-95226863D01*
X138958527Y-95226943D01*
X138958601Y-95227004D01*
X138959779Y-95228199D01*
X139883952Y-96152372D01*
X139875232Y-96172719D01*
X139828628Y-96391975D01*
X139825498Y-96616107D01*
X139865962Y-96836578D01*
X139948479Y-97044991D01*
X140069905Y-97233407D01*
X140225615Y-97394650D01*
X140409679Y-97522577D01*
X140615085Y-97612317D01*
X140834009Y-97660451D01*
X141058114Y-97665145D01*
X141278862Y-97626221D01*
X141487846Y-97545162D01*
X141677106Y-97425054D01*
X141839432Y-97270473D01*
X141968641Y-97087307D01*
X142059813Y-96882532D01*
X142109473Y-96663949D01*
X142113049Y-96407923D01*
X142069510Y-96188038D01*
X141984092Y-95980798D01*
X141860047Y-95794095D01*
X141702101Y-95635042D01*
X141516269Y-95509697D01*
X141309630Y-95422834D01*
X141090054Y-95377762D01*
X140865906Y-95376197D01*
X140645722Y-95418199D01*
X140603627Y-95435207D01*
X139826989Y-94658569D01*
X139826989Y-94084231D01*
X139865962Y-94296578D01*
X139948479Y-94504991D01*
X140069905Y-94693407D01*
X140225615Y-94854650D01*
X140409679Y-94982577D01*
X140615085Y-95072317D01*
X140834009Y-95120451D01*
X141058114Y-95125145D01*
X141278862Y-95086221D01*
X141487846Y-95005162D01*
X141677106Y-94885054D01*
X141839432Y-94730473D01*
X141968641Y-94547307D01*
X142059813Y-94342532D01*
X142109473Y-94123949D01*
X142113049Y-93867923D01*
X142069510Y-93648038D01*
X141984092Y-93440798D01*
X141860047Y-93254095D01*
X141702101Y-93095042D01*
X141516269Y-92969697D01*
X141309630Y-92882834D01*
X141090054Y-92837762D01*
X140865906Y-92836197D01*
X140645722Y-92878199D01*
X140603627Y-92895207D01*
X140334999Y-92626579D01*
X140334999Y-92390673D01*
X140409679Y-92442577D01*
X140615085Y-92532317D01*
X140834009Y-92580451D01*
X141058114Y-92585145D01*
X141278862Y-92546221D01*
X141487846Y-92465162D01*
X141677106Y-92345054D01*
X141839432Y-92190473D01*
X141968641Y-92007307D01*
X142059813Y-91802532D01*
X142109473Y-91583949D01*
X142113049Y-91327923D01*
X142069510Y-91108038D01*
X141984092Y-90900798D01*
X141860047Y-90714095D01*
X141702101Y-90555042D01*
X141516269Y-90429697D01*
X141309630Y-90342834D01*
X141090054Y-90297762D01*
X140865906Y-90296197D01*
X140645722Y-90338199D01*
X140437891Y-90422169D01*
X140334999Y-90489499D01*
X140334999Y-89850673D01*
X140409679Y-89902577D01*
X140615085Y-89992317D01*
X140834009Y-90040451D01*
X141058114Y-90045145D01*
X141278862Y-90006221D01*
X141487846Y-89925162D01*
X141677106Y-89805054D01*
X141707300Y-89776300D01*
X149166800Y-89776300D01*
X149166800Y-90080030D01*
X149184370Y-90168360D01*
X149218835Y-90251565D01*
X149268869Y-90326448D01*
X149295704Y-90353282D01*
X149246530Y-90379565D01*
X149169500Y-90569894D01*
X149860000Y-91260395D01*
X150550500Y-90569894D01*
X150519056Y-90492200D01*
X150869031Y-90492200D01*
X150957361Y-90474630D01*
X151040566Y-90440165D01*
X151115448Y-90390130D01*
X151179131Y-90326448D01*
X151229165Y-90251565D01*
X151263630Y-90168360D01*
X151281200Y-90080030D01*
X151281200Y-89776300D01*
X151166900Y-89662000D01*
X150351000Y-89662000D01*
X150351000Y-89682000D01*
X150097000Y-89682000D01*
X150097000Y-89662000D01*
X149281100Y-89662000D01*
X149166800Y-89776300D01*
X141707300Y-89776300D01*
X141839432Y-89650473D01*
X141968641Y-89467307D01*
X142059813Y-89262532D01*
X142109473Y-89043949D01*
X142110226Y-88989970D01*
X149166800Y-88989970D01*
X149166800Y-89293700D01*
X149281100Y-89408000D01*
X150097000Y-89408000D01*
X150097000Y-88692100D01*
X150351000Y-88692100D01*
X150351000Y-89408000D01*
X151166900Y-89408000D01*
X151281200Y-89293700D01*
X151281200Y-88989970D01*
X151263630Y-88901640D01*
X151229165Y-88818435D01*
X151179131Y-88743552D01*
X151115448Y-88679870D01*
X151040566Y-88629835D01*
X150957361Y-88595370D01*
X150869031Y-88577800D01*
X150465300Y-88577800D01*
X150351000Y-88692100D01*
X150097000Y-88692100D01*
X149982700Y-88577800D01*
X149578969Y-88577800D01*
X149490639Y-88595370D01*
X149407434Y-88629835D01*
X149332552Y-88679870D01*
X149268869Y-88743552D01*
X149218835Y-88818435D01*
X149184370Y-88901640D01*
X149166800Y-88989970D01*
X142110226Y-88989970D01*
X142113049Y-88787923D01*
X142069510Y-88568038D01*
X141984092Y-88360798D01*
X141860047Y-88174095D01*
X141709875Y-88022870D01*
X141745801Y-87994190D01*
X141749516Y-87990527D01*
X141749596Y-87990462D01*
X141749657Y-87990388D01*
X141750852Y-87989210D01*
X142599210Y-87140853D01*
X142628997Y-87104590D01*
X142652734Y-87076300D01*
X142752800Y-87076300D01*
X142752800Y-87655030D01*
X142770370Y-87743360D01*
X142804835Y-87826565D01*
X142854869Y-87901448D01*
X142918552Y-87965130D01*
X142993434Y-88015165D01*
X143076639Y-88049630D01*
X143164969Y-88067200D01*
X143268700Y-88067200D01*
X143383000Y-87952900D01*
X143383000Y-86962000D01*
X143637000Y-86962000D01*
X143637000Y-87952900D01*
X143751300Y-88067200D01*
X143855031Y-88067200D01*
X143943361Y-88049630D01*
X144026566Y-88015165D01*
X144101448Y-87965130D01*
X144145000Y-87921579D01*
X144188552Y-87965130D01*
X144263434Y-88015165D01*
X144346639Y-88049630D01*
X144434969Y-88067200D01*
X144538700Y-88067200D01*
X144653000Y-87952900D01*
X144653000Y-86962000D01*
X143637000Y-86962000D01*
X143383000Y-86962000D01*
X142867100Y-86962000D01*
X142752800Y-87076300D01*
X142652734Y-87076300D01*
X142659158Y-87068645D01*
X142660446Y-87066303D01*
X142662140Y-87064240D01*
X142684291Y-87022928D01*
X142706921Y-86981764D01*
X142707730Y-86979214D01*
X142708990Y-86976864D01*
X142722701Y-86932018D01*
X142736899Y-86887261D01*
X142737197Y-86884608D01*
X142737978Y-86882052D01*
X142742724Y-86835324D01*
X142747950Y-86788735D01*
X142747987Y-86783517D01*
X142747997Y-86783416D01*
X142747988Y-86783322D01*
X142748000Y-86781642D01*
X142748000Y-86443431D01*
X142752800Y-86438631D01*
X142752800Y-86593700D01*
X142867100Y-86708000D01*
X143383000Y-86708000D01*
X143383000Y-86688000D01*
X143637000Y-86688000D01*
X143637000Y-86708000D01*
X144653000Y-86708000D01*
X144653000Y-86688000D01*
X144907000Y-86688000D01*
X144907000Y-86708000D01*
X144927000Y-86708000D01*
X144927000Y-86962000D01*
X144907000Y-86962000D01*
X144907000Y-87952900D01*
X145021300Y-88067200D01*
X145125031Y-88067200D01*
X145213361Y-88049630D01*
X145296566Y-88015165D01*
X145371448Y-87965130D01*
X145435131Y-87901448D01*
X145461811Y-87861518D01*
X145463140Y-87863535D01*
X145545130Y-87933415D01*
X145643342Y-87977686D01*
X145750000Y-87992843D01*
X146350000Y-87992843D01*
X146410673Y-87988005D01*
X146513580Y-87956136D01*
X146603535Y-87896860D01*
X146673415Y-87814870D01*
X146684649Y-87789947D01*
X146733140Y-87863535D01*
X146815130Y-87933415D01*
X146913342Y-87977686D01*
X147020000Y-87992843D01*
X147620000Y-87992843D01*
X147680673Y-87988005D01*
X147783580Y-87956136D01*
X147873535Y-87896860D01*
X147943415Y-87814870D01*
X147987686Y-87716658D01*
X148002843Y-87610000D01*
X148002843Y-86060000D01*
X147998005Y-85999327D01*
X147966136Y-85896420D01*
X147906860Y-85806465D01*
X147824870Y-85736585D01*
X147726658Y-85692314D01*
X147620000Y-85677157D01*
X147543501Y-85677157D01*
X148568210Y-84652448D01*
X148597976Y-84616210D01*
X148628158Y-84580241D01*
X148629446Y-84577899D01*
X148631140Y-84575836D01*
X148653310Y-84534489D01*
X148675921Y-84493360D01*
X148676728Y-84490815D01*
X148677991Y-84488460D01*
X148691716Y-84443568D01*
X148705899Y-84398857D01*
X148706197Y-84396204D01*
X148706978Y-84393648D01*
X148711724Y-84346920D01*
X148716950Y-84300331D01*
X148716987Y-84295113D01*
X148716997Y-84295012D01*
X148716988Y-84294918D01*
X148717000Y-84293238D01*
X148717000Y-83776300D01*
X149166800Y-83776300D01*
X149166800Y-84080030D01*
X149184370Y-84168360D01*
X149218835Y-84251565D01*
X149268869Y-84326448D01*
X149332552Y-84390130D01*
X149407434Y-84440165D01*
X149490639Y-84474630D01*
X149578969Y-84492200D01*
X149982700Y-84492200D01*
X150097000Y-84377900D01*
X150097000Y-83662000D01*
X150351000Y-83662000D01*
X150351000Y-84377900D01*
X150465300Y-84492200D01*
X150869031Y-84492200D01*
X150957361Y-84474630D01*
X151040566Y-84440165D01*
X151115448Y-84390130D01*
X151179131Y-84326448D01*
X151229165Y-84251565D01*
X151263630Y-84168360D01*
X151281200Y-84080030D01*
X151281200Y-83776300D01*
X151166900Y-83662000D01*
X150351000Y-83662000D01*
X150097000Y-83662000D01*
X149281100Y-83662000D01*
X149166800Y-83776300D01*
X148717000Y-83776300D01*
X148717000Y-82989970D01*
X149166800Y-82989970D01*
X149166800Y-83293700D01*
X149281100Y-83408000D01*
X150097000Y-83408000D01*
X150097000Y-82692100D01*
X150351000Y-82692100D01*
X150351000Y-83408000D01*
X151166900Y-83408000D01*
X151281200Y-83293700D01*
X151281200Y-82989970D01*
X151263630Y-82901640D01*
X151229165Y-82818435D01*
X151179131Y-82743552D01*
X151115448Y-82679870D01*
X151040566Y-82629835D01*
X150957361Y-82595370D01*
X150869031Y-82577800D01*
X150465300Y-82577800D01*
X150351000Y-82692100D01*
X150097000Y-82692100D01*
X149982700Y-82577800D01*
X149578969Y-82577800D01*
X149490639Y-82595370D01*
X149407434Y-82629835D01*
X149332552Y-82679870D01*
X149268869Y-82743552D01*
X149218835Y-82818435D01*
X149184370Y-82901640D01*
X149166800Y-82989970D01*
X148717000Y-82989970D01*
X148717000Y-82843856D01*
X149010846Y-82550010D01*
X150875990Y-82550010D01*
X150922694Y-82545431D01*
X150969438Y-82541341D01*
X150972004Y-82540596D01*
X150974661Y-82540335D01*
X151019546Y-82526783D01*
X151064645Y-82513681D01*
X151067019Y-82512450D01*
X151069574Y-82511679D01*
X151110967Y-82489670D01*
X151152667Y-82468055D01*
X151154756Y-82466387D01*
X151157113Y-82465134D01*
X151193499Y-82435458D01*
X151230149Y-82406200D01*
X151233864Y-82402537D01*
X151233944Y-82402472D01*
X151234005Y-82402398D01*
X151235200Y-82401220D01*
X151710725Y-81925696D01*
X151898473Y-81983813D01*
X152137406Y-82008926D01*
X152376666Y-81987152D01*
X152607141Y-81919319D01*
X152820050Y-81808013D01*
X153007286Y-81657472D01*
X153161715Y-81473430D01*
X153277456Y-81262898D01*
X153350100Y-81033895D01*
X153376880Y-80795143D01*
X153377000Y-80777956D01*
X153377000Y-80766044D01*
X153353556Y-80526942D01*
X153284116Y-80296946D01*
X153171326Y-80084819D01*
X153142112Y-80048999D01*
X153688385Y-80048999D01*
X153670285Y-80070570D01*
X153670285Y-80070570D01*
G37*
X153670285Y-80070570D02*
X153554544Y-80281102D01*
X153481900Y-80510105D01*
X153455120Y-80748857D01*
X153455000Y-80766044D01*
X153455000Y-80777956D01*
X153478444Y-81017058D01*
X153547884Y-81247054D01*
X153660674Y-81459181D01*
X153812518Y-81645361D01*
X153997634Y-81798501D01*
X154178000Y-81896025D01*
X154178000Y-82562580D01*
X154088423Y-82652157D01*
X153324000Y-82652157D01*
X153263327Y-82656995D01*
X153160420Y-82688864D01*
X153070465Y-82748140D01*
X153000585Y-82830130D01*
X152956314Y-82928342D01*
X152941157Y-83035000D01*
X152941157Y-84035000D01*
X152945995Y-84095673D01*
X152977864Y-84198580D01*
X153037140Y-84288535D01*
X153119130Y-84358415D01*
X153217342Y-84402686D01*
X153324000Y-84417843D01*
X154524000Y-84417843D01*
X154584673Y-84413005D01*
X154687580Y-84381136D01*
X154777535Y-84321860D01*
X154847415Y-84239870D01*
X154891686Y-84141658D01*
X154906843Y-84035000D01*
X154906843Y-83899064D01*
X154987456Y-83899064D01*
X155026372Y-84136052D01*
X155110774Y-84360894D01*
X155149565Y-84433470D01*
X155339894Y-84510500D01*
X156030395Y-83820000D01*
X155339894Y-83129500D01*
X155149565Y-83206530D01*
X155050259Y-83425199D01*
X154995522Y-83659039D01*
X154987456Y-83899064D01*
X154906843Y-83899064D01*
X154906843Y-83270577D01*
X155045210Y-83132210D01*
X155074976Y-83095972D01*
X155105158Y-83060003D01*
X155106446Y-83057661D01*
X155108140Y-83055598D01*
X155130300Y-83014269D01*
X155152921Y-82973122D01*
X155153729Y-82970574D01*
X155154991Y-82968221D01*
X155168711Y-82923344D01*
X155182899Y-82878619D01*
X155183197Y-82875966D01*
X155183978Y-82873410D01*
X155188724Y-82826687D01*
X155193950Y-82780093D01*
X155193987Y-82774873D01*
X155193997Y-82774773D01*
X155193988Y-82774679D01*
X155194000Y-82773000D01*
X155194000Y-81894822D01*
X155360050Y-81808013D01*
X155547286Y-81657472D01*
X155701715Y-81473430D01*
X155808054Y-81280000D01*
X156634581Y-81280000D01*
X156845001Y-81490421D01*
X156845001Y-82812765D01*
X156823470Y-82759565D01*
X156604801Y-82660259D01*
X156370961Y-82605522D01*
X156130936Y-82597456D01*
X155893948Y-82636372D01*
X155669106Y-82720774D01*
X155596530Y-82759565D01*
X155519500Y-82949894D01*
X156210000Y-83640395D01*
X156224142Y-83626252D01*
X156403748Y-83805858D01*
X156389605Y-83820000D01*
X156403748Y-83834142D01*
X156224142Y-84013748D01*
X156210000Y-83999605D01*
X155519500Y-84690106D01*
X155596530Y-84880435D01*
X155815199Y-84979741D01*
X156049039Y-85034478D01*
X156289064Y-85042544D01*
X156526052Y-85003628D01*
X156750894Y-84919226D01*
X156823470Y-84880435D01*
X156845001Y-84827235D01*
X156845001Y-85409547D01*
X156756269Y-85349697D01*
X156549630Y-85262834D01*
X156330054Y-85217762D01*
X156105906Y-85216197D01*
X155885722Y-85258199D01*
X155677891Y-85342169D01*
X155490327Y-85464907D01*
X155330175Y-85621739D01*
X155203535Y-85806691D01*
X155115232Y-86012719D01*
X155068628Y-86231975D01*
X155065498Y-86456107D01*
X155105962Y-86676578D01*
X155188479Y-86884991D01*
X155309905Y-87073407D01*
X155465615Y-87234650D01*
X155649679Y-87362577D01*
X155855085Y-87452317D01*
X156074009Y-87500451D01*
X156298114Y-87505145D01*
X156518862Y-87466221D01*
X156727846Y-87385162D01*
X156845001Y-87310813D01*
X156845001Y-87546578D01*
X156577169Y-87814410D01*
X156549630Y-87802834D01*
X156330054Y-87757762D01*
X156105906Y-87756197D01*
X155885722Y-87798199D01*
X155677891Y-87882169D01*
X155490327Y-88004907D01*
X155330175Y-88161739D01*
X155203535Y-88346691D01*
X155115232Y-88552719D01*
X155068628Y-88771975D01*
X155065498Y-88996107D01*
X155071168Y-89027000D01*
X154906205Y-89027000D01*
X154902005Y-88974327D01*
X154870136Y-88871420D01*
X154810860Y-88781465D01*
X154728870Y-88711585D01*
X154630658Y-88667314D01*
X154524000Y-88652157D01*
X153324000Y-88652157D01*
X153263327Y-88656995D01*
X153160420Y-88688864D01*
X153070465Y-88748140D01*
X153000585Y-88830130D01*
X152956314Y-88928342D01*
X152941157Y-89035000D01*
X152941157Y-90035000D01*
X152945995Y-90095673D01*
X152977864Y-90198580D01*
X153037140Y-90288535D01*
X153119130Y-90358415D01*
X153217342Y-90402686D01*
X153324000Y-90417843D01*
X153325854Y-90417843D01*
X153287314Y-90503342D01*
X153272157Y-90610000D01*
X153272157Y-90696080D01*
X153132101Y-90555042D01*
X152946269Y-90429697D01*
X152739630Y-90342834D01*
X152520054Y-90297762D01*
X152295906Y-90296197D01*
X152075722Y-90338199D01*
X151867891Y-90422169D01*
X151680327Y-90544907D01*
X151520175Y-90701739D01*
X151393535Y-90886691D01*
X151305232Y-91092719D01*
X151258628Y-91311975D01*
X151255498Y-91536107D01*
X151295962Y-91756578D01*
X151378479Y-91964991D01*
X151482381Y-92126214D01*
X151455467Y-92108061D01*
X151332352Y-92056308D01*
X151201528Y-92029454D01*
X151067981Y-92028521D01*
X150936795Y-92053546D01*
X150812969Y-92103575D01*
X150746608Y-92147000D01*
X150730107Y-92130499D01*
X150920435Y-92053470D01*
X151019741Y-91834801D01*
X151074478Y-91600961D01*
X151082544Y-91360936D01*
X151043628Y-91123948D01*
X150959226Y-90899106D01*
X150920435Y-90826530D01*
X150730106Y-90749500D01*
X150039605Y-91440000D01*
X150053748Y-91454142D01*
X149874142Y-91633748D01*
X149860000Y-91619605D01*
X149845858Y-91633748D01*
X149666252Y-91454142D01*
X149680395Y-91440000D01*
X148989894Y-90749500D01*
X148799565Y-90826530D01*
X148700259Y-91045199D01*
X148645522Y-91279039D01*
X148637456Y-91519064D01*
X148676372Y-91756052D01*
X148760774Y-91980894D01*
X148799565Y-92053470D01*
X148989893Y-92130499D01*
X148969192Y-92151200D01*
X148682063Y-92151200D01*
X148370731Y-91839869D01*
X148330857Y-91807116D01*
X148291304Y-91773927D01*
X148288729Y-91772511D01*
X148286458Y-91770646D01*
X148240978Y-91746260D01*
X148195735Y-91721387D01*
X148192933Y-91720498D01*
X148190344Y-91719110D01*
X148141016Y-91704029D01*
X148091781Y-91688411D01*
X148088858Y-91688083D01*
X148086051Y-91687225D01*
X148034737Y-91682012D01*
X148002843Y-91678435D01*
X148002843Y-91460000D01*
X147998005Y-91399327D01*
X147966136Y-91296420D01*
X147906860Y-91206465D01*
X147824870Y-91136585D01*
X147726658Y-91092314D01*
X147620000Y-91077157D01*
X147020000Y-91077157D01*
X146959327Y-91081995D01*
X146856420Y-91113864D01*
X146766465Y-91173140D01*
X146733802Y-91211463D01*
X146705131Y-91168552D01*
X146641448Y-91104870D01*
X146566566Y-91054835D01*
X146483361Y-91020370D01*
X146395031Y-91002800D01*
X146291300Y-91002800D01*
X146177000Y-91117100D01*
X146177000Y-92108000D01*
X146197000Y-92108000D01*
X146197000Y-92362000D01*
X146177000Y-92362000D01*
X146177000Y-92382000D01*
X145923000Y-92382000D01*
X145923000Y-92362000D01*
X145903000Y-92362000D01*
X145903000Y-92108000D01*
X145923000Y-92108000D01*
X145923000Y-91117100D01*
X145808700Y-91002800D01*
X145704969Y-91002800D01*
X145616639Y-91020370D01*
X145533434Y-91054835D01*
X145458552Y-91104870D01*
X145394869Y-91168552D01*
X145368189Y-91208482D01*
X145366860Y-91206465D01*
X145284870Y-91136585D01*
X145186658Y-91092314D01*
X145080000Y-91077157D01*
X144480000Y-91077157D01*
X144419327Y-91081995D01*
X144316420Y-91113864D01*
X144226465Y-91173140D01*
X144156585Y-91255130D01*
X144145351Y-91280053D01*
X144096860Y-91206465D01*
X144014870Y-91136585D01*
X143916658Y-91092314D01*
X143810000Y-91077157D01*
X143210000Y-91077157D01*
X143149327Y-91081995D01*
X143046420Y-91113864D01*
X142956465Y-91173140D01*
X142886585Y-91255130D01*
X142842314Y-91353342D01*
X142827157Y-91460000D01*
X142827157Y-93010000D01*
X142831995Y-93070673D01*
X142863864Y-93173580D01*
X142923140Y-93263535D01*
X143002000Y-93330747D01*
X143002000Y-93769579D01*
X142837885Y-93933695D01*
X142812981Y-93933521D01*
X142681795Y-93958546D01*
X142557969Y-94008575D01*
X142446218Y-94081703D01*
X142350800Y-94175144D01*
X142275348Y-94285338D01*
X142222736Y-94408090D01*
X142194970Y-94538722D01*
X142193105Y-94672260D01*
X142217213Y-94803617D01*
X142266377Y-94927790D01*
X142338722Y-95040048D01*
X142431495Y-95136117D01*
X142541160Y-95212336D01*
X142663541Y-95265803D01*
X142793977Y-95294481D01*
X142927498Y-95297278D01*
X143059020Y-95274087D01*
X143183533Y-95225792D01*
X143296294Y-95154232D01*
X143329091Y-95123000D01*
X143567157Y-95123000D01*
X143567157Y-95265000D01*
X143571995Y-95325673D01*
X143603864Y-95428580D01*
X143663140Y-95518535D01*
X143720420Y-95567355D01*
X143696465Y-95583140D01*
X143626585Y-95665130D01*
X143582314Y-95763342D01*
X143567157Y-95870000D01*
X143567157Y-96012000D01*
X143330310Y-96012000D01*
X143311186Y-95992742D01*
X143200467Y-95918061D01*
X143077352Y-95866308D01*
X142946528Y-95839454D01*
X142812981Y-95838521D01*
X142681795Y-95863546D01*
X142557969Y-95913575D01*
X142446218Y-95986703D01*
X142350800Y-96080144D01*
X142275348Y-96190338D01*
X142222736Y-96313090D01*
X142194970Y-96443722D01*
X142193105Y-96577260D01*
X142217213Y-96708617D01*
X142266377Y-96832790D01*
X142338722Y-96945048D01*
X142431495Y-97041117D01*
X142541160Y-97117336D01*
X142663541Y-97170803D01*
X142793977Y-97199481D01*
X142927498Y-97202278D01*
X143059020Y-97179087D01*
X143183533Y-97130792D01*
X143296294Y-97059232D01*
X143329091Y-97028000D01*
X143567157Y-97028000D01*
X143567157Y-97170000D01*
X143571995Y-97230673D01*
X143603864Y-97333580D01*
X143663140Y-97423535D01*
X143745130Y-97493415D01*
X143843342Y-97537686D01*
X143950000Y-97552843D01*
X145450000Y-97552843D01*
X145510673Y-97548005D01*
X145613580Y-97516136D01*
X145703535Y-97456860D01*
X145773415Y-97374870D01*
X145817686Y-97276658D01*
X145832843Y-97170000D01*
X145832843Y-96205578D01*
X146190212Y-95848209D01*
X146220002Y-95811941D01*
X146250159Y-95776002D01*
X146251447Y-95773660D01*
X146253141Y-95771597D01*
X146275301Y-95730268D01*
X146297922Y-95689121D01*
X146298730Y-95686573D01*
X146299992Y-95684220D01*
X146313712Y-95639343D01*
X146327900Y-95594618D01*
X146328198Y-95591965D01*
X146328979Y-95589409D01*
X146333725Y-95542686D01*
X146338951Y-95496092D01*
X146338988Y-95490872D01*
X146338998Y-95490772D01*
X146338989Y-95490678D01*
X146339001Y-95488999D01*
X146339001Y-95481903D01*
X146363140Y-95518535D01*
X146420420Y-95567355D01*
X146396465Y-95583140D01*
X146326585Y-95665130D01*
X146282314Y-95763342D01*
X146267157Y-95870000D01*
X146267157Y-97170000D01*
X146271995Y-97230673D01*
X146303864Y-97333580D01*
X146363140Y-97423535D01*
X146445130Y-97493415D01*
X146543342Y-97537686D01*
X146650000Y-97552843D01*
X148150000Y-97552843D01*
X148210673Y-97548005D01*
X148313580Y-97516136D01*
X148403535Y-97456860D01*
X148473415Y-97374870D01*
X148517686Y-97276658D01*
X148532843Y-97170000D01*
X148532843Y-95870000D01*
X148528005Y-95809327D01*
X148496136Y-95706420D01*
X148436860Y-95616465D01*
X148379580Y-95567645D01*
X148403535Y-95551860D01*
X148473415Y-95469870D01*
X148517686Y-95371658D01*
X148532843Y-95265000D01*
X148532843Y-94850106D01*
X149169500Y-94850106D01*
X149246530Y-95040435D01*
X149465199Y-95139741D01*
X149699039Y-95194478D01*
X149939064Y-95202544D01*
X150176052Y-95163628D01*
X150400894Y-95079226D01*
X150473470Y-95040435D01*
X150550500Y-94850106D01*
X149860000Y-94159605D01*
X149169500Y-94850106D01*
X148532843Y-94850106D01*
X148532843Y-93965000D01*
X148528005Y-93904327D01*
X148496136Y-93801420D01*
X148436860Y-93711465D01*
X148354870Y-93641585D01*
X148256658Y-93597314D01*
X148150000Y-93582157D01*
X147828000Y-93582157D01*
X147828000Y-93326865D01*
X147873535Y-93296860D01*
X147943415Y-93214870D01*
X147987686Y-93116658D01*
X147997554Y-93047217D01*
X148055468Y-93105131D01*
X148095390Y-93137923D01*
X148134896Y-93171073D01*
X148137468Y-93172487D01*
X148139741Y-93174354D01*
X148185208Y-93198733D01*
X148230465Y-93223613D01*
X148233272Y-93224503D01*
X148235856Y-93225889D01*
X148285138Y-93240956D01*
X148334419Y-93256589D01*
X148337342Y-93256917D01*
X148340149Y-93257775D01*
X148391423Y-93262983D01*
X148442798Y-93268746D01*
X148448549Y-93268786D01*
X148448649Y-93268796D01*
X148448743Y-93268787D01*
X148450600Y-93268800D01*
X148969192Y-93268800D01*
X148989893Y-93289501D01*
X148799565Y-93366530D01*
X148700259Y-93585199D01*
X148645522Y-93819039D01*
X148637456Y-94059064D01*
X148676372Y-94296052D01*
X148760774Y-94520894D01*
X148799565Y-94593470D01*
X148989894Y-94670500D01*
X149680395Y-93980000D01*
X149666252Y-93965858D01*
X149845858Y-93786252D01*
X149860000Y-93800395D01*
X149874142Y-93786252D01*
X150053748Y-93965858D01*
X150039605Y-93980000D01*
X150730106Y-94670500D01*
X150920435Y-94593470D01*
X151019741Y-94374801D01*
X151074478Y-94140961D01*
X151082544Y-93900936D01*
X151043628Y-93663948D01*
X150959226Y-93439106D01*
X150920435Y-93366530D01*
X150730107Y-93289501D01*
X150746669Y-93272939D01*
X150796160Y-93307336D01*
X150918541Y-93360803D01*
X151048977Y-93389481D01*
X151182498Y-93392278D01*
X151314020Y-93369087D01*
X151438533Y-93320792D01*
X151487188Y-93289915D01*
X151393535Y-93426691D01*
X151305232Y-93632719D01*
X151258628Y-93851975D01*
X151255498Y-94076107D01*
X151295962Y-94296578D01*
X151378479Y-94504991D01*
X151499905Y-94693407D01*
X151655615Y-94854650D01*
X151839679Y-94982577D01*
X152045085Y-95072317D01*
X152264009Y-95120451D01*
X152488114Y-95125145D01*
X152708862Y-95086221D01*
X152917846Y-95005162D01*
X153107106Y-94885054D01*
X153197800Y-94798687D01*
X153197800Y-94855030D01*
X153215370Y-94943360D01*
X153249835Y-95026565D01*
X153299869Y-95101448D01*
X153363552Y-95165130D01*
X153438434Y-95215165D01*
X153521639Y-95249630D01*
X153609969Y-95267200D01*
X154063700Y-95267200D01*
X154178000Y-95152900D01*
X154178000Y-94187000D01*
X154158000Y-94187000D01*
X154158000Y-93933000D01*
X154178000Y-93933000D01*
X154178000Y-92967100D01*
X154432000Y-92967100D01*
X154432000Y-93933000D01*
X154452000Y-93933000D01*
X154452000Y-94187000D01*
X154432000Y-94187000D01*
X154432000Y-95152900D01*
X154546300Y-95267200D01*
X155000031Y-95267200D01*
X155088361Y-95249630D01*
X155171566Y-95215165D01*
X155246448Y-95165130D01*
X155310131Y-95101448D01*
X155360165Y-95026565D01*
X155394630Y-94943360D01*
X155412200Y-94855030D01*
X155412200Y-94799337D01*
X155465615Y-94854650D01*
X155649679Y-94982577D01*
X155855085Y-95072317D01*
X156074009Y-95120451D01*
X156298114Y-95125145D01*
X156518862Y-95086221D01*
X156727846Y-95005162D01*
X156917106Y-94885054D01*
X157079432Y-94730473D01*
X157208641Y-94547307D01*
X157299813Y-94342532D01*
X157349473Y-94123949D01*
X157353049Y-93867923D01*
X157309510Y-93648038D01*
X157224092Y-93440798D01*
X157100047Y-93254095D01*
X156942101Y-93095042D01*
X156756269Y-92969697D01*
X156549630Y-92882834D01*
X156330054Y-92837762D01*
X156105906Y-92836197D01*
X155885722Y-92878199D01*
X155677891Y-92962169D01*
X155490327Y-93084907D01*
X155394960Y-93178297D01*
X155394630Y-93176640D01*
X155360165Y-93093435D01*
X155310131Y-93018552D01*
X155246448Y-92954870D01*
X155171566Y-92904835D01*
X155088361Y-92870370D01*
X155000031Y-92852800D01*
X154546300Y-92852800D01*
X154432000Y-92967100D01*
X154178000Y-92967100D01*
X154063700Y-92852800D01*
X153609969Y-92852800D01*
X153521639Y-92870370D01*
X153438434Y-92904835D01*
X153363552Y-92954870D01*
X153299869Y-93018552D01*
X153249835Y-93093435D01*
X153215370Y-93176640D01*
X153214996Y-93178518D01*
X153132101Y-93095042D01*
X152946269Y-92969697D01*
X152908000Y-92953610D01*
X152908000Y-92468981D01*
X152917846Y-92465162D01*
X153107106Y-92345054D01*
X153269432Y-92190473D01*
X153278949Y-92176982D01*
X153308864Y-92273580D01*
X153368140Y-92363535D01*
X153450130Y-92433415D01*
X153548342Y-92477686D01*
X153655000Y-92492843D01*
X154955000Y-92492843D01*
X155015673Y-92488005D01*
X155118580Y-92456136D01*
X155208535Y-92396860D01*
X155278415Y-92314870D01*
X155322686Y-92216658D01*
X155328882Y-92173058D01*
X155465615Y-92314650D01*
X155649679Y-92442577D01*
X155855085Y-92532317D01*
X156074009Y-92580451D01*
X156298114Y-92585145D01*
X156518862Y-92546221D01*
X156727846Y-92465162D01*
X156917106Y-92345054D01*
X157079432Y-92190473D01*
X157208641Y-92007307D01*
X157299813Y-91802532D01*
X157349473Y-91583949D01*
X157353049Y-91327923D01*
X157309510Y-91108038D01*
X157224092Y-90900798D01*
X157100047Y-90714095D01*
X156949875Y-90562870D01*
X156985801Y-90534190D01*
X156989516Y-90530527D01*
X156989596Y-90530462D01*
X156989657Y-90530388D01*
X156990852Y-90529210D01*
X158220221Y-89299841D01*
X158249987Y-89263603D01*
X158280169Y-89227634D01*
X158281457Y-89225292D01*
X158283151Y-89223229D01*
X158294000Y-89202995D01*
X158294000Y-105146714D01*
X158287059Y-105133323D01*
X158285391Y-105131234D01*
X158284138Y-105128877D01*
X158254462Y-105092491D01*
X158225204Y-105055841D01*
X158221541Y-105052126D01*
X158221476Y-105052046D01*
X158221402Y-105051985D01*
X158220224Y-105050790D01*
X157861001Y-104691567D01*
X157861001Y-102743001D01*
X157856426Y-102696343D01*
X157852333Y-102649554D01*
X157851586Y-102646983D01*
X157851326Y-102644330D01*
X157837783Y-102599474D01*
X157824672Y-102554346D01*
X157823441Y-102551972D01*
X157822670Y-102549417D01*
X157800650Y-102508004D01*
X157779046Y-102466325D01*
X157777380Y-102464237D01*
X157776125Y-102461878D01*
X157746456Y-102425501D01*
X157717192Y-102388842D01*
X157713524Y-102385121D01*
X157713463Y-102385047D01*
X157713394Y-102384990D01*
X157712212Y-102383791D01*
X157297083Y-101968663D01*
X157299813Y-101962532D01*
X157349473Y-101743949D01*
X157353049Y-101487923D01*
X157309510Y-101268038D01*
X157224092Y-101060798D01*
X157100047Y-100874095D01*
X156942101Y-100715042D01*
X156756269Y-100589697D01*
X156549630Y-100502834D01*
X156330054Y-100457762D01*
X156105906Y-100456197D01*
X155885722Y-100498199D01*
X155677891Y-100582169D01*
X155490327Y-100704907D01*
X155379681Y-100813260D01*
X154349210Y-99782790D01*
X154312972Y-99753024D01*
X154277003Y-99722842D01*
X154274661Y-99721554D01*
X154272598Y-99719860D01*
X154231251Y-99697690D01*
X154190122Y-99675079D01*
X154187577Y-99674272D01*
X154185222Y-99673009D01*
X154140330Y-99659284D01*
X154095619Y-99645101D01*
X154092966Y-99644803D01*
X154090410Y-99644022D01*
X154073843Y-99642339D01*
X154073843Y-98768999D01*
X155103269Y-98768999D01*
X155068628Y-98931975D01*
X155065498Y-99156107D01*
X155105962Y-99376578D01*
X155188479Y-99584991D01*
X155309905Y-99773407D01*
X155465615Y-99934650D01*
X155649679Y-100062577D01*
X155855085Y-100152317D01*
X156074009Y-100200451D01*
X156298114Y-100205145D01*
X156518862Y-100166221D01*
X156727846Y-100085162D01*
X156917106Y-99965054D01*
X157079432Y-99810473D01*
X157208641Y-99627307D01*
X157299813Y-99422532D01*
X157349473Y-99203949D01*
X157353049Y-98947923D01*
X157309510Y-98728038D01*
X157224092Y-98520798D01*
X157100047Y-98334095D01*
X156942101Y-98175042D01*
X156756269Y-98049697D01*
X156549630Y-97962834D01*
X156330054Y-97917762D01*
X156105906Y-97916197D01*
X155885722Y-97958199D01*
X155843627Y-97975207D01*
X155770209Y-97901789D01*
X155733971Y-97872023D01*
X155698002Y-97841841D01*
X155695660Y-97840553D01*
X155693597Y-97838859D01*
X155652250Y-97816689D01*
X155639010Y-97809410D01*
X155841875Y-97606546D01*
X155855085Y-97612317D01*
X156074009Y-97660451D01*
X156298114Y-97665145D01*
X156518862Y-97626221D01*
X156727846Y-97545162D01*
X156917106Y-97425054D01*
X157079432Y-97270473D01*
X157208641Y-97087307D01*
X157299813Y-96882532D01*
X157349473Y-96663949D01*
X157353049Y-96407923D01*
X157309510Y-96188038D01*
X157224092Y-95980798D01*
X157100047Y-95794095D01*
X156942101Y-95635042D01*
X156756269Y-95509697D01*
X156549630Y-95422834D01*
X156330054Y-95377762D01*
X156105906Y-95376197D01*
X155885722Y-95418199D01*
X155677891Y-95502169D01*
X155490327Y-95624907D01*
X155330175Y-95781739D01*
X155203535Y-95966691D01*
X155115232Y-96172719D01*
X155068628Y-96391975D01*
X155065498Y-96616107D01*
X155105962Y-96836578D01*
X155125544Y-96886036D01*
X154856579Y-97155001D01*
X152146000Y-97155001D01*
X152099296Y-97159580D01*
X152052552Y-97163670D01*
X152049986Y-97164415D01*
X152047329Y-97164676D01*
X152002444Y-97178228D01*
X151957345Y-97191330D01*
X151954971Y-97192561D01*
X151952416Y-97193332D01*
X151911023Y-97215341D01*
X151869323Y-97236956D01*
X151867234Y-97238624D01*
X151864877Y-97239877D01*
X151828491Y-97269553D01*
X151791841Y-97298811D01*
X151788126Y-97302474D01*
X151788046Y-97302539D01*
X151787985Y-97302613D01*
X151786790Y-97303791D01*
X151337582Y-97752999D01*
X148136199Y-97752999D01*
X148089495Y-97757578D01*
X148042751Y-97761668D01*
X148040185Y-97762413D01*
X148037528Y-97762674D01*
X147992643Y-97776226D01*
X147947544Y-97789328D01*
X147945170Y-97790559D01*
X147942615Y-97791330D01*
X147901222Y-97813339D01*
X147859522Y-97834954D01*
X147857433Y-97836622D01*
X147855076Y-97837875D01*
X147818690Y-97867551D01*
X147782040Y-97896809D01*
X147778325Y-97900472D01*
X147778245Y-97900537D01*
X147778184Y-97900611D01*
X147776989Y-97901789D01*
X147419621Y-98259157D01*
X146441000Y-98259157D01*
X146380327Y-98263995D01*
X146277420Y-98295864D01*
X146187465Y-98355140D01*
X146117585Y-98437130D01*
X146073314Y-98535342D01*
X146067479Y-98576400D01*
X146037136Y-98478420D01*
X145977860Y-98388465D01*
X145895870Y-98318585D01*
X145797658Y-98274314D01*
X145691000Y-98259157D01*
X144441000Y-98259157D01*
X144380327Y-98263995D01*
X144277420Y-98295864D01*
X144187465Y-98355140D01*
X144117585Y-98437130D01*
X144073314Y-98535342D01*
X144067479Y-98576400D01*
X144037136Y-98478420D01*
X143977860Y-98388465D01*
X143895870Y-98318585D01*
X143797658Y-98274314D01*
X143691000Y-98259157D01*
X142441000Y-98259157D01*
X142380327Y-98263995D01*
X142277420Y-98295864D01*
X142187465Y-98355140D01*
X142117585Y-98437130D01*
X142108947Y-98456293D01*
X142096165Y-98425435D01*
X142046131Y-98350552D01*
X141982448Y-98286870D01*
X141907566Y-98236835D01*
X141824361Y-98202370D01*
X141736031Y-98184800D01*
X141307300Y-98184800D01*
X141193000Y-98299100D01*
X141193000Y-99515000D01*
X141213000Y-99515000D01*
X141213000Y-99769000D01*
X141193000Y-99769000D01*
X141193000Y-100984900D01*
X141307300Y-101099200D01*
X141736031Y-101099200D01*
X141824361Y-101081630D01*
X141907566Y-101047165D01*
X141982448Y-100997130D01*
X142046131Y-100933448D01*
X142096165Y-100858565D01*
X142109139Y-100827243D01*
X142154140Y-100895535D01*
X142236130Y-100965415D01*
X142334342Y-101009686D01*
X142441000Y-101024843D01*
X143691000Y-101024843D01*
X143751673Y-101020005D01*
X143854580Y-100988136D01*
X143944535Y-100928860D01*
X144014415Y-100846870D01*
X144058686Y-100748658D01*
X144064521Y-100707600D01*
X144094864Y-100805580D01*
X144154140Y-100895535D01*
X144236130Y-100965415D01*
X144334342Y-101009686D01*
X144441000Y-101024843D01*
X145691000Y-101024843D01*
X145751673Y-101020005D01*
X145854580Y-100988136D01*
X145944535Y-100928860D01*
X146014415Y-100846870D01*
X146058686Y-100748658D01*
X146064521Y-100707600D01*
X146094864Y-100805580D01*
X146154140Y-100895535D01*
X146236130Y-100965415D01*
X146334342Y-101009686D01*
X146441000Y-101024843D01*
X147691000Y-101024843D01*
X147751673Y-101020005D01*
X147854580Y-100988136D01*
X147944535Y-100928860D01*
X148014415Y-100846870D01*
X148058686Y-100748658D01*
X148064521Y-100707600D01*
X148094864Y-100805580D01*
X148154140Y-100895535D01*
X148236130Y-100965415D01*
X148334342Y-101009686D01*
X148441000Y-101024843D01*
X148730423Y-101024843D01*
X149156790Y-101451210D01*
X149193028Y-101480976D01*
X149228997Y-101511158D01*
X149231339Y-101512446D01*
X149233402Y-101514140D01*
X149274749Y-101536310D01*
X149315878Y-101558921D01*
X149318423Y-101559728D01*
X149320778Y-101560991D01*
X149365670Y-101574716D01*
X149410381Y-101588899D01*
X149413034Y-101589197D01*
X149415590Y-101589978D01*
X149462313Y-101594724D01*
X149508907Y-101599950D01*
X149514127Y-101599987D01*
X149514227Y-101599997D01*
X149514321Y-101599988D01*
X149516000Y-101600000D01*
X153713580Y-101600000D01*
X154050989Y-101937409D01*
X154050989Y-102616000D01*
X154055568Y-102662704D01*
X154059658Y-102709448D01*
X154060403Y-102712014D01*
X154060664Y-102714671D01*
X154074216Y-102759556D01*
X154087318Y-102804655D01*
X154088549Y-102807029D01*
X154089320Y-102809584D01*
X154111329Y-102850977D01*
X154132944Y-102892677D01*
X154134612Y-102894766D01*
X154135865Y-102897123D01*
X154165541Y-102933509D01*
X154194799Y-102970159D01*
X154198462Y-102973874D01*
X154198527Y-102973954D01*
X154198601Y-102974015D01*
X154199779Y-102975210D01*
X154558999Y-103334431D01*
X154558999Y-105028999D01*
X154563578Y-105075703D01*
X154567668Y-105122447D01*
X154568413Y-105125013D01*
X154568674Y-105127670D01*
X154582226Y-105172555D01*
X154595328Y-105217654D01*
X154596559Y-105220028D01*
X154597330Y-105222583D01*
X154619339Y-105263976D01*
X154640954Y-105305676D01*
X154642622Y-105307765D01*
X154643875Y-105310122D01*
X154673551Y-105346508D01*
X154702809Y-105383158D01*
X154706472Y-105386873D01*
X154706537Y-105386953D01*
X154706611Y-105387014D01*
X154707789Y-105388209D01*
X155088790Y-105769210D01*
X155125028Y-105798976D01*
X155160997Y-105829158D01*
X155163339Y-105830446D01*
X155165402Y-105832140D01*
X155206731Y-105854300D01*
X155247878Y-105876921D01*
X155250426Y-105877729D01*
X155252779Y-105878991D01*
X155297656Y-105892711D01*
X155342381Y-105906899D01*
X155345034Y-105907197D01*
X155347590Y-105907978D01*
X155363047Y-105909548D01*
X155330175Y-105941739D01*
X155203535Y-106126691D01*
X155115232Y-106332719D01*
X155068628Y-106551975D01*
X155065498Y-106776107D01*
X155105962Y-106996578D01*
X155125544Y-107046036D01*
X154580790Y-107590790D01*
X154551024Y-107627028D01*
X154520842Y-107662997D01*
X154519554Y-107665339D01*
X154517860Y-107667402D01*
X154495690Y-107708749D01*
X154473079Y-107749878D01*
X154472272Y-107752423D01*
X154471009Y-107754778D01*
X154457284Y-107799670D01*
X154443101Y-107844381D01*
X154442803Y-107847034D01*
X154442022Y-107849590D01*
X154437276Y-107896313D01*
X154432050Y-107942907D01*
X154432013Y-107948127D01*
X154432003Y-107948227D01*
X154432012Y-107948321D01*
X154432000Y-107950000D01*
X154432000Y-109517578D01*
X154072788Y-109876790D01*
X154043022Y-109913028D01*
X154012840Y-109948997D01*
X154011552Y-109951339D01*
X154009858Y-109953402D01*
X153987688Y-109994749D01*
X153965077Y-110035878D01*
X153964270Y-110038423D01*
X153963007Y-110040778D01*
X153949282Y-110085670D01*
X153935099Y-110130381D01*
X153934801Y-110133034D01*
X153934020Y-110135590D01*
X153929274Y-110182313D01*
X153924048Y-110228907D01*
X153924011Y-110234127D01*
X153924001Y-110234227D01*
X153924010Y-110234321D01*
X153923998Y-110236000D01*
X153923998Y-111803582D01*
X152697580Y-113030000D01*
X151770000Y-113030000D01*
X151723300Y-113034579D01*
X151676552Y-113038669D01*
X151673986Y-113039414D01*
X151671329Y-113039675D01*
X151626411Y-113053237D01*
X151581344Y-113066330D01*
X151578973Y-113067559D01*
X151576416Y-113068331D01*
X151534966Y-113090370D01*
X151493323Y-113111956D01*
X151491237Y-113113621D01*
X151488877Y-113114876D01*
X151452488Y-113144554D01*
X151415840Y-113173810D01*
X151412125Y-113177474D01*
X151412046Y-113177538D01*
X151411986Y-113177611D01*
X151410790Y-113178790D01*
X150730423Y-113859157D01*
X150441000Y-113859157D01*
X150380327Y-113863995D01*
X150277420Y-113895864D01*
X150187465Y-113955140D01*
X150117585Y-114037130D01*
X150073314Y-114135342D01*
X150067479Y-114176400D01*
X150037136Y-114078420D01*
X149977860Y-113988465D01*
X149895870Y-113918585D01*
X149797658Y-113874314D01*
X149691000Y-113859157D01*
X148441000Y-113859157D01*
X148380327Y-113863995D01*
X148277420Y-113895864D01*
X148187465Y-113955140D01*
X148117585Y-114037130D01*
X148073314Y-114135342D01*
X148067479Y-114176400D01*
X148037136Y-114078420D01*
X147977860Y-113988465D01*
X147895870Y-113918585D01*
X147797658Y-113874314D01*
X147691000Y-113859157D01*
X146441000Y-113859157D01*
X146380327Y-113863995D01*
X146277420Y-113895864D01*
X146187465Y-113955140D01*
X146117585Y-114037130D01*
X146108947Y-114056293D01*
X146096165Y-114025435D01*
X146046131Y-113950552D01*
X145982448Y-113886870D01*
X145907566Y-113836835D01*
X145824361Y-113802370D01*
X145736031Y-113784800D01*
X145307300Y-113784800D01*
X145193000Y-113899100D01*
X145193000Y-115115000D01*
X145213000Y-115115000D01*
X145213000Y-115369000D01*
X145193000Y-115369000D01*
X145193000Y-116584900D01*
X145307300Y-116699200D01*
X145736031Y-116699200D01*
X145824361Y-116681630D01*
X145907566Y-116647165D01*
X145982448Y-116597130D01*
X146046131Y-116533448D01*
X146096165Y-116458565D01*
X146109139Y-116427243D01*
X146154140Y-116495535D01*
X146236130Y-116565415D01*
X146334342Y-116609686D01*
X146423732Y-116622389D01*
X146423204Y-116623622D01*
X146395438Y-116754254D01*
X146393573Y-116887792D01*
X146417681Y-117019149D01*
X146417967Y-117019870D01*
X146350565Y-116974835D01*
X146267360Y-116940370D01*
X146179030Y-116922800D01*
X145275300Y-116922800D01*
X145161000Y-117037100D01*
X145161000Y-117753000D01*
X146476900Y-117753000D01*
X146591200Y-117638700D01*
X146591200Y-117334969D01*
X146584804Y-117302815D01*
X146631963Y-117351649D01*
X146741628Y-117427868D01*
X146864009Y-117481335D01*
X146994445Y-117510013D01*
X147127966Y-117512810D01*
X147259488Y-117489619D01*
X147384001Y-117441324D01*
X147496762Y-117369764D01*
X147593476Y-117277664D01*
X147670459Y-117168534D01*
X147724779Y-117046529D01*
X147754367Y-116916297D01*
X147756497Y-116763757D01*
X147730557Y-116632749D01*
X147726143Y-116622041D01*
X147751673Y-116620005D01*
X147854580Y-116588136D01*
X147944535Y-116528860D01*
X148014415Y-116446870D01*
X148058686Y-116348658D01*
X148064521Y-116307600D01*
X148094864Y-116405580D01*
X148154140Y-116495535D01*
X148236130Y-116565415D01*
X148334342Y-116609686D01*
X148441000Y-116624843D01*
X149419621Y-116624843D01*
X149776989Y-116982211D01*
X149813227Y-117011977D01*
X149849196Y-117042159D01*
X149851538Y-117043447D01*
X149853601Y-117045141D01*
X149894948Y-117067311D01*
X149936077Y-117089922D01*
X149938622Y-117090729D01*
X149940977Y-117091992D01*
X149985869Y-117105717D01*
X150030580Y-117119900D01*
X150033233Y-117120198D01*
X150035789Y-117120979D01*
X150082512Y-117125725D01*
X150129106Y-117130951D01*
X150134326Y-117130988D01*
X150134426Y-117130998D01*
X150134520Y-117130989D01*
X150136199Y-117131001D01*
X153995801Y-117131001D01*
X154042505Y-117126422D01*
X154089249Y-117122332D01*
X154091815Y-117121587D01*
X154094472Y-117121326D01*
X154139357Y-117107774D01*
X154184456Y-117094672D01*
X154186830Y-117093441D01*
X154189385Y-117092670D01*
X154230778Y-117070661D01*
X154272478Y-117049046D01*
X154274567Y-117047378D01*
X154276924Y-117046125D01*
X154313310Y-117016449D01*
X154349960Y-116987191D01*
X154353675Y-116983528D01*
X154353755Y-116983463D01*
X154353816Y-116983389D01*
X154355011Y-116982211D01*
X154401115Y-116936107D01*
X155065498Y-116936107D01*
X155105962Y-117156578D01*
X155188479Y-117364991D01*
X155309905Y-117553407D01*
X155465615Y-117714650D01*
X155649679Y-117842577D01*
X155855085Y-117932317D01*
X156074009Y-117980451D01*
X156298114Y-117985145D01*
X156518862Y-117946221D01*
X156727846Y-117865162D01*
X156917106Y-117745054D01*
X157079432Y-117590473D01*
X157208641Y-117407307D01*
X157299813Y-117202532D01*
X157349473Y-116983949D01*
X157353049Y-116727923D01*
X157309510Y-116508038D01*
X157224092Y-116300798D01*
X157100047Y-116114095D01*
X156942101Y-115955042D01*
X156756269Y-115829697D01*
X156549630Y-115742834D01*
X156330054Y-115697762D01*
X156105906Y-115696197D01*
X155885722Y-115738199D01*
X155677891Y-115822169D01*
X155490327Y-115944907D01*
X155330175Y-116101739D01*
X155203535Y-116286691D01*
X155115232Y-116492719D01*
X155068628Y-116711975D01*
X155065498Y-116936107D01*
X154401115Y-116936107D01*
X154537210Y-116800012D01*
X154566976Y-116763774D01*
X154597158Y-116727805D01*
X154598446Y-116725463D01*
X154600140Y-116723400D01*
X154622291Y-116682088D01*
X154644921Y-116640924D01*
X154645730Y-116638374D01*
X154646990Y-116636024D01*
X154660701Y-116591178D01*
X154674899Y-116546421D01*
X154675197Y-116543768D01*
X154675978Y-116541212D01*
X154680724Y-116494484D01*
X154685950Y-116447895D01*
X154685987Y-116442677D01*
X154685997Y-116442576D01*
X154685988Y-116442482D01*
X154686000Y-116440802D01*
X154686000Y-114510420D01*
X155080554Y-114115866D01*
X155068628Y-114171975D01*
X155065498Y-114396107D01*
X155105962Y-114616578D01*
X155188479Y-114824991D01*
X155309905Y-115013407D01*
X155465615Y-115174650D01*
X155649679Y-115302577D01*
X155855085Y-115392317D01*
X156074009Y-115440451D01*
X156298114Y-115445145D01*
X156518862Y-115406221D01*
X156727846Y-115325162D01*
X156917106Y-115205054D01*
X157079432Y-115050473D01*
X157208641Y-114867307D01*
X157299813Y-114662532D01*
X157349473Y-114443949D01*
X157353049Y-114187923D01*
X157309510Y-113968038D01*
X157224092Y-113760798D01*
X157100047Y-113574095D01*
X156942101Y-113415042D01*
X156927214Y-113405001D01*
X156952977Y-113391302D01*
X156994677Y-113369687D01*
X156996766Y-113368019D01*
X156999123Y-113366766D01*
X157035509Y-113337090D01*
X157072159Y-113307832D01*
X157075874Y-113304169D01*
X157075954Y-113304104D01*
X157076015Y-113304030D01*
X157077210Y-113302852D01*
X158220224Y-112159838D01*
X158249990Y-112123600D01*
X158280172Y-112087631D01*
X158281460Y-112085289D01*
X158283154Y-112083226D01*
X158294000Y-112062998D01*
X158294000Y-121402119D01*
X158277547Y-121569918D01*
X158231684Y-121721826D01*
X158157192Y-121861923D01*
X158056902Y-121984890D01*
X157934641Y-122086033D01*
X157795064Y-122161503D01*
X157643483Y-122208425D01*
X157476272Y-122226000D01*
X143510000Y-122226000D01*
X143509965Y-122226003D01*
X143509288Y-122226001D01*
X143502195Y-122226026D01*
X143493415Y-122226918D01*
X143484598Y-122226857D01*
X143481792Y-122227132D01*
X143284590Y-122247859D01*
X143266661Y-122251539D01*
X143248673Y-122254971D01*
X143245973Y-122255785D01*
X143056552Y-122314421D01*
X143039687Y-122321510D01*
X143022697Y-122328375D01*
X143020207Y-122329698D01*
X142845784Y-122424009D01*
X142830588Y-122434258D01*
X142815286Y-122444272D01*
X142813106Y-122446050D01*
X142813100Y-122446054D01*
X142813095Y-122446059D01*
X142660316Y-122572448D01*
X142647392Y-122585463D01*
X142634335Y-122598249D01*
X142632537Y-122600422D01*
X142507213Y-122754084D01*
X142497073Y-122769346D01*
X142486738Y-122784440D01*
X142485400Y-122786916D01*
X142485397Y-122786920D01*
X142485397Y-122786921D01*
X142392306Y-122961998D01*
X142385347Y-122978881D01*
X142378116Y-122995754D01*
X142377282Y-122998448D01*
X142319971Y-123188274D01*
X142316414Y-123206237D01*
X142312609Y-123224142D01*
X142312314Y-123226946D01*
X142292964Y-123424288D01*
X142292964Y-123432763D01*
X142292020Y-123441180D01*
X142292000Y-123444000D01*
X142292000Y-127498119D01*
X142275547Y-127665918D01*
X142229684Y-127817826D01*
X142155192Y-127957923D01*
X142054902Y-128080890D01*
X141932641Y-128182033D01*
X141793064Y-128257503D01*
X141641483Y-128304425D01*
X141474272Y-128322000D01*
X139709881Y-128322000D01*
X139542082Y-128305547D01*
X139390174Y-128259684D01*
X139250077Y-128185192D01*
X139127110Y-128084902D01*
X139025967Y-127962641D01*
X138975933Y-127870106D01*
X140279500Y-127870106D01*
X140356530Y-128060435D01*
X140575199Y-128159741D01*
X140809039Y-128214478D01*
X141049064Y-128222544D01*
X141286052Y-128183628D01*
X141510894Y-128099226D01*
X141583470Y-128060435D01*
X141660500Y-127870106D01*
X140970000Y-127179605D01*
X140279500Y-127870106D01*
X138975933Y-127870106D01*
X138950497Y-127823064D01*
X138903575Y-127671483D01*
X138886000Y-127504272D01*
X138886000Y-127079064D01*
X139747456Y-127079064D01*
X139786372Y-127316052D01*
X139870774Y-127540894D01*
X139909565Y-127613470D01*
X140099894Y-127690500D01*
X140790395Y-127000000D01*
X141149605Y-127000000D01*
X141840106Y-127690500D01*
X142030435Y-127613470D01*
X142129741Y-127394801D01*
X142184478Y-127160961D01*
X142192544Y-126920936D01*
X142153628Y-126683948D01*
X142069226Y-126459106D01*
X142030435Y-126386530D01*
X141840106Y-126309500D01*
X141149605Y-127000000D01*
X140790395Y-127000000D01*
X140099894Y-126309500D01*
X139909565Y-126386530D01*
X139810259Y-126605199D01*
X139755522Y-126839039D01*
X139747456Y-127079064D01*
X138886000Y-127079064D01*
X138886000Y-126129894D01*
X140279500Y-126129894D01*
X140970000Y-126820395D01*
X141660500Y-126129894D01*
X141583470Y-125939565D01*
X141364801Y-125840259D01*
X141130961Y-125785522D01*
X140890936Y-125777456D01*
X140653948Y-125816372D01*
X140429106Y-125900774D01*
X140356530Y-125939565D01*
X140279500Y-126129894D01*
X138886000Y-126129894D01*
X138886000Y-124556107D01*
X139825498Y-124556107D01*
X139865962Y-124776578D01*
X139948479Y-124984991D01*
X140069905Y-125173407D01*
X140225615Y-125334650D01*
X140409679Y-125462577D01*
X140615085Y-125552317D01*
X140834009Y-125600451D01*
X141058114Y-125605145D01*
X141278862Y-125566221D01*
X141487846Y-125485162D01*
X141677106Y-125365054D01*
X141839432Y-125210473D01*
X141968641Y-125027307D01*
X142059813Y-124822532D01*
X142109473Y-124603949D01*
X142113049Y-124347923D01*
X142069510Y-124128038D01*
X141984092Y-123920798D01*
X141860047Y-123734095D01*
X141702101Y-123575042D01*
X141516269Y-123449697D01*
X141309630Y-123362834D01*
X141090054Y-123317762D01*
X140865906Y-123316197D01*
X140645722Y-123358199D01*
X140437891Y-123442169D01*
X140250327Y-123564907D01*
X140090175Y-123721739D01*
X139963535Y-123906691D01*
X139875232Y-124112719D01*
X139828628Y-124331975D01*
X139825498Y-124556107D01*
X138886000Y-124556107D01*
X138886000Y-122016107D01*
X139825498Y-122016107D01*
X139865962Y-122236578D01*
X139948479Y-122444991D01*
X140069905Y-122633407D01*
X140225615Y-122794650D01*
X140409679Y-122922577D01*
X140615085Y-123012317D01*
X140834009Y-123060451D01*
X141058114Y-123065145D01*
X141278862Y-123026221D01*
X141487846Y-122945162D01*
X141677106Y-122825054D01*
X141839432Y-122670473D01*
X141968641Y-122487307D01*
X142059813Y-122282532D01*
X142109473Y-122063949D01*
X142113049Y-121807923D01*
X142069510Y-121588038D01*
X141984092Y-121380798D01*
X141860047Y-121194095D01*
X141787759Y-121121300D01*
X143476800Y-121121300D01*
X143476800Y-121425031D01*
X143494370Y-121513361D01*
X143528835Y-121596566D01*
X143578870Y-121671448D01*
X143642552Y-121735131D01*
X143717435Y-121785165D01*
X143800640Y-121819630D01*
X143888970Y-121837200D01*
X144792700Y-121837200D01*
X144907000Y-121722900D01*
X144907000Y-121007000D01*
X145161000Y-121007000D01*
X145161000Y-121722900D01*
X145275300Y-121837200D01*
X146179030Y-121837200D01*
X146267360Y-121819630D01*
X146350565Y-121785165D01*
X146425448Y-121735131D01*
X146489130Y-121671448D01*
X146539165Y-121596566D01*
X146573630Y-121513361D01*
X146591200Y-121425031D01*
X146591200Y-121121300D01*
X146476900Y-121007000D01*
X145161000Y-121007000D01*
X144907000Y-121007000D01*
X143591100Y-121007000D01*
X143476800Y-121121300D01*
X141787759Y-121121300D01*
X141702101Y-121035042D01*
X141516269Y-120909697D01*
X141309630Y-120822834D01*
X141090054Y-120777762D01*
X140865906Y-120776197D01*
X140645722Y-120818199D01*
X140437891Y-120902169D01*
X140250327Y-121024907D01*
X140090175Y-121181739D01*
X139963535Y-121366691D01*
X139875232Y-121572719D01*
X139828628Y-121791975D01*
X139825498Y-122016107D01*
X138886000Y-122016107D01*
X138886000Y-119476107D01*
X139825498Y-119476107D01*
X139865962Y-119696578D01*
X139948479Y-119904991D01*
X140069905Y-120093407D01*
X140225615Y-120254650D01*
X140409679Y-120382577D01*
X140615085Y-120472317D01*
X140834009Y-120520451D01*
X141058114Y-120525145D01*
X141278862Y-120486221D01*
X141487846Y-120405162D01*
X141677106Y-120285054D01*
X141839432Y-120130473D01*
X141968641Y-119947307D01*
X142059813Y-119742532D01*
X142109473Y-119523949D01*
X142111286Y-119394127D01*
X142461963Y-119744804D01*
X142523203Y-119899479D01*
X142643354Y-120085917D01*
X142797430Y-120245467D01*
X142979561Y-120372051D01*
X143182811Y-120460849D01*
X143399437Y-120508477D01*
X143476800Y-120510098D01*
X143476800Y-120638700D01*
X143591100Y-120753000D01*
X144907000Y-120753000D01*
X144907000Y-120037100D01*
X145161000Y-120037100D01*
X145161000Y-120753000D01*
X146476900Y-120753000D01*
X146591200Y-120638700D01*
X146591200Y-120334969D01*
X146573630Y-120246639D01*
X146539165Y-120163434D01*
X146489130Y-120088552D01*
X146425448Y-120024869D01*
X146350565Y-119974835D01*
X146267360Y-119940370D01*
X146179030Y-119922800D01*
X145275300Y-119922800D01*
X145161000Y-120037100D01*
X144907000Y-120037100D01*
X144792700Y-119922800D01*
X144530416Y-119922800D01*
X144612371Y-119738726D01*
X144661511Y-119522438D01*
X144662157Y-119476107D01*
X155065498Y-119476107D01*
X155105962Y-119696578D01*
X155188479Y-119904991D01*
X155309905Y-120093407D01*
X155465615Y-120254650D01*
X155649679Y-120382577D01*
X155855085Y-120472317D01*
X156074009Y-120520451D01*
X156298114Y-120525145D01*
X156518862Y-120486221D01*
X156727846Y-120405162D01*
X156917106Y-120285054D01*
X157079432Y-120130473D01*
X157208641Y-119947307D01*
X157299813Y-119742532D01*
X157349473Y-119523949D01*
X157353049Y-119267923D01*
X157309510Y-119048038D01*
X157224092Y-118840798D01*
X157100047Y-118654095D01*
X156942101Y-118495042D01*
X156756269Y-118369697D01*
X156549630Y-118282834D01*
X156330054Y-118237762D01*
X156105906Y-118236197D01*
X155885722Y-118278199D01*
X155677891Y-118362169D01*
X155490327Y-118484907D01*
X155330175Y-118641739D01*
X155203535Y-118826691D01*
X155115232Y-119032719D01*
X155068628Y-119251975D01*
X155065498Y-119476107D01*
X144662157Y-119476107D01*
X144665048Y-119269100D01*
X144621967Y-119051523D01*
X144537445Y-118846459D01*
X144531293Y-118837200D01*
X144792700Y-118837200D01*
X144907000Y-118722900D01*
X144907000Y-118007000D01*
X145161000Y-118007000D01*
X145161000Y-118722900D01*
X145275300Y-118837200D01*
X146179030Y-118837200D01*
X146267360Y-118819630D01*
X146350565Y-118785165D01*
X146425448Y-118735131D01*
X146489130Y-118671448D01*
X146539165Y-118596566D01*
X146573630Y-118513361D01*
X146591200Y-118425031D01*
X146591200Y-118121300D01*
X146476900Y-118007000D01*
X145161000Y-118007000D01*
X144907000Y-118007000D01*
X143597841Y-118007000D01*
X143097029Y-117506189D01*
X143157487Y-117519481D01*
X143291008Y-117522278D01*
X143422530Y-117499087D01*
X143476800Y-117478037D01*
X143476800Y-117638700D01*
X143591100Y-117753000D01*
X144907000Y-117753000D01*
X144907000Y-117037100D01*
X144792700Y-116922800D01*
X143917450Y-116922800D01*
X143919539Y-116773225D01*
X143893599Y-116642217D01*
X143867736Y-116579467D01*
X143944535Y-116528860D01*
X144014415Y-116446870D01*
X144023053Y-116427707D01*
X144035835Y-116458565D01*
X144085869Y-116533448D01*
X144149552Y-116597130D01*
X144224434Y-116647165D01*
X144307639Y-116681630D01*
X144395969Y-116699200D01*
X144824700Y-116699200D01*
X144939000Y-116584900D01*
X144939000Y-115369000D01*
X144919000Y-115369000D01*
X144919000Y-115115000D01*
X144939000Y-115115000D01*
X144939000Y-113899100D01*
X144824700Y-113784800D01*
X144395969Y-113784800D01*
X144307639Y-113802370D01*
X144224434Y-113836835D01*
X144149552Y-113886870D01*
X144085869Y-113950552D01*
X144035835Y-114025435D01*
X144022861Y-114056757D01*
X143977860Y-113988465D01*
X143895870Y-113918585D01*
X143797658Y-113874314D01*
X143691000Y-113859157D01*
X142441000Y-113859157D01*
X142380327Y-113863995D01*
X142277420Y-113895864D01*
X142187465Y-113955140D01*
X142117585Y-114037130D01*
X142073314Y-114135342D01*
X142067479Y-114176400D01*
X142037136Y-114078420D01*
X141977860Y-113988465D01*
X141895870Y-113918585D01*
X141797658Y-113874314D01*
X141691000Y-113859157D01*
X141559161Y-113859157D01*
X141459716Y-113805387D01*
X141270295Y-113746752D01*
X141073093Y-113726025D01*
X140875621Y-113743996D01*
X140685400Y-113799981D01*
X140572206Y-113859157D01*
X140441000Y-113859157D01*
X140380327Y-113863995D01*
X140277420Y-113895864D01*
X140187465Y-113955140D01*
X140117585Y-114037130D01*
X140073314Y-114135342D01*
X140058157Y-114242000D01*
X140058157Y-114655976D01*
X140050099Y-114727814D01*
X140050000Y-114742000D01*
X140050000Y-116912000D01*
X140059159Y-117005407D01*
X140067338Y-117098895D01*
X140068829Y-117104026D01*
X140069350Y-117109342D01*
X140096469Y-117199166D01*
X140122658Y-117289310D01*
X140125117Y-117294054D01*
X140126661Y-117299168D01*
X140170732Y-117382053D01*
X140213911Y-117465353D01*
X140217242Y-117469526D01*
X140219752Y-117474246D01*
X140279074Y-117546982D01*
X140337618Y-117620319D01*
X140344949Y-117627752D01*
X140345076Y-117627908D01*
X140345220Y-117628027D01*
X140347580Y-117630420D01*
X140953972Y-118236812D01*
X140865906Y-118236197D01*
X140645722Y-118278199D01*
X140437891Y-118362169D01*
X140250327Y-118484907D01*
X140090175Y-118641739D01*
X139963535Y-118826691D01*
X139875232Y-119032719D01*
X139828628Y-119251975D01*
X139825498Y-119476107D01*
X138886000Y-119476107D01*
X138886000Y-99883300D01*
X139983800Y-99883300D01*
X139983800Y-100687030D01*
X140001370Y-100775360D01*
X140035835Y-100858565D01*
X140085869Y-100933448D01*
X140149552Y-100997130D01*
X140224434Y-101047165D01*
X140307639Y-101081630D01*
X140395969Y-101099200D01*
X140824700Y-101099200D01*
X140939000Y-100984900D01*
X140939000Y-99769000D01*
X140098100Y-99769000D01*
X139983800Y-99883300D01*
X138886000Y-99883300D01*
X138886000Y-98596970D01*
X139983800Y-98596970D01*
X139983800Y-99400700D01*
X140098100Y-99515000D01*
X140939000Y-99515000D01*
X140939000Y-98299100D01*
X140824700Y-98184800D01*
X140395969Y-98184800D01*
X140307639Y-98202370D01*
X140224434Y-98236835D01*
X140149552Y-98286870D01*
X140085869Y-98350552D01*
X140035835Y-98425435D01*
X140001370Y-98508640D01*
X139983800Y-98596970D01*
X138886000Y-98596970D01*
X138886000Y-95132270D01*
X138892944Y-95145666D01*
X138894612Y-95147755D01*
X138895865Y-95150112D01*
X138925541Y-95186498D01*
X138954799Y-95223148D01*
X138958462Y-95226863D01*
X138958527Y-95226943D01*
X138958601Y-95227004D01*
X138959779Y-95228199D01*
X139883952Y-96152372D01*
X139875232Y-96172719D01*
X139828628Y-96391975D01*
X139825498Y-96616107D01*
X139865962Y-96836578D01*
X139948479Y-97044991D01*
X140069905Y-97233407D01*
X140225615Y-97394650D01*
X140409679Y-97522577D01*
X140615085Y-97612317D01*
X140834009Y-97660451D01*
X141058114Y-97665145D01*
X141278862Y-97626221D01*
X141487846Y-97545162D01*
X141677106Y-97425054D01*
X141839432Y-97270473D01*
X141968641Y-97087307D01*
X142059813Y-96882532D01*
X142109473Y-96663949D01*
X142113049Y-96407923D01*
X142069510Y-96188038D01*
X141984092Y-95980798D01*
X141860047Y-95794095D01*
X141702101Y-95635042D01*
X141516269Y-95509697D01*
X141309630Y-95422834D01*
X141090054Y-95377762D01*
X140865906Y-95376197D01*
X140645722Y-95418199D01*
X140603627Y-95435207D01*
X139826989Y-94658569D01*
X139826989Y-94084231D01*
X139865962Y-94296578D01*
X139948479Y-94504991D01*
X140069905Y-94693407D01*
X140225615Y-94854650D01*
X140409679Y-94982577D01*
X140615085Y-95072317D01*
X140834009Y-95120451D01*
X141058114Y-95125145D01*
X141278862Y-95086221D01*
X141487846Y-95005162D01*
X141677106Y-94885054D01*
X141839432Y-94730473D01*
X141968641Y-94547307D01*
X142059813Y-94342532D01*
X142109473Y-94123949D01*
X142113049Y-93867923D01*
X142069510Y-93648038D01*
X141984092Y-93440798D01*
X141860047Y-93254095D01*
X141702101Y-93095042D01*
X141516269Y-92969697D01*
X141309630Y-92882834D01*
X141090054Y-92837762D01*
X140865906Y-92836197D01*
X140645722Y-92878199D01*
X140603627Y-92895207D01*
X140334999Y-92626579D01*
X140334999Y-92390673D01*
X140409679Y-92442577D01*
X140615085Y-92532317D01*
X140834009Y-92580451D01*
X141058114Y-92585145D01*
X141278862Y-92546221D01*
X141487846Y-92465162D01*
X141677106Y-92345054D01*
X141839432Y-92190473D01*
X141968641Y-92007307D01*
X142059813Y-91802532D01*
X142109473Y-91583949D01*
X142113049Y-91327923D01*
X142069510Y-91108038D01*
X141984092Y-90900798D01*
X141860047Y-90714095D01*
X141702101Y-90555042D01*
X141516269Y-90429697D01*
X141309630Y-90342834D01*
X141090054Y-90297762D01*
X140865906Y-90296197D01*
X140645722Y-90338199D01*
X140437891Y-90422169D01*
X140334999Y-90489499D01*
X140334999Y-89850673D01*
X140409679Y-89902577D01*
X140615085Y-89992317D01*
X140834009Y-90040451D01*
X141058114Y-90045145D01*
X141278862Y-90006221D01*
X141487846Y-89925162D01*
X141677106Y-89805054D01*
X141707300Y-89776300D01*
X149166800Y-89776300D01*
X149166800Y-90080030D01*
X149184370Y-90168360D01*
X149218835Y-90251565D01*
X149268869Y-90326448D01*
X149295704Y-90353282D01*
X149246530Y-90379565D01*
X149169500Y-90569894D01*
X149860000Y-91260395D01*
X150550500Y-90569894D01*
X150519056Y-90492200D01*
X150869031Y-90492200D01*
X150957361Y-90474630D01*
X151040566Y-90440165D01*
X151115448Y-90390130D01*
X151179131Y-90326448D01*
X151229165Y-90251565D01*
X151263630Y-90168360D01*
X151281200Y-90080030D01*
X151281200Y-89776300D01*
X151166900Y-89662000D01*
X150351000Y-89662000D01*
X150351000Y-89682000D01*
X150097000Y-89682000D01*
X150097000Y-89662000D01*
X149281100Y-89662000D01*
X149166800Y-89776300D01*
X141707300Y-89776300D01*
X141839432Y-89650473D01*
X141968641Y-89467307D01*
X142059813Y-89262532D01*
X142109473Y-89043949D01*
X142110226Y-88989970D01*
X149166800Y-88989970D01*
X149166800Y-89293700D01*
X149281100Y-89408000D01*
X150097000Y-89408000D01*
X150097000Y-88692100D01*
X150351000Y-88692100D01*
X150351000Y-89408000D01*
X151166900Y-89408000D01*
X151281200Y-89293700D01*
X151281200Y-88989970D01*
X151263630Y-88901640D01*
X151229165Y-88818435D01*
X151179131Y-88743552D01*
X151115448Y-88679870D01*
X151040566Y-88629835D01*
X150957361Y-88595370D01*
X150869031Y-88577800D01*
X150465300Y-88577800D01*
X150351000Y-88692100D01*
X150097000Y-88692100D01*
X149982700Y-88577800D01*
X149578969Y-88577800D01*
X149490639Y-88595370D01*
X149407434Y-88629835D01*
X149332552Y-88679870D01*
X149268869Y-88743552D01*
X149218835Y-88818435D01*
X149184370Y-88901640D01*
X149166800Y-88989970D01*
X142110226Y-88989970D01*
X142113049Y-88787923D01*
X142069510Y-88568038D01*
X141984092Y-88360798D01*
X141860047Y-88174095D01*
X141709875Y-88022870D01*
X141745801Y-87994190D01*
X141749516Y-87990527D01*
X141749596Y-87990462D01*
X141749657Y-87990388D01*
X141750852Y-87989210D01*
X142599210Y-87140853D01*
X142628997Y-87104590D01*
X142652734Y-87076300D01*
X142752800Y-87076300D01*
X142752800Y-87655030D01*
X142770370Y-87743360D01*
X142804835Y-87826565D01*
X142854869Y-87901448D01*
X142918552Y-87965130D01*
X142993434Y-88015165D01*
X143076639Y-88049630D01*
X143164969Y-88067200D01*
X143268700Y-88067200D01*
X143383000Y-87952900D01*
X143383000Y-86962000D01*
X143637000Y-86962000D01*
X143637000Y-87952900D01*
X143751300Y-88067200D01*
X143855031Y-88067200D01*
X143943361Y-88049630D01*
X144026566Y-88015165D01*
X144101448Y-87965130D01*
X144145000Y-87921579D01*
X144188552Y-87965130D01*
X144263434Y-88015165D01*
X144346639Y-88049630D01*
X144434969Y-88067200D01*
X144538700Y-88067200D01*
X144653000Y-87952900D01*
X144653000Y-86962000D01*
X143637000Y-86962000D01*
X143383000Y-86962000D01*
X142867100Y-86962000D01*
X142752800Y-87076300D01*
X142652734Y-87076300D01*
X142659158Y-87068645D01*
X142660446Y-87066303D01*
X142662140Y-87064240D01*
X142684291Y-87022928D01*
X142706921Y-86981764D01*
X142707730Y-86979214D01*
X142708990Y-86976864D01*
X142722701Y-86932018D01*
X142736899Y-86887261D01*
X142737197Y-86884608D01*
X142737978Y-86882052D01*
X142742724Y-86835324D01*
X142747950Y-86788735D01*
X142747987Y-86783517D01*
X142747997Y-86783416D01*
X142747988Y-86783322D01*
X142748000Y-86781642D01*
X142748000Y-86443431D01*
X142752800Y-86438631D01*
X142752800Y-86593700D01*
X142867100Y-86708000D01*
X143383000Y-86708000D01*
X143383000Y-86688000D01*
X143637000Y-86688000D01*
X143637000Y-86708000D01*
X144653000Y-86708000D01*
X144653000Y-86688000D01*
X144907000Y-86688000D01*
X144907000Y-86708000D01*
X144927000Y-86708000D01*
X144927000Y-86962000D01*
X144907000Y-86962000D01*
X144907000Y-87952900D01*
X145021300Y-88067200D01*
X145125031Y-88067200D01*
X145213361Y-88049630D01*
X145296566Y-88015165D01*
X145371448Y-87965130D01*
X145435131Y-87901448D01*
X145461811Y-87861518D01*
X145463140Y-87863535D01*
X145545130Y-87933415D01*
X145643342Y-87977686D01*
X145750000Y-87992843D01*
X146350000Y-87992843D01*
X146410673Y-87988005D01*
X146513580Y-87956136D01*
X146603535Y-87896860D01*
X146673415Y-87814870D01*
X146684649Y-87789947D01*
X146733140Y-87863535D01*
X146815130Y-87933415D01*
X146913342Y-87977686D01*
X147020000Y-87992843D01*
X147620000Y-87992843D01*
X147680673Y-87988005D01*
X147783580Y-87956136D01*
X147873535Y-87896860D01*
X147943415Y-87814870D01*
X147987686Y-87716658D01*
X148002843Y-87610000D01*
X148002843Y-86060000D01*
X147998005Y-85999327D01*
X147966136Y-85896420D01*
X147906860Y-85806465D01*
X147824870Y-85736585D01*
X147726658Y-85692314D01*
X147620000Y-85677157D01*
X147543501Y-85677157D01*
X148568210Y-84652448D01*
X148597976Y-84616210D01*
X148628158Y-84580241D01*
X148629446Y-84577899D01*
X148631140Y-84575836D01*
X148653310Y-84534489D01*
X148675921Y-84493360D01*
X148676728Y-84490815D01*
X148677991Y-84488460D01*
X148691716Y-84443568D01*
X148705899Y-84398857D01*
X148706197Y-84396204D01*
X148706978Y-84393648D01*
X148711724Y-84346920D01*
X148716950Y-84300331D01*
X148716987Y-84295113D01*
X148716997Y-84295012D01*
X148716988Y-84294918D01*
X148717000Y-84293238D01*
X148717000Y-83776300D01*
X149166800Y-83776300D01*
X149166800Y-84080030D01*
X149184370Y-84168360D01*
X149218835Y-84251565D01*
X149268869Y-84326448D01*
X149332552Y-84390130D01*
X149407434Y-84440165D01*
X149490639Y-84474630D01*
X149578969Y-84492200D01*
X149982700Y-84492200D01*
X150097000Y-84377900D01*
X150097000Y-83662000D01*
X150351000Y-83662000D01*
X150351000Y-84377900D01*
X150465300Y-84492200D01*
X150869031Y-84492200D01*
X150957361Y-84474630D01*
X151040566Y-84440165D01*
X151115448Y-84390130D01*
X151179131Y-84326448D01*
X151229165Y-84251565D01*
X151263630Y-84168360D01*
X151281200Y-84080030D01*
X151281200Y-83776300D01*
X151166900Y-83662000D01*
X150351000Y-83662000D01*
X150097000Y-83662000D01*
X149281100Y-83662000D01*
X149166800Y-83776300D01*
X148717000Y-83776300D01*
X148717000Y-82989970D01*
X149166800Y-82989970D01*
X149166800Y-83293700D01*
X149281100Y-83408000D01*
X150097000Y-83408000D01*
X150097000Y-82692100D01*
X150351000Y-82692100D01*
X150351000Y-83408000D01*
X151166900Y-83408000D01*
X151281200Y-83293700D01*
X151281200Y-82989970D01*
X151263630Y-82901640D01*
X151229165Y-82818435D01*
X151179131Y-82743552D01*
X151115448Y-82679870D01*
X151040566Y-82629835D01*
X150957361Y-82595370D01*
X150869031Y-82577800D01*
X150465300Y-82577800D01*
X150351000Y-82692100D01*
X150097000Y-82692100D01*
X149982700Y-82577800D01*
X149578969Y-82577800D01*
X149490639Y-82595370D01*
X149407434Y-82629835D01*
X149332552Y-82679870D01*
X149268869Y-82743552D01*
X149218835Y-82818435D01*
X149184370Y-82901640D01*
X149166800Y-82989970D01*
X148717000Y-82989970D01*
X148717000Y-82843856D01*
X149010846Y-82550010D01*
X150875990Y-82550010D01*
X150922694Y-82545431D01*
X150969438Y-82541341D01*
X150972004Y-82540596D01*
X150974661Y-82540335D01*
X151019546Y-82526783D01*
X151064645Y-82513681D01*
X151067019Y-82512450D01*
X151069574Y-82511679D01*
X151110967Y-82489670D01*
X151152667Y-82468055D01*
X151154756Y-82466387D01*
X151157113Y-82465134D01*
X151193499Y-82435458D01*
X151230149Y-82406200D01*
X151233864Y-82402537D01*
X151233944Y-82402472D01*
X151234005Y-82402398D01*
X151235200Y-82401220D01*
X151710725Y-81925696D01*
X151898473Y-81983813D01*
X152137406Y-82008926D01*
X152376666Y-81987152D01*
X152607141Y-81919319D01*
X152820050Y-81808013D01*
X153007286Y-81657472D01*
X153161715Y-81473430D01*
X153277456Y-81262898D01*
X153350100Y-81033895D01*
X153376880Y-80795143D01*
X153377000Y-80777956D01*
X153377000Y-80766044D01*
X153353556Y-80526942D01*
X153284116Y-80296946D01*
X153171326Y-80084819D01*
X153142112Y-80048999D01*
X153688385Y-80048999D01*
X153670285Y-80070570D01*
G36*
X144961276Y-79618304D02*
X144773527Y-79560187D01*
X144534594Y-79535074D01*
X144295334Y-79556848D01*
X144064859Y-79624681D01*
X143851950Y-79735987D01*
X143664714Y-79886528D01*
X143510285Y-80070570D01*
X143394544Y-80281102D01*
X143321900Y-80510105D01*
X143295275Y-80747479D01*
X143297349Y-80696426D01*
X143257408Y-80442046D01*
X143168608Y-80200347D01*
X143118334Y-80106291D01*
X142919014Y-80018591D01*
X142165605Y-80772000D01*
X142919014Y-81525409D01*
X143118334Y-81437709D01*
X143226449Y-81204010D01*
X143286895Y-80953709D01*
X143295100Y-80751787D01*
X143295000Y-80766044D01*
X143295000Y-80777956D01*
X143318444Y-81017058D01*
X143387884Y-81247054D01*
X143500674Y-81459181D01*
X143652518Y-81645361D01*
X143837634Y-81798501D01*
X144048968Y-81912770D01*
X144278473Y-81983813D01*
X144517406Y-82008926D01*
X144756666Y-81987152D01*
X144987141Y-81919319D01*
X145200050Y-81808013D01*
X145387286Y-81657472D01*
X145541715Y-81473430D01*
X145657456Y-81262898D01*
X145730100Y-81033895D01*
X145756880Y-80795143D01*
X145757000Y-80777956D01*
X145757000Y-80766044D01*
X145733556Y-80526942D01*
X145676954Y-80339466D01*
X145967421Y-80048999D01*
X146068385Y-80048999D01*
X146050285Y-80070570D01*
X145934544Y-80281102D01*
X145861900Y-80510105D01*
X145835120Y-80748857D01*
X145835000Y-80766044D01*
X145835000Y-80777956D01*
X145858444Y-81017058D01*
X145915046Y-81204533D01*
X145543790Y-81575790D01*
X145514024Y-81612028D01*
X145483842Y-81647997D01*
X145482554Y-81650339D01*
X145480860Y-81652402D01*
X145458690Y-81693749D01*
X145436079Y-81734878D01*
X145435272Y-81737423D01*
X145434009Y-81739778D01*
X145420284Y-81784670D01*
X145406101Y-81829381D01*
X145405803Y-81832034D01*
X145405022Y-81834590D01*
X145400276Y-81881313D01*
X145395050Y-81927907D01*
X145395013Y-81933127D01*
X145395003Y-81933227D01*
X145395012Y-81933321D01*
X145395000Y-81935000D01*
X145395000Y-82812157D01*
X145153000Y-82812157D01*
X145092327Y-82816995D01*
X144989420Y-82848864D01*
X144899465Y-82908140D01*
X144829585Y-82990130D01*
X144785314Y-83088342D01*
X144770157Y-83195000D01*
X144770157Y-84445000D01*
X144774995Y-84505673D01*
X144798633Y-84582000D01*
X144591123Y-84582000D01*
X144592630Y-84578361D01*
X144610200Y-84490031D01*
X144610200Y-84061300D01*
X144495900Y-83947000D01*
X143530000Y-83947000D01*
X143530000Y-83967000D01*
X143276000Y-83967000D01*
X143276000Y-83947000D01*
X142310100Y-83947000D01*
X142195800Y-84061300D01*
X142195800Y-84490031D01*
X142213370Y-84578361D01*
X142214877Y-84582000D01*
X141827327Y-84582000D01*
X141839432Y-84570473D01*
X141968641Y-84387307D01*
X142059813Y-84182532D01*
X142109473Y-83963949D01*
X142113049Y-83707923D01*
X142069510Y-83488038D01*
X141984092Y-83280798D01*
X141897170Y-83149969D01*
X142195800Y-83149969D01*
X142195800Y-83578700D01*
X142310100Y-83693000D01*
X143276000Y-83693000D01*
X143276000Y-82852100D01*
X143530000Y-82852100D01*
X143530000Y-83693000D01*
X144495900Y-83693000D01*
X144610200Y-83578700D01*
X144610200Y-83149969D01*
X144592630Y-83061639D01*
X144558165Y-82978434D01*
X144508130Y-82903552D01*
X144444448Y-82839869D01*
X144369565Y-82789835D01*
X144286360Y-82755370D01*
X144198030Y-82737800D01*
X143644300Y-82737800D01*
X143530000Y-82852100D01*
X143276000Y-82852100D01*
X143161700Y-82737800D01*
X142607970Y-82737800D01*
X142519640Y-82755370D01*
X142436435Y-82789835D01*
X142361552Y-82839869D01*
X142297870Y-82903552D01*
X142247835Y-82978434D01*
X142213370Y-83061639D01*
X142195800Y-83149969D01*
X141897170Y-83149969D01*
X141860047Y-83094095D01*
X141702101Y-82935042D01*
X141516269Y-82809697D01*
X141309630Y-82722834D01*
X141090054Y-82677762D01*
X140865906Y-82676197D01*
X140645722Y-82718199D01*
X140437891Y-82802169D01*
X140250327Y-82924907D01*
X140090175Y-83081739D01*
X139963535Y-83266691D01*
X139875232Y-83472719D01*
X139828628Y-83691975D01*
X139825498Y-83916107D01*
X139865962Y-84136578D01*
X139948479Y-84344991D01*
X140069905Y-84533407D01*
X140150693Y-84617066D01*
X140146345Y-84618329D01*
X140143971Y-84619560D01*
X140141416Y-84620331D01*
X140100003Y-84642351D01*
X140058324Y-84663955D01*
X140056236Y-84665621D01*
X140053877Y-84666876D01*
X140017500Y-84696545D01*
X139980841Y-84725809D01*
X139977120Y-84729477D01*
X139977046Y-84729538D01*
X139976989Y-84729607D01*
X139975790Y-84730789D01*
X138959779Y-85746801D01*
X138930013Y-85783039D01*
X138899831Y-85819008D01*
X138898543Y-85821350D01*
X138896849Y-85823413D01*
X138886000Y-85843646D01*
X138886000Y-81705014D01*
X141232591Y-81705014D01*
X141320291Y-81904334D01*
X141553990Y-82012449D01*
X141804291Y-82072895D01*
X142061574Y-82083349D01*
X142315954Y-82043408D01*
X142557653Y-81954608D01*
X142651709Y-81904334D01*
X142739409Y-81705014D01*
X141986000Y-80951605D01*
X141232591Y-81705014D01*
X138886000Y-81705014D01*
X138886000Y-80847574D01*
X140674651Y-80847574D01*
X140714592Y-81101954D01*
X140803392Y-81343653D01*
X140853666Y-81437709D01*
X141052986Y-81525409D01*
X141806395Y-80772000D01*
X141052986Y-80018591D01*
X140853666Y-80106291D01*
X140745551Y-80339990D01*
X140685105Y-80590291D01*
X140674651Y-80847574D01*
X138886000Y-80847574D01*
X138886000Y-80273881D01*
X138902453Y-80106082D01*
X138948315Y-79954177D01*
X139009563Y-79838986D01*
X141232591Y-79838986D01*
X141986000Y-80592395D01*
X142739409Y-79838986D01*
X142651709Y-79639666D01*
X142418010Y-79531551D01*
X142167709Y-79471105D01*
X141910426Y-79460651D01*
X141656046Y-79500592D01*
X141414347Y-79589392D01*
X141320291Y-79639666D01*
X141232591Y-79838986D01*
X139009563Y-79838986D01*
X139022808Y-79814076D01*
X139123096Y-79691112D01*
X139245358Y-79589967D01*
X139384939Y-79514495D01*
X139536518Y-79467575D01*
X139703728Y-79450000D01*
X145129580Y-79450000D01*
X144961276Y-79618304D01*
X144961276Y-79618304D01*
G37*
X144961276Y-79618304D02*
X144773527Y-79560187D01*
X144534594Y-79535074D01*
X144295334Y-79556848D01*
X144064859Y-79624681D01*
X143851950Y-79735987D01*
X143664714Y-79886528D01*
X143510285Y-80070570D01*
X143394544Y-80281102D01*
X143321900Y-80510105D01*
X143295275Y-80747479D01*
X143297349Y-80696426D01*
X143257408Y-80442046D01*
X143168608Y-80200347D01*
X143118334Y-80106291D01*
X142919014Y-80018591D01*
X142165605Y-80772000D01*
X142919014Y-81525409D01*
X143118334Y-81437709D01*
X143226449Y-81204010D01*
X143286895Y-80953709D01*
X143295100Y-80751787D01*
X143295000Y-80766044D01*
X143295000Y-80777956D01*
X143318444Y-81017058D01*
X143387884Y-81247054D01*
X143500674Y-81459181D01*
X143652518Y-81645361D01*
X143837634Y-81798501D01*
X144048968Y-81912770D01*
X144278473Y-81983813D01*
X144517406Y-82008926D01*
X144756666Y-81987152D01*
X144987141Y-81919319D01*
X145200050Y-81808013D01*
X145387286Y-81657472D01*
X145541715Y-81473430D01*
X145657456Y-81262898D01*
X145730100Y-81033895D01*
X145756880Y-80795143D01*
X145757000Y-80777956D01*
X145757000Y-80766044D01*
X145733556Y-80526942D01*
X145676954Y-80339466D01*
X145967421Y-80048999D01*
X146068385Y-80048999D01*
X146050285Y-80070570D01*
X145934544Y-80281102D01*
X145861900Y-80510105D01*
X145835120Y-80748857D01*
X145835000Y-80766044D01*
X145835000Y-80777956D01*
X145858444Y-81017058D01*
X145915046Y-81204533D01*
X145543790Y-81575790D01*
X145514024Y-81612028D01*
X145483842Y-81647997D01*
X145482554Y-81650339D01*
X145480860Y-81652402D01*
X145458690Y-81693749D01*
X145436079Y-81734878D01*
X145435272Y-81737423D01*
X145434009Y-81739778D01*
X145420284Y-81784670D01*
X145406101Y-81829381D01*
X145405803Y-81832034D01*
X145405022Y-81834590D01*
X145400276Y-81881313D01*
X145395050Y-81927907D01*
X145395013Y-81933127D01*
X145395003Y-81933227D01*
X145395012Y-81933321D01*
X145395000Y-81935000D01*
X145395000Y-82812157D01*
X145153000Y-82812157D01*
X145092327Y-82816995D01*
X144989420Y-82848864D01*
X144899465Y-82908140D01*
X144829585Y-82990130D01*
X144785314Y-83088342D01*
X144770157Y-83195000D01*
X144770157Y-84445000D01*
X144774995Y-84505673D01*
X144798633Y-84582000D01*
X144591123Y-84582000D01*
X144592630Y-84578361D01*
X144610200Y-84490031D01*
X144610200Y-84061300D01*
X144495900Y-83947000D01*
X143530000Y-83947000D01*
X143530000Y-83967000D01*
X143276000Y-83967000D01*
X143276000Y-83947000D01*
X142310100Y-83947000D01*
X142195800Y-84061300D01*
X142195800Y-84490031D01*
X142213370Y-84578361D01*
X142214877Y-84582000D01*
X141827327Y-84582000D01*
X141839432Y-84570473D01*
X141968641Y-84387307D01*
X142059813Y-84182532D01*
X142109473Y-83963949D01*
X142113049Y-83707923D01*
X142069510Y-83488038D01*
X141984092Y-83280798D01*
X141897170Y-83149969D01*
X142195800Y-83149969D01*
X142195800Y-83578700D01*
X142310100Y-83693000D01*
X143276000Y-83693000D01*
X143276000Y-82852100D01*
X143530000Y-82852100D01*
X143530000Y-83693000D01*
X144495900Y-83693000D01*
X144610200Y-83578700D01*
X144610200Y-83149969D01*
X144592630Y-83061639D01*
X144558165Y-82978434D01*
X144508130Y-82903552D01*
X144444448Y-82839869D01*
X144369565Y-82789835D01*
X144286360Y-82755370D01*
X144198030Y-82737800D01*
X143644300Y-82737800D01*
X143530000Y-82852100D01*
X143276000Y-82852100D01*
X143161700Y-82737800D01*
X142607970Y-82737800D01*
X142519640Y-82755370D01*
X142436435Y-82789835D01*
X142361552Y-82839869D01*
X142297870Y-82903552D01*
X142247835Y-82978434D01*
X142213370Y-83061639D01*
X142195800Y-83149969D01*
X141897170Y-83149969D01*
X141860047Y-83094095D01*
X141702101Y-82935042D01*
X141516269Y-82809697D01*
X141309630Y-82722834D01*
X141090054Y-82677762D01*
X140865906Y-82676197D01*
X140645722Y-82718199D01*
X140437891Y-82802169D01*
X140250327Y-82924907D01*
X140090175Y-83081739D01*
X139963535Y-83266691D01*
X139875232Y-83472719D01*
X139828628Y-83691975D01*
X139825498Y-83916107D01*
X139865962Y-84136578D01*
X139948479Y-84344991D01*
X140069905Y-84533407D01*
X140150693Y-84617066D01*
X140146345Y-84618329D01*
X140143971Y-84619560D01*
X140141416Y-84620331D01*
X140100003Y-84642351D01*
X140058324Y-84663955D01*
X140056236Y-84665621D01*
X140053877Y-84666876D01*
X140017500Y-84696545D01*
X139980841Y-84725809D01*
X139977120Y-84729477D01*
X139977046Y-84729538D01*
X139976989Y-84729607D01*
X139975790Y-84730789D01*
X138959779Y-85746801D01*
X138930013Y-85783039D01*
X138899831Y-85819008D01*
X138898543Y-85821350D01*
X138896849Y-85823413D01*
X138886000Y-85843646D01*
X138886000Y-81705014D01*
X141232591Y-81705014D01*
X141320291Y-81904334D01*
X141553990Y-82012449D01*
X141804291Y-82072895D01*
X142061574Y-82083349D01*
X142315954Y-82043408D01*
X142557653Y-81954608D01*
X142651709Y-81904334D01*
X142739409Y-81705014D01*
X141986000Y-80951605D01*
X141232591Y-81705014D01*
X138886000Y-81705014D01*
X138886000Y-80847574D01*
X140674651Y-80847574D01*
X140714592Y-81101954D01*
X140803392Y-81343653D01*
X140853666Y-81437709D01*
X141052986Y-81525409D01*
X141806395Y-80772000D01*
X141052986Y-80018591D01*
X140853666Y-80106291D01*
X140745551Y-80339990D01*
X140685105Y-80590291D01*
X140674651Y-80847574D01*
X138886000Y-80847574D01*
X138886000Y-80273881D01*
X138902453Y-80106082D01*
X138948315Y-79954177D01*
X139009563Y-79838986D01*
X141232591Y-79838986D01*
X141986000Y-80592395D01*
X142739409Y-79838986D01*
X142651709Y-79639666D01*
X142418010Y-79531551D01*
X142167709Y-79471105D01*
X141910426Y-79460651D01*
X141656046Y-79500592D01*
X141414347Y-79589392D01*
X141320291Y-79639666D01*
X141232591Y-79838986D01*
X139009563Y-79838986D01*
X139022808Y-79814076D01*
X139123096Y-79691112D01*
X139245358Y-79589967D01*
X139384939Y-79514495D01*
X139536518Y-79467575D01*
X139703728Y-79450000D01*
X145129580Y-79450000D01*
X144961276Y-79618304D01*
M02*
