G04 #@! TF.FileFunction,Legend,Top*
%FSLAX46Y46*%
G04 Gerber Fmt 4.6, Leading zero omitted, Abs format (unit mm)*
G04 Created by KiCad (PCBNEW 4.0.5) date Sunday, 26 February 2017 'PMt' 14:35:32*
%MOMM*%
%LPD*%
G01*
G04 APERTURE LIST*
%ADD10C,0.200000*%
%ADD11C,0.150000*%
%ADD12C,0.287500*%
%ADD13C,0.120000*%
%ADD14C,0.203200*%
%ADD15C,0.152400*%
G04 APERTURE END LIST*
D10*
D11*
X151028524Y-86173905D02*
X150761857Y-85792952D01*
X150571381Y-86173905D02*
X150571381Y-85373905D01*
X150876143Y-85373905D01*
X150952334Y-85412000D01*
X150990429Y-85450095D01*
X151028524Y-85526286D01*
X151028524Y-85640571D01*
X150990429Y-85716762D01*
X150952334Y-85754857D01*
X150876143Y-85792952D01*
X150571381Y-85792952D01*
X151676143Y-86135810D02*
X151599953Y-86173905D01*
X151447572Y-86173905D01*
X151371381Y-86135810D01*
X151333286Y-86059619D01*
X151333286Y-85754857D01*
X151371381Y-85678667D01*
X151447572Y-85640571D01*
X151599953Y-85640571D01*
X151676143Y-85678667D01*
X151714238Y-85754857D01*
X151714238Y-85831048D01*
X151333286Y-85907238D01*
X152019000Y-86135810D02*
X152095190Y-86173905D01*
X152247571Y-86173905D01*
X152323762Y-86135810D01*
X152361857Y-86059619D01*
X152361857Y-86021524D01*
X152323762Y-85945333D01*
X152247571Y-85907238D01*
X152133286Y-85907238D01*
X152057095Y-85869143D01*
X152019000Y-85792952D01*
X152019000Y-85754857D01*
X152057095Y-85678667D01*
X152133286Y-85640571D01*
X152247571Y-85640571D01*
X152323762Y-85678667D01*
X153009476Y-86135810D02*
X152933286Y-86173905D01*
X152780905Y-86173905D01*
X152704714Y-86135810D01*
X152666619Y-86059619D01*
X152666619Y-85754857D01*
X152704714Y-85678667D01*
X152780905Y-85640571D01*
X152933286Y-85640571D01*
X153009476Y-85678667D01*
X153047571Y-85754857D01*
X153047571Y-85831048D01*
X152666619Y-85907238D01*
X153276142Y-85640571D02*
X153580904Y-85640571D01*
X153390428Y-85373905D02*
X153390428Y-86059619D01*
X153428523Y-86135810D01*
X153504714Y-86173905D01*
X153580904Y-86173905D01*
X150533285Y-87104857D02*
X150647571Y-87142952D01*
X150685666Y-87181048D01*
X150723761Y-87257238D01*
X150723761Y-87371524D01*
X150685666Y-87447714D01*
X150647571Y-87485810D01*
X150571380Y-87523905D01*
X150266618Y-87523905D01*
X150266618Y-86723905D01*
X150533285Y-86723905D01*
X150609475Y-86762000D01*
X150647571Y-86800095D01*
X150685666Y-86876286D01*
X150685666Y-86952476D01*
X150647571Y-87028667D01*
X150609475Y-87066762D01*
X150533285Y-87104857D01*
X150266618Y-87104857D01*
X151409475Y-86990571D02*
X151409475Y-87523905D01*
X151066618Y-86990571D02*
X151066618Y-87409619D01*
X151104713Y-87485810D01*
X151180904Y-87523905D01*
X151295190Y-87523905D01*
X151371380Y-87485810D01*
X151409475Y-87447714D01*
X151676142Y-86990571D02*
X151980904Y-86990571D01*
X151790428Y-86723905D02*
X151790428Y-87409619D01*
X151828523Y-87485810D01*
X151904714Y-87523905D01*
X151980904Y-87523905D01*
X152133285Y-86990571D02*
X152438047Y-86990571D01*
X152247571Y-86723905D02*
X152247571Y-87409619D01*
X152285666Y-87485810D01*
X152361857Y-87523905D01*
X152438047Y-87523905D01*
X152819000Y-87523905D02*
X152742809Y-87485810D01*
X152704714Y-87447714D01*
X152666619Y-87371524D01*
X152666619Y-87142952D01*
X152704714Y-87066762D01*
X152742809Y-87028667D01*
X152819000Y-86990571D01*
X152933286Y-86990571D01*
X153009476Y-87028667D01*
X153047571Y-87066762D01*
X153085667Y-87142952D01*
X153085667Y-87371524D01*
X153047571Y-87447714D01*
X153009476Y-87485810D01*
X152933286Y-87523905D01*
X152819000Y-87523905D01*
X153428524Y-86990571D02*
X153428524Y-87523905D01*
X153428524Y-87066762D02*
X153466619Y-87028667D01*
X153542810Y-86990571D01*
X153657096Y-86990571D01*
X153733286Y-87028667D01*
X153771381Y-87104857D01*
X153771381Y-87523905D01*
X157867333Y-119951428D02*
X157867333Y-119570476D01*
X158095905Y-120027619D02*
X157295905Y-119760952D01*
X158095905Y-119494285D01*
X157295905Y-119075238D02*
X157295905Y-118999047D01*
X157334000Y-118922857D01*
X157372095Y-118884762D01*
X157448286Y-118846666D01*
X157600667Y-118808571D01*
X157791143Y-118808571D01*
X157943524Y-118846666D01*
X158019714Y-118884762D01*
X158057810Y-118922857D01*
X158095905Y-118999047D01*
X158095905Y-119075238D01*
X158057810Y-119151428D01*
X158019714Y-119189524D01*
X157943524Y-119227619D01*
X157791143Y-119265714D01*
X157600667Y-119265714D01*
X157448286Y-119227619D01*
X157372095Y-119189524D01*
X157334000Y-119151428D01*
X157295905Y-119075238D01*
X157867333Y-117411428D02*
X157867333Y-117030476D01*
X158095905Y-117487619D02*
X157295905Y-117220952D01*
X158095905Y-116954285D01*
X158095905Y-116268571D02*
X158095905Y-116725714D01*
X158095905Y-116497143D02*
X157295905Y-116497143D01*
X157410190Y-116573333D01*
X157486381Y-116649524D01*
X157524476Y-116725714D01*
X139503143Y-119056191D02*
X139465048Y-119170477D01*
X139426952Y-119208572D01*
X139350762Y-119246667D01*
X139236476Y-119246667D01*
X139160286Y-119208572D01*
X139122190Y-119170477D01*
X139084095Y-119094286D01*
X139084095Y-118789524D01*
X139884095Y-118789524D01*
X139884095Y-119056191D01*
X139846000Y-119132381D01*
X139807905Y-119170477D01*
X139731714Y-119208572D01*
X139655524Y-119208572D01*
X139579333Y-119170477D01*
X139541238Y-119132381D01*
X139503143Y-119056191D01*
X139503143Y-118789524D01*
X139541238Y-119703810D02*
X139579333Y-119627619D01*
X139617429Y-119589524D01*
X139693619Y-119551429D01*
X139731714Y-119551429D01*
X139807905Y-119589524D01*
X139846000Y-119627619D01*
X139884095Y-119703810D01*
X139884095Y-119856191D01*
X139846000Y-119932381D01*
X139807905Y-119970477D01*
X139731714Y-120008572D01*
X139693619Y-120008572D01*
X139617429Y-119970477D01*
X139579333Y-119932381D01*
X139541238Y-119856191D01*
X139541238Y-119703810D01*
X139503143Y-119627619D01*
X139465048Y-119589524D01*
X139388857Y-119551429D01*
X139236476Y-119551429D01*
X139160286Y-119589524D01*
X139122190Y-119627619D01*
X139084095Y-119703810D01*
X139084095Y-119856191D01*
X139122190Y-119932381D01*
X139160286Y-119970477D01*
X139236476Y-120008572D01*
X139388857Y-120008572D01*
X139465048Y-119970477D01*
X139503143Y-119932381D01*
X139541238Y-119856191D01*
D10*
X147603981Y-88265000D02*
G75*
G03X147603981Y-88265000I-283981J0D01*
G01*
D11*
X149231429Y-96335857D02*
X149345715Y-96373952D01*
X149383810Y-96412048D01*
X149421905Y-96488238D01*
X149421905Y-96602524D01*
X149383810Y-96678714D01*
X149345715Y-96716810D01*
X149269524Y-96754905D01*
X148964762Y-96754905D01*
X148964762Y-95954905D01*
X149231429Y-95954905D01*
X149307619Y-95993000D01*
X149345715Y-96031095D01*
X149383810Y-96107286D01*
X149383810Y-96183476D01*
X149345715Y-96259667D01*
X149307619Y-96297762D01*
X149231429Y-96335857D01*
X148964762Y-96335857D01*
X149650476Y-95954905D02*
X150107619Y-95954905D01*
X149879048Y-96754905D02*
X149879048Y-95954905D01*
X150793334Y-96754905D02*
X150336191Y-96754905D01*
X150564762Y-96754905D02*
X150564762Y-95954905D01*
X150488572Y-96069190D01*
X150412381Y-96145381D01*
X150336191Y-96183476D01*
X151771429Y-96335857D02*
X151885715Y-96373952D01*
X151923810Y-96412048D01*
X151961905Y-96488238D01*
X151961905Y-96602524D01*
X151923810Y-96678714D01*
X151885715Y-96716810D01*
X151809524Y-96754905D01*
X151504762Y-96754905D01*
X151504762Y-95954905D01*
X151771429Y-95954905D01*
X151847619Y-95993000D01*
X151885715Y-96031095D01*
X151923810Y-96107286D01*
X151923810Y-96183476D01*
X151885715Y-96259667D01*
X151847619Y-96297762D01*
X151771429Y-96335857D01*
X151504762Y-96335857D01*
X152190476Y-95954905D02*
X152647619Y-95954905D01*
X152419048Y-96754905D02*
X152419048Y-95954905D01*
X153066667Y-95954905D02*
X153142858Y-95954905D01*
X153219048Y-95993000D01*
X153257143Y-96031095D01*
X153295239Y-96107286D01*
X153333334Y-96259667D01*
X153333334Y-96450143D01*
X153295239Y-96602524D01*
X153257143Y-96678714D01*
X153219048Y-96716810D01*
X153142858Y-96754905D01*
X153066667Y-96754905D01*
X152990477Y-96716810D01*
X152952381Y-96678714D01*
X152914286Y-96602524D01*
X152876191Y-96450143D01*
X152876191Y-96259667D01*
X152914286Y-96107286D01*
X152952381Y-96031095D01*
X152990477Y-95993000D01*
X153066667Y-95954905D01*
D10*
X153289000Y-90551000D02*
G75*
G03X151511000Y-90551000I-889000J-889000D01*
G01*
X151511000Y-94869000D02*
G75*
G03X153289000Y-94869000I889000J889000D01*
G01*
X151130000Y-91440000D02*
X151130000Y-93980000D01*
X148590000Y-93980000D02*
X148590000Y-91440000D01*
X151130000Y-93980000D02*
G75*
G03X152400000Y-95250000I1270000J0D01*
G01*
X152400000Y-90170000D02*
G75*
G03X151130000Y-91440000I0J-1270000D01*
G01*
X151130000Y-91440000D02*
G75*
G03X149860000Y-90170000I-1270000J0D01*
G01*
X149860000Y-95250000D02*
G75*
G03X151130000Y-93980000I0J1270000D01*
G01*
X148590000Y-93980000D02*
G75*
G03X149860000Y-95250000I1270000J0D01*
G01*
X149860000Y-90170000D02*
G75*
G03X148590000Y-91440000I0J-1270000D01*
G01*
D11*
X146913620Y-81984905D02*
X146532667Y-81984905D01*
X146494572Y-82365857D01*
X146532667Y-82327762D01*
X146608858Y-82289667D01*
X146799334Y-82289667D01*
X146875524Y-82327762D01*
X146913620Y-82365857D01*
X146951715Y-82442048D01*
X146951715Y-82632524D01*
X146913620Y-82708714D01*
X146875524Y-82746810D01*
X146799334Y-82784905D01*
X146608858Y-82784905D01*
X146532667Y-82746810D01*
X146494572Y-82708714D01*
X147180286Y-81984905D02*
X147446953Y-82784905D01*
X147713620Y-81984905D01*
X143897429Y-82365857D02*
X144011715Y-82403952D01*
X144049810Y-82442048D01*
X144087905Y-82518238D01*
X144087905Y-82632524D01*
X144049810Y-82708714D01*
X144011715Y-82746810D01*
X143935524Y-82784905D01*
X143630762Y-82784905D01*
X143630762Y-81984905D01*
X143897429Y-81984905D01*
X143973619Y-82023000D01*
X144011715Y-82061095D01*
X144049810Y-82137286D01*
X144049810Y-82213476D01*
X144011715Y-82289667D01*
X143973619Y-82327762D01*
X143897429Y-82365857D01*
X143630762Y-82365857D01*
X144316476Y-81984905D02*
X144773619Y-81984905D01*
X144545048Y-82784905D02*
X144545048Y-81984905D01*
X145192667Y-81984905D02*
X145268858Y-81984905D01*
X145345048Y-82023000D01*
X145383143Y-82061095D01*
X145421239Y-82137286D01*
X145459334Y-82289667D01*
X145459334Y-82480143D01*
X145421239Y-82632524D01*
X145383143Y-82708714D01*
X145345048Y-82746810D01*
X145268858Y-82784905D01*
X145192667Y-82784905D01*
X145116477Y-82746810D01*
X145078381Y-82708714D01*
X145040286Y-82632524D01*
X145002191Y-82480143D01*
X145002191Y-82289667D01*
X145040286Y-82137286D01*
X145078381Y-82061095D01*
X145116477Y-82023000D01*
X145192667Y-81984905D01*
X154247905Y-82784905D02*
X153981238Y-82403952D01*
X153790762Y-82784905D02*
X153790762Y-81984905D01*
X154095524Y-81984905D01*
X154171715Y-82023000D01*
X154209810Y-82061095D01*
X154247905Y-82137286D01*
X154247905Y-82251571D01*
X154209810Y-82327762D01*
X154171715Y-82365857D01*
X154095524Y-82403952D01*
X153790762Y-82403952D01*
X154552667Y-82746810D02*
X154666953Y-82784905D01*
X154857429Y-82784905D01*
X154933619Y-82746810D01*
X154971715Y-82708714D01*
X155009810Y-82632524D01*
X155009810Y-82556333D01*
X154971715Y-82480143D01*
X154933619Y-82442048D01*
X154857429Y-82403952D01*
X154705048Y-82365857D01*
X154628857Y-82327762D01*
X154590762Y-82289667D01*
X154552667Y-82213476D01*
X154552667Y-82137286D01*
X154590762Y-82061095D01*
X154628857Y-82023000D01*
X154705048Y-81984905D01*
X154895524Y-81984905D01*
X155009810Y-82023000D01*
X155238381Y-81984905D02*
X155695524Y-81984905D01*
X155466953Y-82784905D02*
X155466953Y-81984905D01*
X141344714Y-82023000D02*
X141268523Y-81984905D01*
X141154238Y-81984905D01*
X141039952Y-82023000D01*
X140963761Y-82099190D01*
X140925666Y-82175381D01*
X140887571Y-82327762D01*
X140887571Y-82442048D01*
X140925666Y-82594429D01*
X140963761Y-82670619D01*
X141039952Y-82746810D01*
X141154238Y-82784905D01*
X141230428Y-82784905D01*
X141344714Y-82746810D01*
X141382809Y-82708714D01*
X141382809Y-82442048D01*
X141230428Y-82442048D01*
X141725666Y-82251571D02*
X141725666Y-82784905D01*
X141725666Y-82327762D02*
X141763761Y-82289667D01*
X141839952Y-82251571D01*
X141954238Y-82251571D01*
X142030428Y-82289667D01*
X142068523Y-82365857D01*
X142068523Y-82784905D01*
X142792333Y-82784905D02*
X142792333Y-81984905D01*
X142792333Y-82746810D02*
X142716143Y-82784905D01*
X142563762Y-82784905D01*
X142487571Y-82746810D01*
X142449476Y-82708714D01*
X142411381Y-82632524D01*
X142411381Y-82403952D01*
X142449476Y-82327762D01*
X142487571Y-82289667D01*
X142563762Y-82251571D01*
X142716143Y-82251571D01*
X142792333Y-82289667D01*
X151841238Y-82505524D02*
X151841238Y-82543619D01*
X151879333Y-82429333D02*
X151879333Y-82543619D01*
X151917428Y-82353143D02*
X151917428Y-82543619D01*
X151955524Y-82276952D02*
X151955524Y-82543619D01*
X151993619Y-82238857D02*
X151993619Y-82543619D01*
X152031714Y-82162667D02*
X152031714Y-82543619D01*
X152069809Y-82086476D02*
X152069809Y-82543619D01*
X152107905Y-82010286D02*
X152107905Y-82543619D01*
X152146000Y-81934095D02*
X152146000Y-82543619D01*
X152184095Y-82010286D02*
X152184095Y-82543619D01*
X152222190Y-82086476D02*
X152222190Y-82543619D01*
X152260286Y-82162667D02*
X152260286Y-82543619D01*
X152298381Y-82238857D02*
X152298381Y-82543619D01*
X152336476Y-82276952D02*
X152336476Y-82543619D01*
X152374571Y-82353143D02*
X152374571Y-82543619D01*
X152412667Y-82429333D02*
X152412667Y-82543619D01*
X152450762Y-82543619D02*
X152146000Y-81972190D01*
X151841238Y-82543619D01*
X152450762Y-82505524D02*
X152450762Y-82543619D01*
X152146000Y-81934095D02*
X152488857Y-82543619D01*
X151803143Y-82543619D01*
X152146000Y-81934095D01*
X149910762Y-81972190D02*
X149910762Y-81934095D01*
X149872667Y-82048381D02*
X149872667Y-81934095D01*
X149834571Y-82124571D02*
X149834571Y-81934095D01*
X149796476Y-82200762D02*
X149796476Y-81934095D01*
X149758381Y-82238857D02*
X149758381Y-81934095D01*
X149720286Y-82315048D02*
X149720286Y-81934095D01*
X149682190Y-82391238D02*
X149682190Y-81934095D01*
X149644095Y-82467429D02*
X149644095Y-81934095D01*
X149606000Y-82543619D02*
X149606000Y-81934095D01*
X149567905Y-82467429D02*
X149567905Y-81934095D01*
X149529809Y-82391238D02*
X149529809Y-81934095D01*
X149491714Y-82315048D02*
X149491714Y-81934095D01*
X149453619Y-82238857D02*
X149453619Y-81934095D01*
X149415524Y-82200762D02*
X149415524Y-81934095D01*
X149377428Y-82124571D02*
X149377428Y-81934095D01*
X149339333Y-82048381D02*
X149339333Y-81934095D01*
X149301238Y-81934095D02*
X149606000Y-82505524D01*
X149910762Y-81934095D01*
X149301238Y-81972190D02*
X149301238Y-81934095D01*
X149606000Y-82543619D02*
X149263143Y-81934095D01*
X149948857Y-81934095D01*
X149606000Y-82543619D01*
X139312667Y-90868572D02*
X139312667Y-91249524D01*
X139084095Y-90792381D02*
X139884095Y-91059048D01*
X139084095Y-91325715D01*
X139541238Y-91706667D02*
X139579333Y-91630476D01*
X139617429Y-91592381D01*
X139693619Y-91554286D01*
X139731714Y-91554286D01*
X139807905Y-91592381D01*
X139846000Y-91630476D01*
X139884095Y-91706667D01*
X139884095Y-91859048D01*
X139846000Y-91935238D01*
X139807905Y-91973334D01*
X139731714Y-92011429D01*
X139693619Y-92011429D01*
X139617429Y-91973334D01*
X139579333Y-91935238D01*
X139541238Y-91859048D01*
X139541238Y-91706667D01*
X139503143Y-91630476D01*
X139465048Y-91592381D01*
X139388857Y-91554286D01*
X139236476Y-91554286D01*
X139160286Y-91592381D01*
X139122190Y-91630476D01*
X139084095Y-91706667D01*
X139084095Y-91859048D01*
X139122190Y-91935238D01*
X139160286Y-91973334D01*
X139236476Y-92011429D01*
X139388857Y-92011429D01*
X139465048Y-91973334D01*
X139503143Y-91935238D01*
X139541238Y-91859048D01*
X157867333Y-114871428D02*
X157867333Y-114490476D01*
X158095905Y-114947619D02*
X157295905Y-114680952D01*
X158095905Y-114414285D01*
X157372095Y-114185714D02*
X157334000Y-114147619D01*
X157295905Y-114071428D01*
X157295905Y-113880952D01*
X157334000Y-113804762D01*
X157372095Y-113766666D01*
X157448286Y-113728571D01*
X157524476Y-113728571D01*
X157638762Y-113766666D01*
X158095905Y-114223809D01*
X158095905Y-113728571D01*
X157676857Y-92144762D02*
X157714952Y-92030476D01*
X157753048Y-91992381D01*
X157829238Y-91954286D01*
X157943524Y-91954286D01*
X158019714Y-91992381D01*
X158057810Y-92030476D01*
X158095905Y-92106667D01*
X158095905Y-92411429D01*
X157295905Y-92411429D01*
X157295905Y-92144762D01*
X157334000Y-92068572D01*
X157372095Y-92030476D01*
X157448286Y-91992381D01*
X157524476Y-91992381D01*
X157600667Y-92030476D01*
X157638762Y-92068572D01*
X157676857Y-92144762D01*
X157676857Y-92411429D01*
X158095905Y-91192381D02*
X158095905Y-91649524D01*
X158095905Y-91420953D02*
X157295905Y-91420953D01*
X157410190Y-91497143D01*
X157486381Y-91573334D01*
X157524476Y-91649524D01*
X158095905Y-90430476D02*
X158095905Y-90887619D01*
X158095905Y-90659048D02*
X157295905Y-90659048D01*
X157410190Y-90735238D01*
X157486381Y-90811429D01*
X157524476Y-90887619D01*
X157676857Y-94684762D02*
X157714952Y-94570476D01*
X157753048Y-94532381D01*
X157829238Y-94494286D01*
X157943524Y-94494286D01*
X158019714Y-94532381D01*
X158057810Y-94570476D01*
X158095905Y-94646667D01*
X158095905Y-94951429D01*
X157295905Y-94951429D01*
X157295905Y-94684762D01*
X157334000Y-94608572D01*
X157372095Y-94570476D01*
X157448286Y-94532381D01*
X157524476Y-94532381D01*
X157600667Y-94570476D01*
X157638762Y-94608572D01*
X157676857Y-94684762D01*
X157676857Y-94951429D01*
X158095905Y-93732381D02*
X158095905Y-94189524D01*
X158095905Y-93960953D02*
X157295905Y-93960953D01*
X157410190Y-94037143D01*
X157486381Y-94113334D01*
X157524476Y-94189524D01*
X157295905Y-93237143D02*
X157295905Y-93160952D01*
X157334000Y-93084762D01*
X157372095Y-93046667D01*
X157448286Y-93008571D01*
X157600667Y-92970476D01*
X157791143Y-92970476D01*
X157943524Y-93008571D01*
X158019714Y-93046667D01*
X158057810Y-93084762D01*
X158095905Y-93160952D01*
X158095905Y-93237143D01*
X158057810Y-93313333D01*
X158019714Y-93351429D01*
X157943524Y-93389524D01*
X157791143Y-93427619D01*
X157600667Y-93427619D01*
X157448286Y-93389524D01*
X157372095Y-93351429D01*
X157334000Y-93313333D01*
X157295905Y-93237143D01*
X139503143Y-88195238D02*
X139465048Y-88309524D01*
X139426952Y-88347619D01*
X139350762Y-88385714D01*
X139236476Y-88385714D01*
X139160286Y-88347619D01*
X139122190Y-88309524D01*
X139084095Y-88233333D01*
X139084095Y-87928571D01*
X139884095Y-87928571D01*
X139884095Y-88195238D01*
X139846000Y-88271428D01*
X139807905Y-88309524D01*
X139731714Y-88347619D01*
X139655524Y-88347619D01*
X139579333Y-88309524D01*
X139541238Y-88271428D01*
X139503143Y-88195238D01*
X139503143Y-87928571D01*
X139084095Y-89147619D02*
X139084095Y-88690476D01*
X139084095Y-88919047D02*
X139884095Y-88919047D01*
X139769810Y-88842857D01*
X139693619Y-88766666D01*
X139655524Y-88690476D01*
X139884095Y-89871429D02*
X139884095Y-89490476D01*
X139503143Y-89452381D01*
X139541238Y-89490476D01*
X139579333Y-89566667D01*
X139579333Y-89757143D01*
X139541238Y-89833333D01*
X139503143Y-89871429D01*
X139426952Y-89909524D01*
X139236476Y-89909524D01*
X139160286Y-89871429D01*
X139122190Y-89833333D01*
X139084095Y-89757143D01*
X139084095Y-89566667D01*
X139122190Y-89490476D01*
X139160286Y-89452381D01*
X139846000Y-127209524D02*
X139884095Y-127133333D01*
X139884095Y-127019048D01*
X139846000Y-126904762D01*
X139769810Y-126828571D01*
X139693619Y-126790476D01*
X139541238Y-126752381D01*
X139426952Y-126752381D01*
X139274571Y-126790476D01*
X139198381Y-126828571D01*
X139122190Y-126904762D01*
X139084095Y-127019048D01*
X139084095Y-127095238D01*
X139122190Y-127209524D01*
X139160286Y-127247619D01*
X139426952Y-127247619D01*
X139426952Y-127095238D01*
X157867333Y-112331428D02*
X157867333Y-111950476D01*
X158095905Y-112407619D02*
X157295905Y-112140952D01*
X158095905Y-111874285D01*
X157295905Y-111683809D02*
X157295905Y-111188571D01*
X157600667Y-111455238D01*
X157600667Y-111340952D01*
X157638762Y-111264762D01*
X157676857Y-111226666D01*
X157753048Y-111188571D01*
X157943524Y-111188571D01*
X158019714Y-111226666D01*
X158057810Y-111264762D01*
X158095905Y-111340952D01*
X158095905Y-111569524D01*
X158057810Y-111645714D01*
X158019714Y-111683809D01*
X157676857Y-96843809D02*
X157714952Y-96729523D01*
X157753048Y-96691428D01*
X157829238Y-96653333D01*
X157943524Y-96653333D01*
X158019714Y-96691428D01*
X158057810Y-96729523D01*
X158095905Y-96805714D01*
X158095905Y-97110476D01*
X157295905Y-97110476D01*
X157295905Y-96843809D01*
X157334000Y-96767619D01*
X157372095Y-96729523D01*
X157448286Y-96691428D01*
X157524476Y-96691428D01*
X157600667Y-96729523D01*
X157638762Y-96767619D01*
X157676857Y-96843809D01*
X157676857Y-97110476D01*
X158095905Y-95891428D02*
X158095905Y-96348571D01*
X158095905Y-96120000D02*
X157295905Y-96120000D01*
X157410190Y-96196190D01*
X157486381Y-96272381D01*
X157524476Y-96348571D01*
X157676857Y-99383809D02*
X157714952Y-99269523D01*
X157753048Y-99231428D01*
X157829238Y-99193333D01*
X157943524Y-99193333D01*
X158019714Y-99231428D01*
X158057810Y-99269523D01*
X158095905Y-99345714D01*
X158095905Y-99650476D01*
X157295905Y-99650476D01*
X157295905Y-99383809D01*
X157334000Y-99307619D01*
X157372095Y-99269523D01*
X157448286Y-99231428D01*
X157524476Y-99231428D01*
X157600667Y-99269523D01*
X157638762Y-99307619D01*
X157676857Y-99383809D01*
X157676857Y-99650476D01*
X157295905Y-98698095D02*
X157295905Y-98621904D01*
X157334000Y-98545714D01*
X157372095Y-98507619D01*
X157448286Y-98469523D01*
X157600667Y-98431428D01*
X157791143Y-98431428D01*
X157943524Y-98469523D01*
X158019714Y-98507619D01*
X158057810Y-98545714D01*
X158095905Y-98621904D01*
X158095905Y-98698095D01*
X158057810Y-98774285D01*
X158019714Y-98812381D01*
X157943524Y-98850476D01*
X157791143Y-98888571D01*
X157600667Y-98888571D01*
X157448286Y-98850476D01*
X157372095Y-98812381D01*
X157334000Y-98774285D01*
X157295905Y-98698095D01*
X142868667Y-120243715D02*
X142868667Y-120624667D01*
X142640095Y-120167524D02*
X143440095Y-120434191D01*
X142640095Y-120700858D01*
X142640095Y-120967524D02*
X143440095Y-120967524D01*
X142640095Y-121424667D01*
X143440095Y-121424667D01*
X143440095Y-121691333D02*
X143440095Y-122148476D01*
X142640095Y-121919905D02*
X143440095Y-121919905D01*
X157867333Y-109791428D02*
X157867333Y-109410476D01*
X158095905Y-109867619D02*
X157295905Y-109600952D01*
X158095905Y-109334285D01*
X157562571Y-108724762D02*
X158095905Y-108724762D01*
X157257810Y-108915238D02*
X157829238Y-109105714D01*
X157829238Y-108610476D01*
X157867333Y-107251428D02*
X157867333Y-106870476D01*
X158095905Y-107327619D02*
X157295905Y-107060952D01*
X158095905Y-106794285D01*
X157295905Y-106146666D02*
X157295905Y-106527619D01*
X157676857Y-106565714D01*
X157638762Y-106527619D01*
X157600667Y-106451428D01*
X157600667Y-106260952D01*
X157638762Y-106184762D01*
X157676857Y-106146666D01*
X157753048Y-106108571D01*
X157943524Y-106108571D01*
X158019714Y-106146666D01*
X158057810Y-106184762D01*
X158095905Y-106260952D01*
X158095905Y-106451428D01*
X158057810Y-106527619D01*
X158019714Y-106565714D01*
X157867333Y-104711428D02*
X157867333Y-104330476D01*
X158095905Y-104787619D02*
X157295905Y-104520952D01*
X158095905Y-104254285D01*
X157295905Y-103644762D02*
X157295905Y-103797143D01*
X157334000Y-103873333D01*
X157372095Y-103911428D01*
X157486381Y-103987619D01*
X157638762Y-104025714D01*
X157943524Y-104025714D01*
X158019714Y-103987619D01*
X158057810Y-103949524D01*
X158095905Y-103873333D01*
X158095905Y-103720952D01*
X158057810Y-103644762D01*
X158019714Y-103606666D01*
X157943524Y-103568571D01*
X157753048Y-103568571D01*
X157676857Y-103606666D01*
X157638762Y-103644762D01*
X157600667Y-103720952D01*
X157600667Y-103873333D01*
X157638762Y-103949524D01*
X157676857Y-103987619D01*
X157753048Y-104025714D01*
X157867333Y-102171428D02*
X157867333Y-101790476D01*
X158095905Y-102247619D02*
X157295905Y-101980952D01*
X158095905Y-101714285D01*
X157295905Y-101523809D02*
X157295905Y-100990476D01*
X158095905Y-101333333D01*
X158095905Y-89338095D02*
X157714952Y-89604762D01*
X158095905Y-89795238D02*
X157295905Y-89795238D01*
X157295905Y-89490476D01*
X157334000Y-89414285D01*
X157372095Y-89376190D01*
X157448286Y-89338095D01*
X157562571Y-89338095D01*
X157638762Y-89376190D01*
X157676857Y-89414285D01*
X157714952Y-89490476D01*
X157714952Y-89795238D01*
X158057810Y-89033333D02*
X158095905Y-88919047D01*
X158095905Y-88728571D01*
X158057810Y-88652381D01*
X158019714Y-88614285D01*
X157943524Y-88576190D01*
X157867333Y-88576190D01*
X157791143Y-88614285D01*
X157753048Y-88652381D01*
X157714952Y-88728571D01*
X157676857Y-88880952D01*
X157638762Y-88957143D01*
X157600667Y-88995238D01*
X157524476Y-89033333D01*
X157448286Y-89033333D01*
X157372095Y-88995238D01*
X157334000Y-88957143D01*
X157295905Y-88880952D01*
X157295905Y-88690476D01*
X157334000Y-88576190D01*
X157295905Y-88347619D02*
X157295905Y-87890476D01*
X158095905Y-88119047D02*
X157295905Y-88119047D01*
X157295905Y-87350476D02*
X157295905Y-86855238D01*
X157600667Y-87121905D01*
X157600667Y-87007619D01*
X157638762Y-86931429D01*
X157676857Y-86893333D01*
X157753048Y-86855238D01*
X157943524Y-86855238D01*
X158019714Y-86893333D01*
X158057810Y-86931429D01*
X158095905Y-87007619D01*
X158095905Y-87236191D01*
X158057810Y-87312381D01*
X158019714Y-87350476D01*
X157295905Y-86626667D02*
X158095905Y-86360000D01*
X157295905Y-86093333D01*
X157295905Y-85902857D02*
X157295905Y-85407619D01*
X157600667Y-85674286D01*
X157600667Y-85560000D01*
X157638762Y-85483810D01*
X157676857Y-85445714D01*
X157753048Y-85407619D01*
X157943524Y-85407619D01*
X158019714Y-85445714D01*
X158057810Y-85483810D01*
X158095905Y-85560000D01*
X158095905Y-85788572D01*
X158057810Y-85864762D01*
X158019714Y-85902857D01*
X157334000Y-83610476D02*
X157295905Y-83686667D01*
X157295905Y-83800952D01*
X157334000Y-83915238D01*
X157410190Y-83991429D01*
X157486381Y-84029524D01*
X157638762Y-84067619D01*
X157753048Y-84067619D01*
X157905429Y-84029524D01*
X157981619Y-83991429D01*
X158057810Y-83915238D01*
X158095905Y-83800952D01*
X158095905Y-83724762D01*
X158057810Y-83610476D01*
X158019714Y-83572381D01*
X157753048Y-83572381D01*
X157753048Y-83724762D01*
X139503143Y-83115238D02*
X139465048Y-83229524D01*
X139426952Y-83267619D01*
X139350762Y-83305714D01*
X139236476Y-83305714D01*
X139160286Y-83267619D01*
X139122190Y-83229524D01*
X139084095Y-83153333D01*
X139084095Y-82848571D01*
X139884095Y-82848571D01*
X139884095Y-83115238D01*
X139846000Y-83191428D01*
X139807905Y-83229524D01*
X139731714Y-83267619D01*
X139655524Y-83267619D01*
X139579333Y-83229524D01*
X139541238Y-83191428D01*
X139503143Y-83115238D01*
X139503143Y-82848571D01*
X139084095Y-84067619D02*
X139084095Y-83610476D01*
X139084095Y-83839047D02*
X139884095Y-83839047D01*
X139769810Y-83762857D01*
X139693619Y-83686666D01*
X139655524Y-83610476D01*
X139884095Y-84334286D02*
X139884095Y-84829524D01*
X139579333Y-84562857D01*
X139579333Y-84677143D01*
X139541238Y-84753333D01*
X139503143Y-84791429D01*
X139426952Y-84829524D01*
X139236476Y-84829524D01*
X139160286Y-84791429D01*
X139122190Y-84753333D01*
X139084095Y-84677143D01*
X139084095Y-84448571D01*
X139122190Y-84372381D01*
X139160286Y-84334286D01*
X139503143Y-85655238D02*
X139465048Y-85769524D01*
X139426952Y-85807619D01*
X139350762Y-85845714D01*
X139236476Y-85845714D01*
X139160286Y-85807619D01*
X139122190Y-85769524D01*
X139084095Y-85693333D01*
X139084095Y-85388571D01*
X139884095Y-85388571D01*
X139884095Y-85655238D01*
X139846000Y-85731428D01*
X139807905Y-85769524D01*
X139731714Y-85807619D01*
X139655524Y-85807619D01*
X139579333Y-85769524D01*
X139541238Y-85731428D01*
X139503143Y-85655238D01*
X139503143Y-85388571D01*
X139084095Y-86607619D02*
X139084095Y-86150476D01*
X139084095Y-86379047D02*
X139884095Y-86379047D01*
X139769810Y-86302857D01*
X139693619Y-86226666D01*
X139655524Y-86150476D01*
X139617429Y-87293333D02*
X139084095Y-87293333D01*
X139922190Y-87102857D02*
X139350762Y-86912381D01*
X139350762Y-87407619D01*
X139312667Y-93408572D02*
X139312667Y-93789524D01*
X139084095Y-93332381D02*
X139884095Y-93599048D01*
X139084095Y-93865715D01*
X139084095Y-94170476D02*
X139084095Y-94322857D01*
X139122190Y-94399048D01*
X139160286Y-94437143D01*
X139274571Y-94513334D01*
X139426952Y-94551429D01*
X139731714Y-94551429D01*
X139807905Y-94513334D01*
X139846000Y-94475238D01*
X139884095Y-94399048D01*
X139884095Y-94246667D01*
X139846000Y-94170476D01*
X139807905Y-94132381D01*
X139731714Y-94094286D01*
X139541238Y-94094286D01*
X139465048Y-94132381D01*
X139426952Y-94170476D01*
X139388857Y-94246667D01*
X139388857Y-94399048D01*
X139426952Y-94475238D01*
X139465048Y-94513334D01*
X139541238Y-94551429D01*
X139312667Y-95567619D02*
X139312667Y-95948571D01*
X139084095Y-95491428D02*
X139884095Y-95758095D01*
X139084095Y-96024762D01*
X139084095Y-96710476D02*
X139084095Y-96253333D01*
X139084095Y-96481904D02*
X139884095Y-96481904D01*
X139769810Y-96405714D01*
X139693619Y-96329523D01*
X139655524Y-96253333D01*
X139884095Y-97205714D02*
X139884095Y-97281905D01*
X139846000Y-97358095D01*
X139807905Y-97396190D01*
X139731714Y-97434286D01*
X139579333Y-97472381D01*
X139388857Y-97472381D01*
X139236476Y-97434286D01*
X139160286Y-97396190D01*
X139122190Y-97358095D01*
X139084095Y-97281905D01*
X139084095Y-97205714D01*
X139122190Y-97129524D01*
X139160286Y-97091428D01*
X139236476Y-97053333D01*
X139388857Y-97015238D01*
X139579333Y-97015238D01*
X139731714Y-97053333D01*
X139807905Y-97091428D01*
X139846000Y-97129524D01*
X139884095Y-97205714D01*
X139884095Y-124307620D02*
X139884095Y-123926667D01*
X139503143Y-123888572D01*
X139541238Y-123926667D01*
X139579333Y-124002858D01*
X139579333Y-124193334D01*
X139541238Y-124269524D01*
X139503143Y-124307620D01*
X139426952Y-124345715D01*
X139236476Y-124345715D01*
X139160286Y-124307620D01*
X139122190Y-124269524D01*
X139084095Y-124193334D01*
X139084095Y-124002858D01*
X139122190Y-123926667D01*
X139160286Y-123888572D01*
X139884095Y-124574286D02*
X139084095Y-124840953D01*
X139884095Y-125107620D01*
X139503143Y-121596191D02*
X139465048Y-121710477D01*
X139426952Y-121748572D01*
X139350762Y-121786667D01*
X139236476Y-121786667D01*
X139160286Y-121748572D01*
X139122190Y-121710477D01*
X139084095Y-121634286D01*
X139084095Y-121329524D01*
X139884095Y-121329524D01*
X139884095Y-121596191D01*
X139846000Y-121672381D01*
X139807905Y-121710477D01*
X139731714Y-121748572D01*
X139655524Y-121748572D01*
X139579333Y-121710477D01*
X139541238Y-121672381D01*
X139503143Y-121596191D01*
X139503143Y-121329524D01*
X139084095Y-122167619D02*
X139084095Y-122320000D01*
X139122190Y-122396191D01*
X139160286Y-122434286D01*
X139274571Y-122510477D01*
X139426952Y-122548572D01*
X139731714Y-122548572D01*
X139807905Y-122510477D01*
X139846000Y-122472381D01*
X139884095Y-122396191D01*
X139884095Y-122243810D01*
X139846000Y-122167619D01*
X139807905Y-122129524D01*
X139731714Y-122091429D01*
X139541238Y-122091429D01*
X139465048Y-122129524D01*
X139426952Y-122167619D01*
X139388857Y-122243810D01*
X139388857Y-122396191D01*
X139426952Y-122472381D01*
X139465048Y-122510477D01*
X139541238Y-122548572D01*
X149110619Y-118558905D02*
X148843952Y-118177952D01*
X148653476Y-118558905D02*
X148653476Y-117758905D01*
X148958238Y-117758905D01*
X149034429Y-117797000D01*
X149072524Y-117835095D01*
X149110619Y-117911286D01*
X149110619Y-118025571D01*
X149072524Y-118101762D01*
X149034429Y-118139857D01*
X148958238Y-118177952D01*
X148653476Y-118177952D01*
X149758238Y-118520810D02*
X149682048Y-118558905D01*
X149529667Y-118558905D01*
X149453476Y-118520810D01*
X149415381Y-118444619D01*
X149415381Y-118139857D01*
X149453476Y-118063667D01*
X149529667Y-118025571D01*
X149682048Y-118025571D01*
X149758238Y-118063667D01*
X149796333Y-118139857D01*
X149796333Y-118216048D01*
X149415381Y-118292238D01*
X150063000Y-118025571D02*
X150253476Y-118558905D01*
X150443952Y-118025571D01*
X151320143Y-117835095D02*
X151358238Y-117797000D01*
X151434429Y-117758905D01*
X151624905Y-117758905D01*
X151701095Y-117797000D01*
X151739191Y-117835095D01*
X151777286Y-117911286D01*
X151777286Y-117987476D01*
X151739191Y-118101762D01*
X151282048Y-118558905D01*
X151777286Y-118558905D01*
X148615381Y-119185095D02*
X148653476Y-119147000D01*
X148729667Y-119108905D01*
X148920143Y-119108905D01*
X148996333Y-119147000D01*
X149034429Y-119185095D01*
X149072524Y-119261286D01*
X149072524Y-119337476D01*
X149034429Y-119451762D01*
X148577286Y-119908905D01*
X149072524Y-119908905D01*
X149567762Y-119108905D02*
X149643953Y-119108905D01*
X149720143Y-119147000D01*
X149758238Y-119185095D01*
X149796334Y-119261286D01*
X149834429Y-119413667D01*
X149834429Y-119604143D01*
X149796334Y-119756524D01*
X149758238Y-119832714D01*
X149720143Y-119870810D01*
X149643953Y-119908905D01*
X149567762Y-119908905D01*
X149491572Y-119870810D01*
X149453476Y-119832714D01*
X149415381Y-119756524D01*
X149377286Y-119604143D01*
X149377286Y-119413667D01*
X149415381Y-119261286D01*
X149453476Y-119185095D01*
X149491572Y-119147000D01*
X149567762Y-119108905D01*
X150596334Y-119908905D02*
X150139191Y-119908905D01*
X150367762Y-119908905D02*
X150367762Y-119108905D01*
X150291572Y-119223190D01*
X150215381Y-119299381D01*
X150139191Y-119337476D01*
X150863001Y-119108905D02*
X151396334Y-119108905D01*
X151053477Y-119908905D01*
X152272525Y-119070810D02*
X151586810Y-120099381D01*
X152691572Y-119108905D02*
X152767763Y-119108905D01*
X152843953Y-119147000D01*
X152882048Y-119185095D01*
X152920144Y-119261286D01*
X152958239Y-119413667D01*
X152958239Y-119604143D01*
X152920144Y-119756524D01*
X152882048Y-119832714D01*
X152843953Y-119870810D01*
X152767763Y-119908905D01*
X152691572Y-119908905D01*
X152615382Y-119870810D01*
X152577286Y-119832714D01*
X152539191Y-119756524D01*
X152501096Y-119604143D01*
X152501096Y-119413667D01*
X152539191Y-119261286D01*
X152577286Y-119185095D01*
X152615382Y-119147000D01*
X152691572Y-119108905D01*
X153224906Y-119108905D02*
X153720144Y-119108905D01*
X153453477Y-119413667D01*
X153567763Y-119413667D01*
X153643953Y-119451762D01*
X153682049Y-119489857D01*
X153720144Y-119566048D01*
X153720144Y-119756524D01*
X153682049Y-119832714D01*
X153643953Y-119870810D01*
X153567763Y-119908905D01*
X153339191Y-119908905D01*
X153263001Y-119870810D01*
X153224906Y-119832714D01*
D12*
X148993143Y-121058000D02*
X149157429Y-121124667D01*
X149212190Y-121191333D01*
X149266952Y-121324667D01*
X149266952Y-121524667D01*
X149212190Y-121658000D01*
X149157429Y-121724667D01*
X149047905Y-121791333D01*
X148609810Y-121791333D01*
X148609810Y-120391333D01*
X148993143Y-120391333D01*
X149102667Y-120458000D01*
X149157429Y-120524667D01*
X149212190Y-120658000D01*
X149212190Y-120791333D01*
X149157429Y-120924667D01*
X149102667Y-120991333D01*
X148993143Y-121058000D01*
X148609810Y-121058000D01*
X149759810Y-121791333D02*
X149759810Y-120391333D01*
X150197905Y-120391333D01*
X150307429Y-120458000D01*
X150362190Y-120524667D01*
X150416952Y-120658000D01*
X150416952Y-120858000D01*
X150362190Y-120991333D01*
X150307429Y-121058000D01*
X150197905Y-121124667D01*
X149759810Y-121124667D01*
X150909810Y-120858000D02*
X150909810Y-121791333D01*
X150909810Y-120991333D02*
X150964571Y-120924667D01*
X151074095Y-120858000D01*
X151238381Y-120858000D01*
X151347905Y-120924667D01*
X151402667Y-121058000D01*
X151402667Y-121791333D01*
X152114571Y-121791333D02*
X152005047Y-121724667D01*
X151950286Y-121658000D01*
X151895524Y-121524667D01*
X151895524Y-121124667D01*
X151950286Y-120991333D01*
X152005047Y-120924667D01*
X152114571Y-120858000D01*
X152278857Y-120858000D01*
X152388381Y-120924667D01*
X152443143Y-120991333D01*
X152497905Y-121124667D01*
X152497905Y-121524667D01*
X152443143Y-121658000D01*
X152388381Y-121724667D01*
X152278857Y-121791333D01*
X152114571Y-121791333D01*
X153483619Y-121791333D02*
X153483619Y-120391333D01*
X153483619Y-121724667D02*
X153374095Y-121791333D01*
X153155047Y-121791333D01*
X153045523Y-121724667D01*
X152990762Y-121658000D01*
X152936000Y-121524667D01*
X152936000Y-121124667D01*
X152990762Y-120991333D01*
X153045523Y-120924667D01*
X153155047Y-120858000D01*
X153374095Y-120858000D01*
X153483619Y-120924667D01*
X154469333Y-121724667D02*
X154359809Y-121791333D01*
X154140761Y-121791333D01*
X154031238Y-121724667D01*
X153976476Y-121591333D01*
X153976476Y-121058000D01*
X154031238Y-120924667D01*
X154140761Y-120858000D01*
X154359809Y-120858000D01*
X154469333Y-120924667D01*
X154524095Y-121058000D01*
X154524095Y-121191333D01*
X153976476Y-121324667D01*
X156276475Y-121058000D02*
X156440761Y-121124667D01*
X156495522Y-121191333D01*
X156550284Y-121324667D01*
X156550284Y-121524667D01*
X156495522Y-121658000D01*
X156440761Y-121724667D01*
X156331237Y-121791333D01*
X155893142Y-121791333D01*
X155893142Y-120391333D01*
X156276475Y-120391333D01*
X156385999Y-120458000D01*
X156440761Y-120524667D01*
X156495522Y-120658000D01*
X156495522Y-120791333D01*
X156440761Y-120924667D01*
X156385999Y-120991333D01*
X156276475Y-121058000D01*
X155893142Y-121058000D01*
X157426475Y-121058000D02*
X157590761Y-121124667D01*
X157645522Y-121191333D01*
X157700284Y-121324667D01*
X157700284Y-121524667D01*
X157645522Y-121658000D01*
X157590761Y-121724667D01*
X157481237Y-121791333D01*
X157043142Y-121791333D01*
X157043142Y-120391333D01*
X157426475Y-120391333D01*
X157535999Y-120458000D01*
X157590761Y-120524667D01*
X157645522Y-120658000D01*
X157645522Y-120791333D01*
X157590761Y-120924667D01*
X157535999Y-120991333D01*
X157426475Y-121058000D01*
X157043142Y-121058000D01*
D11*
X147990000Y-87460000D02*
X147940000Y-87460000D01*
X147990000Y-91610000D02*
X147845000Y-91610000D01*
X142840000Y-91610000D02*
X142985000Y-91610000D01*
X142840000Y-87460000D02*
X142985000Y-87460000D01*
X147990000Y-87460000D02*
X147990000Y-91610000D01*
X142840000Y-87460000D02*
X142840000Y-91610000D01*
X147940000Y-87460000D02*
X147940000Y-86060000D01*
D13*
X144153000Y-84670000D02*
X145153000Y-84670000D01*
X145153000Y-82970000D02*
X144153000Y-82970000D01*
D11*
X155180000Y-92110000D02*
X155180000Y-93310000D01*
X153430000Y-93310000D02*
X153430000Y-92110000D01*
X154674000Y-83935000D02*
X149474000Y-83935000D01*
X149474000Y-83935000D02*
X149474000Y-89135000D01*
X149474000Y-89135000D02*
X154674000Y-89135000D01*
X154674000Y-89135000D02*
X154674000Y-83935000D01*
X146650000Y-95490000D02*
X145450000Y-95490000D01*
X145450000Y-93740000D02*
X146650000Y-93740000D01*
X146650000Y-97395000D02*
X145450000Y-97395000D01*
X145450000Y-95645000D02*
X146650000Y-95645000D01*
X149606000Y-111887000D02*
X149606000Y-109982000D01*
X146431000Y-111887000D02*
X149606000Y-111887000D01*
X146431000Y-109982000D02*
X146431000Y-111887000D01*
X149606000Y-109982000D02*
X146431000Y-109982000D01*
X149606000Y-108077000D02*
X149606000Y-102997000D01*
X143891000Y-108077000D02*
X149606000Y-108077000D01*
X143891000Y-102997000D02*
X143891000Y-108077000D01*
X149606000Y-102997000D02*
X143891000Y-102997000D01*
X155066000Y-115442000D02*
X155066000Y-99442000D01*
X139066000Y-115442000D02*
X155066000Y-115442000D01*
X139066000Y-99442000D02*
X139066000Y-115442000D01*
X155066000Y-99442000D02*
X139066000Y-99442000D01*
D14*
X146134000Y-119680000D02*
X146134000Y-119080000D01*
X146534000Y-119680000D02*
X146034000Y-119680000D01*
X146534000Y-119680000D02*
X146534000Y-119080000D01*
X146534000Y-119080000D02*
X146034000Y-119080000D01*
X145234000Y-119380000D02*
G75*
G03X145234000Y-119380000I-200000J0D01*
G01*
X146034000Y-119380000D02*
G75*
G03X146034000Y-119380000I-1000000J0D01*
G01*
X143734000Y-118080000D02*
X143734000Y-120680000D01*
X143734000Y-120680000D02*
X146334000Y-120680000D01*
X146334000Y-120680000D02*
X146334000Y-118080000D01*
X146334000Y-118080000D02*
X143734000Y-118080000D01*
D11*
X144805476Y-89096905D02*
X144805476Y-89744524D01*
X144843571Y-89820714D01*
X144881667Y-89858810D01*
X144957857Y-89896905D01*
X145110238Y-89896905D01*
X145186429Y-89858810D01*
X145224524Y-89820714D01*
X145262619Y-89744524D01*
X145262619Y-89096905D01*
X145567381Y-89096905D02*
X146062619Y-89096905D01*
X145795952Y-89401667D01*
X145910238Y-89401667D01*
X145986428Y-89439762D01*
X146024524Y-89477857D01*
X146062619Y-89554048D01*
X146062619Y-89744524D01*
X146024524Y-89820714D01*
X145986428Y-89858810D01*
X145910238Y-89896905D01*
X145681666Y-89896905D01*
X145605476Y-89858810D01*
X145567381Y-89820714D01*
X147821667Y-84105714D02*
X147783572Y-84143810D01*
X147669286Y-84181905D01*
X147593096Y-84181905D01*
X147478810Y-84143810D01*
X147402619Y-84067619D01*
X147364524Y-83991429D01*
X147326429Y-83839048D01*
X147326429Y-83724762D01*
X147364524Y-83572381D01*
X147402619Y-83496190D01*
X147478810Y-83420000D01*
X147593096Y-83381905D01*
X147669286Y-83381905D01*
X147783572Y-83420000D01*
X147821667Y-83458095D01*
X148583572Y-84181905D02*
X148126429Y-84181905D01*
X148355000Y-84181905D02*
X148355000Y-83381905D01*
X148278810Y-83496190D01*
X148202619Y-83572381D01*
X148126429Y-83610476D01*
X154171667Y-96246905D02*
X153905000Y-95865952D01*
X153714524Y-96246905D02*
X153714524Y-95446905D01*
X154019286Y-95446905D01*
X154095477Y-95485000D01*
X154133572Y-95523095D01*
X154171667Y-95599286D01*
X154171667Y-95713571D01*
X154133572Y-95789762D01*
X154095477Y-95827857D01*
X154019286Y-95865952D01*
X153714524Y-95865952D01*
X154933572Y-96246905D02*
X154476429Y-96246905D01*
X154705000Y-96246905D02*
X154705000Y-95446905D01*
X154628810Y-95561190D01*
X154552619Y-95637381D01*
X154476429Y-95675476D01*
X142741667Y-94976905D02*
X142475000Y-94595952D01*
X142284524Y-94976905D02*
X142284524Y-94176905D01*
X142589286Y-94176905D01*
X142665477Y-94215000D01*
X142703572Y-94253095D01*
X142741667Y-94329286D01*
X142741667Y-94443571D01*
X142703572Y-94519762D01*
X142665477Y-94557857D01*
X142589286Y-94595952D01*
X142284524Y-94595952D01*
X143046429Y-94253095D02*
X143084524Y-94215000D01*
X143160715Y-94176905D01*
X143351191Y-94176905D01*
X143427381Y-94215000D01*
X143465477Y-94253095D01*
X143503572Y-94329286D01*
X143503572Y-94405476D01*
X143465477Y-94519762D01*
X143008334Y-94976905D01*
X143503572Y-94976905D01*
X142741667Y-96881905D02*
X142475000Y-96500952D01*
X142284524Y-96881905D02*
X142284524Y-96081905D01*
X142589286Y-96081905D01*
X142665477Y-96120000D01*
X142703572Y-96158095D01*
X142741667Y-96234286D01*
X142741667Y-96348571D01*
X142703572Y-96424762D01*
X142665477Y-96462857D01*
X142589286Y-96500952D01*
X142284524Y-96500952D01*
X143008334Y-96081905D02*
X143503572Y-96081905D01*
X143236905Y-96386667D01*
X143351191Y-96386667D01*
X143427381Y-96424762D01*
X143465477Y-96462857D01*
X143503572Y-96539048D01*
X143503572Y-96729524D01*
X143465477Y-96805714D01*
X143427381Y-96843810D01*
X143351191Y-96881905D01*
X143122619Y-96881905D01*
X143046429Y-96843810D01*
X143008334Y-96805714D01*
D15*
X144145000Y-122047000D02*
X144507857Y-122047000D01*
X144072428Y-122264714D02*
X144326428Y-121502714D01*
X144580428Y-122264714D01*
X144834429Y-121865571D02*
X145088429Y-121865571D01*
X145197286Y-122264714D02*
X144834429Y-122264714D01*
X144834429Y-121502714D01*
X145197286Y-121502714D01*
X145923000Y-122264714D02*
X145487572Y-122264714D01*
X145705286Y-122264714D02*
X145705286Y-121502714D01*
X145632715Y-121611571D01*
X145560143Y-121684143D01*
X145487572Y-121720429D01*
M02*
